<svg width="617" height="87" viewBox="0 0 617 87" fill="none" xmlns="http://www.w3.org/2000/svg">
<g opacity="0.11">
<mask id="path-1-outside-1_439_3252" maskUnits="userSpaceOnUse" x="-4" y="-3" width="624" height="93" fill="black">
<rect fill="white" x="-4" y="-3" width="624" height="93"/>
<path d="M56.385 71.74H26.255L21.425 86H0.84L30.05 5.27H52.82L82.03 86L61.215 86L56.385 71.74ZM51.325 56.56L41.32 27.005L31.43 56.56H51.325ZM123.81 30.915C125.65 27.925 128.295 25.51 131.745 23.67C135.195 21.83 139.143 20.91 143.59 20.91C148.88 20.91 153.672 22.2517 157.965 24.935C162.258 27.6183 165.632 31.4517 168.085 36.435C170.615 41.4183 171.88 47.2067 171.88 53.8C171.88 60.3933 170.615 66.22 168.085 71.28C165.632 76.2633 162.258 80.135 157.965 82.895C153.672 85.5783 148.88 86.92 143.59 86.92C139.067 86.92 135.118 86.0383 131.745 84.275C128.372 82.435 125.727 80.02 123.81 77.03V86H104.145L104.145 0.899999L123.81 0.899999V30.915ZM151.87 53.8C151.87 48.8933 150.49 45.06 147.73 42.3C145.047 39.4633 141.712 38.045 137.725 38.045C133.815 38.045 130.48 39.4633 127.72 42.3C125.037 45.1367 123.695 49.0083 123.695 53.915C123.695 58.8217 125.037 62.6933 127.72 65.53C130.48 68.3667 133.815 69.785 137.725 69.785C141.635 69.785 144.97 68.3667 147.73 65.53C150.49 62.6167 151.87 58.7067 151.87 53.8ZM224.632 86.92C218.345 86.92 212.672 85.5783 207.612 82.895C202.628 80.2117 198.68 76.3783 195.767 71.395C192.93 66.4117 191.512 60.585 191.512 53.915C191.512 47.3217 192.968 41.5333 195.882 36.55C198.795 31.49 202.782 27.6183 207.842 24.935C212.902 22.2517 218.575 20.91 224.862 20.91C231.148 20.91 236.822 22.2517 241.882 24.935C246.942 27.6183 250.928 31.49 253.842 36.55C256.755 41.5333 258.212 47.3217 258.212 53.915C258.212 60.5083 256.717 66.335 253.727 71.395C250.813 76.3783 246.788 80.2117 241.652 82.895C236.592 85.5783 230.918 86.92 224.632 86.92ZM224.632 69.9C228.388 69.9 231.57 68.52 234.177 65.76C236.86 63 238.202 59.0517 238.202 53.915C238.202 48.7783 236.898 44.83 234.292 42.07C231.762 39.31 228.618 37.93 224.862 37.93C221.028 37.93 217.847 39.31 215.317 42.07C212.787 44.7533 211.522 48.7017 211.522 53.915C211.522 59.0517 212.748 63 215.202 65.76C217.732 68.52 220.875 69.9 224.632 69.9ZM345.234 21.83V86H325.569V77.26C323.576 80.0967 320.854 82.3967 317.404 84.16C314.031 85.8467 310.274 86.69 306.134 86.69C301.228 86.69 296.896 85.6167 293.139 83.47C289.383 81.2467 286.469 78.065 284.399 73.925C282.329 69.785 281.294 64.9167 281.294 59.32V21.83H300.844V56.675C300.844 60.9683 301.956 64.3033 304.179 66.68C306.403 69.0567 309.393 70.245 313.149 70.245C316.983 70.245 320.011 69.0567 322.234 66.68C324.458 64.3033 325.569 60.9683 325.569 56.675V21.83H345.234ZM408.35 69.325V86H398.345C391.215 86 385.656 84.275 381.67 80.825C377.683 77.2983 375.69 71.5867 375.69 63.69V38.16H367.87V21.83H375.69V6.19L395.355 6.19V21.83L408.235 21.83V38.16L395.355 38.16V63.92C395.355 65.8367 395.815 67.2167 396.735 68.06C397.655 68.9033 399.188 69.325 401.335 69.325H408.35ZM489.444 5.27V53.57C489.444 58.4 490.632 62.1183 493.009 64.725C495.385 67.3317 498.874 68.635 503.474 68.635C508.074 68.635 511.6 67.3317 514.054 64.725C516.507 62.1183 517.734 58.4 517.734 53.57V5.27L537.399 5.27V53.455C537.399 60.6617 535.865 66.7567 532.799 71.74C529.732 76.7233 525.592 80.48 520.379 83.01C515.242 85.54 509.492 86.805 503.129 86.805C496.765 86.805 491.054 85.5783 485.994 83.125C481.01 80.595 477.062 76.8383 474.149 71.855C471.235 66.795 469.779 60.6617 469.779 53.455V5.27L489.444 5.27ZM590.538 86.92C584.941 86.92 579.958 85.9617 575.588 84.045C571.218 82.1283 567.768 79.5217 565.238 76.225C562.708 72.8517 561.289 69.095 560.983 64.955H580.418C580.648 67.1783 581.683 68.98 583.523 70.36C585.363 71.74 587.624 72.43 590.308 72.43C592.761 72.43 594.639 71.97 595.943 71.05C597.323 70.0533 598.013 68.7883 598.013 67.255C598.013 65.415 597.054 64.0733 595.138 63.23C593.221 62.31 590.116 61.3133 585.823 60.24C581.223 59.1667 577.389 58.055 574.323 56.905C571.256 55.6783 568.611 53.8 566.388 51.27C564.164 48.6633 563.053 45.175 563.053 40.805C563.053 37.125 564.049 33.79 566.043 30.8C568.113 27.7333 571.103 25.3183 575.013 23.555C578.999 21.7917 583.714 20.91 589.158 20.91C597.208 20.91 603.533 22.9033 608.133 26.89C612.809 30.8767 615.493 36.1667 616.183 42.76L598.013 42.76C597.706 40.5367 596.709 38.7733 595.023 37.47C593.413 36.1667 591.266 35.515 588.583 35.515C586.283 35.515 584.519 35.975 583.293 36.895C582.066 37.7383 581.453 38.9267 581.453 40.46C581.453 42.3 582.411 43.68 584.328 44.6C586.321 45.52 589.388 46.44 593.528 47.36C598.281 48.5867 602.153 49.8133 605.143 51.04C608.133 52.19 610.739 54.1067 612.963 56.79C615.263 59.3967 616.451 62.9233 616.528 67.37C616.528 71.1267 615.454 74.5 613.308 77.49C611.238 80.4033 608.209 82.7033 604.223 84.39C600.313 86.0767 595.751 86.92 590.538 86.92Z"/>
</mask>
<path d="M56.385 71.74L59.2264 70.7776L58.5363 68.74H56.385V71.74ZM26.255 71.74V68.74H24.1037L23.4136 70.7776L26.255 71.74ZM21.425 86V89H23.5763L24.2664 86.9624L21.425 86ZM0.84 86L-1.98102 84.9793L-3.43581 89H0.84L0.84 86ZM30.05 5.27V2.27H27.9451L27.229 4.24929L30.05 5.27ZM52.82 5.27L55.641 4.24929L54.9249 2.27H52.82V5.27ZM82.03 86V89H86.3058L84.851 84.9793L82.03 86ZM61.215 86L58.3736 86.9624L59.0637 89H61.215V86ZM51.325 56.56V59.56H55.5078L54.1666 55.5981L51.325 56.56ZM41.32 27.005L44.1616 26.0431L41.3036 17.6004L38.4751 26.053L41.32 27.005ZM31.43 56.56L28.5851 55.608L27.2626 59.56H31.43V56.56ZM56.385 68.74H26.255V74.74H56.385V68.74ZM23.4136 70.7776L18.5836 85.0376L24.2664 86.9624L29.0964 72.7024L23.4136 70.7776ZM21.425 83H0.84L0.84 89H21.425V83ZM3.66102 87.0207L32.871 6.29071L27.229 4.24929L-1.98102 84.9793L3.66102 87.0207ZM30.05 8.27H52.82V2.27L30.05 2.27L30.05 8.27ZM49.999 6.29071L79.209 87.0207L84.851 84.9793L55.641 4.24929L49.999 6.29071ZM82.03 83L61.215 83V89L82.03 89V83ZM64.0564 85.0376L59.2264 70.7776L53.5436 72.7024L58.3736 86.9624L64.0564 85.0376ZM54.1666 55.5981L44.1616 26.0431L38.4784 27.9669L48.4834 57.5219L54.1666 55.5981ZM38.4751 26.053L28.5851 55.608L34.2749 57.512L44.1649 27.957L38.4751 26.053ZM31.43 59.56H51.325V53.56H31.43V59.56ZM123.81 30.915H120.81V41.5141L126.365 32.4873L123.81 30.915ZM131.745 23.67L130.333 21.0229H130.333L131.745 23.67ZM157.965 24.935L156.375 27.479L157.965 24.935ZM168.085 36.435L165.394 37.76L165.402 37.7766L165.41 37.7931L168.085 36.435ZM168.085 71.28L165.402 69.9384L165.398 69.9466L165.394 69.9549L168.085 71.28ZM157.965 82.895L159.555 85.439L159.571 85.4289L159.587 85.4185L157.965 82.895ZM131.745 84.275L130.308 86.9087L130.332 86.9214L130.355 86.9337L131.745 84.275ZM123.81 77.03L126.336 75.411L120.81 66.791V77.03H123.81ZM123.81 86V89H126.81V86H123.81ZM104.145 86H101.145V89H104.145V86ZM104.145 0.899999V-2.1H101.145V0.899999H104.145ZM123.81 0.899999H126.81V-2.1H123.81V0.899999ZM147.73 42.3L145.551 44.3616L145.579 44.3919L145.609 44.4213L147.73 42.3ZM127.72 42.3L125.57 40.2079L125.555 40.2231L125.541 40.2384L127.72 42.3ZM127.72 65.53L125.541 67.5916L125.555 67.6069L125.57 67.6221L127.72 65.53ZM147.73 65.53L149.88 67.6221L149.894 67.6077L149.908 67.5932L147.73 65.53ZM126.365 32.4873C127.895 30.0007 130.122 27.9358 133.157 26.3171L130.333 21.0229C126.468 23.0842 123.405 25.8493 121.255 29.3427L126.365 32.4873ZM133.157 26.3171C136.116 24.7389 139.567 23.91 143.59 23.91V17.91C138.719 17.91 134.274 18.9211 130.333 21.0229L133.157 26.3171ZM143.59 23.91C148.344 23.91 152.58 25.1074 156.375 27.479L159.555 22.391C154.763 19.3959 149.416 17.91 143.59 17.91V23.91ZM156.375 27.479C160.15 29.838 163.162 33.2273 165.394 37.76L170.777 35.1099C168.101 29.676 164.367 25.3986 159.555 22.391L156.375 27.479ZM165.41 37.7931C167.691 42.2862 168.88 47.5941 168.88 53.8H174.88C174.88 46.8192 173.539 40.5505 170.76 35.0769L165.41 37.7931ZM168.88 53.8C168.88 60.0046 167.692 65.3587 165.402 69.9384L170.768 72.6216C173.538 67.0813 174.88 60.7821 174.88 53.8H168.88ZM165.394 69.9549C163.159 74.4937 160.137 77.9322 156.343 80.3715L159.587 85.4185C164.38 82.3378 168.104 78.033 170.777 72.605L165.394 69.9549ZM156.375 80.351C152.58 82.7226 148.344 83.92 143.59 83.92V89.92C149.416 89.92 154.763 88.434 159.555 85.439L156.375 80.351ZM143.59 83.92C139.46 83.92 136.005 83.1169 133.135 81.6163L130.355 86.9337C134.231 88.9598 138.673 89.92 143.59 89.92V83.92ZM133.182 81.6413C130.214 80.0224 127.958 77.9423 126.336 75.411L121.284 78.649C123.495 82.0977 126.53 84.8476 130.308 86.9087L133.182 81.6413ZM120.81 77.03V86H126.81V77.03H120.81ZM123.81 83H104.145V89H123.81V83ZM107.145 86L107.145 0.899999H101.145L101.145 86H107.145ZM104.145 3.9L123.81 3.9V-2.1L104.145 -2.1V3.9ZM120.81 0.899999V30.915H126.81V0.899999H120.81ZM154.87 53.8C154.87 48.3133 153.31 43.6373 149.851 40.1787L145.609 44.4213C147.67 46.4826 148.87 49.4733 148.87 53.8H154.87ZM149.909 40.2384C146.646 36.7886 142.517 35.045 137.725 35.045V41.045C140.907 41.045 143.447 42.138 145.551 44.3616L149.909 40.2384ZM137.725 35.045C132.994 35.045 128.887 36.7988 125.57 40.2079L129.87 44.3921C132.073 42.1279 134.636 41.045 137.725 41.045V35.045ZM125.541 40.2384C122.204 43.7655 120.695 48.4472 120.695 53.915H126.695C126.695 49.5694 127.869 46.5078 129.899 44.3616L125.541 40.2384ZM120.695 53.915C120.695 59.3828 122.204 64.0645 125.541 67.5916L129.899 63.4684C127.869 61.3222 126.695 58.2606 126.695 53.915H120.695ZM125.57 67.6221C128.887 71.0312 132.994 72.785 137.725 72.785V66.785C134.636 66.785 132.073 65.7021 129.87 63.4379L125.57 67.6221ZM137.725 72.785C142.456 72.785 146.563 71.0312 149.88 67.6221L145.58 63.4379C143.377 65.7021 140.814 66.785 137.725 66.785V72.785ZM149.908 67.5932C153.308 64.0042 154.87 59.2939 154.87 53.8H148.87C148.87 58.1194 147.672 61.2291 145.552 63.4668L149.908 67.5932ZM207.612 82.895L206.189 85.5364L206.198 85.5409L206.206 85.5454L207.612 82.895ZM195.767 71.395L193.16 72.8791L193.168 72.8941L193.177 72.9091L195.767 71.395ZM195.882 36.55L198.472 38.0641L198.477 38.0555L198.482 38.0469L195.882 36.55ZM207.842 24.935L209.247 27.5854L207.842 24.935ZM241.882 24.935L240.476 27.5854L241.882 24.935ZM253.842 36.55L251.242 38.0469L251.247 38.0555L251.252 38.0641L253.842 36.55ZM253.727 71.395L251.144 69.8688L251.137 69.8809L253.727 71.395ZM241.652 82.895L240.263 80.236L240.255 80.2403L240.246 80.2446L241.652 82.895ZM234.177 65.76L232.026 63.6688L232.011 63.6843L231.996 63.7001L234.177 65.76ZM234.292 42.07L232.08 44.0972L232.095 44.1136L232.111 44.1299L234.292 42.07ZM215.317 42.07L217.5 44.128L217.514 44.1127L217.528 44.0972L215.317 42.07ZM215.202 65.76L212.96 67.7531L212.975 67.7702L212.99 67.7872L215.202 65.76ZM224.632 83.92C218.786 83.92 213.603 82.6765 209.017 80.2446L206.206 85.5454C211.74 88.4801 217.904 89.92 224.632 89.92V83.92ZM209.034 80.2536C204.546 77.837 200.998 74.3983 198.357 69.8809L193.177 72.9091C196.363 78.3584 200.711 82.5863 206.189 85.5364L209.034 80.2536ZM198.374 69.9109C195.834 65.4489 194.512 60.1503 194.512 53.915H188.512C188.512 61.0197 190.026 67.3744 193.16 72.8791L198.374 69.9109ZM194.512 53.915C194.512 47.7768 195.863 42.5258 198.472 38.0641L193.292 35.0359C190.074 40.5408 188.512 46.8665 188.512 53.915H194.512ZM198.482 38.0469C201.119 33.4661 204.696 29.9989 209.247 27.5854L206.436 22.2846C200.867 25.2378 196.471 29.5139 193.282 35.0531L198.482 38.0469ZM209.247 27.5854C213.833 25.1535 219.016 23.91 224.862 23.91V17.91C218.134 17.91 211.97 19.3499 206.436 22.2846L209.247 27.5854ZM224.862 23.91C230.707 23.91 235.89 25.1535 240.476 27.5854L243.287 22.2846C237.753 19.3499 231.59 17.91 224.862 17.91V23.91ZM240.476 27.5854C245.027 29.9989 248.604 33.4661 251.242 38.0469L256.442 35.0531C253.252 29.5139 248.856 25.2378 243.287 22.2846L240.476 27.5854ZM251.252 38.0641C253.86 42.5258 255.212 47.7768 255.212 53.915H261.212C261.212 46.8665 259.65 40.5408 256.432 35.0359L251.252 38.0641ZM255.212 53.915C255.212 60.0384 253.829 65.3255 251.144 69.8688L256.31 72.9212C259.605 67.3445 261.212 60.9783 261.212 53.915H255.212ZM251.137 69.8809C248.509 74.3752 244.902 77.8127 240.263 80.236L243.041 85.554C248.675 82.6106 253.117 78.3814 256.317 72.9091L251.137 69.8809ZM240.246 80.2446C235.66 82.6765 230.477 83.92 224.632 83.92V89.92C231.36 89.92 237.523 88.4801 243.057 85.5454L240.246 80.2446ZM224.632 72.9C229.224 72.9 233.191 71.1727 236.358 67.8199L231.996 63.7001C229.949 65.8673 227.553 66.9 224.632 66.9V72.9ZM236.328 67.8512C239.718 64.3644 241.202 59.5641 241.202 53.915H235.202C235.202 58.5392 234.002 61.6356 232.026 63.6688L236.328 67.8512ZM241.202 53.915C241.202 48.2879 239.768 43.4994 236.473 40.0101L232.111 44.1299C234.029 46.1606 235.202 49.2688 235.202 53.915H241.202ZM236.503 40.0428C233.403 36.6606 229.456 34.93 224.862 34.93V40.93C227.781 40.93 230.121 41.9594 232.08 44.0972L236.503 40.0428ZM224.862 34.93C220.21 34.93 216.219 36.6464 213.105 40.0428L217.528 44.0972C219.475 41.9736 221.847 40.93 224.862 40.93V34.93ZM213.134 40.012C209.896 43.4464 208.522 48.2537 208.522 53.915H214.522C214.522 49.1496 215.678 46.0603 217.5 44.128L213.134 40.012ZM208.522 53.915C208.522 59.4992 209.856 64.2617 212.96 67.7531L217.444 63.7669C215.641 61.7383 214.522 58.6042 214.522 53.915H208.522ZM212.99 67.7872C216.091 71.1694 220.037 72.9 224.632 72.9V66.9C221.713 66.9 219.373 65.8706 217.413 63.7328L212.99 67.7872ZM345.234 21.83H348.234V18.83H345.234V21.83ZM345.234 86V89H348.234V86H345.234ZM325.569 86H322.569V89H325.569V86ZM325.569 77.26H328.569V67.7729L323.115 75.5352L325.569 77.26ZM317.404 84.16L318.746 86.8433L318.758 86.8373L318.77 86.8313L317.404 84.16ZM293.139 83.47L291.611 86.0517L291.631 86.0634L291.651 86.0747L293.139 83.47ZM284.399 73.925L281.716 75.2666L284.399 73.925ZM281.294 21.83V18.83H278.294V21.83H281.294ZM300.844 21.83H303.844V18.83H300.844V21.83ZM304.179 66.68L301.989 68.7295L304.179 66.68ZM325.569 21.83V18.83H322.569V21.83L325.569 21.83ZM342.234 21.83V86H348.234V21.83H342.234ZM345.234 83H325.569V89H345.234V83ZM328.569 86V77.26H322.569V86H328.569ZM323.115 75.5352C321.434 77.9273 319.106 79.921 316.039 81.4887L318.77 86.8313C322.603 84.8723 325.718 82.266 328.024 78.9848L323.115 75.5352ZM316.063 81.4767C313.146 82.9354 309.855 83.69 306.134 83.69V89.69C310.694 89.69 314.917 88.758 318.746 86.8433L316.063 81.4767ZM306.134 83.69C301.679 83.69 297.873 82.7197 294.628 80.8653L291.651 86.0747C295.919 88.5136 300.777 89.69 306.134 89.69V83.69ZM294.667 80.8883C291.438 78.9767 288.911 76.2402 287.083 72.5834L281.716 75.2666C284.028 79.8898 287.328 83.5166 291.611 86.0517L294.667 80.8883ZM287.083 72.5834C285.26 68.9382 284.294 64.5471 284.294 59.32H278.294C278.294 65.2862 279.399 70.6318 281.716 75.2666L287.083 72.5834ZM284.294 59.32V21.83H278.294V59.32H284.294ZM281.294 24.83H300.844V18.83H281.294V24.83ZM297.844 21.83V56.675H303.844V21.83H297.844ZM297.844 56.675C297.844 61.48 299.097 65.6383 301.989 68.7295L306.37 64.6305C304.815 62.9683 303.844 60.4567 303.844 56.675H297.844ZM301.989 68.7295C304.868 71.8079 308.703 73.245 313.149 73.245V67.245C310.083 67.245 307.937 66.3055 306.37 64.6305L301.989 68.7295ZM313.149 73.245C317.652 73.245 321.533 71.8207 324.425 68.7295L320.044 64.6305C318.489 66.2927 316.313 67.245 313.149 67.245V73.245ZM324.425 68.7295C327.317 65.6383 328.569 61.48 328.569 56.675H322.569C322.569 60.4567 321.599 62.9683 320.044 64.6305L324.425 68.7295ZM328.569 56.675V21.83L322.569 21.83V56.675H328.569ZM325.569 24.83H345.234V18.83L325.569 18.83V24.83ZM408.35 69.325H411.35V66.325H408.35V69.325ZM408.35 86V89H411.35V86H408.35ZM381.67 80.825L379.682 83.072L379.694 83.0828L379.707 83.0935L381.67 80.825ZM375.69 38.16H378.69V35.16H375.69V38.16ZM367.87 38.16H364.87V41.16H367.87V38.16ZM367.87 21.83V18.83H364.87V21.83H367.87ZM375.69 21.83V24.83H378.69V21.83H375.69ZM375.69 6.19V3.19H372.69V6.19H375.69ZM395.355 6.19H398.355V3.19H395.355V6.19ZM395.355 21.83H392.355V24.83H395.355V21.83ZM408.235 21.83H411.235V18.83H408.235V21.83ZM408.235 38.16V41.16H411.235V38.16H408.235ZM395.355 38.16V35.16H392.355V38.16H395.355ZM396.735 68.06L394.708 70.2715L396.735 68.06ZM405.35 69.325V86H411.35V69.325H405.35ZM408.35 83H398.345V89H408.35V83ZM398.345 83C391.68 83 386.908 81.3907 383.633 78.5565L379.707 83.0935C384.405 87.1593 390.749 89 398.345 89V83ZM383.657 78.578C380.574 75.8501 378.69 71.1479 378.69 63.69H372.69C372.69 72.0255 374.792 78.7466 379.682 83.072L383.657 78.578ZM378.69 63.69V38.16H372.69V63.69H378.69ZM375.69 35.16H367.87V41.16H375.69V35.16ZM370.87 38.16V21.83H364.87V38.16H370.87ZM367.87 24.83H375.69V18.83H367.87V24.83ZM378.69 21.83V6.19L372.69 6.19V21.83H378.69ZM375.69 9.19L395.355 9.19V3.19L375.69 3.19V9.19ZM392.355 6.19V21.83L398.355 21.83V6.19H392.355ZM395.355 24.83L408.235 24.83V18.83H395.355V24.83ZM405.235 21.83V38.16H411.235V21.83H405.235ZM408.235 35.16L395.355 35.16V41.16L408.235 41.16V35.16ZM392.355 38.16V63.92H398.355V38.16L392.355 38.16ZM392.355 63.92C392.355 66.2306 392.901 68.6154 394.708 70.2715L398.762 65.8485C398.728 65.8179 398.355 65.4428 398.355 63.92H392.355ZM394.708 70.2715C396.462 71.8798 398.935 72.325 401.335 72.325V66.325C399.441 66.325 398.847 65.9268 398.762 65.8485L394.708 70.2715ZM401.335 72.325H408.35V66.325H401.335V72.325ZM489.444 5.27H492.444V2.27H489.444V5.27ZM493.009 64.725L490.792 66.7463L493.009 64.725ZM514.054 64.725L516.238 66.7811V66.7811L514.054 64.725ZM517.734 5.27V2.27H514.734V5.27H517.734ZM537.399 5.27H540.399V2.27H537.399V5.27ZM532.799 71.74L535.354 73.3123L532.799 71.74ZM520.379 83.01L519.069 80.311L519.061 80.3149L519.053 80.3187L520.379 83.01ZM485.994 83.125L484.635 85.8L484.66 85.8124L484.685 85.8244L485.994 83.125ZM474.149 71.855L471.549 73.3519L471.554 73.3605L471.559 73.3691L474.149 71.855ZM469.779 5.27V2.27H466.779V5.27H469.779ZM486.444 5.27V53.57H492.444V5.27L486.444 5.27ZM486.444 53.57C486.444 58.8691 487.751 63.4108 490.792 66.7463L495.225 62.7037C493.513 60.8259 492.444 57.9309 492.444 53.57H486.444ZM490.792 66.7463C493.897 70.1519 498.301 71.635 503.474 71.635V65.635C499.446 65.635 496.874 64.5114 495.225 62.7037L490.792 66.7463ZM503.474 71.635C508.652 71.635 513.067 70.1503 516.238 66.7811L511.869 62.6689C510.133 64.5131 507.496 65.635 503.474 65.635V71.635ZM516.238 66.7811C519.376 63.4472 520.734 58.8921 520.734 53.57H514.734C514.734 57.9079 513.638 60.7895 511.869 62.6689L516.238 66.7811ZM520.734 53.57V5.27H514.734V53.57H520.734ZM517.734 8.27L537.399 8.27V2.27L517.734 2.27V8.27ZM534.399 5.27V53.455H540.399V5.27H534.399ZM534.399 53.455C534.399 60.2349 532.959 65.7558 530.244 70.1677L535.354 73.3123C538.772 67.7576 540.399 61.0884 540.399 53.455H534.399ZM530.244 70.1677C527.473 74.6696 523.763 78.033 519.069 80.311L521.688 85.709C527.421 82.927 531.991 78.777 535.354 73.3123L530.244 70.1677ZM519.053 80.3187C514.373 82.6239 509.084 83.805 503.129 83.805V89.805C509.9 89.805 516.111 88.4561 521.704 85.7013L519.053 80.3187ZM503.129 83.805C497.159 83.805 491.904 82.6565 487.302 80.4256L484.685 85.8244C490.203 88.5002 496.372 89.805 503.129 89.805V83.805ZM487.352 80.45C482.899 78.1896 479.371 74.8443 476.738 70.3409L471.559 73.3691C474.753 78.8324 479.121 83.0004 484.635 85.8L487.352 80.45ZM476.748 70.3581C474.152 65.8487 472.779 60.2584 472.779 53.455H466.779C466.779 61.065 468.318 67.7413 471.549 73.3519L476.748 70.3581ZM472.779 53.455V5.27H466.779V53.455H472.779ZM469.779 8.27L489.444 8.27V2.27L469.779 2.27V8.27ZM575.588 84.045L576.793 81.2976L575.588 84.045ZM565.238 76.225L562.838 78.025L562.848 78.0383L562.858 78.0515L565.238 76.225ZM560.983 64.955V61.955H557.752L557.991 65.1766L560.983 64.955ZM580.418 64.955L583.402 64.6463L583.123 61.955H580.418V64.955ZM583.523 70.36L585.323 67.96L583.523 70.36ZM595.943 71.05L597.673 73.5009L597.686 73.4915L597.699 73.482L595.943 71.05ZM595.138 63.23L593.839 65.9346L593.884 65.956L593.929 65.9759L595.138 63.23ZM585.823 60.24L586.55 57.3296L586.527 57.3238L586.504 57.3185L585.823 60.24ZM574.323 56.905L573.208 59.6904L573.239 59.7025L573.269 59.714L574.323 56.905ZM566.388 51.27L564.105 53.2168L564.119 53.2337L564.134 53.2503L566.388 51.27ZM566.043 30.8L563.556 29.1216L563.551 29.1287L563.546 29.1359L566.043 30.8ZM575.013 23.555L573.799 20.8114L573.789 20.8158L573.779 20.8202L575.013 23.555ZM608.133 26.89L606.168 29.1571L606.177 29.1651L606.186 29.173L608.133 26.89ZM616.183 42.76V45.76H619.513L619.166 42.4478L616.183 42.76ZM598.013 42.76L595.041 43.1699L595.398 45.76H598.013V42.76ZM595.023 37.47L593.135 39.8017L593.161 39.8231L593.188 39.8439L595.023 37.47ZM583.293 36.895L584.992 39.3671L585.043 39.3321L585.093 39.295L583.293 36.895ZM584.328 44.6L583.029 47.3046L583.05 47.3144L583.07 47.3239L584.328 44.6ZM593.528 47.36L594.277 44.4552L594.228 44.4425L594.178 44.4314L593.528 47.36ZM605.143 51.04L604.004 53.8155L604.035 53.8281L604.066 53.84L605.143 51.04ZM612.963 56.79L610.652 58.7041L610.682 58.7399L610.713 58.7749L612.963 56.79ZM616.528 67.37H619.528V67.3441L619.527 67.3183L616.528 67.37ZM613.308 77.49L610.871 75.7404L610.866 75.7464L610.862 75.7524L613.308 77.49ZM604.223 84.39L603.054 81.6271L603.044 81.6312L603.034 81.6354L604.223 84.39ZM590.538 83.92C585.285 83.92 580.723 83.0214 576.793 81.2976L574.383 86.7924C579.192 88.9019 584.597 89.92 590.538 89.92V83.92ZM576.793 81.2976C572.816 79.5536 569.797 77.2381 567.617 74.3985L562.858 78.0515C565.738 81.8053 569.619 84.7031 574.383 86.7924L576.793 81.2976ZM567.638 74.425C565.446 71.5028 564.238 68.292 563.974 64.7334L557.991 65.1766C558.34 69.8979 559.969 74.2006 562.838 78.025L567.638 74.425ZM560.983 67.955H580.418V61.955H560.983V67.955ZM577.433 65.2637C577.752 68.3456 579.236 70.8948 581.723 72.76L585.323 67.96C584.129 67.0652 583.543 66.0111 583.402 64.6463L577.433 65.2637ZM581.723 72.76C584.165 74.5918 587.087 75.43 590.308 75.43V69.43C588.161 69.43 586.56 68.8882 585.323 67.96L581.723 72.76ZM590.308 75.43C593.069 75.43 595.657 74.9234 597.673 73.5009L594.213 68.5991C593.621 69.0166 592.453 69.43 590.308 69.43V75.43ZM597.699 73.482C599.76 71.9934 601.013 69.8684 601.013 67.255H595.013C595.013 67.7083 594.885 68.1133 594.186 68.618L597.699 73.482ZM601.013 67.255C601.013 65.7855 600.619 64.3631 599.735 63.125C598.868 61.9117 597.666 61.0651 596.346 60.4841L593.929 65.9759C594.525 66.2382 594.761 66.4841 594.853 66.6125C594.927 66.7161 595.013 66.8845 595.013 67.255H601.013ZM596.436 60.5254C594.23 59.4666 590.877 58.4112 586.55 57.3296L585.095 63.1504C589.355 64.2154 592.212 65.1534 593.839 65.9346L596.436 60.5254ZM586.504 57.3185C581.98 56.2629 578.281 55.1855 575.376 54.096L573.269 59.714C576.497 60.9245 580.465 62.0704 585.141 63.1615L586.504 57.3185ZM575.437 54.1196C572.817 53.0716 570.56 51.4727 568.641 49.2897L564.134 53.2503C566.662 56.1273 569.695 58.2851 573.208 59.6904L575.437 54.1196ZM568.67 49.3232C567.026 47.3953 566.053 44.6629 566.053 40.805H560.053C560.053 45.6871 561.303 49.9314 564.105 53.2168L568.67 49.3232ZM566.053 40.805C566.053 37.7021 566.882 34.9489 568.539 32.4641L563.546 29.1359C561.216 32.6311 560.053 36.5479 560.053 40.805H566.053ZM568.529 32.4784C570.241 29.9429 572.761 27.8612 576.246 26.2898L573.779 20.8202C569.444 22.7754 565.984 25.5238 563.556 29.1216L568.529 32.4784ZM576.226 26.2986C579.748 24.7408 584.031 23.91 589.158 23.91V17.91C583.397 17.91 578.25 18.8425 573.799 20.8114L576.226 26.2986ZM589.158 23.91C596.722 23.91 602.268 25.7777 606.168 29.1571L610.097 24.6229C604.797 20.029 597.693 17.91 589.158 17.91V23.91ZM606.186 29.173C610.228 32.6187 612.582 37.1785 613.199 43.0722L619.166 42.4478C618.403 35.1548 615.39 29.1346 610.079 24.607L606.186 29.173ZM616.183 39.76L598.013 39.76V45.76L616.183 45.76V39.76ZM600.984 42.3501C600.577 39.3941 599.201 36.9074 596.857 35.0961L593.188 39.8439C594.218 40.6393 594.835 41.6792 595.041 43.1699L600.984 42.3501ZM596.91 35.1383C594.626 33.2889 591.747 32.515 588.583 32.515V38.515C590.784 38.515 592.2 39.0445 593.135 39.8017L596.91 35.1383ZM588.583 32.515C585.942 32.515 583.44 33.0341 581.493 34.495L585.093 39.295C585.598 38.9159 586.623 38.515 588.583 38.515V32.515ZM581.593 34.4229C579.523 35.8457 578.453 37.9742 578.453 40.46H584.453C584.453 39.8791 584.608 39.631 584.992 39.3671L581.593 34.4229ZM578.453 40.46C578.453 41.9307 578.846 43.3459 579.707 44.5862C580.551 45.8015 581.725 46.6785 583.029 47.3046L585.626 41.8954C585.013 41.6015 584.75 41.3285 584.635 41.1638C584.538 41.0241 584.453 40.8293 584.453 40.46H578.453ZM583.07 47.3239C585.363 48.3819 588.683 49.3566 592.877 50.2886L594.178 44.4314C590.092 43.5234 587.279 42.6581 585.585 41.8761L583.07 47.3239ZM592.778 50.2648C597.459 51.4729 601.187 52.66 604.004 53.8155L606.281 48.2645C603.118 46.9666 599.103 45.7004 594.277 44.4552L592.778 50.2648ZM604.066 53.84C606.534 54.7894 608.728 56.3812 610.652 58.7041L615.273 54.8759C612.751 51.8322 609.731 49.5906 606.219 48.24L604.066 53.84ZM610.713 58.7749C612.422 60.7115 613.46 63.4842 613.528 67.4217L619.527 67.3183C619.442 62.3625 618.103 58.0818 615.212 54.8051L610.713 58.7749ZM613.528 67.37C613.528 70.5128 612.643 73.2715 610.871 75.7404L615.745 79.2396C618.265 75.7285 619.528 71.7406 619.528 67.37H613.528ZM610.862 75.7524C609.176 78.1248 606.637 80.1112 603.054 81.6271L605.391 87.1529C609.782 85.2954 613.299 82.6819 615.753 79.2276L610.862 75.7524ZM603.034 81.6354C599.574 83.1282 595.432 83.92 590.538 83.92V89.92C596.07 89.92 601.051 89.0251 605.411 87.1446L603.034 81.6354Z" fill="white" mask="url(#path-1-outside-1_439_3252)"/>
</g>
</svg>
