<svg width="787" height="117" viewBox="0 0 787 117" fill="none" xmlns="http://www.w3.org/2000/svg">
<g opacity="0.11">
<mask id="path-1-outside-1_491_653" maskUnits="userSpaceOnUse" x="-3" y="-3" width="795" height="123" fill="black">
<rect fill="white" x="-3" y="-3" width="795" height="123"/>
<path d="M0.795 45.52C0.795 37.5467 2.52 30.455 5.97 24.245C9.42 17.9583 14.2117 13.09 20.345 9.64C26.555 6.11333 33.57 4.35 41.39 4.35C50.9733 4.35 59.1767 6.88 66 11.94C72.8233 17 77.385 23.9 79.685 32.64H58.065C56.455 29.2667 54.155 26.6983 51.165 24.935C48.2517 23.1717 44.9167 22.29 41.16 22.29C35.1033 22.29 30.1967 24.3983 26.44 28.615C22.6833 32.8317 20.805 38.4667 20.805 45.52C20.805 52.5733 22.6833 58.2083 26.44 62.425C30.1967 66.6417 35.1033 68.75 41.16 68.75C44.9167 68.75 48.2517 67.8683 51.165 66.105C54.155 64.3417 56.455 61.7733 58.065 58.4H79.685C77.385 67.14 72.8233 74.04 66 79.1C59.1767 84.0833 50.9733 86.575 41.39 86.575C33.57 86.575 26.555 84.85 20.345 81.4C14.2117 77.8733 9.42 73.005 5.97 66.795C2.52 60.585 0.795 53.4933 0.795 45.52ZM101.043 53.8C101.043 47.2067 102.269 41.4183 104.723 36.435C107.253 31.4517 110.664 27.6183 114.958 24.935C119.251 22.2517 124.043 20.91 129.333 20.91C133.856 20.91 137.804 21.83 141.178 23.67C144.628 25.51 147.273 27.925 149.113 30.915V21.83L168.778 21.83V86H149.113V76.915C147.196 79.905 144.513 82.32 141.063 84.16C137.689 86 133.741 86.92 129.218 86.92C124.004 86.92 119.251 85.5783 114.958 82.895C110.664 80.135 107.253 76.2633 104.723 71.28C102.269 66.22 101.043 60.3933 101.043 53.8ZM149.113 53.915C149.113 49.0083 147.733 45.1367 144.973 42.3C142.289 39.4633 138.993 38.045 135.083 38.045C131.173 38.045 127.838 39.4633 125.078 42.3C122.394 45.06 121.053 48.8933 121.053 53.8C121.053 58.7067 122.394 62.6167 125.078 65.53C127.838 68.3667 131.173 69.785 135.083 69.785C138.993 69.785 142.289 68.3667 144.973 65.53C147.733 62.6933 149.113 58.8217 149.113 53.915ZM222.334 86.92C216.738 86.92 211.754 85.9617 207.384 84.045C203.014 82.1283 199.564 79.5217 197.034 76.225C194.504 72.8517 193.086 69.095 192.779 64.955H212.214C212.444 67.1783 213.479 68.98 215.319 70.36C217.159 71.74 219.421 72.43 222.104 72.43C224.558 72.43 226.436 71.97 227.739 71.05C229.119 70.0533 229.809 68.7883 229.809 67.255C229.809 65.415 228.851 64.0733 226.934 63.23C225.018 62.31 221.913 61.3133 217.619 60.24C213.019 59.1667 209.186 58.055 206.119 56.905C203.053 55.6783 200.408 53.8 198.184 51.27C195.961 48.6633 194.849 45.175 194.849 40.805C194.849 37.125 195.846 33.79 197.839 30.8C199.909 27.7333 202.899 25.3183 206.809 23.555C210.796 21.7917 215.511 20.91 220.954 20.91C229.004 20.91 235.329 22.9033 239.929 26.89C244.606 30.8767 247.289 36.1667 247.979 42.76H229.809C229.503 40.5367 228.506 38.7733 226.819 37.47C225.209 36.1667 223.063 35.515 220.379 35.515C218.079 35.515 216.316 35.975 215.089 36.895C213.863 37.7383 213.249 38.9267 213.249 40.46C213.249 42.3 214.208 43.68 216.124 44.6C218.118 45.52 221.184 46.44 225.324 47.36C230.078 48.5867 233.949 49.8133 236.939 51.04C239.929 52.19 242.536 54.1067 244.759 56.79C247.059 59.3967 248.248 62.9233 248.324 67.37C248.324 71.1267 247.251 74.5 245.104 77.49C243.034 80.4033 240.006 82.7033 236.019 84.39C232.109 86.0767 227.548 86.92 222.334 86.92ZM334.07 52.88C334.07 54.72 333.955 56.6367 333.725 58.63L289.22 58.63C289.527 62.6167 290.792 65.6833 293.015 67.83C295.315 69.9 298.114 70.935 301.41 70.935C306.317 70.935 309.729 68.865 311.645 64.725H332.575C331.502 68.9417 329.547 72.7367 326.71 76.11C323.95 79.4833 320.462 82.1283 316.245 84.045C312.029 85.9617 307.314 86.92 302.1 86.92C295.814 86.92 290.217 85.5783 285.31 82.895C280.404 80.2117 276.57 76.3783 273.81 71.395C271.05 66.4117 269.67 60.585 269.67 53.915C269.67 47.245 271.012 41.4183 273.695 36.435C276.455 31.4517 280.289 27.6183 285.195 24.935C290.102 22.2517 295.737 20.91 302.1 20.91C308.31 20.91 313.83 22.2133 318.66 24.82C323.49 27.4267 327.247 31.145 329.93 35.975C332.69 40.805 334.07 46.44 334.07 52.88ZM313.945 47.705C313.945 44.3317 312.795 41.6483 310.495 39.655C308.195 37.6617 305.32 36.665 301.87 36.665C298.574 36.665 295.775 37.6233 293.475 39.54C291.252 41.4567 289.872 44.1783 289.335 47.705H313.945ZM424.475 86.805C418.571 86.805 413.281 85.8467 408.605 83.93C403.928 82.0133 400.171 79.1767 397.335 75.42C394.575 71.6633 393.118 67.14 392.965 61.85L413.895 61.85C414.201 64.84 415.236 67.14 417 68.75C418.763 70.2833 421.063 71.05 423.9 71.05C426.813 71.05 429.113 70.3983 430.8 69.095C432.486 67.715 433.33 65.8367 433.33 63.46C433.33 61.4667 432.64 59.8183 431.26 58.515C429.956 57.2117 428.308 56.1383 426.315 55.295C424.398 54.4517 421.638 53.4933 418.035 52.42C412.821 50.81 408.566 49.2 405.27 47.59C401.973 45.98 399.136 43.6033 396.76 40.46C394.383 37.3167 393.195 33.215 393.195 28.155C393.195 20.6417 395.916 14.7767 401.36 10.56C406.803 6.26667 413.895 4.12 422.635 4.12C431.528 4.12 438.696 6.26667 444.14 10.56C449.583 14.7767 452.496 20.68 452.88 28.27L431.605 28.27C431.451 25.6633 430.493 23.6317 428.73 22.175C426.966 20.6417 424.705 19.875 421.945 19.875C419.568 19.875 417.651 20.5267 416.195 21.83C414.738 23.0567 414.01 24.8583 414.01 27.235C414.01 29.8417 415.236 31.8733 417.69 33.33C420.143 34.7867 423.976 36.3583 429.19 38.045C434.403 39.8083 438.62 41.495 441.84 43.105C445.136 44.715 447.973 47.0533 450.35 50.12C452.726 53.1867 453.915 57.135 453.915 61.965C453.915 66.565 452.726 70.7433 450.35 74.5C448.05 78.2567 444.676 81.2467 440.23 83.47C435.783 85.6933 430.531 86.805 424.475 86.805ZM515.007 69.325V86H505.002C497.872 86 492.313 84.275 488.327 80.825C484.34 77.2983 482.347 71.5867 482.347 63.69V38.16H474.527V21.83H482.347V6.19L502.012 6.19V21.83H514.892V38.16H502.012V63.92C502.012 65.8367 502.472 67.2167 503.392 68.06C504.312 68.9033 505.845 69.325 507.992 69.325H515.007ZM602.55 21.83V86H582.885V77.26C580.892 80.0967 578.17 82.3967 574.72 84.16C571.347 85.8467 567.59 86.69 563.45 86.69C558.544 86.69 554.212 85.6167 550.455 83.47C546.699 81.2467 543.785 78.065 541.715 73.925C539.645 69.785 538.61 64.9167 538.61 59.32V21.83L558.16 21.83V56.675C558.16 60.9683 559.272 64.3033 561.495 66.68C563.719 69.0567 566.709 70.245 570.465 70.245C574.299 70.245 577.327 69.0567 579.55 66.68C581.774 64.3033 582.885 60.9683 582.885 56.675V21.83L602.55 21.83ZM625.991 53.8C625.991 47.2067 627.217 41.4183 629.671 36.435C632.201 31.4517 635.612 27.6183 639.906 24.935C644.199 22.2517 648.991 20.91 654.281 20.91C658.497 20.91 662.331 21.7917 665.781 23.555C669.307 25.3183 672.067 27.695 674.061 30.685V0.899999L693.726 0.899999V86H674.061V76.8C672.221 79.8667 669.576 82.32 666.126 84.16C662.752 86 658.804 86.92 654.281 86.92C648.991 86.92 644.199 85.5783 639.906 82.895C635.612 80.135 632.201 76.2633 629.671 71.28C627.217 66.22 625.991 60.3933 625.991 53.8ZM674.061 53.915C674.061 49.0083 672.681 45.1367 669.921 42.3C667.237 39.4633 663.941 38.045 660.031 38.045C656.121 38.045 652.786 39.4633 650.026 42.3C647.342 45.06 646.001 48.8933 646.001 53.8C646.001 58.7067 647.342 62.6167 650.026 65.53C652.786 68.3667 656.121 69.785 660.031 69.785C663.941 69.785 667.237 68.3667 669.921 65.53C672.681 62.6933 674.061 58.8217 674.061 53.915ZM786.727 21.83L746.477 116.475H725.317L740.037 83.815L713.932 21.83H735.897L750.732 61.965L765.452 21.83L786.727 21.83Z"/>
</mask>
<path d="M5.97 24.245L8.59247 25.7019L8.59625 25.6951L8.6 25.6883L5.97 24.245ZM20.345 9.64L21.8158 12.2547L21.8265 12.2487L20.345 9.64ZM66 11.94L67.787 9.53028V9.53028L66 11.94ZM79.685 32.64V35.64H83.5766L82.5862 31.8765L79.685 32.64ZM58.065 32.64L55.3576 33.9322L56.1726 35.64H58.065V32.64ZM51.165 24.935L49.6116 27.5015L49.6263 27.5104L49.641 27.5191L51.165 24.935ZM26.44 28.615L28.68 30.6106L26.44 28.615ZM26.44 62.425L24.2 64.4206L26.44 62.425ZM51.165 66.105L49.641 63.5209L49.6263 63.5296L49.6116 63.5385L51.165 66.105ZM58.065 58.4V55.4H56.1726L55.3576 57.1078L58.065 58.4ZM79.685 58.4L82.5862 59.1635L83.5766 55.4H79.685V58.4ZM66 79.1L67.7694 81.5227L67.7782 81.5162L67.787 81.5097L66 79.1ZM20.345 81.4L18.8496 84.0007L18.8687 84.0117L18.8881 84.0225L20.345 81.4ZM5.97 66.795L8.59247 65.3381L5.97 66.795ZM3.795 45.52C3.795 37.993 5.41918 31.4138 8.59247 25.7019L3.34753 22.7881C-0.379184 29.4961 -2.205 37.1003 -2.205 45.52H3.795ZM8.6 25.6883C11.7859 19.8828 16.1804 15.4246 21.8158 12.2547L18.8742 7.02527C12.243 10.7553 7.05405 16.0339 3.34 22.8017L8.6 25.6883ZM21.8265 12.2487C27.5427 9.00241 34.0387 7.35 41.39 7.35V1.35C33.1013 1.35 25.5673 3.22425 18.8635 7.03131L21.8265 12.2487ZM41.39 7.35C50.4161 7.35 57.9719 9.72144 64.213 14.3497L67.787 9.53028C60.3815 4.03855 51.5306 1.35 41.39 1.35V7.35ZM64.213 14.3497C70.4522 18.9765 74.6454 25.2777 76.7838 33.4035L82.5862 31.8765C80.1246 22.5223 75.1945 15.0235 67.787 9.53028L64.213 14.3497ZM79.685 29.64H58.065V35.64H79.685V29.64ZM60.7724 31.3478C58.926 27.4791 56.2331 24.4411 52.689 22.3509L49.641 27.5191C52.0769 28.9556 53.984 31.0543 55.3576 33.9322L60.7724 31.3478ZM52.7184 22.3685C49.2891 20.2929 45.4061 19.29 41.16 19.29V25.29C44.4272 25.29 47.2142 26.0505 49.6116 27.5015L52.7184 22.3685ZM41.16 19.29C34.3175 19.29 28.5708 21.7134 24.2 26.6194L28.68 30.6106C31.8225 27.0833 35.8891 25.29 41.16 25.29V19.29ZM24.2 26.6194C19.8405 31.5127 17.805 37.921 17.805 45.52H23.805C23.805 39.0123 25.5261 34.1506 28.68 30.6106L24.2 26.6194ZM17.805 45.52C17.805 53.119 19.8405 59.5273 24.2 64.4206L28.68 60.4294C25.5261 56.8894 23.805 52.0277 23.805 45.52H17.805ZM24.2 64.4206C28.5708 69.3266 34.3175 71.75 41.16 71.75V65.75C35.8891 65.75 31.8225 63.9567 28.68 60.4294L24.2 64.4206ZM41.16 71.75C45.4061 71.75 49.2891 70.7471 52.7184 68.6715L49.6116 63.5385C47.2142 64.9895 44.4272 65.75 41.16 65.75V71.75ZM52.689 68.6891C56.2331 66.5989 58.926 63.5609 60.7724 59.6922L55.3576 57.1078C53.984 59.9857 52.0769 62.0844 49.641 63.5209L52.689 68.6891ZM58.065 61.4H79.685V55.4H58.065V61.4ZM76.7838 57.6365C74.6454 65.7623 70.4522 72.0635 64.213 76.6903L67.787 81.5097C75.1945 76.0165 80.1246 68.5177 82.5862 59.1635L76.7838 57.6365ZM64.2306 76.6773C57.9885 81.2362 50.4263 83.575 41.39 83.575V89.575C51.5204 89.575 60.3649 86.9305 67.7694 81.5227L64.2306 76.6773ZM41.39 83.575C34.0272 83.575 27.5224 81.9556 21.8019 78.7775L18.8881 84.0225C25.5876 87.7444 33.1128 89.575 41.39 89.575V83.575ZM21.8404 78.7993C16.1818 75.5456 11.7788 71.0735 8.59247 65.3381L3.34753 68.2519C7.06116 74.9365 12.2416 80.2011 18.8496 84.0007L21.8404 78.7993ZM8.59247 65.3381C5.41918 59.6262 3.795 53.047 3.795 45.52H-2.205C-2.205 53.9397 -0.379184 61.5438 3.34753 68.2519L8.59247 65.3381ZM104.723 36.435L102.048 35.0769L102.039 35.0934L102.031 35.1099L104.723 36.435ZM114.958 24.935L116.548 27.479L114.958 24.935ZM141.178 23.67L139.741 26.3037L139.753 26.3104L139.766 26.3171L141.178 23.67ZM149.113 30.915L146.558 32.4873L152.113 41.5141V30.915H149.113ZM149.113 21.83V18.83H146.113V21.83H149.113ZM168.778 21.83H171.778V18.83H168.778V21.83ZM168.778 86V89H171.778V86H168.778ZM149.113 86H146.113V89H149.113V86ZM149.113 76.915H152.113V66.676L146.587 75.296L149.113 76.915ZM141.063 84.16L139.651 81.5129L139.638 81.5196L139.626 81.5263L141.063 84.16ZM114.958 82.895L113.335 85.4185L113.351 85.4289L113.368 85.439L114.958 82.895ZM104.723 71.28L102.023 72.5888L102.035 72.6136L102.048 72.6381L104.723 71.28ZM144.973 42.3L142.793 44.3616L142.808 44.3769L142.822 44.3921L144.973 42.3ZM125.078 42.3L122.927 40.2079L122.927 40.2088L125.078 42.3ZM125.078 65.53L122.871 67.5624L122.899 67.5926L122.927 67.6221L125.078 65.53ZM144.973 65.53L142.822 63.4379L142.808 63.4531L142.793 63.4684L144.973 65.53ZM104.043 53.8C104.043 47.5809 105.198 42.2609 107.414 37.76L102.031 35.1099C99.3403 40.5757 98.0427 46.8324 98.0427 53.8H104.043ZM107.398 37.7931C109.707 33.2443 112.764 29.8436 116.548 27.479L113.368 22.391C108.564 25.393 104.798 29.659 102.048 35.0769L107.398 37.7931ZM116.548 27.479C120.342 25.1074 124.578 23.91 129.333 23.91V17.91C123.507 17.91 118.16 19.3959 113.368 22.391L116.548 27.479ZM129.333 23.91C133.443 23.91 136.881 24.7434 139.741 26.3037L142.614 21.0363C138.728 18.9166 134.269 17.91 129.333 17.91V23.91ZM139.766 26.3171C142.801 27.9358 145.027 30.0007 146.558 32.4873L151.668 29.3427C149.518 25.8493 146.454 23.0842 142.589 21.0229L139.766 26.3171ZM152.113 30.915V21.83H146.113V30.915H152.113ZM149.113 24.83L168.778 24.83V18.83L149.113 18.83V24.83ZM165.778 21.83V86H171.778V21.83H165.778ZM168.778 83H149.113V89H168.778V83ZM152.113 86V76.915H146.113V86H152.113ZM146.587 75.296C144.975 77.811 142.695 79.8896 139.651 81.5129L142.474 86.8071C146.331 84.7504 149.417 81.999 151.638 78.534L146.587 75.296ZM139.626 81.5263C136.766 83.0866 133.328 83.92 129.218 83.92V89.92C134.154 89.92 138.613 88.9134 142.499 86.7937L139.626 81.5263ZM129.218 83.92C124.549 83.92 120.349 82.7271 116.548 80.351L113.368 85.439C118.152 88.4295 123.46 89.92 129.218 89.92V83.92ZM116.58 80.3715C112.777 77.9265 109.71 74.4767 107.398 69.9219L102.048 72.6381C104.795 78.05 108.552 82.3435 113.335 85.4185L116.58 80.3715ZM107.422 69.9712C105.198 65.3838 104.043 60.0177 104.043 53.8H98.0427C98.0427 60.7689 99.3407 67.0562 102.023 72.5888L107.422 69.9712ZM152.113 53.915C152.113 48.4245 150.552 43.7319 147.123 40.2079L142.822 44.3921C144.914 46.5414 146.113 49.5922 146.113 53.915H152.113ZM147.152 40.2384C143.901 36.8018 139.816 35.045 135.083 35.045V41.045C138.169 41.045 140.677 42.1249 142.793 44.3616L147.152 40.2384ZM135.083 35.045C130.352 35.045 126.244 36.7988 122.927 40.2079L127.228 44.3921C129.431 42.1279 131.994 41.045 135.083 41.045V35.045ZM122.927 40.2088C119.56 43.6712 118.053 48.3364 118.053 53.8H124.053C124.053 49.4502 125.228 46.4488 127.229 44.3912L122.927 40.2088ZM118.053 53.8C118.053 59.2715 119.563 63.9708 122.871 67.5624L127.284 63.4976C125.226 61.2625 124.053 58.1418 124.053 53.8H118.053ZM122.927 67.6221C126.244 71.0312 130.352 72.785 135.083 72.785V66.785C131.994 66.785 129.431 65.7021 127.228 63.4379L122.927 67.6221ZM135.083 72.785C139.816 72.785 143.901 71.0282 147.152 67.5916L142.793 63.4684C140.677 65.7051 138.169 66.785 135.083 66.785V72.785ZM147.123 67.6221C150.552 64.0981 152.113 59.4055 152.113 53.915H146.113C146.113 58.2378 144.914 61.2886 142.822 63.4379L147.123 67.6221ZM207.384 84.045L208.589 81.2976L207.384 84.045ZM197.034 76.225L194.634 78.025L194.644 78.0383L194.654 78.0515L197.034 76.225ZM192.779 64.955V61.955H189.549L189.788 65.1766L192.779 64.955ZM212.214 64.955L215.198 64.6463L214.92 61.955H212.214V64.955ZM215.319 70.36L217.119 67.96L215.319 70.36ZM227.739 71.05L229.469 73.5009L229.483 73.4915L229.496 73.482L227.739 71.05ZM226.934 63.23L225.636 65.9346L225.681 65.956L225.726 65.9759L226.934 63.23ZM217.619 60.24L218.347 57.3296L218.324 57.3238L218.301 57.3185L217.619 60.24ZM206.119 56.905L205.005 59.6904L205.036 59.7025L205.066 59.714L206.119 56.905ZM198.184 51.27L195.902 53.2168L195.916 53.2337L195.931 53.2503L198.184 51.27ZM197.839 30.8L195.353 29.1216L195.348 29.1287L195.343 29.1359L197.839 30.8ZM206.809 23.555L205.596 20.8114L205.586 20.8158L205.576 20.8202L206.809 23.555ZM239.929 26.89L237.965 29.1571L237.974 29.1651L237.983 29.173L239.929 26.89ZM247.979 42.76V45.76L251.31 45.76L250.963 42.4478L247.979 42.76ZM229.809 42.76L226.838 43.1699L227.195 45.76H229.809V42.76ZM226.819 37.47L224.932 39.8017L224.958 39.8231L224.985 39.8439L226.819 37.47ZM215.089 36.895L216.789 39.3671L216.84 39.3321L216.889 39.295L215.089 36.895ZM216.124 44.6L214.826 47.3046L214.847 47.3144L214.867 47.3239L216.124 44.6ZM225.324 47.36L226.074 44.4552L226.025 44.4425L225.975 44.4314L225.324 47.36ZM236.939 51.04L235.801 53.8155L235.831 53.8281L235.862 53.84L236.939 51.04ZM244.759 56.79L242.449 58.7041L242.479 58.7399L242.51 58.7749L244.759 56.79ZM248.324 67.37H251.324V67.3441L251.324 67.3183L248.324 67.37ZM245.104 77.49L242.667 75.7404L242.663 75.7464L242.659 75.7524L245.104 77.49ZM236.019 84.39L234.85 81.6271L234.841 81.6312L234.831 81.6354L236.019 84.39ZM222.334 83.92C217.082 83.92 212.52 83.0214 208.589 81.2976L206.179 86.7924C210.989 88.9019 216.394 89.92 222.334 89.92V83.92ZM208.589 81.2976C204.613 79.5536 201.594 77.2381 199.414 74.3985L194.654 78.0515C197.535 81.8053 201.416 84.7031 206.179 86.7924L208.589 81.2976ZM199.434 74.425C197.243 71.5028 196.035 68.292 195.771 64.7334L189.788 65.1766C190.137 69.8979 191.766 74.2006 194.634 78.025L199.434 74.425ZM192.779 67.955H212.214V61.955H192.779V67.955ZM209.23 65.2637C209.549 68.3456 211.033 70.8948 213.519 72.76L217.119 67.96C215.926 67.0652 215.34 66.0111 215.198 64.6463L209.23 65.2637ZM213.519 72.76C215.962 74.5918 218.884 75.43 222.104 75.43V69.43C219.958 69.43 218.357 68.8882 217.119 67.96L213.519 72.76ZM222.104 75.43C224.866 75.43 227.454 74.9234 229.469 73.5009L226.009 68.5991C225.418 69.0166 224.25 69.43 222.104 69.43V75.43ZM229.496 73.482C231.557 71.9934 232.809 69.8684 232.809 67.255H226.809C226.809 67.7083 226.682 68.1133 225.983 68.618L229.496 73.482ZM232.809 67.255C232.809 65.7855 232.416 64.3631 231.532 63.125C230.665 61.9117 229.463 61.0651 228.143 60.4841L225.726 65.9759C226.322 66.2382 226.558 66.4841 226.649 66.6125C226.723 66.7161 226.809 66.8845 226.809 67.255H232.809ZM228.233 60.5254C226.027 59.4666 222.674 58.4112 218.347 57.3296L216.892 63.1504C221.152 64.2155 224.009 65.1534 225.636 65.9346L228.233 60.5254ZM218.301 57.3185C213.777 56.2629 210.078 55.1855 207.173 54.096L205.066 59.714C208.294 60.9245 212.262 62.0704 216.938 63.1615L218.301 57.3185ZM207.234 54.1196C204.614 53.0716 202.356 51.4727 200.438 49.2897L195.931 53.2503C198.459 56.1273 201.492 58.2851 205.005 59.6904L207.234 54.1196ZM200.467 49.3232C198.823 47.3953 197.849 44.6629 197.849 40.805H191.849C191.849 45.6871 193.1 49.9314 195.902 53.2168L200.467 49.3232ZM197.849 40.805C197.849 37.7021 198.679 34.9489 200.336 32.4641L195.343 29.1359C193.013 32.6311 191.849 36.5479 191.849 40.805H197.849ZM200.326 32.4784C202.037 29.9429 204.558 27.8612 208.043 26.2898L205.576 20.8202C201.241 22.7754 197.781 25.5238 195.353 29.1216L200.326 32.4784ZM208.023 26.2986C211.545 24.7408 215.828 23.91 220.954 23.91V17.91C215.194 17.91 210.047 18.8425 205.596 20.8114L208.023 26.2986ZM220.954 23.91C228.519 23.91 234.065 25.7777 237.965 29.1571L241.894 24.6229C236.593 20.029 229.49 17.91 220.954 17.91V23.91ZM237.983 29.173C242.025 32.6187 244.379 37.1785 244.996 43.0722L250.963 42.4478C250.2 35.1548 247.187 29.1346 241.876 24.607L237.983 29.173ZM247.979 39.76H229.809V45.76H247.979V39.76ZM232.781 42.3501C232.374 39.3941 230.998 36.9074 228.654 35.0961L224.985 39.8439C226.014 40.6393 226.632 41.6792 226.838 43.1699L232.781 42.3501ZM228.707 35.1383C226.422 33.2889 223.544 32.515 220.379 32.515V38.515C222.581 38.515 223.996 39.0445 224.932 39.8017L228.707 35.1383ZM220.379 32.515C217.739 32.515 215.237 33.0341 213.289 34.495L216.889 39.295C217.395 38.9159 218.42 38.515 220.379 38.515V32.515ZM213.39 34.4229C211.32 35.8457 210.249 37.9742 210.249 40.46H216.249C216.249 39.8791 216.405 39.631 216.789 39.3671L213.39 34.4229ZM210.249 40.46C210.249 41.9307 210.643 43.3459 211.504 44.5862C212.348 45.8015 213.522 46.6785 214.826 47.3046L217.423 41.8954C216.81 41.6015 216.547 41.3285 216.432 41.1638C216.335 41.0241 216.249 40.8293 216.249 40.46H210.249ZM214.867 47.3239C217.16 48.3819 220.48 49.3566 224.674 50.2886L225.975 44.4314C221.889 43.5234 219.076 42.6581 217.382 41.8761L214.867 47.3239ZM224.575 50.2648C229.256 51.4729 232.984 52.66 235.801 53.8155L238.078 48.2645C234.915 46.9666 230.899 45.7004 226.074 44.4552L224.575 50.2648ZM235.862 53.84C238.331 54.7894 240.525 56.3812 242.449 58.7041L247.069 54.8759C244.548 51.8322 241.528 49.5906 238.016 48.24L235.862 53.84ZM242.51 58.7749C244.219 60.7115 245.257 63.4842 245.325 67.4217L251.324 67.3183C251.239 62.3625 249.9 58.0818 247.009 54.8051L242.51 58.7749ZM245.324 67.37C245.324 70.5128 244.44 73.2715 242.667 75.7404L247.541 79.2396C250.062 75.7285 251.324 71.7406 251.324 67.37H245.324ZM242.659 75.7524C240.973 78.1248 238.433 80.1112 234.85 81.6271L237.188 87.1529C241.579 85.2954 245.096 82.6819 247.55 79.2276L242.659 75.7524ZM234.831 81.6354C231.371 83.1282 227.228 83.92 222.334 83.92V89.92C227.867 89.92 232.848 89.0251 237.208 87.1446L234.831 81.6354ZM333.725 58.63V61.63H336.399L336.706 58.9739L333.725 58.63ZM289.22 58.63V55.63H285.981L286.229 58.8601L289.22 58.63ZM293.015 67.83L290.932 69.9882L290.969 70.0247L291.008 70.0599L293.015 67.83ZM311.645 64.725V61.725H309.728L308.923 63.4646L311.645 64.725ZM332.575 64.725L335.483 65.465L336.435 61.725H332.575V64.725ZM326.71 76.11L324.414 74.1792L324.401 74.1947L324.389 74.2103L326.71 76.11ZM316.245 84.045L317.487 86.7761L316.245 84.045ZM285.31 82.895L283.871 85.5271L285.31 82.895ZM273.81 71.395L276.435 69.9415L273.81 71.395ZM273.695 36.435L271.071 34.9815L271.062 34.997L271.054 35.0127L273.695 36.435ZM285.195 24.935L286.635 27.5671V27.5671L285.195 24.935ZM318.66 24.82L317.236 27.4601L318.66 24.82ZM329.93 35.975L327.308 37.4319L327.317 37.4477L327.326 37.4634L329.93 35.975ZM313.945 47.705V50.705H316.945V47.705H313.945ZM310.495 39.655L312.46 37.3879V37.3879L310.495 39.655ZM293.475 39.54L291.555 37.2353L291.536 37.2514L291.517 37.2678L293.475 39.54ZM289.335 47.705L286.37 47.2537L285.844 50.705H289.335V47.705ZM331.07 52.88C331.07 54.5953 330.963 56.3968 330.745 58.2861L336.706 58.9739C336.948 56.8765 337.07 54.8447 337.07 52.88H331.07ZM333.725 55.63L289.22 55.63V61.63L333.725 61.63V55.63ZM286.229 58.8601C286.575 63.3582 288.04 67.1963 290.932 69.9882L295.099 65.6718C293.544 64.1703 292.479 61.8751 292.212 58.3999L286.229 58.8601ZM291.008 70.0599C293.897 72.6599 297.425 73.935 301.41 73.935V67.935C298.802 67.935 296.733 67.1401 295.022 65.6001L291.008 70.0599ZM301.41 73.935C304.287 73.935 306.933 73.3258 309.205 71.9473C311.491 70.5603 313.196 68.5165 314.368 65.9854L308.923 63.4646C308.178 65.0735 307.219 66.1347 306.093 66.8177C304.953 67.5092 303.441 67.935 301.41 67.935V73.935ZM311.645 67.725H332.575V61.725L311.645 61.725V67.725ZM329.668 63.985C328.708 67.7579 326.964 71.147 324.414 74.1792L329.006 78.0408C332.13 74.3263 334.296 70.1254 335.483 65.465L329.668 63.985ZM324.389 74.2103C321.938 77.205 318.828 79.5755 315.004 81.3139L317.487 86.7761C322.096 84.6811 325.963 81.7616 329.032 78.0097L324.389 74.2103ZM315.004 81.3139C311.223 83.0323 306.939 83.92 302.1 83.92V89.92C307.688 89.92 312.834 88.891 317.487 86.7761L315.004 81.3139ZM302.1 83.92C296.253 83.92 291.163 82.6761 286.75 80.2629L283.871 85.5271C289.272 88.4805 295.374 89.92 302.1 89.92V83.92ZM286.75 80.2629C282.352 77.8576 278.925 74.4374 276.435 69.9415L271.186 72.8485C274.216 78.3192 278.456 82.5658 283.871 85.5271L286.75 80.2629ZM276.435 69.9415C273.96 65.4736 272.67 60.1638 272.67 53.915H266.67C266.67 61.0062 268.141 67.3497 271.186 72.8485L276.435 69.9415ZM272.67 53.915C272.67 47.6528 273.928 42.3316 276.337 37.8573L271.054 35.0127C268.097 40.5051 266.67 46.8372 266.67 53.915H272.67ZM276.32 37.8885C278.81 33.3926 282.237 29.9724 286.635 27.5671L283.756 22.3029C278.341 25.2642 274.101 29.5108 271.071 34.9815L276.32 37.8885ZM286.635 27.5671C291.042 25.1567 296.17 23.91 302.1 23.91V17.91C295.304 17.91 289.162 19.3466 283.756 22.3029L286.635 27.5671ZM302.1 23.91C307.879 23.91 312.898 25.1192 317.236 27.4601L320.085 22.1799C314.763 19.3074 308.742 17.91 302.1 17.91V23.91ZM317.236 27.4601C321.558 29.7928 324.901 33.099 327.308 37.4319L332.553 34.5181C329.593 29.191 325.423 25.0605 320.085 22.1799L317.236 27.4601ZM327.326 37.4634C329.788 41.773 331.07 46.8789 331.07 52.88H337.07C337.07 46.0011 335.593 39.837 332.535 34.4866L327.326 37.4634ZM316.945 47.705C316.945 43.5674 315.494 40.0169 312.46 37.3879L308.531 41.9221C310.097 43.2798 310.945 45.0959 310.945 47.705H316.945ZM312.46 37.3879C309.542 34.8587 305.939 33.665 301.87 33.665V39.665C304.701 39.665 306.849 40.4647 308.531 41.9221L312.46 37.3879ZM301.87 33.665C297.948 33.665 294.45 34.8231 291.555 37.2353L295.396 41.8447C297.101 40.4236 299.2 39.665 301.87 39.665V33.665ZM291.517 37.2678C288.641 39.7469 286.99 43.1781 286.37 47.2537L292.301 48.1563C292.754 45.1786 293.863 43.1664 295.434 41.8122L291.517 37.2678ZM289.335 50.705H313.945V44.705H289.335V50.705ZM408.605 83.93L407.467 86.7059L408.605 83.93ZM397.335 75.42L394.917 77.1962L394.929 77.2121L394.941 77.2278L397.335 75.42ZM392.965 61.85V58.85H389.877L389.966 61.9369L392.965 61.85ZM413.895 61.85L416.879 61.5439L416.603 58.85H413.895V61.85ZM417 68.75L414.977 70.9655L415.004 70.99L415.031 71.0138L417 68.75ZM430.8 69.095L432.634 71.4689L432.667 71.4433L432.699 71.4169L430.8 69.095ZM431.26 58.515L429.138 60.6363L429.169 60.6666L429.2 60.696L431.26 58.515ZM426.315 55.295L425.107 58.0409L425.126 58.0496L425.146 58.0579L426.315 55.295ZM418.035 52.42L417.15 55.2864L417.164 55.2909L417.178 55.2952L418.035 52.42ZM405.27 47.59L403.953 50.2857L405.27 47.59ZM396.76 40.46L399.153 38.6507L396.76 40.46ZM401.36 10.56L403.197 12.9316L403.207 12.9236L403.218 12.9155L401.36 10.56ZM444.14 10.56L442.282 12.9155L442.292 12.9236L442.303 12.9316L444.14 10.56ZM452.88 28.27V31.27H456.035L455.876 28.1187L452.88 28.27ZM431.605 28.27L428.61 28.4462L428.776 31.27H431.605V28.27ZM428.73 22.175L426.761 24.4388L426.79 24.4637L426.819 24.4879L428.73 22.175ZM416.195 21.83L418.127 24.1247L418.162 24.0957L418.195 24.0657L416.195 21.83ZM417.69 33.33L419.221 30.7504V30.7504L417.69 33.33ZM429.19 38.045L430.151 35.2032L430.132 35.1968L430.113 35.1907L429.19 38.045ZM441.84 43.105L440.498 45.7883L440.511 45.7945L440.523 45.8007L441.84 43.105ZM450.35 50.12L447.979 51.9577V51.9577L450.35 50.12ZM450.35 74.5L447.815 72.8961L447.803 72.9147L447.791 72.9335L450.35 74.5ZM440.23 83.47L438.888 80.7867L440.23 83.47ZM424.475 83.805C418.897 83.805 414.003 82.9001 409.742 81.1541L407.467 86.7059C412.56 88.7932 418.246 89.805 424.475 89.805V83.805ZM409.742 81.1541C405.526 79.426 402.217 76.9076 399.729 73.6122L394.941 77.2278C398.126 81.4457 402.33 84.6007 407.467 86.7059L409.742 81.1541ZM399.752 73.6438C397.401 70.4427 396.102 66.5294 395.964 61.7631L389.966 61.9369C390.135 67.7506 391.749 72.8839 394.917 77.1962L399.752 73.6438ZM392.965 64.85L413.895 64.85V58.85L392.965 58.85V64.85ZM410.91 62.1561C411.272 65.6825 412.539 68.7399 414.977 70.9655L419.023 66.5345C417.933 65.5401 417.131 63.9975 416.879 61.5439L410.91 62.1561ZM415.031 71.0138C417.451 73.1182 420.501 74.05 423.9 74.05V68.05C421.625 68.05 420.075 67.4485 418.968 66.4862L415.031 71.0138ZM423.9 74.05C427.236 74.05 430.259 73.3041 432.634 71.4689L428.965 66.7211C427.967 67.4926 426.39 68.05 423.9 68.05V74.05ZM432.699 71.4169C435.151 69.4108 436.33 66.6436 436.33 63.46H430.33C430.33 65.0297 429.822 66.0192 428.9 66.7731L432.699 71.4169ZM436.33 63.46C436.33 60.6877 435.333 58.2352 433.32 56.334L429.2 60.696C429.947 61.4015 430.33 62.2456 430.33 63.46H436.33ZM433.381 56.3937C431.761 54.7739 429.772 53.5002 427.484 52.5321L425.146 58.0579C426.844 58.7765 428.152 59.6494 429.138 60.6363L433.381 56.3937ZM427.523 52.5491C425.436 51.6307 422.536 50.6306 418.891 49.5448L417.178 55.2952C420.74 56.3561 423.36 57.2726 425.107 58.0409L427.523 52.5491ZM418.92 49.5536C413.791 47.9695 409.694 46.4122 406.586 44.8943L403.953 50.2857C407.438 51.9878 411.852 53.6505 417.15 55.2864L418.92 49.5536ZM406.586 44.8943C403.744 43.5062 401.267 41.4466 399.153 38.6507L394.367 42.2693C397.006 45.7601 400.202 48.4538 403.953 50.2857L406.586 44.8943ZM399.153 38.6507C397.269 36.1599 396.195 32.7487 396.195 28.155H390.195C390.195 33.6813 391.497 38.4735 394.367 42.2693L399.153 38.6507ZM396.195 28.155C396.195 21.4722 398.561 16.5231 403.197 12.9316L399.523 8.18835C393.272 13.0303 390.195 19.8111 390.195 28.155H396.195ZM403.218 12.9155C408.006 9.13839 414.39 7.12 422.635 7.12V1.12C413.4 1.12 405.6 3.39494 399.502 8.2045L403.218 12.9155ZM422.635 7.12C431.047 7.12 437.502 9.14524 442.282 12.9155L445.998 8.2045C439.891 3.38809 432.009 1.12 422.635 1.12V7.12ZM442.303 12.9316C446.977 16.5531 449.539 21.603 449.884 28.4213L455.876 28.1187C455.454 19.757 452.189 13.0003 445.977 8.18835L442.303 12.9316ZM452.88 25.27L431.605 25.27V31.27L452.88 31.27V25.27ZM434.6 28.0938C434.405 24.7848 433.14 21.9269 430.64 19.8621L426.819 24.4879C427.846 25.3364 428.498 26.5418 428.61 28.4462L434.6 28.0938ZM430.698 19.9112C428.293 17.8197 425.29 16.875 421.945 16.875V22.875C424.119 22.875 425.64 23.4636 426.761 24.4388L430.698 19.9112ZM421.945 16.875C418.997 16.875 416.314 17.6977 414.194 19.5943L418.195 24.0657C418.989 23.3556 420.139 22.875 421.945 22.875V16.875ZM414.262 19.5353C411.965 21.4696 411.01 24.212 411.01 27.235L417.01 27.235C417.01 25.5046 417.511 24.6437 418.127 24.1247L414.262 19.5353ZM411.01 27.235C411.01 31.016 412.898 33.9741 416.158 35.9096L419.221 30.7504C417.574 29.7725 417.01 28.6674 417.01 27.235L411.01 27.235ZM416.158 35.9096C418.906 37.5412 422.997 39.1945 428.266 40.8993L430.113 35.1907C424.956 33.5221 421.38 32.0322 419.221 30.7504L416.158 35.9096ZM428.229 40.8868C433.372 42.6265 437.447 44.2629 440.498 45.7883L443.181 40.4217C439.792 38.7271 435.434 36.9901 430.151 35.2032L428.229 40.8868ZM440.523 45.8007C443.384 47.1976 445.867 49.2326 447.979 51.9577L452.721 48.2823C450.08 44.8741 446.889 42.2324 443.156 40.4093L440.523 45.8007ZM447.979 51.9577C449.856 54.3806 450.915 57.6341 450.915 61.965H456.915C456.915 56.6359 455.597 51.9927 452.721 48.2823L447.979 51.9577ZM450.915 61.965C450.915 66.018 449.877 69.6366 447.815 72.8961L452.885 76.1039C455.576 71.8501 456.915 67.112 456.915 61.965H450.915ZM447.791 72.9335C445.821 76.1518 442.899 78.7813 438.888 80.7867L441.571 86.1533C446.454 83.712 450.279 80.3615 452.908 76.0665L447.791 72.9335ZM438.888 80.7867C434.939 82.7612 430.166 83.805 424.475 83.805V89.805C430.897 89.805 436.627 88.6255 441.571 86.1533L438.888 80.7867ZM515.007 69.325H518.007V66.325H515.007V69.325ZM515.007 86V89H518.007V86H515.007ZM488.327 80.825L486.339 83.072L486.351 83.0828L486.364 83.0935L488.327 80.825ZM482.347 38.16H485.347V35.16H482.347V38.16ZM474.527 38.16H471.527V41.16H474.527V38.16ZM474.527 21.83V18.83H471.527V21.83H474.527ZM482.347 21.83V24.83L485.347 24.83V21.83L482.347 21.83ZM482.347 6.19V3.19L479.347 3.19V6.19L482.347 6.19ZM502.012 6.19H505.012V3.19H502.012V6.19ZM502.012 21.83H499.012V24.83H502.012V21.83ZM514.892 21.83H517.892V18.83H514.892V21.83ZM514.892 38.16V41.16H517.892V38.16H514.892ZM502.012 38.16V35.16H499.012V38.16H502.012ZM503.392 68.06L501.365 70.2715L503.392 68.06ZM512.007 69.325V86H518.007V69.325H512.007ZM515.007 83H505.002V89H515.007V83ZM505.002 83C498.337 83 493.565 81.3907 490.29 78.5565L486.364 83.0935C491.062 87.1593 497.406 89 505.002 89V83ZM490.314 78.578C487.231 75.8501 485.347 71.1479 485.347 63.69H479.347C479.347 72.0255 481.449 78.7466 486.339 83.072L490.314 78.578ZM485.347 63.69V38.16H479.347V63.69H485.347ZM482.347 35.16H474.527V41.16H482.347V35.16ZM477.527 38.16V21.83H471.527V38.16H477.527ZM474.527 24.83H482.347V18.83H474.527V24.83ZM485.347 21.83V6.19L479.347 6.19V21.83L485.347 21.83ZM482.347 9.19L502.012 9.19V3.19L482.347 3.19V9.19ZM499.012 6.19V21.83H505.012V6.19H499.012ZM502.012 24.83H514.892V18.83H502.012V24.83ZM511.892 21.83V38.16H517.892V21.83H511.892ZM514.892 35.16H502.012V41.16H514.892V35.16ZM499.012 38.16V63.92H505.012V38.16H499.012ZM499.012 63.92C499.012 66.2306 499.558 68.6154 501.365 70.2715L505.419 65.8485C505.385 65.8179 505.012 65.4428 505.012 63.92H499.012ZM501.365 70.2715C503.119 71.8798 505.592 72.325 507.992 72.325V66.325C506.098 66.325 505.504 65.9268 505.419 65.8485L501.365 70.2715ZM507.992 72.325H515.007V66.325H507.992V72.325ZM602.55 21.83H605.55V18.83H602.55V21.83ZM602.55 86V89H605.55V86H602.55ZM582.885 86H579.885V89H582.885V86ZM582.885 77.26H585.885V67.7729L580.431 75.5352L582.885 77.26ZM574.72 84.16L576.062 86.8433L576.074 86.8373L576.086 86.8313L574.72 84.16ZM550.456 83.47L548.927 86.0517L548.947 86.0634L548.967 86.0747L550.456 83.47ZM541.715 73.925L539.032 75.2666L541.715 73.925ZM538.61 21.83V18.83H535.61V21.83H538.61ZM558.16 21.83H561.16V18.83H558.16V21.83ZM561.495 66.68L559.305 68.7295L561.495 66.68ZM582.885 21.83V18.83H579.885V21.83H582.885ZM599.55 21.83V86H605.55V21.83H599.55ZM602.55 83H582.885V89H602.55V83ZM585.885 86V77.26H579.885V86H585.885ZM580.431 75.5352C578.75 77.9273 576.422 79.921 573.355 81.4887L576.086 86.8313C579.919 84.8723 583.034 82.266 585.34 78.9848L580.431 75.5352ZM573.379 81.4767C570.462 82.9354 567.171 83.69 563.451 83.69V89.69C568.01 89.69 572.233 88.758 576.062 86.8433L573.379 81.4767ZM563.451 83.69C558.995 83.69 555.189 82.7197 551.944 80.8653L548.967 86.0747C553.235 88.5136 558.093 89.69 563.451 89.69V83.69ZM551.983 80.8883C548.754 78.9767 546.227 76.2402 544.399 72.5834L539.032 75.2666C541.344 79.8898 544.644 83.5166 548.927 86.0517L551.983 80.8883ZM544.399 72.5834C542.576 68.9382 541.61 64.5471 541.61 59.32L535.61 59.32C535.61 65.2862 536.715 70.6318 539.032 75.2666L544.399 72.5834ZM541.61 59.32V21.83H535.61V59.32L541.61 59.32ZM538.61 24.83L558.16 24.83V18.83L538.61 18.83V24.83ZM555.16 21.83V56.675H561.16V21.83L555.16 21.83ZM555.16 56.675C555.16 61.48 556.413 65.6383 559.305 68.7295L563.686 64.6305C562.131 62.9683 561.16 60.4567 561.16 56.675H555.16ZM559.305 68.7295C562.184 71.8079 566.019 73.245 570.465 73.245V67.245C567.399 67.245 565.253 66.3055 563.686 64.6305L559.305 68.7295ZM570.465 73.245C574.968 73.245 578.85 71.8207 581.741 68.7295L577.36 64.6305C575.805 66.2927 573.629 67.245 570.465 67.245V73.245ZM581.741 68.7295C584.633 65.6383 585.885 61.48 585.885 56.675H579.885C579.885 60.4567 578.915 62.9683 577.36 64.6305L581.741 68.7295ZM585.885 56.675V21.83H579.885V56.675H585.885ZM582.885 24.83L602.55 24.83V18.83L582.885 18.83V24.83ZM629.671 36.435L626.996 35.0769L626.987 35.0934L626.979 35.1099L629.671 36.435ZM639.906 24.935L641.496 27.479L639.906 24.935ZM665.781 23.555L664.415 26.2263L664.427 26.2323L664.439 26.2383L665.781 23.555ZM674.061 30.685L671.565 32.3491L677.061 40.5933V30.685H674.061ZM674.061 0.899999V-2.1H671.061V0.899999L674.061 0.899999ZM693.726 0.899999L696.726 0.899999V-2.1H693.726V0.899999ZM693.726 86V89H696.726V86H693.726ZM674.061 86H671.061V89H674.061V86ZM674.061 76.8H677.061V65.969L671.488 75.2565L674.061 76.8ZM666.126 84.16L664.714 81.5129L664.701 81.5196L664.689 81.5263L666.126 84.16ZM639.906 82.895L638.283 85.4185L638.299 85.4289L638.316 85.439L639.906 82.895ZM629.671 71.28L626.971 72.5888L626.983 72.6136L626.996 72.6381L629.671 71.28ZM669.921 42.3L667.741 44.3616L667.756 44.3769L667.771 44.3921L669.921 42.3ZM650.026 42.3L647.875 40.2079L647.875 40.2088L650.026 42.3ZM650.026 65.53L647.819 67.5624L647.847 67.5926L647.875 67.6221L650.026 65.53ZM669.921 65.53L667.771 63.4379L667.756 63.4531L667.741 63.4684L669.921 65.53ZM628.991 53.8C628.991 47.5809 630.146 42.2609 632.362 37.76L626.979 35.1099C624.288 40.5757 622.991 46.8324 622.991 53.8H628.991ZM632.346 37.7931C634.655 33.2443 637.712 29.8436 641.496 27.479L638.316 22.391C633.512 25.393 629.746 29.659 626.996 35.0769L632.346 37.7931ZM641.496 27.479C645.29 25.1074 649.526 23.91 654.281 23.91V17.91C648.455 17.91 643.108 19.3959 638.316 22.391L641.496 27.479ZM654.281 23.91C658.065 23.91 661.425 24.6977 664.415 26.2263L667.146 20.8837C663.237 18.8857 658.929 17.91 654.281 17.91V23.91ZM664.439 26.2383C667.545 27.7914 669.888 29.8349 671.565 32.3491L676.557 29.0209C674.246 25.5551 671.069 22.8452 667.122 20.8717L664.439 26.2383ZM677.061 30.685V0.899999L671.061 0.899999V30.685H677.061ZM674.061 3.9L693.726 3.9V-2.1L674.061 -2.1V3.9ZM690.726 0.899999V86H696.726V0.899999L690.726 0.899999ZM693.726 83H674.061V89H693.726V83ZM677.061 86V76.8H671.061V86H677.061ZM671.488 75.2565C669.954 77.814 667.73 79.9042 664.714 81.5129L667.537 86.8071C671.421 84.7358 674.488 81.9194 676.633 78.3435L671.488 75.2565ZM664.689 81.5263C661.829 83.0866 658.391 83.92 654.281 83.92V89.92C659.217 89.92 663.676 88.9134 667.562 86.7937L664.689 81.5263ZM654.281 83.92C649.526 83.92 645.29 82.7226 641.496 80.351L638.316 85.439C643.108 88.434 648.455 89.92 654.281 89.92V83.92ZM641.528 80.3715C637.725 77.9265 634.658 74.4767 632.346 69.9219L626.996 72.6381C629.743 78.05 633.5 82.3435 638.283 85.4185L641.528 80.3715ZM632.37 69.9712C630.146 65.3838 628.991 60.0177 628.991 53.8H622.991C622.991 60.7689 624.289 67.0562 626.971 72.5888L632.37 69.9712ZM677.061 53.915C677.061 48.4245 675.5 43.7319 672.071 40.2079L667.771 44.3921C669.862 46.5414 671.061 49.5922 671.061 53.915H677.061ZM672.1 40.2384C668.849 36.8018 664.764 35.045 660.031 35.045V41.045C663.117 41.045 665.625 42.1249 667.741 44.3616L672.1 40.2384ZM660.031 35.045C655.3 35.045 651.193 36.7988 647.875 40.2079L652.176 44.3921C654.379 42.1279 656.942 41.045 660.031 41.045V35.045ZM647.875 40.2088C644.508 43.6712 643.001 48.3364 643.001 53.8H649.001C649.001 49.4502 650.176 46.4488 652.177 44.3912L647.875 40.2088ZM643.001 53.8C643.001 59.2715 644.511 63.9708 647.819 67.5624L652.232 63.4976C650.174 61.2625 649.001 58.1418 649.001 53.8H643.001ZM647.875 67.6221C651.193 71.0312 655.3 72.785 660.031 72.785V66.785C656.942 66.785 654.379 65.7021 652.176 63.4379L647.875 67.6221ZM660.031 72.785C664.764 72.785 668.849 71.0282 672.1 67.5916L667.741 63.4684C665.625 65.7051 663.117 66.785 660.031 66.785V72.785ZM672.071 67.6221C675.5 64.0981 677.061 59.4055 677.061 53.915H671.061C671.061 58.2378 669.862 61.2886 667.771 63.4379L672.071 67.6221ZM786.727 21.83L789.488 23.0041L791.263 18.83H786.727V21.83ZM746.477 116.475V119.475H748.462L749.238 117.649L746.477 116.475ZM725.318 116.475L722.582 115.242L720.675 119.475H725.318V116.475ZM740.037 83.815L742.773 85.0477L743.31 83.8556L742.802 82.6506L740.037 83.815ZM713.932 21.83V18.83H709.414L711.168 22.9944L713.932 21.83ZM735.897 21.83L738.711 20.7899L737.987 18.83L735.897 18.83V21.83ZM750.732 61.965L747.919 63.0051L750.743 70.6476L753.549 62.998L750.732 61.965ZM765.453 21.83V18.83H763.357L762.636 20.797L765.453 21.83ZM783.967 20.6559L743.717 115.301L749.238 117.649L789.488 23.0041L783.967 20.6559ZM746.477 113.475H725.318V119.475H746.477V113.475ZM728.053 117.708L742.773 85.0477L737.302 82.5823L722.582 115.242L728.053 117.708ZM742.802 82.6506L716.697 20.6656L711.168 22.9944L737.273 84.9794L742.802 82.6506ZM713.932 24.83H735.897V18.83H713.932V24.83ZM733.084 22.8701L747.919 63.0051L753.546 60.9249L738.711 20.7899L733.084 22.8701ZM753.549 62.998L768.269 22.863L762.636 20.797L747.916 60.932L753.549 62.998ZM765.453 24.83L786.727 24.83V18.83L765.453 18.83V24.83Z" fill="white" mask="url(#path-1-outside-1_491_653)"/>
</g>
</svg>
