<svg width="28" height="28" viewBox="0 0 28 28" fill="none" xmlns="http://www.w3.org/2000/svg">
<path fill-rule="evenodd" clip-rule="evenodd" d="M14.7159 1.41244C14.2946 1.08477 13.7047 1.08477 13.2834 1.41244L2.78341 9.57911C2.49923 9.80014 2.33301 10.14 2.33301 10.5V23.3334C2.33301 24.2616 2.70176 25.1518 3.35813 25.8082C4.01451 26.4646 4.90475 26.8334 5.83301 26.8334H22.1663C23.0946 26.8334 23.9848 26.4646 24.6412 25.8082C25.2976 25.1519 25.6663 24.2616 25.6663 23.3334V10.5C25.6663 10.14 25.5001 9.80014 25.2159 9.57911L14.7159 1.41244ZM18.6663 24.5H22.1663C22.4758 24.5 22.7725 24.3771 22.9913 24.1583C23.2101 23.9395 23.333 23.6428 23.333 23.3334V11.0706L13.9997 3.81136L4.66634 11.0706V23.3334C4.66634 23.6428 4.78926 23.9395 5.00805 24.1583C5.22684 24.3771 5.52359 24.5 5.83301 24.5H9.33301V14C9.33301 13.3557 9.85534 12.8334 10.4997 12.8334H17.4997C18.144 12.8334 18.6663 13.3557 18.6663 14V24.5ZM11.6663 24.5V15.1667H16.333V24.5H11.6663Z" fill="#148BDC"/>
</svg>
