<svg width="552" height="83" viewBox="0 0 552 83" fill="none" xmlns="http://www.w3.org/2000/svg">
<g opacity="0.11">
<mask id="path-1-outside-1_457_4696" maskUnits="userSpaceOnUse" x="-3" y="-3" width="558" height="89" fill="black">
<rect fill="white" x="-3" y="-3" width="558" height="89"/>
<path d="M0.795 41.52C0.795 33.5467 2.52 26.455 5.97 20.245C9.42 13.9583 14.2117 9.09 20.345 5.64C26.555 2.11333 33.57 0.349996 41.39 0.349996C50.9733 0.349996 59.1767 2.88 66 7.93999C72.8233 13 77.385 19.9 79.685 28.64H58.065C56.455 25.2667 54.155 22.6983 51.165 20.935C48.2517 19.1717 44.9167 18.29 41.16 18.29C35.1033 18.29 30.1967 20.3983 26.44 24.615C22.6833 28.8317 20.805 34.4667 20.805 41.52C20.805 48.5733 22.6833 54.2083 26.44 58.425C30.1967 62.6417 35.1033 64.75 41.16 64.75C44.9167 64.75 48.2517 63.8683 51.165 62.105C54.155 60.3417 56.455 57.7733 58.065 54.4H79.685C77.385 63.14 72.8233 70.04 66 75.1C59.1767 80.0833 50.9733 82.575 41.39 82.575C33.57 82.575 26.555 80.85 20.345 77.4C14.2117 73.8733 9.42 69.005 5.97 62.795C2.52 56.585 0.795 49.4933 0.795 41.52ZM134.163 82.92C127.876 82.92 122.203 81.5783 117.143 78.895C112.159 76.2117 108.211 72.3783 105.298 67.395C102.461 62.4117 101.043 56.585 101.043 49.915C101.043 43.3217 102.499 37.5333 105.413 32.55C108.326 27.49 112.313 23.6183 117.373 20.935C122.433 18.2517 128.106 16.91 134.393 16.91C140.679 16.91 146.353 18.2517 151.413 20.935C156.473 23.6183 160.459 27.49 163.373 32.55C166.286 37.5333 167.743 43.3217 167.743 49.915C167.743 56.5083 166.248 62.335 163.258 67.395C160.344 72.3783 156.319 76.2117 151.183 78.895C146.123 81.5783 140.449 82.92 134.163 82.92ZM134.163 65.9C137.919 65.9 141.101 64.52 143.708 61.76C146.391 59 147.733 55.0517 147.733 49.915C147.733 44.7783 146.429 40.83 143.823 38.07C141.293 35.31 138.149 33.93 134.393 33.93C130.559 33.93 127.378 35.31 124.848 38.07C122.318 40.7533 121.053 44.7017 121.053 49.915C121.053 55.0517 122.279 59 124.733 61.76C127.263 64.52 130.406 65.9 134.163 65.9ZM230.5 17.14C238.014 17.14 243.994 19.5933 248.44 24.5C252.964 29.33 255.225 36 255.225 44.51V82H235.675V47.155C235.675 42.8617 234.564 39.5267 232.34 37.15C230.117 34.7733 227.127 33.585 223.37 33.585C219.614 33.585 216.624 34.7733 214.4 37.15C212.177 39.5267 211.065 42.8617 211.065 47.155V82H191.4V17.83L211.065 17.83V26.34C213.059 23.5033 215.742 21.28 219.115 19.67C222.489 17.9833 226.284 17.14 230.5 17.14ZM317.881 65.325V82H307.876C300.746 82 295.187 80.275 291.201 76.825C287.214 73.2983 285.221 67.5867 285.221 59.69V34.16H277.401V17.83H285.221V2.19L304.886 2.19V17.83H317.766V34.16H304.886V59.92C304.886 61.8367 305.346 63.2167 306.266 64.06C307.186 64.9033 308.719 65.325 310.866 65.325H317.881ZM338.149 49.8C338.149 43.2067 339.376 37.4183 341.829 32.435C344.359 27.4517 347.771 23.6183 352.064 20.935C356.358 18.2517 361.149 16.91 366.439 16.91C370.963 16.91 374.911 17.83 378.284 19.67C381.734 21.51 384.379 23.925 386.219 26.915V17.83H405.884V82H386.219V72.915C384.303 75.905 381.619 78.32 378.169 80.16C374.796 82 370.848 82.92 366.324 82.92C361.111 82.92 356.358 81.5783 352.064 78.895C347.771 76.135 344.359 72.2633 341.829 67.28C339.376 62.22 338.149 56.3933 338.149 49.8ZM386.219 49.915C386.219 45.0083 384.839 41.1367 382.079 38.3C379.396 35.4633 376.099 34.045 372.189 34.045C368.279 34.045 364.944 35.4633 362.184 38.3C359.501 41.06 358.159 44.8933 358.159 49.8C358.159 54.7067 359.501 58.6167 362.184 61.53C364.944 64.3667 368.279 65.785 372.189 65.785C376.099 65.785 379.396 64.3667 382.079 61.53C384.839 58.6933 386.219 54.8217 386.219 49.915ZM429.426 49.915C429.426 43.245 430.768 37.4183 433.451 32.435C436.211 27.4517 440.006 23.6183 444.836 20.935C449.743 18.2517 455.339 16.91 461.626 16.91C469.676 16.91 476.384 19.0183 481.751 23.235C487.194 27.4517 490.759 33.3933 492.446 41.06H471.516C469.753 36.1533 466.341 33.7 461.281 33.7C457.678 33.7 454.803 35.1183 452.656 37.955C450.509 40.715 449.436 44.7017 449.436 49.915C449.436 55.1283 450.509 59.1533 452.656 61.99C454.803 64.75 457.678 66.13 461.281 66.13C466.341 66.13 469.753 63.6767 471.516 58.77H492.446C490.759 66.2833 487.194 72.1867 481.751 76.48C476.308 80.7733 469.599 82.92 461.626 82.92C455.339 82.92 449.743 81.5783 444.836 78.895C440.006 76.2117 436.211 72.3783 433.451 67.395C430.768 62.4117 429.426 56.585 429.426 49.915ZM551.955 65.325V82H541.95C534.82 82 529.262 80.275 525.275 76.825C521.288 73.2983 519.295 67.5867 519.295 59.69V34.16H511.475V17.83H519.295V2.19L538.96 2.19V17.83H551.84V34.16H538.96V59.92C538.96 61.8367 539.42 63.2167 540.34 64.06C541.26 64.9033 542.793 65.325 544.94 65.325H551.955Z"/>
</mask>
<path d="M5.97 20.245L8.59247 21.7019L8.59625 21.6951L8.6 21.6883L5.97 20.245ZM20.345 5.64L21.8158 8.25474L21.8265 8.24868L20.345 5.64ZM66 7.93999L67.787 5.53028V5.53028L66 7.93999ZM79.685 28.64V31.64H83.5766L82.5862 27.8765L79.685 28.64ZM58.065 28.64L55.3576 29.9322L56.1726 31.64H58.065V28.64ZM51.165 20.935L49.6116 23.5015L49.6263 23.5104L49.641 23.5191L51.165 20.935ZM26.44 24.615L28.68 26.6106L26.44 24.615ZM26.44 58.425L24.2 60.4206L26.44 58.425ZM51.165 62.105L49.641 59.5209L49.6263 59.5296L49.6116 59.5385L51.165 62.105ZM58.065 54.4V51.4H56.1726L55.3576 53.1078L58.065 54.4ZM79.685 54.4L82.5862 55.1635L83.5766 51.4H79.685V54.4ZM66 75.1L67.7694 77.5227L67.7782 77.5162L67.787 77.5097L66 75.1ZM20.345 77.4L18.8496 80.0007L18.8687 80.0117L18.8881 80.0225L20.345 77.4ZM5.97 62.795L8.59247 61.3381L5.97 62.795ZM3.795 41.52C3.795 33.993 5.41918 27.4138 8.59247 21.7019L3.34753 18.7881C-0.379184 25.4961 -2.205 33.1003 -2.205 41.52H3.795ZM8.6 21.6883C11.7859 15.8828 16.1804 11.4246 21.8158 8.25472L18.8742 3.02527C12.243 6.75535 7.05405 12.0339 3.34 18.8017L8.6 21.6883ZM21.8265 8.24868C27.5427 5.00241 34.0387 3.35 41.39 3.35V-2.65C33.1013 -2.65 25.5673 -0.775749 18.8635 3.03131L21.8265 8.24868ZM41.39 3.35C50.4161 3.35 57.9719 5.72144 64.213 10.3497L67.787 5.53028C60.3815 0.0385466 51.5306 -2.65 41.39 -2.65V3.35ZM64.213 10.3497C70.4522 14.9765 74.6454 21.2777 76.7838 29.4035L82.5862 27.8765C80.1246 18.5223 75.1945 11.0235 67.787 5.53028L64.213 10.3497ZM79.685 25.64H58.065V31.64H79.685V25.64ZM60.7724 27.3478C58.926 23.4791 56.2331 20.4411 52.689 18.3509L49.641 23.5191C52.0769 24.9556 53.984 27.0543 55.3576 29.9322L60.7724 27.3478ZM52.7184 18.3685C49.2891 16.2929 45.4061 15.29 41.16 15.29V21.29C44.4272 21.29 47.2142 22.0505 49.6116 23.5015L52.7184 18.3685ZM41.16 15.29C34.3175 15.29 28.5708 17.7134 24.2 22.6194L28.68 26.6106C31.8225 23.0833 35.8891 21.29 41.16 21.29V15.29ZM24.2 22.6194C19.8405 27.5127 17.805 33.921 17.805 41.52H23.805C23.805 35.0123 25.5261 30.1506 28.68 26.6106L24.2 22.6194ZM17.805 41.52C17.805 49.119 19.8405 55.5273 24.2 60.4206L28.68 56.4294C25.5261 52.8894 23.805 48.0277 23.805 41.52H17.805ZM24.2 60.4206C28.5708 65.3266 34.3175 67.75 41.16 67.75V61.75C35.8891 61.75 31.8225 59.9567 28.68 56.4294L24.2 60.4206ZM41.16 67.75C45.4061 67.75 49.2891 66.7471 52.7184 64.6715L49.6116 59.5385C47.2142 60.9895 44.4272 61.75 41.16 61.75V67.75ZM52.689 64.6891C56.2331 62.5989 58.926 59.5609 60.7724 55.6922L55.3576 53.1078C53.984 55.9857 52.0769 58.0844 49.641 59.5209L52.689 64.6891ZM58.065 57.4H79.685V51.4H58.065V57.4ZM76.7838 53.6365C74.6454 61.7623 70.4522 68.0635 64.213 72.6903L67.787 77.5097C75.1945 72.0165 80.1246 64.5177 82.5862 55.1635L76.7838 53.6365ZM64.2306 72.6773C57.9885 77.2362 50.4263 79.575 41.39 79.575V85.575C51.5204 85.575 60.3649 82.9305 67.7694 77.5227L64.2306 72.6773ZM41.39 79.575C34.0272 79.575 27.5224 77.9556 21.8019 74.7775L18.8881 80.0225C25.5876 83.7444 33.1128 85.575 41.39 85.575V79.575ZM21.8404 74.7993C16.1818 71.5456 11.7788 67.0735 8.59247 61.3381L3.34753 64.2519C7.06116 70.9365 12.2416 76.2011 18.8496 80.0007L21.8404 74.7993ZM8.59247 61.3381C5.41918 55.6262 3.795 49.047 3.795 41.52H-2.205C-2.205 49.9397 -0.379184 57.5438 3.34753 64.2519L8.59247 61.3381ZM117.143 78.895L115.72 81.5364L115.729 81.5409L115.737 81.5454L117.143 78.895ZM105.298 67.395L102.69 68.8791L102.699 68.8941L102.708 68.9091L105.298 67.395ZM105.413 32.55L108.003 34.0641L108.008 34.0555L108.013 34.0469L105.413 32.55ZM117.373 20.935L118.778 23.5854L117.373 20.935ZM151.413 20.935L150.007 23.5854H150.007L151.413 20.935ZM163.373 32.55L160.773 34.0469L160.778 34.0555L160.783 34.0641L163.373 32.55ZM163.258 67.395L160.675 65.8688L160.668 65.8809L163.258 67.395ZM151.183 78.895L149.794 76.236L149.785 76.2403L149.777 76.2446L151.183 78.895ZM143.708 61.76L141.557 59.6688L141.542 59.6843L141.527 59.7001L143.708 61.76ZM143.823 38.07L141.611 40.0972L141.626 40.1136L141.642 40.1299L143.823 38.07ZM124.848 38.07L127.03 40.128L127.045 40.1127L127.059 40.0972L124.848 38.07ZM124.733 61.76L122.49 63.7531L122.506 63.7702L122.521 63.7872L124.733 61.76ZM134.163 79.92C128.317 79.92 123.134 78.6765 118.548 76.2446L115.737 81.5454C121.271 84.4801 127.435 85.92 134.163 85.92V79.92ZM118.565 76.2536C114.077 73.837 110.528 70.3983 107.888 65.8809L102.708 68.9091C105.893 74.3584 110.242 78.5863 115.72 81.5364L118.565 76.2536ZM107.905 65.9109C105.365 61.4489 104.043 56.1503 104.043 49.915H98.0427C98.0427 57.0197 99.557 63.3744 102.69 68.8791L107.905 65.9109ZM104.043 49.915C104.043 43.7768 105.394 38.5258 108.003 34.0641L102.823 31.0359C99.6045 36.5408 98.0427 42.8665 98.0427 49.915H104.043ZM108.013 34.0469C110.65 29.4661 114.227 25.9989 118.778 23.5854L115.967 18.2846C110.398 21.2378 106.002 25.5139 102.813 31.0531L108.013 34.0469ZM118.778 23.5854C123.364 21.1535 128.547 19.91 134.393 19.91V13.91C127.665 13.91 121.501 15.3499 115.967 18.2846L118.778 23.5854ZM134.393 19.91C140.238 19.91 145.421 21.1535 150.007 23.5854L152.818 18.2846C147.284 15.3499 141.121 13.91 134.393 13.91V19.91ZM150.007 23.5854C154.558 25.9989 158.135 29.4661 160.773 34.0469L165.973 31.0531C162.783 25.5139 158.387 21.2378 152.818 18.2846L150.007 23.5854ZM160.783 34.0641C163.391 38.5258 164.743 43.7768 164.743 49.915H170.743C170.743 42.8665 169.181 36.5408 165.963 31.0359L160.783 34.0641ZM164.743 49.915C164.743 56.0384 163.36 61.3255 160.675 65.8688L165.84 68.9212C169.136 63.3445 170.743 56.9783 170.743 49.915H164.743ZM160.668 65.8809C158.04 70.3752 154.432 73.8127 149.794 76.236L152.572 81.554C158.206 78.6106 162.648 74.3814 165.848 68.9091L160.668 65.8809ZM149.777 76.2446C145.191 78.6765 140.008 79.92 134.163 79.92V85.92C140.891 85.92 147.054 84.4801 152.588 81.5454L149.777 76.2446ZM134.163 68.9C138.755 68.9 142.722 67.1727 145.889 63.8199L141.527 59.7001C139.48 61.8673 137.084 62.9 134.163 62.9V68.9ZM145.859 63.8512C149.249 60.3644 150.733 55.5641 150.733 49.915H144.733C144.733 54.5392 143.533 57.6356 141.557 59.6688L145.859 63.8512ZM150.733 49.915C150.733 44.2879 149.299 39.4994 146.004 36.0101L141.642 40.1299C143.56 42.1606 144.733 45.2688 144.733 49.915H150.733ZM146.034 36.0428C142.934 32.6606 138.987 30.93 134.393 30.93V36.93C137.312 36.93 139.652 37.9594 141.611 40.0972L146.034 36.0428ZM134.393 30.93C129.741 30.93 125.75 32.6464 122.636 36.0428L127.059 40.0972C129.006 37.9736 131.377 36.93 134.393 36.93V30.93ZM122.665 36.012C119.427 39.4464 118.053 44.2537 118.053 49.915H124.053C124.053 45.1496 125.209 42.0603 127.03 40.128L122.665 36.012ZM118.053 49.915C118.053 55.4992 119.387 60.2617 122.49 63.7531L126.975 59.7669C125.172 57.7383 124.053 54.6042 124.053 49.915H118.053ZM122.521 63.7872C125.622 67.1694 129.568 68.9 134.163 68.9V62.9C131.244 62.9 128.904 61.8706 126.944 59.7328L122.521 63.7872ZM248.44 24.5L246.217 26.5146L246.234 26.5327L246.251 26.5507L248.44 24.5ZM255.225 82V85H258.225V82H255.225ZM235.675 82H232.675V85H235.675V82ZM232.34 37.15L230.149 39.1995V39.1995L232.34 37.15ZM214.4 37.15L216.591 39.1995V39.1995L214.4 37.15ZM211.065 82V85L214.065 85V82L211.065 82ZM191.4 82H188.4V85H191.4V82ZM191.4 17.83V14.83H188.4V17.83H191.4ZM211.065 17.83H214.065V14.83H211.065V17.83ZM211.065 26.34H208.065V35.8271L213.52 28.0648L211.065 26.34ZM219.115 19.67L220.408 22.3774L220.432 22.3656L220.457 22.3533L219.115 19.67ZM230.5 20.14C237.293 20.14 242.419 22.3232 246.217 26.5146L250.663 22.4854C245.568 16.8635 238.734 14.14 230.5 14.14V20.14ZM246.251 26.5507C250.117 30.6794 252.225 36.536 252.225 44.51H258.225C258.225 35.464 255.81 27.9806 250.63 22.4493L246.251 26.5507ZM252.225 44.51V82H258.225V44.51H252.225ZM255.225 79H235.675V85H255.225V79ZM238.675 82V47.155H232.675V82H238.675ZM238.675 47.155C238.675 42.35 237.423 38.1917 234.531 35.1005L230.149 39.1995C231.704 40.8617 232.675 43.3733 232.675 47.155H238.675ZM234.531 35.1005C231.651 32.0221 227.817 30.585 223.37 30.585V36.585C226.437 36.585 228.583 37.5245 230.149 39.1995L234.531 35.1005ZM223.37 30.585C218.924 30.585 215.089 32.0221 212.21 35.1005L216.591 39.1995C218.158 37.5245 220.304 36.585 223.37 36.585V30.585ZM212.21 35.1005C209.318 38.1917 208.065 42.35 208.065 47.155H214.065C214.065 43.3733 215.036 40.8617 216.591 39.1995L212.21 35.1005ZM208.065 47.155V82L214.065 82V47.155H208.065ZM211.065 79H191.4V85H211.065V79ZM194.4 82V17.83H188.4V82H194.4ZM191.4 20.83L211.065 20.83V14.83L191.4 14.83V20.83ZM208.065 17.83V26.34H214.065V17.83H208.065ZM213.52 28.0648C215.194 25.6829 217.462 23.7832 220.408 22.3774L217.823 16.9626C214.022 18.7768 210.924 21.3238 208.611 24.6152L213.52 28.0648ZM220.457 22.3533C223.367 20.8984 226.694 20.14 230.5 20.14V14.14C225.873 14.14 221.611 15.0683 217.774 16.9867L220.457 22.3533ZM317.881 65.325H320.881V62.325H317.881V65.325ZM317.881 82V85H320.881V82H317.881ZM291.201 76.825L289.213 79.072L289.225 79.0828L289.237 79.0935L291.201 76.825ZM285.221 34.16H288.221V31.16H285.221V34.16ZM277.401 34.16H274.401V37.16H277.401V34.16ZM277.401 17.83V14.83H274.401V17.83H277.401ZM285.221 17.83V20.83H288.221V17.83H285.221ZM285.221 2.19V-0.810001L282.221 -0.810001V2.19H285.221ZM304.886 2.19H307.886V-0.810001L304.886 -0.810001V2.19ZM304.886 17.83L301.886 17.83V20.83L304.886 20.83V17.83ZM317.766 17.83H320.766V14.83H317.766V17.83ZM317.766 34.16V37.16H320.766V34.16H317.766ZM304.886 34.16V31.16H301.886V34.16H304.886ZM306.266 64.06L304.238 66.2715L306.266 64.06ZM314.881 65.325V82H320.881V65.325H314.881ZM317.881 79H307.876V85H317.881V79ZM307.876 79C301.211 79 296.439 77.3907 293.164 74.5565L289.237 79.0935C293.936 83.1593 300.28 85 307.876 85V79ZM293.188 74.578C290.105 71.8501 288.221 67.1479 288.221 59.69H282.221C282.221 68.0255 284.323 74.7466 289.213 79.072L293.188 74.578ZM288.221 59.69V34.16H282.221V59.69H288.221ZM285.221 31.16H277.401V37.16H285.221V31.16ZM280.401 34.16V17.83H274.401V34.16H280.401ZM277.401 20.83H285.221V14.83H277.401V20.83ZM288.221 17.83V2.19H282.221V17.83H288.221ZM285.221 5.19L304.886 5.19V-0.810001L285.221 -0.810001V5.19ZM301.886 2.19V17.83L307.886 17.83V2.19H301.886ZM304.886 20.83H317.766V14.83H304.886V20.83ZM314.766 17.83V34.16H320.766V17.83H314.766ZM317.766 31.16H304.886V37.16H317.766V31.16ZM301.886 34.16V59.92H307.886V34.16H301.886ZM301.886 59.92C301.886 62.2306 302.432 64.6154 304.238 66.2715L308.293 61.8485C308.259 61.8179 307.886 61.4428 307.886 59.92H301.886ZM304.238 66.2715C305.993 67.8798 308.466 68.325 310.866 68.325V62.325C308.972 62.325 308.378 61.9268 308.293 61.8485L304.238 66.2715ZM310.866 68.325H317.881V62.325H310.866V68.325ZM341.829 32.435L339.154 31.0769L339.146 31.0934L339.138 31.1099L341.829 32.435ZM352.064 20.935L353.654 23.479L352.064 20.935ZM378.284 19.67L376.848 22.3037L376.86 22.3104L376.873 22.3171L378.284 19.67ZM386.219 26.915L383.664 28.4873L389.219 37.5141V26.915H386.219ZM386.219 17.83V14.83H383.219V17.83H386.219ZM405.884 17.83H408.884V14.83H405.884V17.83ZM405.884 82V85H408.884V82H405.884ZM386.219 82H383.219V85H386.219V82ZM386.219 72.915H389.219V62.676L383.694 71.296L386.219 72.915ZM378.169 80.16L376.758 77.5129L376.745 77.5196L376.733 77.5263L378.169 80.16ZM352.064 78.895L350.442 81.4185L350.458 81.4289L350.474 81.439L352.064 78.895ZM341.829 67.28L339.13 68.5888L339.142 68.6136L339.154 68.6381L341.829 67.28ZM382.079 38.3L379.9 40.3616L379.914 40.3769L379.929 40.3921L382.079 38.3ZM362.184 38.3L360.034 36.2079L360.033 36.2088L362.184 38.3ZM362.184 61.53L359.978 63.5624L360.005 63.5926L360.034 63.6221L362.184 61.53ZM382.079 61.53L379.929 59.4379L379.914 59.4531L379.9 59.4684L382.079 61.53ZM341.149 49.8C341.149 43.5809 342.305 38.2609 344.521 33.76L339.138 31.1099C336.447 36.5757 335.149 42.8324 335.149 49.8H341.149ZM344.504 33.7931C346.814 29.2443 349.871 25.8436 353.654 23.479L350.474 18.391C345.671 21.393 341.905 25.659 339.154 31.0769L344.504 33.7931ZM353.654 23.479C357.449 21.1074 361.685 19.91 366.439 19.91V13.91C360.613 13.91 355.266 15.3959 350.474 18.391L353.654 23.479ZM366.439 19.91C370.55 19.91 373.987 20.7434 376.848 22.3037L379.721 17.0363C375.835 14.9166 371.375 13.91 366.439 13.91V19.91ZM376.873 22.3171C379.908 23.9358 382.134 26.0007 383.664 28.4873L388.774 25.3427C386.624 21.8493 383.561 19.0842 379.696 17.0229L376.873 22.3171ZM389.219 26.915V17.83H383.219V26.915H389.219ZM386.219 20.83H405.884V14.83H386.219V20.83ZM402.884 17.83V82H408.884V17.83H402.884ZM405.884 79H386.219V85H405.884V79ZM389.219 82V72.915H383.219V82H389.219ZM383.694 71.296C382.081 73.811 379.801 75.8896 376.758 77.5129L379.581 82.8071C383.437 80.7504 386.524 77.999 388.745 74.534L383.694 71.296ZM376.733 77.5263C373.872 79.0866 370.435 79.92 366.324 79.92V85.92C371.26 85.92 375.72 84.9134 379.606 82.7937L376.733 77.5263ZM366.324 79.92C361.656 79.92 357.456 78.7271 353.654 76.351L350.474 81.439C355.259 84.4295 360.566 85.92 366.324 85.92V79.92ZM353.687 76.3715C349.883 73.9265 346.817 70.4767 344.504 65.9219L339.154 68.6381C341.902 74.05 345.659 78.3435 350.442 81.4185L353.687 76.3715ZM344.529 65.9712C342.305 61.3838 341.149 56.0177 341.149 49.8H335.149C335.149 56.7689 336.447 63.0562 339.13 68.5888L344.529 65.9712ZM389.219 49.915C389.219 44.4245 387.658 39.7319 384.229 36.2079L379.929 40.3921C382.02 42.5414 383.219 45.5922 383.219 49.915H389.219ZM384.259 36.2384C381.008 32.8018 376.923 31.045 372.189 31.045V37.045C375.276 37.045 377.784 38.1249 379.9 40.3616L384.259 36.2384ZM372.189 31.045C367.458 31.045 363.351 32.7988 360.034 36.2079L364.334 40.3921C366.537 38.1279 369.1 37.045 372.189 37.045V31.045ZM360.033 36.2088C356.667 39.6712 355.159 44.3364 355.159 49.8H361.159C361.159 45.4502 362.335 42.4488 364.335 40.3912L360.033 36.2088ZM355.159 49.8C355.159 55.2715 356.67 59.9708 359.978 63.5624L364.391 59.4976C362.332 57.2625 361.159 54.1418 361.159 49.8H355.159ZM360.034 63.6221C363.351 67.0312 367.458 68.785 372.189 68.785V62.785C369.1 62.785 366.537 61.7021 364.334 59.4379L360.034 63.6221ZM372.189 68.785C376.923 68.785 381.008 67.0282 384.259 63.5916L379.9 59.4684C377.784 61.7051 375.276 62.785 372.189 62.785V68.785ZM384.229 63.6221C387.658 60.0981 389.219 55.4055 389.219 49.915H383.219C383.219 54.2378 382.02 57.2886 379.929 59.4379L384.229 63.6221ZM433.451 32.435L430.827 30.9815L430.818 30.997L430.81 31.0127L433.451 32.435ZM444.836 20.935L443.397 18.3029L443.388 18.3077L443.379 18.3125L444.836 20.935ZM481.751 23.235L479.898 25.594L479.906 25.6003L479.914 25.6066L481.751 23.235ZM492.446 41.06V44.06H496.178L495.376 40.4154L492.446 41.06ZM471.516 41.06L468.693 42.0746L469.406 44.06H471.516V41.06ZM452.656 37.955L455.024 39.7968L455.036 39.7812L455.048 39.7653L452.656 37.955ZM452.656 61.99L450.264 63.8003L450.276 63.8162L450.288 63.8318L452.656 61.99ZM471.516 58.77V55.77H469.406L468.693 57.7554L471.516 58.77ZM492.446 58.77L495.373 59.4271L496.194 55.77H492.446V58.77ZM481.751 76.48L479.893 74.1245L481.751 76.48ZM444.836 78.895L443.379 81.5175L443.388 81.5223L443.397 81.5271L444.836 78.895ZM433.451 67.395L430.81 68.8173L430.818 68.8329L430.827 68.8485L433.451 67.395ZM432.426 49.915C432.426 43.6528 433.683 38.3316 436.092 33.8573L430.81 31.0127C427.852 36.5051 426.426 42.8372 426.426 49.915H432.426ZM436.075 33.8885C438.572 29.3804 441.97 25.9593 446.293 23.5575L443.379 18.3125C438.042 21.2773 433.85 25.523 430.827 30.9815L436.075 33.8885ZM446.275 23.5671C450.688 21.1539 455.779 19.91 461.626 19.91V13.91C454.9 13.91 448.797 15.3495 443.397 18.3029L446.275 23.5671ZM461.626 19.91C469.129 19.91 475.15 21.864 479.898 25.594L483.605 20.876C477.618 16.1727 470.223 13.91 461.626 13.91V19.91ZM479.914 25.6066C484.725 29.3335 487.958 34.622 489.516 41.7046L495.376 40.4154C493.561 32.1646 489.664 25.5698 483.588 20.8633L479.914 25.6066ZM492.446 38.06H471.516V44.06H492.446V38.06ZM474.339 40.0454C473.302 37.1594 471.692 34.7626 469.386 33.1044C467.073 31.4409 464.308 30.7 461.281 30.7V36.7C463.314 36.7 464.785 37.1857 465.883 37.9756C466.989 38.7708 467.967 40.0539 468.693 42.0746L474.339 40.0454ZM461.281 30.7C456.752 30.7 452.986 32.5473 450.264 36.1447L455.048 39.7653C456.619 37.6893 458.603 36.7 461.281 36.7V30.7ZM450.288 36.1132C447.574 39.6028 446.436 44.348 446.436 49.915H452.436C452.436 45.0554 453.445 41.8272 455.024 39.7968L450.288 36.1132ZM446.436 49.915C446.436 55.4898 447.577 60.2498 450.264 63.8003L455.048 60.1797C453.442 58.0569 452.436 54.7669 452.436 49.915H446.436ZM450.288 63.8318C453.023 67.3482 456.785 69.13 461.281 69.13V63.13C458.57 63.13 456.582 62.1518 455.024 60.1482L450.288 63.8318ZM461.281 69.13C464.308 69.13 467.073 68.3891 469.386 66.7256C471.692 65.0674 473.302 62.6706 474.339 59.7846L468.693 57.7554C467.967 59.7761 466.989 61.0592 465.883 61.8544C464.785 62.6443 463.314 63.13 461.281 63.13V69.13ZM471.516 61.77H492.446V55.77H471.516V61.77ZM489.519 58.1129C487.965 65.0332 484.735 70.3054 479.893 74.1245L483.609 78.8355C489.654 74.0679 493.553 67.5334 495.373 59.4271L489.519 58.1129ZM479.893 74.1245C475.057 77.9391 469.031 79.92 461.626 79.92V85.92C470.167 85.92 477.559 83.6076 483.609 78.8355L479.893 74.1245ZM461.626 79.92C455.779 79.92 450.688 78.6761 446.275 76.2629L443.397 81.5271C448.797 84.4805 454.9 85.92 461.626 85.92V79.92ZM446.293 76.2725C441.97 73.8707 438.572 70.4496 436.075 65.9415L430.827 68.8485C433.85 74.307 438.042 78.5527 443.379 81.5175L446.293 76.2725ZM436.092 65.9727C433.683 61.4984 432.426 56.1772 432.426 49.915H426.426C426.426 56.9928 427.852 63.3249 430.81 68.8173L436.092 65.9727ZM551.955 65.325H554.955V62.325H551.955V65.325ZM551.955 82V85H554.955V82H551.955ZM525.275 76.825L523.287 79.072L523.299 79.0828L523.312 79.0935L525.275 76.825ZM519.295 34.16H522.295V31.16H519.295V34.16ZM511.475 34.16H508.475V37.16H511.475V34.16ZM511.475 17.83V14.83H508.475V17.83H511.475ZM519.295 17.83V20.83L522.295 20.83V17.83L519.295 17.83ZM519.295 2.19V-0.810001L516.295 -0.810001V2.19H519.295ZM538.96 2.19H541.96V-0.810001L538.96 -0.810001V2.19ZM538.96 17.83H535.96V20.83H538.96V17.83ZM551.84 17.83H554.84V14.83H551.84V17.83ZM551.84 34.16V37.16H554.84V34.16H551.84ZM538.96 34.16V31.16L535.96 31.16V34.16L538.96 34.16ZM540.34 64.06L538.313 66.2715L540.34 64.06ZM548.955 65.325V82H554.955V65.325H548.955ZM551.955 79H541.95V85H551.955V79ZM541.95 79C535.285 79 530.513 77.3907 527.238 74.5565L523.312 79.0935C528.01 83.1593 534.355 85 541.95 85V79ZM527.263 74.578C524.179 71.8501 522.295 67.1479 522.295 59.69H516.295C516.295 68.0255 518.398 74.7466 523.287 79.072L527.263 74.578ZM522.295 59.69V34.16H516.295V59.69H522.295ZM519.295 31.16H511.475V37.16H519.295V31.16ZM514.475 34.16V17.83H508.475V34.16H514.475ZM511.475 20.83H519.295V14.83H511.475V20.83ZM522.295 17.83V2.19H516.295V17.83L522.295 17.83ZM519.295 5.19L538.96 5.19V-0.810001L519.295 -0.810001V5.19ZM535.96 2.19V17.83H541.96V2.19H535.96ZM538.96 20.83H551.84V14.83H538.96V20.83ZM548.84 17.83V34.16H554.84V17.83H548.84ZM551.84 31.16H538.96V37.16H551.84V31.16ZM535.96 34.16V59.92L541.96 59.92V34.16L535.96 34.16ZM535.96 59.92C535.96 62.2306 536.506 64.6154 538.313 66.2715L542.367 61.8485C542.334 61.8179 541.96 61.4428 541.96 59.92L535.96 59.92ZM538.313 66.2715C540.067 67.8798 542.54 68.325 544.94 68.325V62.325C543.046 62.325 542.453 61.9268 542.367 61.8485L538.313 66.2715ZM544.94 68.325H551.955V62.325H544.94V68.325Z" fill="white" mask="url(#path-1-outside-1_457_4696)"/>
</g>
</svg>
