<svg width="128" height="42" viewBox="0 0 128 42" fill="none" xmlns="http://www.w3.org/2000/svg">
<g clip-path="url(#clip0_419_2959)">
<path d="M15.7634 0.00585938H16.9016C20.8533 0.0917654 24.7406 1.68103 27.5325 4.49445C26.5016 5.5468 25.4493 6.55619 24.4399 7.60854C22.8721 6.19109 20.9822 5.09579 18.9204 4.70921C15.8708 4.06492 12.5849 4.64479 10.0292 6.38438C7.23723 8.20989 5.3473 11.3025 4.93924 14.6099C4.48824 17.8743 5.41173 21.3106 7.5379 23.8448C9.57817 26.3146 12.6923 27.8609 15.9137 27.9683C18.9204 28.1401 22.056 27.2166 24.2466 25.1119C25.9647 23.63 26.7594 21.375 27.0171 19.1844C23.452 19.1844 19.8869 19.2059 16.3218 19.1844V14.7602H31.3339C32.107 19.5065 30.9902 24.8542 27.3822 28.2475C24.9768 30.6528 21.648 32.0703 18.2547 32.3495C14.9688 32.6716 11.5755 32.0488 8.65468 30.4595C5.15401 28.5911 2.36206 25.434 0.987567 21.7186C-0.301023 18.3038 -0.322499 14.4381 0.880185 11.0018C1.97549 7.86626 4.08018 5.09579 6.78622 3.16291C9.38488 1.2515 12.5419 0.199148 15.7634 0.00585938Z" fill="#3780FF"/>
<path d="M101.885 1.12036H106.481V31.7888C104.956 31.7888 103.41 31.8103 101.885 31.7673C101.906 21.566 101.885 11.3432 101.885 1.12036Z" fill="#38B137"/>
<path d="M41.5571 11.7513C44.392 11.2144 47.4632 11.8157 49.8041 13.5124C51.9303 15.0157 53.4122 17.3781 53.8632 19.9553C54.443 22.9406 53.7128 26.205 51.78 28.5674C49.6967 31.209 46.282 32.6265 42.9531 32.4117C39.9034 32.2399 36.9397 30.7151 35.1357 28.2238C33.0954 25.4748 32.6014 21.6949 33.7182 18.4734C34.835 15.0157 37.992 12.3741 41.5571 11.7513ZM42.2014 15.8318C41.0417 16.1325 39.9679 16.7983 39.1947 17.7432C37.1115 20.2345 37.2404 24.2936 39.5383 26.613C40.8484 27.9446 42.8242 28.5674 44.6498 28.2023C46.3464 27.9016 47.8283 26.7634 48.6444 25.26C50.0618 22.7043 49.6538 19.1822 47.4847 17.1849C46.0887 15.8963 44.0484 15.3594 42.2014 15.8318Z" fill="#FA3913"/>
<path d="M64.3219 11.7512C67.5648 11.1284 71.1084 12.0304 73.5353 14.3069C77.487 17.8505 77.9165 24.4867 74.5447 28.5673C72.5044 31.1445 69.197 32.5619 65.9326 32.4116C62.8185 32.3257 59.7474 30.7794 57.9004 28.2237C55.8172 25.4102 55.3662 21.5445 56.5474 18.2586C57.7286 14.9082 60.8212 12.3525 64.3219 11.7512ZM64.9662 15.8317C63.8064 16.1324 62.7326 16.7982 61.9594 17.7216C59.8977 20.17 59.9836 24.1646 62.1957 26.5055C63.5058 27.9015 65.546 28.5888 67.436 28.2022C69.1111 27.88 70.6145 26.7633 71.4306 25.2599C72.8266 22.6827 72.4185 19.1606 70.2279 17.1633C68.8319 15.8747 66.7917 15.3592 64.9662 15.8317Z" fill="#FCBD06"/>
<path d="M83.6295 12.997C86.0993 11.4507 89.3853 11.0212 92.0483 12.3527C92.8859 12.7178 93.5732 13.3406 94.2389 13.9634C94.2604 13.3836 94.2389 12.7822 94.2604 12.1809C95.6993 12.2024 97.1383 12.1809 98.5987 12.2024V31.1446C98.5772 34.001 97.847 37.0292 95.7853 39.1124C93.5302 41.4104 90.0725 42.1191 86.9584 41.6466C83.6295 41.1527 80.7302 38.7258 79.4416 35.6547C80.7302 35.0319 82.0832 34.5379 83.4148 33.9581C84.1665 35.7191 85.6913 37.2225 87.6027 37.5661C89.5141 37.9097 91.7262 37.4373 92.9718 35.848C94.3034 34.2158 94.3034 31.9822 94.2389 29.9849C93.251 30.9514 92.1128 31.8104 90.7383 32.1326C87.753 32.9701 84.4671 31.9393 82.1691 29.9205C79.8497 27.9017 78.4752 24.7876 78.604 21.695C78.6685 18.1943 80.6443 14.8225 83.6295 12.997ZM88.0752 15.746C86.7651 15.9608 85.5409 16.691 84.7034 17.7003C82.6846 20.1057 82.6846 23.95 84.7248 26.3124C85.8846 27.7084 87.753 28.4816 89.5571 28.2883C91.2537 28.1165 92.8215 27.0426 93.6591 25.5607C95.0765 23.048 94.8403 19.6332 92.9289 17.4426C91.7477 16.0896 89.8577 15.4238 88.0752 15.746Z" fill="#3780FF"/>
<path d="M111.999 14.0923C114.577 11.6869 118.55 10.8708 121.857 12.1379C124.993 13.3191 126.99 16.3044 127.999 19.3755C123.339 21.3084 118.7 23.2198 114.04 25.1527C114.684 26.3768 115.672 27.4936 117.003 27.9446C118.872 28.6104 121.105 28.3741 122.673 27.1285C123.296 26.656 123.79 26.0332 124.263 25.4319C125.444 26.2265 126.625 26.9996 127.806 27.7943C126.131 30.307 123.318 32.0681 120.289 32.3473C116.939 32.7554 113.374 31.4668 111.205 28.8466C107.64 24.7231 107.983 17.8077 111.999 14.0923ZM114.297 18.0654C113.567 19.1178 113.267 20.4064 113.288 21.6735C116.402 20.3849 119.516 19.0963 122.63 17.7862C122.115 16.5835 120.869 15.8533 119.602 15.6601C117.562 15.295 115.436 16.3903 114.297 18.0654Z" fill="#FA3913"/>
</g>
<defs>
<clipPath id="clip0_419_2959">
<rect width="128" height="41.7792" fill="white"/>
</clipPath>
</defs>
</svg>
