<svg width="98" height="32" viewBox="0 0 98 32" fill="none" xmlns="http://www.w3.org/2000/svg">
<g clip-path="url(#clip0_748_982)">
<path d="M12.0686 0.00561523H12.9401C15.9656 0.071387 18.9418 1.28816 21.0794 3.44219C20.2901 4.24789 19.4844 5.02071 18.7116 5.82642C17.5112 4.74118 16.0643 3.90259 14.4857 3.60662C12.1508 3.11333 9.63507 3.55729 7.67836 4.88917C5.54077 6.28682 4.09379 8.6546 3.78138 11.1868C3.43608 13.6861 4.14312 16.317 5.77097 18.2573C7.33305 20.1482 9.71728 21.3321 12.1837 21.4143C14.4857 21.5459 16.8864 20.8388 18.5636 19.2274C19.879 18.0928 20.4874 16.3663 20.6847 14.6892C17.9552 14.6892 15.2257 14.7056 12.4961 14.6892V11.3019H23.9898C24.5817 14.9358 23.7267 19.0301 20.9643 21.6281C19.1226 23.4697 16.574 24.5549 13.976 24.7687C11.4602 25.0153 8.86225 24.5385 6.62601 23.3217C3.94581 21.8912 1.80823 19.4741 0.755877 16.6294C-0.230699 14.015 -0.247142 11.0553 0.673663 8.4244C1.51225 6.02373 3.12366 3.90259 5.19547 2.42273C7.18507 0.959306 9.60218 0.153602 12.0686 0.00561523Z" fill="#3780FF"/>
<path d="M78.0054 0.85791H81.5242V24.3384C80.3567 24.3384 79.1728 24.3549 78.0054 24.322C78.0218 16.5116 78.0054 8.68475 78.0054 0.85791Z" fill="#38B137"/>
<path d="M31.817 8.99718C33.9875 8.58611 36.3388 9.04651 38.1311 10.3455C39.759 11.4965 40.8935 13.3052 41.2388 15.2784C41.6828 17.5639 41.1237 20.0633 39.6439 21.872C38.0489 23.8945 35.4345 24.9797 32.8858 24.8153C30.5509 24.6837 28.2818 23.5163 26.9006 21.6089C25.3385 19.5042 24.9603 16.6103 25.8153 14.1438C26.6704 11.4965 29.0875 9.47402 31.817 8.99718ZM32.3103 12.1213C31.4224 12.3515 30.6002 12.8613 30.0083 13.5848C28.4133 15.4921 28.512 18.5999 30.2714 20.3757C31.2744 21.3952 32.7872 21.872 34.1848 21.5925C35.4838 21.3623 36.6184 20.4908 37.2432 19.3398C38.3284 17.3831 38.016 14.6864 36.3553 13.1572C35.2865 12.1707 33.7244 11.7596 32.3103 12.1213Z" fill="#FA3913"/>
<path d="M49.2464 8.99717C51.7293 8.52032 54.4424 9.21093 56.3005 10.9539C59.326 13.667 59.6548 18.7478 57.0733 21.872C55.5112 23.8451 52.979 24.9304 50.4797 24.8153C48.0954 24.7495 45.7441 23.5656 44.33 21.6089C42.735 19.4549 42.3897 16.4951 43.2941 13.9794C44.1984 11.4143 46.5662 9.45757 49.2464 8.99717ZM49.7397 12.1213C48.8518 12.3515 48.0296 12.8613 47.4377 13.5683C45.8592 15.4428 45.925 18.5012 47.6186 20.2935C48.6216 21.3623 50.1837 21.8884 51.6307 21.5925C52.9132 21.3458 54.0642 20.4908 54.689 19.3398C55.7578 17.3666 55.4454 14.67 53.7682 13.1408C52.6994 12.1542 51.1374 11.7596 49.7397 12.1213Z" fill="#FCBD06"/>
<path d="M64.0288 9.95088C65.9198 8.76699 68.4356 8.43813 70.4745 9.45759C71.1158 9.73712 71.6419 10.214 72.1517 10.6908C72.1681 10.2469 72.1517 9.78645 72.1681 9.32605C73.2698 9.34249 74.3715 9.32605 75.4896 9.34249V23.8452C75.4732 26.0321 74.9141 28.3505 73.3356 29.9455C71.6091 31.7049 68.9617 32.2475 66.5775 31.8858C64.0288 31.5076 61.809 29.6495 60.8225 27.2982C61.809 26.8213 62.8449 26.4432 63.8644 25.9992C64.4399 27.3475 65.6074 28.4985 67.0708 28.7616C68.5342 29.0247 70.2278 28.6629 71.1815 27.4462C72.201 26.1965 72.201 24.4864 72.1517 22.9572C71.3953 23.6972 70.5238 24.3549 69.4715 24.6015C67.1859 25.2428 64.6701 24.4536 62.9107 22.9079C61.1349 21.3623 60.0825 18.9781 60.1812 16.6103C60.2305 13.9301 61.7433 11.3485 64.0288 9.95088ZM67.4325 12.0556C66.4295 12.22 65.4923 12.7791 64.851 13.5519C63.3053 15.3935 63.3053 18.3368 64.8674 20.1455C65.7554 21.2143 67.1859 21.8062 68.5671 21.6583C69.8661 21.5267 71.0664 20.7046 71.7077 19.57C72.7929 17.6462 72.6121 15.0317 71.1487 13.3546C70.2443 12.3187 68.7973 11.8089 67.4325 12.0556Z" fill="#3780FF"/>
<path d="M85.7497 10.7895C87.7228 8.94787 90.7648 8.32304 93.297 9.29317C95.6977 10.1975 97.2269 12.4831 97.9997 14.8344C94.4316 16.3143 90.8799 17.7777 87.3118 19.2576C87.805 20.1948 88.5614 21.0499 89.5809 21.3952C91.0114 21.9049 92.7215 21.724 93.9218 20.7703C94.3987 20.4086 94.7769 19.9318 95.1386 19.4714C96.043 20.0797 96.9473 20.6717 97.8517 21.2801C96.5691 23.2039 94.4151 24.5522 92.0967 24.766C89.5316 25.0784 86.802 24.0918 85.1413 22.0858C82.4118 18.9287 82.6748 13.6341 85.7497 10.7895ZM87.5091 13.8314C86.95 14.6371 86.7198 15.6237 86.7363 16.5938C89.1205 15.6073 91.5047 14.6207 93.8889 13.6177C93.4943 12.6969 92.5406 12.1378 91.5705 11.9898C90.0084 11.7103 88.3806 12.5489 87.5091 13.8314Z" fill="#FA3913"/>
</g>
<defs>
<clipPath id="clip0_748_982">
<rect width="98" height="31.9872" fill="white"/>
</clipPath>
</defs>
</svg>
