<svg width="90" height="90" viewBox="0 0 90 90" fill="none" xmlns="http://www.w3.org/2000/svg">
<rect opacity="0.42" x="89.7505" y="89.75" width="89.5" height="89.5" rx="44.75" transform="rotate(-180 89.7505 89.75)" stroke="#FF3104" stroke-width="0.5"/>
<rect opacity="0.45" x="84.7505" y="84.75" width="79.5" height="79.5" rx="39.75" transform="rotate(-180 84.7505 84.75)" stroke="#FF3104" stroke-width="0.5"/>
<rect x="79.0005" y="79" width="68" height="68" rx="34" transform="rotate(-180 79.0005 79)" fill="white" stroke="#FF3104" stroke-width="2"/>
<path fill-rule="evenodd" clip-rule="evenodd" d="M39.2535 29.3505C32.8801 31.6915 28.3333 37.8147 28.3333 45C28.3333 45.9712 28.4163 46.9231 28.5758 47.8488L43.1628 43.9402L39.2535 29.3505ZM42.1517 28.5757L46.19 43.6467L46.2016 43.6901C46.2516 43.8758 46.3221 44.1378 46.3531 44.3779C46.3921 44.6806 46.4013 45.1594 46.1196 45.6473C45.8379 46.1352 45.4187 46.3667 45.137 46.4843C44.9135 46.5775 44.6514 46.6474 44.4656 46.697L44.4222 46.7086L29.3506 50.747C31.6918 57.1201 37.8149 61.6666 44.9999 61.6666C54.2047 61.6666 61.6666 54.2047 61.6666 45C61.6666 35.7952 54.2047 28.3333 44.9999 28.3333C44.0289 28.3333 43.0772 28.4164 42.1517 28.5757Z" fill="url(#paint0_linear_435_3104)"/>
<path d="M40.1255 26.8084C39.8774 25.8824 39.7533 25.4193 39.3598 25.2167C38.9663 25.014 38.5455 25.1714 37.7038 25.4861C35.7738 26.2077 33.958 27.213 32.3174 28.4718C30.1469 30.1373 28.3257 32.214 26.9578 34.5834C25.5898 36.9527 24.702 39.5683 24.3449 42.2807C24.0749 44.3309 24.1122 46.4061 24.4523 48.4384C24.6006 49.3246 24.6748 49.7678 25.047 50.0072C25.4193 50.2466 25.8823 50.1226 26.8084 49.8744L43.0681 45.5177C43.9788 45.2736 44.4341 45.1516 44.6412 44.7929C44.8483 44.4342 44.7263 43.9789 44.4823 43.0682L40.1255 26.8084Z" fill="url(#paint1_linear_435_3104)"/>
<defs>
<linearGradient id="paint0_linear_435_3104" x1="28.5715" y1="31.0714" x2="65.7143" y2="61.4286" gradientUnits="userSpaceOnUse">
<stop stop-color="#0075E1"/>
<stop offset="1" stop-color="#002A51"/>
</linearGradient>
<linearGradient id="paint1_linear_435_3104" x1="45" y1="24.1667" x2="29.2857" y2="67.8572" gradientUnits="userSpaceOnUse">
<stop stop-color="#0075E1"/>
<stop offset="1" stop-color="#0075E1" stop-opacity="0"/>
</linearGradient>
</defs>
</svg>
