<svg width="90" height="90" viewBox="0 0 90 90" fill="none" xmlns="http://www.w3.org/2000/svg">
<rect opacity="0.42" x="0.250488" y="0.25" width="89.5" height="89.5" rx="44.75" stroke="#26ACCA" stroke-width="0.5"/>
<rect opacity="0.45" x="5.25049" y="5.25" width="79.5" height="79.5" rx="39.75" stroke="#26ACCA" stroke-width="0.5"/>
<rect x="11.0005" y="11" width="68" height="68" rx="34" fill="white" stroke="#26ACCA" stroke-width="2"/>
<path fill-rule="evenodd" clip-rule="evenodd" d="M39.2535 29.3505C32.8801 31.6915 28.3333 37.8148 28.3333 45C28.3333 45.9713 28.4163 46.9231 28.5758 47.8489L43.1628 43.9403L39.2535 29.3505ZM42.1517 28.5758L46.19 43.6468L46.2016 43.6902C46.2516 43.8759 46.3221 44.1378 46.3531 44.378C46.3921 44.6807 46.4013 45.1595 46.1196 45.6474C45.8379 46.1353 45.4187 46.3667 45.137 46.4843C44.9135 46.5776 44.6514 46.6475 44.4656 46.6971L44.4222 46.7087L29.3506 50.7471C31.6918 57.1201 37.8149 61.6667 44.9999 61.6667C54.2047 61.6667 61.6666 54.2048 61.6666 45C61.6666 35.7953 54.2047 28.3334 44.9999 28.3334C44.0289 28.3334 43.0772 28.4164 42.1517 28.5758Z" fill="url(#paint0_linear_435_3112)"/>
<path d="M40.1257 26.8084C39.8775 25.8823 39.7535 25.4193 39.36 25.2166C38.9665 25.014 38.5456 25.1713 37.7039 25.486C35.7739 26.2076 33.9581 27.2129 32.3176 28.4718C30.147 30.1373 28.3258 32.214 26.9579 34.5833C25.5899 36.9526 24.7021 39.5682 24.345 42.2807C24.0751 44.3308 24.1124 46.406 24.4524 48.4383C24.6007 49.3246 24.6749 49.7677 25.0472 50.0071C25.4194 50.2466 25.8824 50.1225 26.8085 49.8744L43.0682 45.5176C43.9789 45.2736 44.4343 45.1516 44.6414 44.7929C44.8485 44.4341 44.7265 43.9788 44.4824 43.0681L40.1257 26.8084Z" fill="url(#paint1_linear_435_3112)"/>
<defs>
<linearGradient id="paint0_linear_435_3112" x1="28.5715" y1="31.0715" x2="65.7143" y2="61.4286" gradientUnits="userSpaceOnUse">
<stop stop-color="#0075E1"/>
<stop offset="1" stop-color="#002A51"/>
</linearGradient>
<linearGradient id="paint1_linear_435_3112" x1="45.0001" y1="24.1666" x2="29.2858" y2="67.8571" gradientUnits="userSpaceOnUse">
<stop stop-color="#0075E1"/>
<stop offset="1" stop-color="#0075E1" stop-opacity="0"/>
</linearGradient>
</defs>
</svg>
