<svg width="90" height="90" viewBox="0 0 90 90" fill="none" xmlns="http://www.w3.org/2000/svg">
<rect opacity="0.42" x="0.250488" y="0.25" width="89.5" height="89.5" rx="44.75" stroke="#148BDC" stroke-width="0.5"/>
<rect opacity="0.45" x="5.25049" y="5.25" width="79.5" height="79.5" rx="39.75" stroke="#148BDC" stroke-width="0.5"/>
<rect x="11.0005" y="11" width="68" height="68" rx="34" fill="white" stroke="#0B63E5" stroke-width="2"/>
<path d="M50.9849 56.292C50.9457 56.1625 50.8646 56.0497 50.7543 55.9713C50.644 55.893 50.5107 55.8536 50.3755 55.8594H40.6255C40.4903 55.8536 40.357 55.893 40.2467 55.9713C40.1364 56.0497 40.0552 56.1625 40.0161 56.292L38.188 62.3858H52.813L50.9849 56.292Z" fill="#93A8A9"/>
<path d="M29.0047 57.0781C28.4996 57.0437 28.0286 56.8111 27.6943 56.431C27.3599 56.051 27.1891 55.5542 27.2192 55.0489V29.8573C27.1891 29.352 27.3599 28.8553 27.6943 28.4752C28.0286 28.0952 28.4996 27.8626 29.0047 27.8281H61.9962C62.5013 27.8626 62.9723 28.0952 63.3067 28.4752C63.6411 28.8553 63.8118 29.352 63.7817 29.8573V54.9636C63.7762 55.2474 63.7147 55.5274 63.6007 55.7874C63.4868 56.0474 63.3226 56.2823 63.1177 56.4788C62.9127 56.6752 62.6711 56.8293 62.4065 56.9321C62.1419 57.035 61.8596 57.0846 61.5758 57.0781H29.0047Z" fill="#D5E1DD"/>
<path d="M63.7818 49.7656V54.6406C63.8116 55.2562 63.5961 55.8584 63.1826 56.3154C62.7691 56.7723 62.1913 57.0466 61.5758 57.0781H29.0108C28.0175 57.0781 27.2192 56.03 27.2192 54.7381V49.7656H63.7818Z" fill="#31464F"/>
<path d="M57.688 61.9531H33.313V63.1719H57.688V61.9531Z" fill="#4C5870"/>
<path d="M45.5005 55.25C46.5101 55.25 47.3286 54.4315 47.3286 53.4219C47.3286 52.4122 46.5101 51.5938 45.5005 51.5938C44.4908 51.5938 43.6724 52.4122 43.6724 53.4219C43.6724 54.4315 44.4908 55.25 45.5005 55.25Z" fill="#7ACFD6"/>
<path d="M40.0161 34.2266H39.553C39.4926 34.2271 39.4336 34.2093 39.3835 34.1756C39.3335 34.1419 39.2948 34.0938 39.2727 34.0377C39.2487 33.9826 39.2423 33.9214 39.2543 33.8625C39.2663 33.8037 39.2961 33.7499 39.3397 33.7086L39.6627 33.3795C39.7762 33.2654 39.8399 33.1109 39.8399 32.9499C39.8399 32.7889 39.7762 32.6345 39.6627 32.5203L38.3708 31.2284C38.2566 31.1149 38.1022 31.0512 37.9412 31.0512C37.7802 31.0512 37.6258 31.1149 37.5116 31.2284L37.1825 31.5514C37.1412 31.595 37.0874 31.6249 37.0286 31.6369C36.9697 31.6488 36.9085 31.6424 36.8535 31.6184C36.7973 31.5963 36.7492 31.5576 36.7155 31.5076C36.6818 31.4575 36.664 31.3985 36.6646 31.3381V30.875C36.6646 30.7134 36.6003 30.5584 36.4861 30.4441C36.3718 30.3298 36.2168 30.2656 36.0552 30.2656H34.2271C34.0654 30.2656 33.9104 30.3298 33.7962 30.4441C33.6819 30.5584 33.6177 30.7134 33.6177 30.875V31.3381C33.6182 31.3985 33.6004 31.4575 33.5667 31.5076C33.533 31.5576 33.4849 31.5963 33.4288 31.6184C33.3737 31.6424 33.3125 31.6488 33.2537 31.6369C33.1948 31.6249 33.141 31.595 33.0997 31.5514L32.7706 31.2284C32.6565 31.1149 32.502 31.0512 32.341 31.0512C32.18 31.0512 32.0256 31.1149 31.9114 31.2284L30.6196 32.5203C30.5061 32.6345 30.4423 32.7889 30.4423 32.9499C30.4423 33.1109 30.5061 33.2654 30.6196 33.3795L30.9425 33.7086C30.9861 33.7499 31.016 33.8037 31.028 33.8625C31.04 33.9214 31.0335 33.9826 31.0096 34.0377C30.9874 34.0938 30.9487 34.1419 30.8987 34.1756C30.8487 34.2093 30.7896 34.2271 30.7292 34.2266H30.2661C30.1045 34.2266 29.9495 34.2908 29.8352 34.405C29.7209 34.5193 29.6567 34.6743 29.6567 34.8359V36.6641C29.6567 36.8257 29.7209 36.9807 29.8352 37.095C29.9495 37.2092 30.1045 37.2734 30.2661 37.2734H30.7292C30.7896 37.2729 30.8487 37.2907 30.8987 37.3244C30.9487 37.3581 30.9874 37.4062 31.0096 37.4623C31.0335 37.5174 31.04 37.5786 31.028 37.6375C31.016 37.6963 30.9861 37.7501 30.9425 37.7914L30.6196 38.1205C30.562 38.1769 30.5162 38.2442 30.4848 38.3185C30.4534 38.3927 30.4371 38.4725 30.4367 38.5531C30.439 38.7139 30.5047 38.8672 30.6196 38.9797L31.9114 40.2716C32.0256 40.3851 32.18 40.4488 32.341 40.4488C32.502 40.4488 32.6565 40.3851 32.7706 40.2716L33.0997 39.9486C33.141 39.905 33.1948 39.8751 33.2537 39.8631C33.3125 39.8512 33.3737 39.8576 33.4288 39.8816C33.4849 39.9037 33.533 39.9424 33.5667 39.9924C33.6004 40.0425 33.6182 40.1015 33.6177 40.1619V40.625C33.6177 40.7866 33.6819 40.9416 33.7962 41.0559C33.9104 41.1702 34.0654 41.2344 34.2271 41.2344H36.0552C36.2168 41.2344 36.3718 41.1702 36.4861 41.0559C36.6003 40.9416 36.6646 40.7866 36.6646 40.625V40.1619C36.664 40.1015 36.6818 40.0425 36.7155 39.9924C36.7492 39.9424 36.7973 39.9037 36.8535 39.8816C36.9082 39.8557 36.9698 39.8483 37.0291 39.8603C37.0885 39.8724 37.1423 39.9034 37.1825 39.9486L37.5116 40.2716C37.6258 40.3851 37.7802 40.4488 37.9412 40.4488C38.1022 40.4488 38.2566 40.3851 38.3708 40.2716L39.6627 38.9797C39.7775 38.8672 39.8432 38.7139 39.8455 38.5531C39.8452 38.4725 39.8288 38.3927 39.7974 38.3185C39.7661 38.2442 39.7203 38.1769 39.6627 38.1205L39.3397 37.7914C39.2961 37.7501 39.2663 37.6963 39.2543 37.6375C39.2423 37.5786 39.2487 37.5174 39.2727 37.4623C39.2948 37.4062 39.3335 37.3581 39.3835 37.3244C39.4336 37.2907 39.4926 37.2729 39.553 37.2734H40.0161C40.1777 37.2734 40.3327 37.2092 40.447 37.095C40.5613 36.9807 40.6255 36.8257 40.6255 36.6641V34.8359C40.6255 34.6743 40.5613 34.5193 40.447 34.405C40.3327 34.2908 40.1777 34.2266 40.0161 34.2266Z" fill="#31464F"/>
<path d="M35.1411 38.1875C36.4873 38.1875 37.5786 37.0962 37.5786 35.75C37.5786 34.4038 36.4873 33.3125 35.1411 33.3125C33.7949 33.3125 32.7036 34.4038 32.7036 35.75C32.7036 37.0962 33.7949 38.1875 35.1411 38.1875Z" fill="#7CA2A1"/>
<path d="M60.7349 41.2344H50.9849C50.6483 41.2344 50.3755 41.5072 50.3755 41.8438V47.9375C50.3755 48.274 50.6483 48.5469 50.9849 48.5469H60.7349C61.0714 48.5469 61.3442 48.274 61.3442 47.9375V41.8438C61.3442 41.5072 61.0714 41.2344 60.7349 41.2344Z" fill="#ED8A3F"/>
<path d="M58.9067 33.9219H44.2817V35.1406H58.9067V33.9219Z" fill="#005995"/>
<path d="M60.1255 36.3594H41.8442V37.5781H60.1255V36.3594Z" fill="#005995"/>
<path d="M47.938 43.6719H35.7505V44.8906H47.938V43.6719Z" fill="#003A6F"/>
<path d="M49.1567 46.1094H32.0942V47.3281H49.1567V46.1094Z" fill="#003A6F"/>
</svg>
