<svg width="90" height="62" viewBox="0 0 90 62" fill="none" xmlns="http://www.w3.org/2000/svg">
<path opacity="0.12" d="M50.5 38C50.5 31.5 51.5 25.9167 53.5 21.25C55.5 16.4167 58.0833 12.5 61.25 9.49999C64.4167 6.33333 68 4.08333 72 2.74999C76.1667 1.24999 80.25 0.49999 84.25 0.49999V9.25C79.9167 9.25 75.8333 10.75 72 13.75C68.3333 16.5833 66.1667 20.5 65.5 25.5C66 25.3333 66.5833 25.1667 67.25 25C67.75 24.8333 68.3333 24.6667 69 24.5C69.8333 24.3333 70.75 24.25 71.75 24.25C76.75 24.25 80.9167 26.1667 84.25 30C87.5833 33.6667 89.25 38 89.25 43C89.25 48 87.5 52.4167 84 56.25C80.6667 59.9167 76.1667 61.75 70.5 61.75C64.1667 61.75 59.25 59.4167 55.75 54.75C52.25 49.9167 50.5 44.3333 50.5 38ZM0.5 38C0.5 31.5 1.5 25.9167 3.5 21.25C5.5 16.4167 8.08333 12.5 11.25 9.49999C14.4167 6.33333 18 4.08333 22 2.74999C26.1667 1.24999 30.25 0.49999 34.25 0.49999V9.25C29.9167 9.25 25.8333 10.75 22 13.75C18.3333 16.5833 16.1667 20.5 15.5 25.5C16 25.3333 16.5833 25.1667 17.25 25C17.75 24.8333 18.3333 24.6667 19 24.5C19.8333 24.3333 20.75 24.25 21.75 24.25C26.75 24.25 30.9167 26.1667 34.25 30C37.5833 33.6667 39.25 38 39.25 43C39.25 48 37.5 52.4167 34 56.25C30.6667 59.9167 26.1667 61.75 20.5 61.75C14.1667 61.75 9.25 59.4167 5.75 54.75C2.25 49.9167 0.5 44.3333 0.5 38Z" fill="#148BDC"/>
</svg>
