<svg width="38" height="74" viewBox="0 0 38 74" fill="none" xmlns="http://www.w3.org/2000/svg">
<rect x="0.5" y="0.5" width="37" height="73" rx="18" stroke="#A4A4A4"/>
<g clip-path="url(#clip0_419_2857)">
<path d="M18 30.5L18 27.43C17.7049 27.3257 17.4499 27.1318 17.2706 26.8754C17.0913 26.619 16.9967 26.3129 17 26L17 24C17 23.6022 17.158 23.2206 17.4393 22.9393C17.7206 22.658 18.1021 22.5 18.5 22.5C18.8978 22.5 19.2793 22.658 19.5606 22.9393C19.8419 23.2206 20 23.6022 20 24L20 26C19.9991 26.3095 19.9025 26.6111 19.7235 26.8635C19.5445 27.116 19.2917 27.3068 19 27.41L19 30.5C20.3703 30.3749 21.644 29.7407 22.5697 28.7225C23.4953 27.7043 24.0056 26.3761 24 25L24 21C24 19.5413 23.4205 18.1424 22.389 17.1109C21.3576 16.0795 19.9586 15.5 18.5 15.5C17.0413 15.5 15.6423 16.0795 14.6109 17.1109C13.5794 18.1424 13 19.5413 13 21L13 25C12.9943 26.3761 13.5046 27.7043 14.4302 28.7225C15.3559 29.7407 16.6296 30.3749 18 30.5Z" fill="url(#paint0_linear_419_2857)"/>
<path d="M19 24C19 23.8674 18.9473 23.7402 18.8536 23.6464C18.7598 23.5527 18.6326 23.5 18.5 23.5C18.3674 23.5 18.2402 23.5527 18.1464 23.6464C18.0527 23.7402 18 23.8674 18 24L18 26C18 26.1326 18.0527 26.2598 18.1464 26.3536C18.2402 26.4473 18.3674 26.5 18.5 26.5C18.6326 26.5 18.7598 26.4473 18.8536 26.3536C18.9473 26.2598 19 26.1326 19 26L19 24Z" fill="#614BD1"/>
</g>
<path d="M14 36.4312C14 36.3216 14.0513 36.212 14.1613 36.1255C14.374 35.9582 14.7259 35.9582 14.9386 36.1255L19.0009 39.321L23.0632 36.1255C23.2759 35.9582 23.6279 35.9582 23.8405 36.1255C24.0532 36.2927 24.0532 36.5696 23.8405 36.7369L19.3896 40.2382C19.1769 40.4055 18.8249 40.4055 18.6123 40.2382L14.1613 36.7369C14.0513 36.6504 14 36.5408 14 36.4312Z" fill="#4D4D4D"/>
<path d="M14 42.9766C14 42.867 14.0513 42.7574 14.1613 42.6709C14.374 42.5036 14.7259 42.5036 14.9386 42.6709L19.0009 45.8665L23.0632 42.6709C23.2759 42.5036 23.6279 42.5036 23.8405 42.6709C24.0532 42.8382 24.0532 43.115 23.8405 43.2823L19.3896 46.7836C19.1769 46.9509 18.8249 46.9509 18.6123 46.7836L14.1613 43.2823C14.0513 43.1958 14 43.0862 14 42.9766Z" fill="#7E7E7E"/>
<path d="M14 49.5221C14 49.4125 14.0513 49.3029 14.1613 49.2164C14.374 49.0491 14.7259 49.0491 14.9386 49.2164L19.0009 52.4119L23.0632 49.2164C23.2759 49.0491 23.6279 49.0491 23.8405 49.2164C24.0532 49.3836 24.0532 49.6605 23.8405 49.8278L19.3896 53.3291C19.1769 53.4964 18.8249 53.4964 18.6123 53.3291L14.1613 49.8278C14.0513 49.7413 14 49.6317 14 49.5221Z" fill="#9C9C9C"/>
<path d="M14 56.0675C14 55.9579 14.0513 55.8483 14.1613 55.7618C14.374 55.5945 14.7259 55.5945 14.9386 55.7618L19.0009 58.9574L23.0632 55.7618C23.2759 55.5945 23.6279 55.5945 23.8405 55.7618C24.0532 55.9291 24.0532 56.206 23.8405 56.3732L19.3896 59.8745C19.1769 60.0418 18.8249 60.0418 18.6123 59.8745L14.1613 56.3732C14.0513 56.2867 14 56.1771 14 56.0675Z" fill="white"/>
<defs>
<linearGradient id="paint0_linear_419_2857" x1="18.5" y1="30.5" x2="18.5" y2="15.5" gradientUnits="userSpaceOnUse">
<stop stop-color="#5D52E9"/>
</linearGradient>
<clipPath id="clip0_419_2857">
<rect width="11" height="16" fill="white" transform="matrix(-1 0 0 -1 24 31)"/>
</clipPath>
</defs>
</svg>
