<svg width="48" height="60" viewBox="0 0 48 60" fill="none" xmlns="http://www.w3.org/2000/svg">
<path d="M15.7153 12.8933C15.6986 10.6725 13.9657 8.97549 11.8726 8.92028C9.60576 8.85998 7.87643 10.6776 7.8163 12.7618C7.75545 14.8475 9.38044 16.8206 11.7509 16.8329C13.9497 16.8446 15.6812 15.0909 15.7153 12.8926M12.2363 0C12.2588 0.0385027 12.2972 0.0290618 12.3312 0.0305148C13.0782 0.0675645 13.815 0.172175 14.5423 0.34798C15.6312 0.610961 16.6607 1.02359 17.6301 1.5866C18.4436 2.05881 19.1884 2.62182 19.868 3.27346C21.2669 4.61669 22.2819 6.20547 22.9006 8.04561C23.1397 8.75609 23.3034 9.48402 23.4019 10.2272C23.4976 10.9537 23.5302 11.6816 23.4882 12.4124C23.4063 13.8457 23.0404 15.2071 22.4435 16.5097C21.9921 17.4955 21.4299 18.4145 20.7953 19.2906C20.3041 19.9684 19.7803 20.6207 19.2116 21.2346C18.8776 21.5957 18.5219 21.9371 18.1749 22.2851C17.9532 22.5074 17.7286 22.7275 17.5047 22.9476C16.9505 23.4925 16.3977 24.0373 15.8413 24.5793C15.2893 25.1161 14.7343 25.6515 14.1779 26.184C13.6425 26.6962 13.1042 27.2047 12.5645 27.7125C12.4356 27.8338 12.2986 27.9486 12.1603 28.0605C11.9386 28.2392 11.8792 28.2552 11.5778 28.2443C11.5495 28.2188 11.5126 28.1898 11.48 28.1564C10.6128 27.2882 9.70573 26.4623 8.8052 25.629C8.05755 24.9367 7.30844 24.2451 6.56875 23.5433C5.66533 22.6861 4.79523 21.7962 3.98092 20.8525C3.13473 19.8718 2.3581 18.8402 1.71042 17.7149C1.11852 16.6869 0.649056 15.6081 0.357092 14.4552C0.224513 13.9307 0.125984 13.4011 0.07672 12.8621C0.0622305 12.703 0.0528102 12.5424 0.0383207 12.3833C0.0332494 12.3245 0.0209357 12.2671 0.013691 12.209C0.00789518 12.1625 0.00137172 12.1145 0.00137172 12.0681C-7.72357e-05 11.8777 -0.000801712 11.6881 0.00137172 11.4985C0.00209619 11.4397 0.0158648 11.3815 0.0231095 11.3234C0.0274564 11.2886 0.0339813 11.2537 0.0368792 11.2181C0.0629603 10.9166 0.082518 10.6144 0.115119 10.3144C0.187567 9.65183 0.32884 9.0031 0.523 8.36598C1.06273 6.59196 1.97267 5.03296 3.24485 3.68754C4.18232 2.69592 5.25818 1.88809 6.4753 1.27204C7.41567 0.796207 8.40313 0.454767 9.43695 0.249177C10.0245 0.132216 10.6171 0.0588432 11.2148 0.0312375C11.2474 0.0297846 11.28 0.0123521 11.3119 0.00218153H12.2356L12.2363 0Z" fill="#1DB5E7"/>
<path d="M18.1225 42.7628C18.0841 42.7519 18.0457 42.7346 18.0059 42.7309C17.4742 42.681 16.9511 42.5898 16.4368 42.4466C15.0779 42.0681 13.8797 41.3988 12.8388 40.4501C12.1107 39.7873 11.5102 39.0224 11.0386 38.1577C10.5642 37.2886 10.244 36.3667 10.0861 35.3877C10.0194 34.9723 9.98247 34.5555 9.97595 34.1351C9.96074 33.1394 10.667 32.2768 11.6167 32.0655C12.867 31.7862 13.9217 32.6133 14.1485 33.6691C14.189 33.8565 14.1919 34.0446 14.2028 34.2328C14.268 35.3196 14.6722 36.2632 15.4075 37.0628C16.1347 37.853 17.0337 38.34 18.0964 38.492C19.3721 38.6758 20.5304 38.3646 21.551 37.5788C22.3341 36.9753 22.8564 36.1887 23.1404 35.2415C23.3229 34.6337 23.2396 34.062 22.9332 33.515C22.8926 33.4426 22.847 33.3738 22.8028 33.3037C21.8307 31.7841 20.8592 30.2637 19.8864 28.7449C19.7473 28.5278 19.6394 28.2998 19.5966 28.0451C19.4286 27.0509 20.095 26.1739 20.9867 26.0081C21.1454 25.9785 21.304 25.9727 21.4641 25.9727H28.0365C28.5103 25.9727 28.9841 25.9741 29.4578 25.9727C29.7707 25.9712 30.0714 26.0241 30.3481 26.176C30.8834 26.4691 31.192 26.9206 31.2753 27.5241C31.3347 27.9532 31.2282 28.344 30.9971 28.7058C30.4328 29.5879 29.87 30.47 29.3057 31.3521C28.8725 32.0294 28.4393 32.7074 28.0047 33.384C27.7555 33.7718 27.6186 34.1923 27.6207 34.6554C27.6222 34.8218 27.6497 34.9846 27.6925 35.1453C28.1372 36.8277 29.5216 38.1352 31.234 38.4565C32.6517 38.7228 33.9259 38.3806 35.0342 37.4616C35.8049 36.8226 36.3033 36.0049 36.5417 35.0317C36.6192 34.7147 36.6612 34.3927 36.6663 34.0663C36.6829 33.1032 37.3733 32.2537 38.3164 32.0576C39.4979 31.8123 40.6222 32.5525 40.8511 33.7357C40.8859 33.9158 40.896 34.0996 40.8851 34.2834C40.8648 34.6373 40.8402 34.9911 40.7837 35.3421C40.6671 36.0628 40.4679 36.7604 40.1767 37.4312C39.7681 38.3733 39.214 39.2221 38.5084 39.9682C37.3298 41.2164 35.91 42.063 34.2446 42.4936C33.7911 42.6108 33.3297 42.6846 32.8639 42.7295C32.7936 42.736 32.7241 42.7505 32.6538 42.7621H31.481C31.4419 42.7519 31.4035 42.7367 31.3637 42.7317C31.1761 42.7071 30.9877 42.689 30.8008 42.6615C29.8924 42.5305 29.0282 42.2548 28.2075 41.8467C27.1948 41.343 26.3132 40.6679 25.5577 39.8278C25.5193 39.7844 25.4787 39.7424 25.4331 39.6939C25.3998 39.7243 25.3744 39.7467 25.3505 39.7706C25.1484 39.9776 24.9542 40.1932 24.7435 40.3908C23.7576 41.3163 22.6159 41.9762 21.3229 42.3756C20.7332 42.558 20.1305 42.6716 19.5169 42.7295C19.4778 42.7331 19.4402 42.7505 19.4018 42.7621H18.1225V42.7628Z" fill="#FF5F01"/>
<path d="M43.2589 13.3393C43.2495 13.373 43.2328 13.4074 43.232 13.4419C43.2241 13.7334 43.1457 14.0104 43.0411 14.2771C42.5018 15.6486 41.5138 16.4933 40.0874 16.8164C38.7198 17.0516 37.5235 16.6992 36.5261 15.7233C35.9265 15.1365 35.5563 14.4141 35.4198 13.5789C35.2188 12.3502 35.5106 11.2483 36.304 10.2959C36.9392 9.53321 37.7573 9.06944 38.7358 8.93171C40.0322 8.74928 41.1661 9.12219 42.1091 10.0409C42.6775 10.5955 43.0397 11.274 43.2001 12.0579C43.2168 12.1392 43.219 12.2242 43.2306 12.3063C43.2357 12.34 43.2495 12.3722 43.2596 12.4052V13.3393H43.2589Z" fill="#FF5F01"/>
<g clip-path="url(#clip0_1402_2521)">
<path d="M4.87862 53.146C4.87862 53.3664 4.83913 53.5779 4.76195 53.7804C4.68297 53.983 4.58066 54.1765 4.45142 54.3593C4.11936 54.811 3.74422 55.1533 3.32421 55.3881C2.9042 55.6228 2.4088 55.7393 1.83801 55.7393C1.70877 55.7393 1.628 55.7483 1.59569 55.7662C1.56338 55.7842 1.54723 55.8307 1.54723 55.9042C1.56518 56.2268 1.61185 56.5458 1.68544 56.8631C1.75903 57.1803 1.79672 57.4993 1.79672 57.8219C1.79672 57.9689 1.78236 58.1212 1.75544 58.2771C1.72852 58.4331 1.68364 58.5836 1.62441 58.7252C1.56518 58.8686 1.4862 58.9958 1.38928 59.1123C1.29235 59.227 1.17568 59.322 1.03747 59.3955C0.926184 59.46 0.820283 59.4923 0.719767 59.4923C0.6372 59.4923 0.567198 59.4707 0.511555 59.4295C0.455912 59.3883 0.423603 59.3256 0.414629 59.2431L0.358986 58.6768L0.235136 57.1588C0.152569 56.2394 0.0915414 55.3218 0.0556428 54.4059C0.0179493 53.4901 0 52.5689 0 51.6387C0 51.4541 0.050258 51.2821 0.152569 51.1208C0.253085 50.9595 0.38591 50.8197 0.545659 50.6996C0.707202 50.5795 0.88131 50.4863 1.07157 50.4164C1.26004 50.3483 1.43774 50.3125 1.60287 50.3125C1.6298 50.3125 1.65851 50.3143 1.68544 50.3197C1.71236 50.325 1.74108 50.3268 1.76801 50.3268C2.37649 50.4003 2.92394 50.61 3.41216 50.9541C3.90038 51.3 4.30065 51.7301 4.61476 52.2445C4.78887 52.5384 4.87682 52.8377 4.87682 53.1406L4.87862 53.146ZM3.63473 53.3109C3.63473 53.146 3.56293 52.9722 3.42114 52.7929C3.27754 52.6137 3.10343 52.4524 2.89522 52.3108C2.68701 52.1674 2.47341 52.0492 2.25264 51.9524C2.03186 51.8556 1.84698 51.8072 1.6998 51.8072C1.57056 51.8072 1.44851 51.8538 1.33363 51.9452C1.21876 52.0366 1.16132 52.1513 1.16132 52.2893C1.16132 52.3807 1.19183 52.4542 1.25107 52.5098C1.3103 52.5653 1.37851 52.6227 1.4521 52.6818C1.52569 52.741 1.5921 52.8126 1.65313 52.8951C1.71236 52.9775 1.74288 53.0922 1.74288 53.2392C1.74288 53.4238 1.6998 53.5654 1.61185 53.6675C1.52389 53.7697 1.45748 53.8468 1.41081 53.9023C1.38389 53.9292 1.37671 53.9615 1.38928 53.9991C1.40363 54.0367 1.41979 54.0636 1.43774 54.0815C1.52928 54.2106 1.63518 54.3109 1.75544 54.3844C1.8757 54.4579 2.01391 54.4955 2.17007 54.4955C2.31725 54.4955 2.477 54.4633 2.64752 54.3988C2.81804 54.3342 2.97599 54.25 3.12497 54.1443C3.27216 54.0385 3.39421 53.9149 3.49114 53.7715C3.58806 53.6299 3.63653 53.474 3.63653 53.3091L3.63473 53.3109Z" fill="#1DB5E7"/>
<path d="M12.315 58.4706C12.315 58.5728 12.2971 58.6785 12.2594 58.7878C12.2217 58.899 12.1696 59.0047 12.0996 59.1051C12.0296 59.2054 11.9507 59.2897 11.8573 59.3542C11.7658 59.4187 11.6635 59.451 11.554 59.451C11.4624 59.451 11.3691 59.4133 11.2776 59.3398C11.0568 59.175 10.8719 58.9957 10.7247 58.8022C10.5775 58.6086 10.4501 58.4043 10.3442 58.1874C10.2383 57.9706 10.1468 57.7466 10.0678 57.5118C9.9888 57.277 9.91341 57.0351 9.83982 56.7877C9.82187 56.7232 9.79315 56.6497 9.75725 56.5673C9.71956 56.4848 9.66033 56.4436 9.57776 56.4436C9.52212 56.4436 9.47186 56.4597 9.42519 56.492C9.37852 56.5243 9.33724 56.5583 9.30134 56.596C9.19903 56.6981 9.10031 56.8039 9.00338 56.9132C8.90646 57.0243 8.80774 57.13 8.70542 57.2304C8.42003 57.5154 8.12207 57.777 7.81334 58.0172C7.50462 58.2573 7.17435 58.4778 6.82434 58.6803C6.66818 58.7717 6.49766 58.8488 6.31278 58.9079C6.12791 58.9671 5.93944 58.9975 5.74559 58.9975C5.52481 58.9975 5.32198 58.9509 5.13711 58.8595C4.95223 58.7681 4.79607 58.6463 4.66683 58.4939C4.5376 58.3416 4.43888 58.1677 4.36888 57.9688C4.29887 57.7717 4.26477 57.5673 4.26477 57.3541C4.26477 57.0404 4.34375 56.7644 4.49991 56.5261C4.89659 55.9275 5.35609 55.4471 5.882 55.0833C6.40792 54.7195 6.98768 54.3915 7.62308 54.0976C7.77924 54.0241 7.93899 53.9614 8.10053 53.9112C8.26208 53.861 8.42542 53.8359 8.59055 53.8359C8.73773 53.8359 8.86517 53.8592 8.97107 53.904C9.07697 53.9506 9.16493 54.0008 9.23313 54.0564C9.30134 54.1119 9.36416 54.1621 9.41981 54.2087C9.47545 54.2553 9.53109 54.2786 9.58494 54.2786C9.63879 54.2786 9.68546 54.2571 9.72315 54.2159C9.75905 54.1747 9.80213 54.1281 9.847 54.0779C9.89367 54.0277 9.94393 53.9811 9.99957 53.9399C10.0552 53.8987 10.1324 53.8772 10.2347 53.8772C10.3909 53.8772 10.5434 53.9345 10.6906 54.0492C10.8378 54.1639 10.9437 54.2912 11.0083 54.4292C11.1088 54.6496 11.1699 54.9184 11.1878 55.2357C11.2058 55.5529 11.2237 55.8755 11.2435 56.2017C11.2614 56.5279 11.3009 56.8379 11.3601 57.1336C11.4194 57.4275 11.5378 57.6623 11.7119 57.838C11.7676 57.9025 11.8232 57.9491 11.8771 57.976C11.9327 58.0029 11.9973 58.0315 12.0709 58.0584C12.2271 58.1319 12.3061 58.2699 12.3061 58.4724L12.315 58.4706ZM8.26567 56.1515C8.26567 56.1138 8.26387 56.0547 8.25849 55.9723C8.2531 55.8898 8.24413 55.8074 8.23156 55.7231C8.219 55.6389 8.19207 55.5672 8.15618 55.5027C8.11848 55.4382 8.07361 55.4059 8.01797 55.4059C7.9713 55.4059 7.92104 55.4221 7.8654 55.4543C7.80976 55.4866 7.73616 55.526 7.64462 55.5708C7.27666 55.7733 6.93203 56.0009 6.61433 56.2536C6.29663 56.5063 6.00406 56.7949 5.73661 57.1157C5.69892 57.1623 5.68097 57.2268 5.68097 57.3093C5.68097 57.4293 5.72405 57.5136 5.812 57.5638C5.89995 57.6139 5.99329 57.639 6.0956 57.639C6.18714 57.639 6.29843 57.6014 6.42766 57.5279C6.5569 57.4544 6.68792 57.3666 6.82075 57.2662C6.95357 57.1659 7.08281 57.0619 7.20845 56.9562C7.3323 56.8505 7.43641 56.7698 7.51898 56.7142C7.59257 56.6676 7.67155 56.6228 7.75411 56.5762C7.83668 56.5296 7.91925 56.4884 8.00361 56.4526L8.15618 56.397C8.22079 56.3791 8.2549 56.345 8.26028 56.2931C8.26567 56.2429 8.26746 56.1945 8.26746 56.1479L8.26567 56.1515Z" fill="#1DB5E7"/>
<path d="M20.482 55.396C20.482 55.534 20.4605 55.7258 20.4192 55.9695C20.3779 56.2132 20.3204 56.4749 20.2469 56.7563C20.1733 57.0377 20.0835 57.3226 19.9776 57.6112C19.8717 57.9015 19.7515 58.1632 19.6186 58.398C19.4858 58.6327 19.344 58.8263 19.1968 58.9768C19.0496 59.1292 18.8935 59.2045 18.7266 59.2045C18.6153 59.2045 18.5058 59.174 18.3945 59.1148C18.2832 59.0557 18.1773 58.9822 18.0768 58.8944C17.9745 58.8066 17.8811 58.7152 17.7932 58.6184C17.7052 58.5216 17.6298 58.4374 17.5652 58.3639C17.4539 58.2349 17.3391 58.1022 17.2206 57.9642C17.1003 57.8262 16.9909 57.6936 16.8885 57.5646C16.806 57.4732 16.7503 57.4911 16.7234 57.6201C16.6408 57.8872 16.5349 58.1399 16.4057 58.3782C16.2585 58.6542 16.0485 58.8819 15.7775 59.0611C15.5064 59.2403 15.2139 59.3299 14.8998 59.3299C14.6323 59.3299 14.4026 59.2636 14.2087 59.1292C14.0149 58.9966 13.8677 58.8102 13.7672 58.57C13.453 57.871 13.2215 57.1542 13.0689 56.4176C12.9164 55.6809 12.771 54.9408 12.6328 54.1952C12.6328 54.1773 12.631 54.154 12.6256 54.1271C12.6202 54.1002 12.6184 54.0769 12.6184 54.0572C12.6184 53.8547 12.6938 53.7149 12.8464 53.636C12.9989 53.5572 13.1569 53.5195 13.3238 53.5195C13.4154 53.5195 13.5213 53.5303 13.6415 53.5536C13.7618 53.5769 13.8749 53.6163 13.9808 53.6701C14.0867 53.7256 14.1746 53.7919 14.2428 53.8708C14.3128 53.9497 14.3469 54.0429 14.3469 54.154V54.2221C14.3379 54.4156 14.3236 54.6056 14.3056 54.7956C14.2877 54.9838 14.2787 55.1755 14.2787 55.3691C14.2787 55.7275 14.311 56.0914 14.3756 56.4588C14.4403 56.8262 14.5641 57.1721 14.749 57.4929C14.7849 57.5574 14.8369 57.6381 14.9016 57.7348C14.9662 57.8316 15.0434 57.88 15.1367 57.88C15.2372 57.88 15.3234 57.8209 15.3916 57.7008C15.4598 57.5807 15.5136 57.4839 15.5513 57.4104C15.7075 57.0878 15.8098 56.7617 15.8547 56.4301C15.9013 56.0985 15.9336 55.758 15.9516 55.4085C15.9695 55.2239 16.0324 55.0501 16.1383 54.8834C16.2442 54.7185 16.3985 54.6343 16.6014 54.6343C16.7396 54.6343 16.867 54.6899 16.9819 54.7992C17.0968 54.9103 17.2009 55.0429 17.2924 55.1988C17.3839 55.3548 17.4647 55.5161 17.5347 55.6827C17.6029 55.8476 17.6622 55.9856 17.707 56.0967C17.7429 56.1702 17.8022 56.2831 17.8793 56.4355C17.9583 56.5878 18.0445 56.7384 18.1414 56.8907C18.2383 57.043 18.3371 57.1757 18.4394 57.2904C18.5399 57.4051 18.6332 57.4624 18.7158 57.4624C18.7894 57.4624 18.8486 57.414 18.8953 57.3172C18.9419 57.2205 18.9778 57.1058 19.0066 56.9713C19.0335 56.8387 19.055 56.7097 19.0694 56.5842C19.0837 56.4606 19.0909 56.371 19.0909 56.3154C19.0909 56.095 19.073 55.8745 19.0353 55.6523C18.9976 55.4318 18.9796 55.2114 18.9796 54.9892C18.9796 54.8153 19.0353 54.6827 19.1448 54.5967C19.2561 54.5088 19.3889 54.4658 19.545 54.4658C19.8035 54.4658 20.0243 54.5536 20.2092 54.7275C20.394 54.9031 20.4856 55.1236 20.4856 55.3906L20.482 55.396Z" fill="#1DB5E7"/>
<path d="M26.9222 58.5252C26.9222 58.7367 26.8163 58.8658 26.6045 58.9124L25.8165 59.0647C25.567 59.1203 25.3193 59.1758 25.0698 59.2296C24.8203 59.2833 24.5726 59.3353 24.3231 59.3819C24.0646 59.4375 23.8098 59.4805 23.5567 59.5127C23.3036 59.545 23.0469 59.5611 22.7902 59.5611H22.521C22.4331 59.5611 22.3433 59.5522 22.2518 59.5343C21.9843 59.4966 21.7887 59.3819 21.6648 59.1884C21.541 58.9948 21.4781 58.7797 21.4781 58.5396C21.4781 58.2367 21.5607 57.9643 21.7276 57.7259C22.022 57.2653 22.3307 56.8226 22.6538 56.3943C22.9769 55.9659 23.2569 55.5035 23.4974 55.0071C23.5154 54.9605 23.5369 54.9103 23.5603 54.8548C23.5836 54.7992 23.5944 54.749 23.5944 54.7024C23.5944 54.6379 23.5621 54.6056 23.4974 54.6056C23.4239 54.6056 23.3485 54.6272 23.2695 54.6684C23.1905 54.7096 23.1097 54.7562 23.0272 54.8064C22.9446 54.8566 22.862 54.9032 22.7777 54.9444C22.6951 54.9856 22.6072 55.0071 22.5156 55.0071C22.4241 55.0071 22.3272 54.9838 22.2248 54.9372C22.1225 54.8906 22.0292 54.8333 21.9412 54.7652C21.8533 54.6953 21.7797 54.6164 21.7205 54.5232C21.6612 54.4318 21.6307 54.335 21.6307 54.2329C21.6307 54.1038 21.672 53.9999 21.7546 53.9228C21.8371 53.844 21.9287 53.783 22.031 53.7364C22.3164 53.5984 22.6161 53.4981 22.9285 53.4335C23.2408 53.369 23.5459 53.3009 23.8403 53.2256C23.9605 53.1988 24.0952 53.1575 24.2477 53.102C24.4003 53.0464 24.5313 53.0195 24.6408 53.0195C24.8436 53.0195 24.989 53.0984 25.0752 53.2543C25.1631 53.4102 25.2062 53.5769 25.2062 53.7508C25.2062 53.9712 25.1506 54.2221 25.0411 54.5035C24.9298 54.7849 24.7916 55.0734 24.6265 55.3727C24.4613 55.672 24.2836 55.9659 24.0952 56.2563C23.9067 56.5466 23.729 56.8155 23.5639 57.0628C23.3987 57.3119 23.2605 57.5252 23.1492 57.7044C23.0379 57.8836 22.9841 58.0055 22.9841 58.07C22.9841 58.0879 22.9931 58.1076 23.011 58.1256C23.029 58.1435 23.099 58.1525 23.2192 58.1525C23.4687 58.1525 23.7146 58.1292 23.9587 58.0843C24.2029 58.0378 24.4452 57.9858 24.6839 57.9248C24.9226 57.8657 25.1649 57.8101 25.409 57.76C25.6532 57.7098 25.8991 57.6757 26.1486 57.656H26.2168C26.3083 57.656 26.398 57.6829 26.486 57.7384C26.574 57.794 26.6493 57.8657 26.714 57.9517C26.7786 58.0395 26.8288 58.1327 26.8665 58.2349C26.9042 58.3371 26.9222 58.432 26.9222 58.5252Z" fill="#1DB5E7"/>
<path d="M29.2592 51.6822C29.2592 51.8291 29.1946 51.9671 29.0654 52.0962C28.9361 52.2252 28.8033 52.3041 28.6651 52.331C28.5359 52.3578 28.412 52.3722 28.2917 52.3722C27.9884 52.3722 27.712 52.2897 27.4625 52.1231C27.213 51.9582 27.0102 51.7413 26.854 51.4743C26.7894 51.3829 26.7571 51.2861 26.7571 51.1839C26.7571 51.0101 26.8307 50.8829 26.9779 50.804C27.125 50.7251 27.2776 50.6875 27.4338 50.6875C27.554 50.6875 27.7156 50.7126 27.9184 50.7628C28.1212 50.813 28.3205 50.8829 28.5197 50.9689C28.7171 51.0567 28.8913 51.1606 29.0384 51.2789C29.1856 51.399 29.2592 51.5316 29.2592 51.6786V51.6822ZM29.7977 58.4711C29.7977 58.5625 29.7636 58.6414 29.6936 58.7059C29.6254 58.7704 29.541 58.8206 29.4441 58.8582C29.3472 58.8959 29.2484 58.9228 29.1461 58.9407C29.0438 58.9586 28.9577 58.9676 28.8841 58.9676C28.7818 58.9676 28.6812 58.9532 28.5807 58.9263C28.4784 58.8995 28.3923 58.8475 28.3187 58.774C28.1069 58.5536 27.9274 58.3009 27.7802 58.0141C27.633 57.7291 27.5504 57.4298 27.5307 57.118C27.5127 56.7685 27.5002 56.419 27.4966 56.0695C27.4912 55.7201 27.4894 55.3706 27.4894 55.0211V54.082C27.4894 53.926 27.5307 53.8042 27.6133 53.7164C27.6958 53.6285 27.8161 53.5855 27.9722 53.5855C28.0835 53.5855 28.193 53.6088 28.3043 53.6554C28.4156 53.702 28.5161 53.7612 28.6077 53.8346C28.6992 53.9081 28.7728 53.9959 28.8284 54.0963C28.8841 54.1967 28.911 54.3078 28.911 54.4279C28.911 54.7308 28.8805 55.0336 28.8212 55.3311C28.762 55.6304 28.7315 55.9262 28.7315 56.2219C28.7315 56.5534 28.7871 56.8384 28.8966 57.0768C29.0061 57.3151 29.13 57.523 29.2628 57.6969C29.3956 57.8725 29.5177 58.0213 29.629 58.1449C29.7403 58.2686 29.7941 58.3779 29.7941 58.4693L29.7977 58.4711Z" fill="#1DB5E7"/>
<path d="M37.0258 56.3207C37.0258 56.5412 36.9881 56.776 36.9145 57.0251C36.7852 57.4212 36.6111 57.7581 36.3886 58.0395C36.1678 58.3209 35.9111 58.561 35.6221 58.7635C35.3313 58.9661 35.019 59.1399 34.6816 59.2887C34.3459 59.4356 33.9977 59.579 33.6387 59.717C33.4269 59.8084 33.1864 59.855 32.9207 59.855C32.8184 59.855 32.7179 59.846 32.6174 59.8281C32.5151 59.8102 32.4236 59.7779 32.341 59.7313C32.2584 59.6847 32.192 59.6256 32.14 59.5521C32.0897 59.4786 32.0646 59.3819 32.0646 59.2618C32.0646 59.1793 32.07 59.1184 32.0789 59.0826C32.1059 58.9625 32.1346 58.8245 32.1615 58.6686C32.1884 58.5126 32.2315 58.3693 32.2853 58.2402C32.341 58.1112 32.4182 58.0018 32.5205 57.9086C32.621 57.8172 32.7556 57.7706 32.9207 57.7706C33.059 57.7706 33.1595 57.8083 33.2241 57.8818C33.2887 57.9552 33.3354 58.0359 33.3623 58.1237C33.3892 58.2115 33.4108 58.2922 33.4251 58.3657C33.4395 58.4391 33.4736 58.4768 33.5292 58.4768C33.5472 58.4768 33.5849 58.4678 33.6405 58.4499C33.8344 58.3675 34.0282 58.285 34.2203 58.2008C34.4141 58.1183 34.5954 58.0234 34.7659 57.9176C34.9365 57.8119 35.0908 57.6846 35.229 57.5377C35.3672 57.3907 35.4821 57.2061 35.5737 56.9857C35.6203 56.8853 35.6562 56.7813 35.6849 56.6756C35.7119 56.5699 35.7262 56.4659 35.7262 56.3655C35.7262 56.2186 35.6849 56.0895 35.6024 55.9784C35.5198 55.8673 35.4157 55.7777 35.2919 55.7096C35.168 55.6415 35.0316 55.5877 34.8844 55.5519C34.7372 55.516 34.6026 55.4963 34.4841 55.4963C34.2436 55.4963 34.0157 55.5608 33.8003 55.6899C33.5831 55.8189 33.4287 56.0035 33.3372 56.2419C33.2815 56.3978 33.2349 56.5394 33.199 56.6631C33.1613 56.7867 33.12 56.905 33.0751 57.0143C33.0284 57.1254 32.9692 57.2348 32.8956 57.3459C32.822 57.457 32.7197 57.5753 32.5923 57.7043C32.49 57.7957 32.3751 57.8692 32.2459 57.9248C32.1166 57.9803 31.9874 58.0072 31.8582 58.0072C31.6643 58.0072 31.5189 57.9481 31.422 57.828C31.3251 57.7079 31.2766 57.5574 31.2766 57.3728C31.2766 57.1882 31.2856 57.0125 31.3035 56.8423C31.3215 56.672 31.3304 56.4946 31.3304 56.3118C31.3304 55.9999 31.2999 55.6917 31.2407 55.387C31.1815 55.0841 31.1097 54.7848 31.0271 54.4909C30.9715 54.2794 30.9194 54.0948 30.8673 53.9389C30.8171 53.783 30.7543 53.6378 30.6807 53.5034C30.6071 53.3707 30.5191 53.2381 30.4186 53.1109C30.3163 52.9818 30.1889 52.8402 30.0309 52.6825C29.8748 52.5445 29.7958 52.3796 29.7958 52.1861C29.7958 52.0857 29.8209 51.9746 29.8712 51.8545C29.9214 51.7344 29.9914 51.6269 30.0794 51.5301C30.1673 51.4334 30.2643 51.3527 30.3702 51.2882C30.4761 51.2237 30.5837 51.1914 30.695 51.1914C30.8153 51.1914 30.9158 51.2416 30.9984 51.3437C31.063 51.4262 31.1258 51.514 31.1851 51.6054C31.2443 51.6968 31.3017 51.79 31.3574 51.8814C31.6069 52.2865 31.8276 52.7022 32.0215 53.1306C32.2153 53.5589 32.3625 54.007 32.463 54.4765C32.472 54.5231 32.4864 54.5733 32.5043 54.6289C32.5223 54.6844 32.56 54.7113 32.6156 54.7113C32.6533 54.7113 32.7215 54.6701 32.8238 54.5877C32.9243 54.5052 33.0536 54.4156 33.2115 54.3188C33.3677 54.2221 33.5508 54.1324 33.7572 54.05C33.9654 53.9676 34.1934 53.9263 34.4411 53.9263C34.7444 53.9263 35.0406 53.9909 35.326 54.1199C35.5557 54.2221 35.7747 54.3439 35.9829 54.4855C36.1911 54.6289 36.3706 54.792 36.5214 54.9748C36.6739 55.1594 36.796 55.3637 36.8875 55.5895C36.9791 55.8153 37.0258 56.0609 37.0258 56.3279V56.3207Z" fill="#1DB5E7"/>
<path d="M39.9982 55.2834C39.9982 55.6329 39.9892 55.9787 39.9713 56.3193C39.9533 56.6598 39.9336 57.0057 39.9156 57.3552C39.8977 57.5398 39.8887 57.7208 39.8887 57.9C39.8887 58.0792 39.8798 58.2567 39.8618 58.4305C39.8439 58.5685 39.79 58.6671 39.7038 58.728C39.6159 58.7872 39.5082 58.8176 39.379 58.8176C39.2138 58.8176 39.0613 58.771 38.9231 58.6796C38.7848 58.5882 38.6933 58.4592 38.6466 58.2925C38.591 58.081 38.5515 57.8588 38.53 57.624C38.5066 57.3892 38.4959 57.1616 38.4959 56.9412C38.4959 56.5648 38.5138 56.192 38.5515 55.8228C38.5874 55.4554 38.6071 55.0826 38.6071 54.7045C38.6071 54.3908 38.5802 54.0611 38.5246 53.7116C38.4689 53.3621 38.4007 53.0108 38.3164 52.656C38.2338 52.3011 38.1405 51.9552 38.0399 51.6147C37.9376 51.2742 37.8425 50.9569 37.7492 50.663C37.7222 50.5985 37.7079 50.5304 37.7079 50.4551C37.7079 50.335 37.742 50.2347 37.812 50.1522C37.882 50.0698 37.9664 49.9999 38.0669 49.9461C38.1674 49.8906 38.2769 49.8494 38.3918 49.8225C38.5066 49.7956 38.6143 49.7812 38.7166 49.7812C38.9015 49.7812 39.0649 49.8189 39.2067 49.8924C39.3484 49.9658 39.4292 50.1092 39.449 50.3207C39.5226 50.9283 39.6123 51.5269 39.7182 52.1147C39.8241 52.7044 39.8995 53.3012 39.9462 53.9087C39.9641 54.1489 39.9785 54.3801 39.9874 54.6059C39.9964 54.8317 40.0018 55.0593 40.0018 55.2887L39.9982 55.2834Z" fill="#1DB5E7"/>
<path d="M48.0001 58.7603C48.0001 58.9251 47.9444 59.0452 47.8349 59.1187C47.6967 59.2191 47.528 59.3051 47.3305 59.3732C47.1331 59.4413 46.9267 59.4969 46.7149 59.5381C46.5031 59.5793 46.2913 59.6098 46.0795 59.6277C45.8677 59.6456 45.6792 59.6546 45.5123 59.6546C45.2538 59.6546 44.9936 59.6384 44.7315 59.6062C44.4694 59.5739 44.2181 59.5166 43.9776 59.4341C43.7012 59.3517 43.4122 59.2459 43.1143 59.1169C42.8145 58.9879 42.5399 58.8319 42.2922 58.6473C42.0427 58.4627 41.8381 58.2441 41.6765 57.9914C41.515 57.7387 41.4342 57.4466 41.4342 57.115C41.4342 57.0415 41.436 56.9752 41.4414 56.9143C41.4468 56.8551 41.4522 56.7924 41.4629 56.7279C41.5186 56.3874 41.6065 56.0881 41.725 55.83C41.8452 55.5719 41.996 55.3407 42.1809 55.1328C42.3658 54.9249 42.574 54.7349 42.8091 54.5593C43.0443 54.3854 43.2991 54.2098 43.5756 54.0342C43.9076 53.8227 44.2558 53.6417 44.6184 53.4893C44.9828 53.337 45.3669 53.2617 45.7725 53.2617C45.9754 53.2617 46.189 53.2886 46.4151 53.3442C46.6413 53.3997 46.8477 53.4822 47.038 53.5933C47.2264 53.7044 47.3826 53.846 47.5082 54.0216C47.6321 54.1973 47.6949 54.4034 47.6949 54.6417C47.6949 54.8353 47.6536 55.0199 47.5711 55.1937C47.4885 55.3694 47.3826 55.5199 47.2534 55.649C47.0505 55.8515 46.8423 56.0056 46.6323 56.1113C46.4223 56.2171 46.2033 56.3067 45.9826 56.3802C45.7618 56.4537 45.5338 56.52 45.2987 56.5809C45.0636 56.6401 44.8266 56.7261 44.5861 56.8354C44.4102 56.9089 44.2217 56.9734 44.0189 57.029C43.8161 57.0845 43.6222 57.1114 43.4391 57.1114C43.3368 57.1114 43.2381 57.1007 43.1412 57.0774C43.0443 57.0541 42.9599 57.0057 42.8863 56.9322C42.8127 56.8587 42.775 56.8766 42.775 56.9877C42.775 57.1992 42.8414 57.3802 42.976 57.5326C43.1107 57.6849 43.2704 57.8104 43.4607 57.9125C43.6491 58.0147 43.852 58.0971 44.0692 58.1617C44.2863 58.2262 44.4766 58.2764 44.6435 58.314C44.8553 58.3695 45.0653 58.4126 45.2718 58.4448C45.48 58.4771 45.6936 58.4932 45.9143 58.4932C46.1728 58.4932 46.4277 58.4753 46.6808 58.4377C46.9339 58.4 47.1887 58.3588 47.4472 58.314C47.4652 58.314 47.4831 58.3122 47.5029 58.3068C47.5208 58.3014 47.5388 58.2997 47.5585 58.2997C47.6967 58.2997 47.8044 58.3427 47.8834 58.4305C47.9624 58.5183 48.0019 58.6258 48.0019 58.7549L48.0001 58.7603ZM46.3415 54.7313C46.3415 54.6579 46.32 54.5987 46.2787 54.5521C46.2374 54.5055 46.18 54.4822 46.1064 54.4822C46.0238 54.4822 45.9359 54.4912 45.8443 54.5091C45.7528 54.527 45.6649 54.5467 45.5823 54.5647C45.3615 54.6113 45.1336 54.6758 44.8984 54.7582C44.6633 54.8407 44.4335 54.9374 44.2074 55.0486C43.9812 55.1597 43.7658 55.2851 43.5576 55.4285C43.3494 55.5719 43.1735 55.726 43.0263 55.8909C42.9348 56.0199 42.976 56.0468 43.1502 55.9733C43.3799 55.8999 43.6115 55.8407 43.8412 55.7941C44.071 55.7475 44.3061 55.6973 44.5466 55.6418C44.6292 55.6239 44.7692 55.5844 44.9684 55.5235C45.1659 55.4644 45.3669 55.3927 45.5697 55.3102C45.7726 55.2278 45.952 55.1364 46.1082 55.0342C46.2644 54.9339 46.3433 54.8317 46.3433 54.7313H46.3415Z" fill="#1DB5E7"/>
</g>
<defs>
<clipPath id="clip0_1402_2521">
<rect width="48" height="10.0741" fill="white" transform="translate(0 49.7773)"/>
</clipPath>
</defs>
</svg>
