<svg width="110" height="26" viewBox="0 0 110 26" fill="none" xmlns="http://www.w3.org/2000/svg">
<path d="M9.44506 7.89744C9.43502 6.56272 8.39353 5.5428 7.13555 5.50962C5.77316 5.47338 4.73382 6.56579 4.69768 7.81841C4.66111 9.07194 5.63774 10.2578 7.06241 10.2652C8.38391 10.2722 9.42456 9.21865 9.44506 7.89744ZM7.35414 0.148438C7.36766 0.171578 7.39074 0.165904 7.41118 0.166777C7.86013 0.189044 8.30296 0.251916 8.74007 0.357577C9.39451 0.515631 10.0133 0.763626 10.5959 1.102C11.0848 1.3858 11.5324 1.72418 11.9409 2.11582C12.7816 2.92312 13.3917 3.87799 13.7635 4.98393C13.9072 5.41094 14.0056 5.84843 14.0648 6.29509C14.1223 6.73172 14.1419 7.1692 14.1166 7.60842C14.0674 8.46985 13.8475 9.28806 13.4888 10.0709C13.2175 10.6634 12.8796 11.2157 12.4982 11.7423C12.203 12.1497 11.8882 12.5417 11.5464 12.9107C11.3456 13.1277 11.1319 13.3329 10.9233 13.542C10.7901 13.6756 10.6551 13.8079 10.5205 13.9402C10.1874 14.2677 9.85519 14.5951 9.52078 14.9209C9.18903 15.2435 8.85547 15.5653 8.52106 15.8853C8.19928 16.1931 7.87576 16.4987 7.55139 16.8039C7.47392 16.8768 7.39158 16.9458 7.30847 17.0131C7.17522 17.1205 7.13952 17.1301 6.95838 17.1236C6.94137 17.1082 6.91919 17.0908 6.8996 17.0707C6.3784 16.5489 5.83324 16.0526 5.29202 15.5517C4.84267 15.1357 4.39245 14.72 3.94789 14.2982C3.40492 13.783 2.88198 13.2482 2.39257 12.681C1.884 12.0916 1.41724 11.4716 1.02798 10.7953C0.672242 10.1774 0.390089 9.52907 0.214616 8.83616C0.134935 8.52093 0.0757177 8.20264 0.0461095 7.87869C0.0374012 7.78307 0.0317395 7.68655 0.0230311 7.59093C0.0199832 7.55559 0.0125826 7.52109 0.00822843 7.48617C0.00474508 7.45823 0.000824417 7.42938 0.000824417 7.40149C-4.642e-05 7.28706 -0.000481838 7.17311 0.000824417 7.05915C0.00125983 7.02382 0.00953491 6.98884 0.013889 6.95392C0.0165016 6.933 0.0204231 6.91203 0.0221648 6.89063C0.0378398 6.70943 0.0495942 6.5278 0.0691877 6.3475C0.11273 5.94929 0.197636 5.55939 0.314328 5.17648C0.638712 4.11027 1.18559 3.1733 1.95019 2.36469C2.51362 1.76871 3.16022 1.2832 3.89172 0.912947C4.45689 0.626966 5.05037 0.421757 5.6717 0.298195C6.02483 0.227901 6.38099 0.183803 6.74021 0.167212C6.7598 0.166338 6.7794 0.155861 6.79857 0.149749H7.35372L7.35414 0.148438Z" fill="white"/>
<path d="M10.8918 25.8489C10.8687 25.8424 10.8457 25.8319 10.8217 25.8297C10.5021 25.7997 10.1878 25.7449 9.8787 25.6588C9.06192 25.4314 8.34185 25.0291 7.7162 24.459C7.27867 24.0605 6.91776 23.6009 6.63432 23.0811C6.34914 22.5589 6.1567 22.0048 6.0618 21.4163C6.02177 21.1667 5.99955 20.9162 5.99563 20.6635C5.98649 20.0651 6.41099 19.5467 6.98171 19.4197C7.73321 19.2519 8.3671 19.749 8.50334 20.3834C8.52775 20.4961 8.52949 20.6092 8.53598 20.7222C8.57517 21.3755 8.81815 21.9426 9.26002 22.4232C9.69713 22.8981 10.2374 23.1908 10.8761 23.2821C11.6428 23.3925 12.3389 23.2055 12.9524 22.7332C13.423 22.3705 13.7369 21.8978 13.9076 21.3285C14.0173 20.9632 13.9673 20.6196 13.783 20.2908C13.7587 20.2473 13.7312 20.206 13.7047 20.1638C13.1204 19.2505 12.5366 18.3368 11.9519 17.4239C11.8683 17.2935 11.8034 17.1565 11.7778 17.0034C11.6767 16.4058 12.0773 15.8788 12.6132 15.7792C12.7086 15.7613 12.8039 15.7578 12.9002 15.7578H16.8502C17.135 15.7578 17.4197 15.7587 17.7045 15.7578C17.8925 15.757 18.0732 15.7887 18.2395 15.8801C18.5613 16.0562 18.7467 16.3276 18.7968 16.6903C18.8325 16.9482 18.7685 17.183 18.6296 17.4005C18.2904 17.9306 17.9521 18.4608 17.613 18.9909C17.3527 19.398 17.0923 19.8055 16.8311 20.2121C16.6813 20.4452 16.599 20.6979 16.6003 20.9762C16.6012 21.0763 16.6178 21.1741 16.6434 21.2707C16.9108 22.2818 17.7427 23.0677 18.772 23.2608C19.624 23.4208 20.3898 23.2151 21.0559 22.6628C21.5191 22.2788 21.8187 21.7873 21.9619 21.2024C22.0085 21.0119 22.0337 20.8184 22.0368 20.6222C22.0468 20.0434 22.4617 19.5328 23.0286 19.4149C23.7387 19.2675 24.4143 19.7124 24.5519 20.4235C24.5728 20.5318 24.5789 20.6422 24.5724 20.7527C24.5602 20.9653 24.5454 21.178 24.5114 21.3889C24.4413 21.8221 24.3216 22.2413 24.1466 22.6445C23.9011 23.2108 23.568 23.7209 23.1439 24.1693C22.4356 24.9195 21.5822 25.4283 20.5814 25.6871C20.3088 25.7576 20.0314 25.8019 19.7516 25.8288C19.7093 25.8328 19.6675 25.8415 19.6253 25.8484H18.9204C18.8969 25.8424 18.8738 25.8332 18.8499 25.8302C18.7371 25.8154 18.6239 25.8045 18.5116 25.788C17.9657 25.7092 17.4463 25.5436 16.953 25.2983C16.3444 24.9956 15.8145 24.5899 15.3604 24.0849C15.3373 24.0588 15.313 24.0336 15.2855 24.0045C15.2655 24.0227 15.2503 24.0362 15.2359 24.0506C15.1144 24.1749 14.9977 24.3046 14.8711 24.4233C14.2785 24.9795 13.5924 25.3762 12.8152 25.6162C12.4609 25.7258 12.0986 25.7941 11.7299 25.8288C11.7064 25.8311 11.6837 25.8415 11.6606 25.8484L10.8918 25.8489Z" fill="#FF5F01"/>
<path d="M25.9995 8.16434C25.9938 8.1846 25.9838 8.20527 25.9834 8.22595C25.9786 8.4012 25.9314 8.56768 25.8686 8.72791C25.5445 9.55226 24.9507 10.0599 24.0934 10.2541C23.2715 10.3955 22.5525 10.1837 21.9531 9.59715C21.5927 9.24442 21.3702 8.81025 21.2882 8.30829C21.1673 7.56989 21.3427 6.90763 21.8196 6.33523C22.2013 5.87683 22.693 5.5981 23.2811 5.51532C24.0603 5.40568 24.7417 5.62981 25.3084 6.18197C25.65 6.51529 25.8678 6.92302 25.9642 7.39421C25.9742 7.44307 25.9756 7.49416 25.9825 7.54344C25.9855 7.56369 25.9938 7.58311 26 7.60288L25.9995 8.16434Z" fill="#FF5F01"/>
<mask id="mask0_1574_2639" style="mask-type:luminance" maskUnits="userSpaceOnUse" x="33" y="5" width="77" height="16">
<path d="M109.808 5.02344H33.8079V20.9741H109.808V5.02344Z" fill="white"/>
</mask>
<g mask="url(#mask0_1574_2639)">
<path d="M41.5326 10.3575C41.5326 10.7066 41.4701 11.0415 41.3479 11.3621C41.2228 11.6827 41.0608 11.9892 40.8562 12.2787C40.3304 12.9937 39.7365 13.5357 39.0714 13.9075C38.4064 14.2792 37.622 14.4637 36.7183 14.4637C36.5137 14.4637 36.3858 14.4778 36.3346 14.5063C36.2835 14.5346 36.2579 14.6084 36.2579 14.7248C36.2863 15.2356 36.3602 15.7406 36.4767 16.2429C36.5932 16.7451 36.6529 17.2502 36.6529 17.761C36.6529 17.9937 36.6302 18.2349 36.5876 18.4819C36.5449 18.7287 36.4739 18.967 36.3801 19.1912C36.2863 19.4183 36.1613 19.6197 36.0078 19.8041C35.8543 19.9857 35.6696 20.1361 35.4508 20.2525C35.2746 20.3546 35.1069 20.4058 34.9477 20.4058C34.817 20.4058 34.7062 20.3717 34.6181 20.3065C34.53 20.2411 34.4788 20.1418 34.4646 20.0114L34.3765 19.1146L34.1804 16.7111C34.0497 15.2554 33.953 13.8025 33.8962 12.3525C33.8365 10.9023 33.8081 9.44372 33.8081 7.97107C33.8081 7.67878 33.8877 7.40629 34.0497 7.1509C34.2088 6.89551 34.4191 6.67416 34.6721 6.48416C34.9278 6.294 35.2035 6.14644 35.5048 6.03576C35.8032 5.92794 36.0845 5.87109 36.346 5.87109C36.3886 5.87109 36.4341 5.87394 36.4767 5.88249C36.5193 5.89104 36.5648 5.89389 36.6075 5.89389C37.5709 6.01027 38.4377 6.34214 39.2107 6.88712C39.9837 7.43464 40.6175 8.11578 41.1148 8.93009C41.3905 9.39559 41.5297 9.86948 41.5297 10.3491L41.5326 10.3575ZM39.5631 10.6186C39.5631 10.3575 39.4494 10.0823 39.2249 9.79855C38.9975 9.51466 38.7219 9.25927 38.3922 9.03522C38.0625 8.80817 37.7243 8.62087 37.3748 8.4676C37.0252 8.31434 36.7325 8.2377 36.4995 8.2377C36.2948 8.2377 36.1016 8.31148 35.9197 8.4562C35.7378 8.60107 35.6469 8.78268 35.6469 9.00118C35.6469 9.1459 35.6952 9.26212 35.789 9.35015C35.8827 9.43819 35.9907 9.52891 36.1073 9.62264C36.2238 9.71622 36.3289 9.82974 36.4256 9.96021C36.5193 10.0908 36.5677 10.2724 36.5677 10.505C36.5677 10.7973 36.4995 11.0215 36.3602 11.1833C36.2209 11.345 36.1158 11.4671 36.0419 11.5551C35.9993 11.5975 35.9879 11.6487 36.0078 11.7082C36.0305 11.7679 36.0561 11.8105 36.0845 11.8388C36.2295 12.0431 36.3971 12.2021 36.5876 12.3184C36.778 12.4346 36.9968 12.4943 37.244 12.4943C37.4771 12.4943 37.73 12.4432 38 12.3411C38.27 12.2389 38.5201 12.1055 38.756 11.9381C38.989 11.7708 39.1823 11.5749 39.3357 11.3478C39.4892 11.1236 39.5659 10.8768 39.5659 10.6157L39.5631 10.6186Z" fill="white"/>
<path d="M53.3082 18.7875C53.3082 18.9493 53.2797 19.1167 53.22 19.2897C53.1603 19.4656 53.078 19.6332 52.9671 19.7921C52.8563 19.9509 52.7312 20.0844 52.5835 20.1865C52.4384 20.2886 52.2765 20.3398 52.1031 20.3398C51.9582 20.3398 51.8105 20.2801 51.6655 20.1637C51.3159 19.9028 51.0233 19.6189 50.7902 19.3125C50.5571 19.006 50.3554 18.6825 50.1876 18.3391C50.0199 17.9958 49.875 17.6412 49.7499 17.2694C49.6249 16.8976 49.5056 16.5145 49.3891 16.1229C49.3606 16.0208 49.3152 15.9044 49.2583 15.7739C49.1986 15.6433 49.1049 15.5781 48.9741 15.5781C48.886 15.5781 48.8064 15.6036 48.7326 15.6547C48.6587 15.7059 48.5933 15.7597 48.5365 15.8192C48.3745 15.981 48.2182 16.1484 48.0647 16.3216C47.9112 16.4975 47.7549 16.6649 47.5929 16.8238C47.1411 17.2751 46.6693 17.6893 46.1805 18.0696C45.6917 18.4498 45.1687 18.7989 44.6145 19.1195C44.3673 19.2642 44.0973 19.3863 43.8046 19.4799C43.5119 19.5736 43.2135 19.6218 42.9065 19.6218C42.557 19.6218 42.2358 19.548 41.9431 19.4033C41.6504 19.2585 41.4031 19.0655 41.1985 18.8244C40.9939 18.5832 40.8376 18.3079 40.7267 17.993C40.6159 17.6807 40.5619 17.3573 40.5619 17.0197C40.5619 16.523 40.6869 16.086 40.9342 15.7085C41.5623 14.7608 42.2898 14.0003 43.1225 13.4243C43.9552 12.8483 44.8732 12.3289 45.8792 11.8636C46.1265 11.7472 46.3794 11.6479 46.6352 11.5684C46.891 11.489 47.1496 11.4492 47.411 11.4492C47.6441 11.4492 47.8459 11.4861 48.0135 11.557C48.1812 11.6308 48.3205 11.7103 48.4285 11.7983C48.5365 11.8862 48.6359 11.9657 48.724 12.0395C48.8121 12.1133 48.9002 12.1502 48.9855 12.1502C49.0708 12.1502 49.1446 12.1161 49.2043 12.0509C49.2612 11.9857 49.3294 11.9119 49.4004 11.8324C49.4743 11.7529 49.5539 11.6791 49.642 11.6139C49.7301 11.5487 49.8522 11.5145 50.0144 11.5145C50.2615 11.5145 50.5031 11.6053 50.7362 11.7869C50.9693 11.9686 51.1369 12.17 51.2392 12.3886C51.3984 12.7376 51.4949 13.1632 51.5234 13.6654C51.5518 14.1678 51.5803 14.6786 51.6115 15.1951C51.64 15.7114 51.7024 16.2024 51.7962 16.6706C51.89 17.1359 52.0776 17.5077 52.3533 17.7859C52.4413 17.888 52.5295 17.9618 52.6147 18.0044C52.7029 18.0468 52.8051 18.0923 52.9217 18.1348C53.1688 18.2512 53.2939 18.4697 53.2939 18.7903L53.3082 18.7875ZM46.8966 15.1156C46.8966 15.0559 46.8938 14.9623 46.8853 14.8319C46.8768 14.7012 46.8625 14.5708 46.8427 14.4373C46.8228 14.304 46.7801 14.1904 46.7233 14.0883C46.6636 13.9862 46.5926 13.9351 46.5045 13.9351C46.4306 13.9351 46.351 13.9605 46.2629 14.0117C46.1748 14.0628 46.0583 14.1252 45.9133 14.1961C45.3307 14.5168 44.7851 14.8771 44.282 15.2772C43.779 15.6774 43.3158 16.1343 42.8923 16.6422C42.8326 16.716 42.8042 16.8181 42.8042 16.9486C42.8042 17.1388 42.8724 17.2722 43.0117 17.3516C43.1509 17.4311 43.2987 17.4708 43.4607 17.4708C43.6056 17.4708 43.7819 17.4113 43.9865 17.2949C44.1911 17.1785 44.3986 17.0395 44.6089 16.8805C44.8192 16.7217 45.0238 16.5571 45.2227 16.3897C45.4188 16.2222 45.5837 16.0946 45.7144 16.0065C45.8309 15.9327 45.956 15.8618 46.0867 15.788C46.2174 15.7142 46.3482 15.649 46.4817 15.5923L46.7233 15.5043C46.8256 15.476 46.8796 15.422 46.8881 15.3398C46.8966 15.2603 46.8995 15.1837 46.8995 15.1099L46.8966 15.1156Z" fill="white"/>
<path d="M66.2392 13.9163C66.2392 14.1348 66.2051 14.4385 66.1397 14.8245C66.0743 15.2103 65.9834 15.6247 65.8669 16.0701C65.7504 16.5156 65.6082 16.9669 65.4405 17.4237C65.2728 17.8835 65.0825 18.2977 64.8723 18.6694C64.6618 19.0412 64.4373 19.3477 64.2044 19.586C63.9713 19.8272 63.724 19.9464 63.4598 19.9464C63.2835 19.9464 63.1102 19.8981 62.9339 19.8045C62.7577 19.711 62.59 19.5946 62.4309 19.4556C62.2689 19.3164 62.1212 19.1717 61.9819 19.0186C61.8427 18.8653 61.7233 18.7318 61.621 18.6156C61.4448 18.4112 61.2629 18.2013 61.0753 17.9828C60.885 17.7643 60.7116 17.5543 60.5496 17.3499C60.4188 17.2052 60.3308 17.2335 60.288 17.4379C60.1574 17.8607 59.9897 18.2608 59.785 18.6383C59.5521 19.0753 59.2194 19.4356 58.7904 19.7194C58.3613 20.0032 57.898 20.1451 57.4007 20.1451C56.9773 20.1451 56.6134 20.0401 56.3064 19.8272C55.9996 19.6172 55.7665 19.3221 55.6074 18.9419C55.1101 17.8352 54.7434 16.7001 54.5019 15.5338C54.2603 14.3675 54.0301 13.1955 53.8113 12.0152C53.8113 11.9867 53.8084 11.9498 53.7999 11.9073C53.7913 11.8647 53.7885 11.8279 53.7885 11.7967C53.7885 11.4759 53.9078 11.2545 54.1495 11.1298C54.3911 11.0048 54.6411 10.9453 54.9053 10.9453C55.0504 10.9453 55.218 10.9623 55.4084 10.9991C55.5988 11.036 55.7779 11.0986 55.9456 11.1836C56.1133 11.2716 56.2524 11.3766 56.3606 11.5015C56.4714 11.6263 56.5254 11.7739 56.5254 11.9498V12.0576C56.5112 12.3641 56.4884 12.665 56.46 12.9658C56.4315 13.2636 56.4173 13.5673 56.4173 13.8738C56.4173 14.4413 56.4686 15.0173 56.5708 15.599C56.6731 16.1808 56.8691 16.7284 57.1619 17.2364C57.2187 17.3386 57.3012 17.4663 57.4035 17.6195C57.5058 17.7728 57.628 17.8494 57.7758 17.8494C57.9349 17.8494 58.0714 17.7557 58.1794 17.5655C58.2873 17.3755 58.3727 17.2223 58.4324 17.1059C58.6795 16.5951 58.8415 16.0786 58.9126 15.5538C58.9865 15.0287 59.0377 14.4896 59.066 13.9362C59.0945 13.6439 59.194 13.3686 59.3616 13.1048C59.5293 12.8437 59.7738 12.7104 60.0949 12.7104C60.3137 12.7104 60.5154 12.7983 60.6973 12.9713C60.8793 13.1474 61.0441 13.3574 61.189 13.6042C61.334 13.851 61.4618 14.1064 61.5728 14.3704C61.6807 14.6315 61.7745 14.85 61.8456 15.0259C61.9024 15.1423 61.9961 15.321 62.1184 15.5621C62.2435 15.8034 62.3798 16.0417 62.5332 16.283C62.6868 16.5242 62.8431 16.7341 63.005 16.9157C63.1642 17.0973 63.3119 17.1882 63.4427 17.1882C63.5592 17.1882 63.6529 17.1116 63.7269 16.9583C63.8008 16.8051 63.8577 16.6235 63.9031 16.4107C63.9457 16.2007 63.9799 15.9963 64.0025 15.7977C64.0253 15.6019 64.0367 15.46 64.0367 15.3722C64.0367 15.023 64.0082 14.6741 63.9485 14.3221C63.8889 13.9731 63.8605 13.624 63.8605 13.2722C63.8605 12.997 63.9485 12.7869 64.1219 12.6507C64.2981 12.5117 64.5084 12.4436 64.7557 12.4436C65.1649 12.4436 65.5145 12.5826 65.8072 12.8578C66.1 13.136 66.2449 13.485 66.2449 13.9079L66.2392 13.9163Z" fill="white"/>
<path d="M76.4357 18.8775C76.4357 19.2124 76.268 19.4166 75.9327 19.4904L74.6852 19.7317C74.2901 19.8196 73.8979 19.9076 73.5029 19.9927C73.1079 20.0778 72.7157 20.1602 72.3206 20.234C71.9113 20.3218 71.5077 20.3901 71.107 20.4411C70.7064 20.4922 70.3 20.5177 69.8935 20.5177H69.4673C69.328 20.5177 69.1859 20.5034 69.0409 20.4751C68.6175 20.4156 68.3077 20.234 68.1116 19.9274C67.9155 19.621 67.816 19.2805 67.816 18.9002C67.816 18.4207 67.9468 17.9893 68.2111 17.612C68.6772 16.8827 69.166 16.1817 69.6776 15.5034C70.1891 14.8253 70.6325 14.0932 71.0133 13.3072C71.0418 13.2334 71.0758 13.1539 71.1127 13.0659C71.1497 12.978 71.1667 12.8985 71.1667 12.8247C71.1667 12.7226 71.1155 12.6715 71.0133 12.6715C70.8967 12.6715 70.7773 12.7055 70.6524 12.7708C70.5273 12.8361 70.3994 12.9099 70.2686 12.9893C70.138 13.0687 70.0072 13.1425 69.8736 13.2078C69.743 13.2731 69.6036 13.3072 69.4587 13.3072C69.3137 13.3072 69.1603 13.2703 68.9983 13.1965C68.8363 13.1227 68.6886 13.0319 68.5493 12.924C68.4101 12.8134 68.2936 12.6886 68.1997 12.541C68.1059 12.3963 68.0577 12.243 68.0577 12.0812C68.0577 11.877 68.123 11.7123 68.2537 11.5904C68.3845 11.4655 68.5293 11.369 68.6915 11.2952C69.1432 11.0767 69.6179 10.9178 70.1123 10.8157C70.6068 10.7135 71.0901 10.6057 71.556 10.4865C71.7465 10.4439 71.9596 10.3787 72.2012 10.2906C72.4429 10.2027 72.6503 10.1602 72.8236 10.1602C73.1447 10.1602 73.375 10.2851 73.5114 10.5319C73.6506 10.7788 73.7189 11.0427 73.7189 11.3179C73.7189 11.667 73.6307 12.0643 73.4573 12.5098C73.2812 12.9552 73.0624 13.4122 72.8008 13.8861C72.5394 14.3599 72.2581 14.8253 71.9596 15.2849C71.6613 15.7447 71.38 16.1703 71.1184 16.5619C70.857 16.9565 70.6382 17.294 70.4619 17.5779C70.2857 17.8616 70.2005 18.0547 70.2005 18.1568C70.2005 18.1851 70.2146 18.2163 70.2431 18.2447C70.2715 18.2732 70.3823 18.2872 70.5728 18.2872C70.9678 18.2872 71.3572 18.2504 71.7437 18.1794C72.1301 18.1056 72.5138 18.0233 72.8919 17.9269C73.2698 17.8333 73.6535 17.7453 74.04 17.6658C74.4265 17.5863 74.8158 17.5325 75.2108 17.5013H75.3188C75.4639 17.5013 75.6059 17.5439 75.7452 17.6317C75.8844 17.7198 76.0038 17.8333 76.1061 17.9695C76.2083 18.1085 76.288 18.2561 76.3477 18.4179C76.4074 18.5795 76.4357 18.7299 76.4357 18.8775Z" fill="white"/>
<path d="M80.1362 8.03979C80.1362 8.27238 80.0339 8.49088 79.8294 8.69528C79.6248 8.89953 79.4144 9.02446 79.1956 9.06706C78.991 9.10949 78.7948 9.13229 78.6045 9.13229C78.1241 9.13229 77.6865 9.00166 77.2914 8.73788C76.8964 8.47679 76.5753 8.13336 76.328 7.71061C76.2257 7.56589 76.1746 7.41263 76.1746 7.25081C76.1746 6.97563 76.2911 6.77423 76.5242 6.6493C76.7572 6.52438 76.9987 6.46484 77.246 6.46484C77.4365 6.46484 77.6922 6.50458 78.0133 6.58407C78.3345 6.66355 78.6499 6.77423 78.9653 6.91039C79.2781 7.04941 79.5537 7.21392 79.7868 7.40123C80.0198 7.59139 80.1362 7.80134 80.1362 8.03409V8.03979ZM80.9888 18.7889C80.9888 18.9336 80.9349 19.0585 80.824 19.1606C80.716 19.2628 80.5824 19.3423 80.429 19.4018C80.2756 19.4615 80.1193 19.5041 79.9573 19.5324C79.7953 19.5608 79.6588 19.575 79.5423 19.575C79.3803 19.575 79.2212 19.5522 79.0621 19.5096C78.9 19.4672 78.7636 19.3848 78.6471 19.2685C78.3117 18.9195 78.0275 18.5194 77.7945 18.0653C77.5614 17.614 77.4308 17.1402 77.3994 16.6465C77.3711 16.0931 77.3511 15.5397 77.3454 14.9863C77.3369 14.4331 77.334 13.8798 77.334 13.3264V11.8395C77.334 11.5925 77.3994 11.3996 77.5302 11.2606C77.661 11.1214 77.8513 11.0533 78.0986 11.0533C78.2749 11.0533 78.4482 11.0902 78.6243 11.164C78.8005 11.2378 78.9596 11.3315 79.1047 11.4478C79.2496 11.5641 79.3661 11.7031 79.4543 11.8621C79.5423 12.0211 79.5849 12.197 79.5849 12.3871C79.5849 12.8667 79.5366 13.3462 79.4429 13.8172C79.349 14.2911 79.3007 14.7595 79.3007 15.2276C79.3007 15.7525 79.3889 16.2038 79.5623 16.5812C79.7356 16.9586 79.9317 17.2877 80.1419 17.5631C80.3523 17.8411 80.5455 18.0767 80.7217 18.2724C80.898 18.4683 80.9831 18.6413 80.9831 18.786L80.9888 18.7889Z" fill="white"/>
<path d="M92.4305 15.3831C92.4305 15.7321 92.3708 16.1038 92.2543 16.4983C92.0497 17.1254 91.7741 17.659 91.4216 18.1044C91.072 18.5499 90.6656 18.9303 90.2082 19.2509C89.7477 19.5715 89.2533 19.8468 88.7189 20.0823C88.1875 20.315 87.6362 20.5421 87.0678 20.7606C86.7324 20.9053 86.3515 20.9791 85.9309 20.9791C85.769 20.9791 85.6098 20.9648 85.4507 20.9365C85.2886 20.9082 85.1437 20.857 85.0129 20.7832C84.8823 20.7094 84.7772 20.6159 84.6947 20.4995C84.615 20.3831 84.5753 20.2299 84.5753 20.0397C84.5753 19.9092 84.5838 19.8128 84.5981 19.756C84.6407 19.5658 84.6861 19.3473 84.7287 19.1005C84.7715 18.8536 84.8396 18.6266 84.9249 18.4223C85.0129 18.2179 85.1352 18.0449 85.2971 17.8973C85.4563 17.7526 85.6695 17.6788 85.9309 17.6788C86.1498 17.6788 86.3089 17.7383 86.4112 17.8547C86.5136 17.9711 86.5874 18.0988 86.63 18.2379C86.6727 18.3769 86.7068 18.5045 86.7296 18.6209C86.7522 18.7372 86.8062 18.7968 86.8944 18.7968C86.9227 18.7968 86.9824 18.7827 87.0706 18.7543C87.3775 18.6237 87.6845 18.4933 87.9885 18.3598C88.2955 18.2293 88.5826 18.0789 88.8525 17.9115C89.1225 17.744 89.3669 17.5426 89.5858 17.3099C89.8046 17.0773 89.9865 16.785 90.1314 16.4359C90.2053 16.2769 90.2622 16.1124 90.3076 15.945C90.3502 15.7775 90.373 15.613 90.373 15.454C90.373 15.2213 90.3076 15.017 90.1768 14.8411C90.0462 14.6652 89.8812 14.5234 89.6852 14.4155C89.489 14.3076 89.273 14.2225 89.04 14.1657C88.8071 14.109 88.5938 14.0778 88.4063 14.0778C88.0255 14.0778 87.6645 14.1799 87.3235 14.3842C86.9796 14.5886 86.7353 14.8809 86.5902 15.2582C86.5022 15.5052 86.4283 15.7294 86.3714 15.9251C86.3117 16.1209 86.2463 16.3083 86.1754 16.4813C86.1015 16.6572 86.0077 16.8303 85.8912 17.0063C85.7747 17.1823 85.6127 17.3696 85.4108 17.5738C85.2488 17.7185 85.0669 17.8349 84.8624 17.9228C84.6578 18.0108 84.4531 18.0534 84.2485 18.0534C83.9415 18.0534 83.7114 17.9597 83.5578 17.7697C83.4044 17.5795 83.3276 17.3411 83.3276 17.0488C83.3276 16.7565 83.3419 16.4785 83.3704 16.2088C83.3987 15.9393 83.413 15.6583 83.413 15.3689C83.413 14.8752 83.3647 14.387 83.2708 13.9048C83.1771 13.4252 83.0634 12.9513 82.9326 12.4858C82.8446 12.1511 82.7621 11.8588 82.6797 11.6118C82.6001 11.3649 82.5007 11.135 82.3841 10.9222C82.2676 10.7123 82.1284 10.5023 81.9693 10.3008C81.8073 10.0965 81.6054 9.87232 81.3554 9.62263C81.1081 9.40413 80.983 9.14304 80.983 8.83651C80.983 8.6777 81.0229 8.50179 81.1024 8.31163C81.1821 8.12147 81.2929 7.95126 81.4321 7.79799C81.5714 7.64473 81.7248 7.51711 81.8925 7.41483C82.0602 7.31271 82.2307 7.26172 82.4069 7.26172C82.5972 7.26172 82.7565 7.34105 82.8871 7.50286C82.9894 7.63333 83.089 7.7725 83.1828 7.91722C83.2765 8.06194 83.3675 8.20951 83.4556 8.35422C83.8506 8.99547 84.2002 9.65382 84.5071 10.332C84.8141 11.0103 85.0471 11.7196 85.2063 12.4631C85.2205 12.5369 85.2432 12.6164 85.2717 12.7043C85.3 12.7923 85.3597 12.8349 85.4479 12.8349C85.5076 12.8349 85.6156 12.7697 85.7775 12.639C85.9367 12.5086 86.1412 12.3667 86.3914 12.2134C86.6385 12.0602 86.9285 11.9183 87.2553 11.7878C87.5849 11.6572 87.9459 11.592 88.3381 11.592C88.8183 11.592 89.2873 11.6941 89.7392 11.8985C90.103 12.0602 90.4496 12.2532 90.7793 12.4774C91.1091 12.7043 91.3931 12.9625 91.6319 13.2519C91.8735 13.5442 92.0667 13.8679 92.2117 14.2254C92.3566 14.5829 92.4305 14.9716 92.4305 15.3945V15.3831Z" fill="white"/>
<path d="M97.1372 13.739C97.1372 14.2924 97.123 14.84 97.0945 15.3792C97.0661 15.9183 97.0348 16.466 97.0064 17.0193C96.9779 17.3116 96.9638 17.5982 96.9638 17.8819C96.9638 18.1658 96.9496 18.4467 96.9211 18.7219C96.8927 18.9404 96.8074 19.0965 96.6711 19.1929C96.5317 19.2867 96.3612 19.3348 96.1567 19.3348C95.8952 19.3348 95.6536 19.2612 95.4348 19.1163C95.216 18.9716 95.071 18.7673 94.9972 18.5034C94.909 18.1685 94.8464 17.8167 94.8124 17.4449C94.7755 17.0732 94.7584 16.7128 94.7584 16.3638C94.7584 15.7679 94.7869 15.1776 94.8464 14.593C94.9033 14.0113 94.9346 13.4212 94.9346 12.8224C94.9346 12.3259 94.892 11.8037 94.8039 11.2503C94.7158 10.6969 94.6078 10.1409 94.4742 9.57895C94.3434 9.01702 94.1957 8.46935 94.0366 7.93023C93.8746 7.3911 93.724 6.88887 93.5761 6.42337C93.5335 6.32124 93.5107 6.21342 93.5107 6.0942C93.5107 5.9042 93.5647 5.74522 93.6756 5.61476C93.7864 5.48413 93.92 5.37346 94.0792 5.28844C94.2383 5.2004 94.4117 5.13517 94.5936 5.09258C94.7755 5.04998 94.946 5.02734 95.108 5.02734C95.4008 5.02734 95.6593 5.08688 95.8838 5.20325C96.1084 5.31963 96.2363 5.54652 96.2675 5.88139C96.384 6.84342 96.5262 7.79121 96.6939 8.72189C96.8615 9.65558 96.9808 10.6005 97.0547 11.5625C97.0832 11.9427 97.1059 12.3088 97.1201 12.6663C97.1344 13.024 97.1429 13.3843 97.1429 13.7475L97.1372 13.739Z" fill="white"/>
<path d="M109.807 19.2489C109.807 19.51 109.719 19.7002 109.546 19.8166C109.327 19.9754 109.06 20.1117 108.747 20.2195C108.435 20.3273 108.108 20.4152 107.773 20.4806C107.437 20.5458 107.102 20.594 106.767 20.6225C106.431 20.6508 106.133 20.6649 105.868 20.6649C105.459 20.6649 105.047 20.6394 104.632 20.5884C104.217 20.5373 103.819 20.4464 103.439 20.3159C103.001 20.1855 102.543 20.018 102.071 19.8137C101.597 19.6093 101.162 19.3625 100.77 19.0702C100.375 18.7779 100.051 18.4318 99.7951 18.0317C99.5394 17.6316 99.4115 17.1689 99.4115 16.644C99.4115 16.5277 99.4143 16.4227 99.4229 16.3261C99.4314 16.2325 99.4398 16.1332 99.4569 16.0311C99.5451 15.4918 99.6843 15.0179 99.8719 14.6093C100.062 14.2008 100.301 13.8347 100.594 13.5055C100.887 13.1764 101.216 12.8755 101.588 12.5975C101.961 12.3222 102.364 12.0441 102.802 11.7659C103.328 11.4312 103.879 11.1445 104.453 10.9033C105.03 10.6622 105.638 10.543 106.28 10.543C106.602 10.543 106.94 10.5856 107.298 10.6734C107.656 10.7615 107.983 10.8919 108.284 11.068C108.582 11.2439 108.83 11.4681 109.029 11.7461C109.225 12.0242 109.324 12.3505 109.324 12.728C109.324 13.0345 109.259 13.3268 109.128 13.602C108.997 13.88 108.83 14.1185 108.625 14.3227C108.304 14.6435 107.974 14.8875 107.642 15.0548C107.309 15.2224 106.963 15.3642 106.613 15.4806C106.264 15.5968 105.903 15.7019 105.53 15.7984C105.158 15.8919 104.783 16.0283 104.402 16.2013C104.123 16.3177 103.825 16.4198 103.504 16.5077C103.183 16.5957 102.876 16.6383 102.586 16.6383C102.424 16.6383 102.268 16.6212 102.114 16.5843C101.961 16.5474 101.827 16.4708 101.711 16.3546C101.594 16.2382 101.534 16.2666 101.534 16.4425C101.534 16.7773 101.64 17.0639 101.853 17.3052C102.066 17.5464 102.319 17.7451 102.62 17.9067C102.918 18.0686 103.24 18.199 103.584 18.3011C103.927 18.4033 104.229 18.4828 104.493 18.5424C104.828 18.6303 105.161 18.6984 105.488 18.7495C105.817 18.8007 106.156 18.8262 106.505 18.8262C106.914 18.8262 107.318 18.7978 107.719 18.7381C108.119 18.6786 108.523 18.6134 108.932 18.5424C108.961 18.5424 108.989 18.5396 109.02 18.531C109.049 18.5225 109.077 18.5196 109.108 18.5196C109.327 18.5196 109.498 18.5877 109.623 18.7269C109.748 18.8659 109.81 19.0361 109.81 19.2405L109.807 19.2489ZM107.181 12.8698C107.181 12.7535 107.147 12.6599 107.082 12.5861C107.017 12.5123 106.926 12.4754 106.809 12.4754C106.678 12.4754 106.539 12.4897 106.394 12.518C106.249 12.5464 106.11 12.5776 105.979 12.6059C105.63 12.6797 105.269 12.782 104.896 12.9124C104.524 13.0429 104.16 13.1962 103.802 13.3721C103.444 13.5481 103.103 13.7467 102.774 13.9737C102.444 14.2008 102.165 14.4448 101.932 14.7059C101.787 14.9101 101.853 14.9527 102.128 14.8363C102.492 14.72 102.859 14.6264 103.223 14.5526C103.586 14.4788 103.959 14.3993 104.339 14.3115C104.47 14.283 104.692 14.2206 105.007 14.1242C105.32 14.0304 105.638 13.9169 105.959 13.7864C106.28 13.656 106.565 13.5112 106.812 13.3494C107.059 13.1905 107.184 13.0288 107.184 12.8698H107.181Z" fill="white"/>
</g>
</svg>
