<svg width="543" height="87" viewBox="0 0 543 87" fill="none" xmlns="http://www.w3.org/2000/svg">
<g opacity="0.09">
<mask id="path-1-outside-1_419_2729" maskUnits="userSpaceOnUse" x="-2" y="-2" width="547" height="91" fill="black">
<rect fill="white" x="-2" y="-2" width="547" height="91"/>
<path d="M61.655 31.26C61.655 35.9367 60.5817 40.23 58.435 44.14C56.2883 47.9733 52.9917 51.0783 48.545 53.455C44.0983 55.8317 38.5783 57.02 31.985 57.02H19.795V86H0.13V5.27H31.985C38.425 5.27 43.8683 6.38166 48.315 8.605C52.7617 10.8283 56.0967 13.895 58.32 17.805C60.5433 21.715 61.655 26.2 61.655 31.26ZM30.49 41.38C34.2467 41.38 37.045 40.4983 38.885 38.735C40.725 36.9717 41.645 34.48 41.645 31.26C41.645 28.04 40.725 25.5483 38.885 23.785C37.045 22.0217 34.2467 21.14 30.49 21.14H19.795V41.38H30.49ZM95.0077 32.525C97.3077 28.9983 100.183 26.2383 103.633 24.245C107.083 22.175 110.916 21.14 115.133 21.14V41.955H109.728C104.821 41.955 101.141 43.0283 98.6877 45.175C96.2344 47.245 95.0077 50.925 95.0077 56.215V86H75.3427V21.83H95.0077V32.525ZM157.192 86.92C150.905 86.92 145.232 85.5783 140.172 82.895C135.189 80.2117 131.24 76.3783 128.327 71.395C125.49 66.4117 124.072 60.585 124.072 53.915C124.072 47.3217 125.529 41.5333 128.442 36.55C131.355 31.49 135.342 27.6183 140.402 24.935C145.462 22.2517 151.135 20.91 157.422 20.91C163.709 20.91 169.382 22.2517 174.442 24.935C179.502 27.6183 183.489 31.49 186.402 36.55C189.315 41.5333 190.772 47.3217 190.772 53.915C190.772 60.5083 189.277 66.335 186.287 71.395C183.374 76.3783 179.349 80.2117 174.212 82.895C169.152 85.5783 163.479 86.92 157.192 86.92ZM157.192 69.9C160.949 69.9 164.13 68.52 166.737 65.76C169.42 63 170.762 59.0517 170.762 53.915C170.762 48.7783 169.459 44.83 166.852 42.07C164.322 39.31 161.179 37.93 157.422 37.93C153.589 37.93 150.407 39.31 147.877 42.07C145.347 44.7533 144.082 48.7017 144.082 53.915C144.082 59.0517 145.309 63 147.762 65.76C150.292 68.52 153.435 69.9 157.192 69.9ZM200.745 53.8C200.745 47.2067 201.971 41.4183 204.425 36.435C206.955 31.4517 210.366 27.6183 214.66 24.935C218.953 22.2517 223.745 20.91 229.035 20.91C233.251 20.91 237.085 21.7917 240.535 23.555C244.061 25.3183 246.821 27.695 248.815 30.685V0.899999H268.48V86H248.815V76.8C246.975 79.8667 244.33 82.32 240.88 84.16C237.506 86 233.558 86.92 229.035 86.92C223.745 86.92 218.953 85.5783 214.66 82.895C210.366 80.135 206.955 76.2633 204.425 71.28C201.971 66.22 200.745 60.3933 200.745 53.8ZM248.815 53.915C248.815 49.0083 247.435 45.1367 244.675 42.3C241.991 39.4633 238.695 38.045 234.785 38.045C230.875 38.045 227.54 39.4633 224.78 42.3C222.096 45.06 220.755 48.8933 220.755 53.8C220.755 58.7067 222.096 62.6167 224.78 65.53C227.54 68.3667 230.875 69.785 234.785 69.785C238.695 69.785 241.991 68.3667 244.675 65.53C247.435 62.6933 248.815 58.8217 248.815 53.915ZM349.522 21.83V86H329.857V77.26C327.863 80.0967 325.142 82.3967 321.692 84.16C318.318 85.8467 314.562 86.69 310.422 86.69C305.515 86.69 301.183 85.6167 297.427 83.47C293.67 81.2467 290.757 78.065 288.687 73.925C286.617 69.785 285.582 64.9167 285.582 59.32V21.83H305.132V56.675C305.132 60.9683 306.243 64.3033 308.467 66.68C310.69 69.0567 313.68 70.245 317.437 70.245C321.27 70.245 324.298 69.0567 326.522 66.68C328.745 64.3033 329.857 60.9683 329.857 56.675V21.83H349.522ZM363.187 53.915C363.187 47.245 364.528 41.4183 367.212 36.435C369.972 31.4517 373.767 27.6183 378.597 24.935C383.503 22.2517 389.1 20.91 395.387 20.91C403.437 20.91 410.145 23.0183 415.512 27.235C420.955 31.4517 424.52 37.3933 426.207 45.06H405.277C403.513 40.1533 400.102 37.7 395.042 37.7C391.438 37.7 388.563 39.1183 386.417 41.955C384.27 44.715 383.197 48.7017 383.197 53.915C383.197 59.1283 384.27 63.1533 386.417 65.99C388.563 68.75 391.438 70.13 395.042 70.13C400.102 70.13 403.513 67.6767 405.277 62.77H426.207C424.52 70.2833 420.955 76.1867 415.512 80.48C410.068 84.7733 403.36 86.92 395.387 86.92C389.1 86.92 383.503 85.5783 378.597 82.895C373.767 80.2117 369.972 76.3783 367.212 71.395C364.528 66.4117 363.187 60.585 363.187 53.915ZM475.941 69.325V86H465.936C458.806 86 453.247 84.275 449.261 80.825C445.274 77.2983 443.281 71.5867 443.281 63.69V38.16H435.461V21.83H443.281V6.19H462.946V21.83H475.826V38.16H462.946V63.92C462.946 65.8367 463.406 67.2167 464.326 68.06C465.246 68.9033 466.779 69.325 468.926 69.325H475.941ZM516.449 86.92C510.853 86.92 505.869 85.9617 501.499 84.045C497.129 82.1283 493.679 79.5217 491.149 76.225C488.619 72.8517 487.201 69.095 486.894 64.955H506.329C506.559 67.1783 507.594 68.98 509.434 70.36C511.274 71.74 513.536 72.43 516.219 72.43C518.673 72.43 520.551 71.97 521.854 71.05C523.234 70.0533 523.924 68.7883 523.924 67.255C523.924 65.415 522.966 64.0733 521.049 63.23C519.133 62.31 516.028 61.3133 511.734 60.24C507.134 59.1667 503.301 58.055 500.234 56.905C497.168 55.6783 494.523 53.8 492.299 51.27C490.076 48.6633 488.964 45.175 488.964 40.805C488.964 37.125 489.961 33.79 491.954 30.8C494.024 27.7333 497.014 25.3183 500.924 23.555C504.911 21.7917 509.626 20.91 515.069 20.91C523.119 20.91 529.444 22.9033 534.044 26.89C538.721 30.8767 541.404 36.1667 542.094 42.76H523.924C523.618 40.5367 522.621 38.7733 520.934 37.47C519.324 36.1667 517.178 35.515 514.494 35.515C512.194 35.515 510.431 35.975 509.204 36.895C507.978 37.7383 507.364 38.9267 507.364 40.46C507.364 42.3 508.323 43.68 510.239 44.6C512.233 45.52 515.299 46.44 519.439 47.36C524.193 48.5867 528.064 49.8133 531.054 51.04C534.044 52.19 536.651 54.1067 538.874 56.79C541.174 59.3967 542.363 62.9233 542.439 67.37C542.439 71.1267 541.366 74.5 539.219 77.49C537.149 80.4033 534.121 82.7033 530.134 84.39C526.224 86.0767 521.663 86.92 516.449 86.92Z"/>
</mask>
<path d="M58.435 44.14L60.18 45.1172L60.1841 45.1099L60.1882 45.1025L58.435 44.14ZM48.545 53.455L47.6022 51.6911L48.545 53.455ZM19.795 57.02V55.02H17.795V57.02H19.795ZM19.795 86V88H21.795V86H19.795ZM0.13 86H-1.87V88H0.13V86ZM0.13 5.27V3.27H-1.87V5.27H0.13ZM48.315 8.605L49.2094 6.81614L48.315 8.605ZM58.32 17.805L56.5814 18.7936L58.32 17.805ZM19.795 21.14V19.14H17.795V21.14H19.795ZM19.795 41.38H17.795V43.38H19.795V41.38ZM59.655 31.26C59.655 35.6171 58.6586 39.5769 56.6818 43.1775L60.1882 45.1025C62.5047 40.8831 63.655 36.2563 63.655 31.26H59.655ZM56.69 43.1628C54.7564 46.6156 51.7628 49.4674 47.6022 51.6911L49.4878 55.2189C54.2205 52.6893 57.8202 49.3311 60.18 45.1172L56.69 43.1628ZM47.6022 51.6911C43.5212 53.8724 38.3473 55.02 31.985 55.02V59.02C38.8093 59.02 44.6755 57.7909 49.4878 55.2189L47.6022 51.6911ZM31.985 55.02H19.795V59.02H31.985V55.02ZM17.795 57.02V86H21.795V57.02H17.795ZM19.795 84H0.13V88H19.795V84ZM2.13 86V5.27H-1.87V86H2.13ZM0.13 7.27H31.985V3.27H0.13V7.27ZM31.985 7.27C38.2031 7.27 43.3212 8.34419 47.4206 10.3939L49.2094 6.81614C44.4154 4.41914 38.6469 3.27 31.985 3.27V7.27ZM47.4206 10.3939C51.5516 12.4594 54.5744 15.264 56.5814 18.7936L60.0586 16.8164C57.6189 12.526 53.9717 9.19728 49.2094 6.81614L47.4206 10.3939ZM56.5814 18.7936C58.6128 22.3661 59.655 26.5025 59.655 31.26H63.655C63.655 25.8975 62.4738 21.0639 60.0586 16.8164L56.5814 18.7936ZM30.49 43.38C34.5207 43.38 37.9124 42.4372 40.2688 40.179L37.5012 37.291C36.1776 38.5595 33.9727 39.38 30.49 39.38V43.38ZM40.2688 40.179C42.6002 37.9447 43.645 34.873 43.645 31.26H39.645C39.645 34.087 38.8498 35.9986 37.5012 37.291L40.2688 40.179ZM43.645 31.26C43.645 27.647 42.6002 24.5753 40.2688 22.341L37.5012 25.229C38.8498 26.5214 39.645 28.433 39.645 31.26H43.645ZM40.2688 22.341C37.9124 20.0828 34.5207 19.14 30.49 19.14V23.14C33.9727 23.14 36.1776 23.9605 37.5012 25.229L40.2688 22.341ZM30.49 19.14H19.795V23.14H30.49V19.14ZM17.795 21.14V41.38H21.795V21.14H17.795ZM19.795 43.38H30.49V39.38H19.795V43.38ZM95.0077 32.525H93.0077V39.2529L96.6829 33.6175L95.0077 32.525ZM103.633 24.245L104.633 25.9767L104.648 25.9685L104.662 25.96L103.633 24.245ZM115.133 21.14H117.133V19.14H115.133V21.14ZM115.133 41.955V43.955H117.133V41.955H115.133ZM98.6877 45.175L99.9774 46.7036L99.9912 46.692L100.005 46.6802L98.6877 45.175ZM95.0077 86V88H97.0077V86H95.0077ZM75.3427 86H73.3427V88H75.3427V86ZM75.3427 21.83V19.83H73.3427V21.83H75.3427ZM95.0077 21.83H97.0077V19.83H95.0077V21.83ZM96.6829 33.6175C98.8213 30.3386 101.471 27.804 104.633 25.9767L102.632 22.5133C98.8948 24.6726 95.7941 27.658 93.3325 31.4325L96.6829 33.6175ZM104.662 25.96C107.786 24.0856 111.26 23.14 115.133 23.14V19.14C110.572 19.14 106.38 20.2644 102.604 22.53L104.662 25.96ZM113.133 21.14V41.955H117.133V21.14H113.133ZM115.133 39.955H109.728V43.955H115.133V39.955ZM109.728 39.955C104.573 39.955 100.334 41.0767 97.3707 43.6698L100.005 46.6802C101.948 44.9799 105.069 43.955 109.728 43.955V39.955ZM97.3979 43.6464C94.2713 46.2845 93.0077 50.7084 93.0077 56.215H97.0077C97.0077 51.1416 98.1974 48.2055 99.9774 46.7036L97.3979 43.6464ZM93.0077 56.215V86H97.0077V56.215H93.0077ZM95.0077 84H75.3427V88H95.0077V84ZM77.3427 86V21.83H73.3427V86H77.3427ZM75.3427 23.83H95.0077V19.83H75.3427V23.83ZM93.0077 21.83V32.525H97.0077V21.83H93.0077ZM140.172 82.895L139.224 84.656L139.235 84.6619L140.172 82.895ZM128.327 71.395L126.589 72.3844L126.595 72.3944L126.601 72.4044L128.327 71.395ZM128.442 36.55L130.169 37.5594L130.175 37.5479L128.442 36.55ZM140.402 24.935L141.339 26.7019L140.402 24.935ZM174.442 24.935L173.505 26.7019L174.442 24.935ZM186.402 36.55L184.669 37.548L184.676 37.5594L186.402 36.55ZM186.287 71.395L184.565 70.3775L184.561 70.3856L186.287 71.395ZM174.212 82.895L173.286 81.1223L173.275 81.1281L174.212 82.895ZM166.737 65.76L165.303 64.3658L165.293 64.3762L165.283 64.3867L166.737 65.76ZM166.852 42.07L165.378 43.4214L165.388 43.4324L165.398 43.4432L166.852 42.07ZM147.877 42.07L149.332 43.442L149.342 43.4318L149.351 43.4214L147.877 42.07ZM147.762 65.76L146.267 67.0887L146.277 67.1002L146.288 67.1115L147.762 65.76ZM157.192 84.92C151.2 84.92 145.853 83.6438 141.109 81.1281L139.235 84.6619C144.611 87.5129 150.611 88.92 157.192 88.92V84.92ZM141.12 81.1341C136.467 78.6286 132.785 75.0583 130.054 70.3856L126.601 72.4044C129.695 77.6983 133.91 81.7948 139.224 84.6559L141.12 81.1341ZM130.065 70.4056C127.426 65.7698 126.072 60.2952 126.072 53.915H122.072C122.072 60.8748 123.555 67.0535 126.589 72.3844L130.065 70.4056ZM126.072 53.915C126.072 47.6251 127.459 42.195 130.169 37.5594L126.716 35.5406C123.599 40.8717 122.072 47.0182 122.072 53.915H126.072ZM130.175 37.5479C132.905 32.8074 136.618 29.2054 141.339 26.7019L139.465 23.1681C134.066 26.0313 129.806 30.1726 126.709 35.5521L130.175 37.5479ZM141.339 26.7019C146.083 24.1862 151.43 22.91 157.422 22.91V18.91C150.841 18.91 144.841 20.3171 139.465 23.1681L141.339 26.7019ZM157.422 22.91C163.415 22.91 168.761 24.1862 173.505 26.7019L175.379 23.1681C170.003 20.3171 164.003 18.91 157.422 18.91V22.91ZM173.505 26.7019C178.226 29.2054 181.939 32.8074 184.669 37.5479L188.135 35.5521C185.038 30.1726 180.778 26.0313 175.379 23.1681L173.505 26.7019ZM184.676 37.5594C187.386 42.195 188.772 47.6251 188.772 53.915H192.772C192.772 47.0182 191.245 40.8717 188.129 35.5406L184.676 37.5594ZM188.772 53.915C188.772 60.195 187.352 65.662 184.565 70.3775L188.009 72.4125C191.203 67.008 192.772 60.8216 192.772 53.915H188.772ZM184.561 70.3856C181.838 75.0429 178.091 78.6124 173.286 81.1223L175.138 84.6677C180.607 81.811 184.91 77.7137 188.014 72.4044L184.561 70.3856ZM173.275 81.1281C168.531 83.6438 163.185 84.92 157.192 84.92V88.92C163.773 88.92 169.773 87.5129 175.149 84.6619L173.275 81.1281ZM157.192 71.9C161.506 71.9 165.211 70.2885 168.191 67.1332L165.283 64.3867C163.05 66.7515 160.392 67.9 157.192 67.9V71.9ZM168.171 67.1542C171.326 63.9096 172.762 59.3933 172.762 53.915H168.762C168.762 58.71 167.515 62.0904 165.303 64.3658L168.171 67.1542ZM172.762 53.915C172.762 48.4514 171.372 43.9429 168.306 40.6968L165.398 43.4432C167.546 45.7171 168.762 49.1053 168.762 53.915H172.762ZM168.326 40.7185C165.416 37.5437 161.737 35.93 157.422 35.93V39.93C160.62 39.93 163.228 41.0763 165.378 43.4214L168.326 40.7185ZM157.422 35.93C153.043 35.93 149.322 37.5342 146.403 40.7185L149.351 43.4214C151.493 41.0858 154.134 39.93 157.422 39.93V35.93ZM146.422 40.698C143.42 43.882 142.082 48.403 142.082 53.915H146.082C146.082 49.0003 147.274 45.6246 149.332 43.442L146.422 40.698ZM142.082 53.915C142.082 59.35 143.381 63.8411 146.267 67.0887L149.257 64.4313C147.237 62.1589 146.082 58.7533 146.082 53.915H142.082ZM146.288 67.1115C149.198 70.2863 152.877 71.9 157.192 71.9V67.9C153.994 67.9 151.386 66.7537 149.236 64.4085L146.288 67.1115ZM204.425 36.435L202.641 35.5296L202.636 35.5406L202.63 35.5516L204.425 36.435ZM214.66 24.935L215.72 26.631L214.66 24.935ZM240.535 23.555L239.625 25.3359L239.632 25.3399L239.64 25.3438L240.535 23.555ZM248.815 30.685L247.151 31.7944L250.815 37.2906V30.685H248.815ZM248.815 0.899999V-1.1H246.815V0.899999H248.815ZM268.48 0.899999H270.48V-1.1H268.48V0.899999ZM268.48 86V88H270.48V86H268.48ZM248.815 86H246.815V88H248.815V86ZM248.815 76.8H250.815V69.5794L247.1 75.771L248.815 76.8ZM240.88 84.16L239.939 82.3953L239.93 82.3997L239.922 82.4042L240.88 84.16ZM214.66 82.895L213.578 84.5774L213.589 84.5842L213.6 84.591L214.66 82.895ZM204.425 71.28L202.625 72.1525L202.633 72.169L202.641 72.1854L204.425 71.28ZM244.675 42.3L243.222 43.6744L243.232 43.6846L243.241 43.6947L244.675 42.3ZM224.78 42.3L223.346 40.9053L223.346 40.9058L224.78 42.3ZM224.78 65.53L223.309 66.8849L223.327 66.9051L223.346 66.9247L224.78 65.53ZM244.675 65.53L243.241 64.1353L243.232 64.1454L243.222 64.1556L244.675 65.53ZM202.745 53.8C202.745 47.4562 203.924 41.9801 206.219 37.3184L202.63 35.5516C200.019 40.8566 198.745 46.9572 198.745 53.8H202.745ZM206.208 37.3404C208.591 32.6468 211.766 29.1019 215.72 26.631L213.6 23.239C208.967 26.1348 205.319 30.2566 202.641 35.5296L206.208 37.3404ZM215.72 26.631C219.681 24.1555 224.102 22.91 229.035 22.91V18.91C223.388 18.91 218.226 20.3479 213.6 23.239L215.72 26.631ZM229.035 22.91C232.964 22.91 236.481 23.729 239.625 25.3359L241.445 21.7741C237.689 19.8543 233.539 18.91 229.035 18.91V22.91ZM239.64 25.3438C242.887 26.9671 245.369 29.1216 247.151 31.7944L250.479 29.5756C248.274 26.2684 245.236 23.6696 241.429 21.7661L239.64 25.3438ZM250.815 30.685V0.899999H246.815V30.685H250.815ZM248.815 2.9H268.48V-1.1H248.815V2.9ZM266.48 0.899999V86H270.48V0.899999H266.48ZM268.48 84H248.815V88H268.48V84ZM250.815 86V76.8H246.815V86H250.815ZM247.1 75.771C245.464 78.4982 243.1 80.7094 239.939 82.3953L241.821 85.9247C245.56 83.9306 248.486 81.2351 250.53 77.829L247.1 75.771ZM239.922 82.4042C236.891 84.0577 233.283 84.92 229.035 84.92V88.92C233.833 88.92 238.122 87.9423 241.838 85.9158L239.922 82.4042ZM229.035 84.92C224.102 84.92 219.681 83.6745 215.72 81.199L213.6 84.591C218.226 87.4821 223.388 88.92 229.035 88.92V84.92ZM215.741 81.2126C211.775 78.6627 208.593 75.0722 206.208 70.3746L202.641 72.1854C205.317 77.4545 208.958 81.6073 213.578 84.5774L215.741 81.2126ZM206.224 70.4075C203.924 65.6625 202.745 60.1429 202.745 53.8H198.745C198.745 60.6437 200.019 66.7775 202.625 72.1525L206.224 70.4075ZM250.815 53.915C250.815 48.6191 249.314 44.2001 246.108 40.9053L243.241 43.6947C245.556 46.0732 246.815 49.3976 246.815 53.915H250.815ZM246.128 40.9256C243.066 37.689 239.244 36.045 234.785 36.045V40.045C238.146 40.045 240.917 41.2377 243.222 43.6744L246.128 40.9256ZM234.785 36.045C230.327 36.045 226.478 37.687 223.346 40.9053L226.213 43.6947C228.602 41.2397 231.422 40.045 234.785 40.045V36.045ZM223.346 40.9058C220.207 44.1341 218.755 48.5221 218.755 53.8H222.755C222.755 49.2646 223.986 45.9859 226.214 43.6942L223.346 40.9058ZM218.755 53.8C218.755 59.0833 220.209 63.5194 223.309 66.8849L226.251 64.175C223.984 61.7139 222.755 58.3301 222.755 53.8H218.755ZM223.346 66.9247C226.478 70.143 230.327 71.785 234.785 71.785V67.785C231.422 67.785 228.602 66.5903 226.213 64.1353L223.346 66.9247ZM234.785 71.785C239.244 71.785 243.066 70.141 246.128 66.9044L243.222 64.1556C240.917 66.5923 238.146 67.785 234.785 67.785V71.785ZM246.108 66.9247C249.314 63.6298 250.815 59.2109 250.815 53.915H246.815C246.815 58.4324 245.556 61.7568 243.241 64.1353L246.108 66.9247ZM349.522 21.83H351.522V19.83H349.522V21.83ZM349.522 86V88H351.522V86H349.522ZM329.857 86H327.857V88H329.857V86ZM329.857 77.26H331.857V70.9353L328.22 76.1101L329.857 77.26ZM321.692 84.16L322.586 85.9489L322.594 85.9449L322.602 85.9409L321.692 84.16ZM297.427 83.47L296.408 85.1912L296.421 85.1989L296.434 85.2065L297.427 83.47ZM288.687 73.925L286.898 74.8194L288.687 73.925ZM285.582 21.83V19.83H283.582V21.83H285.582ZM305.132 21.83H307.132V19.83H305.132V21.83ZM308.467 66.68L307.006 68.0463L308.467 66.68ZM329.857 21.83V19.83H327.857V21.83H329.857ZM347.522 21.83V86H351.522V21.83H347.522ZM349.522 84H329.857V88H349.522V84ZM331.857 86V77.26H327.857V86H331.857ZM328.22 76.1101C326.435 78.6504 323.976 80.7462 320.781 82.3791L322.602 85.9409C326.307 84.0471 329.291 81.5429 331.493 78.4099L328.22 76.1101ZM320.797 82.3711C317.728 83.9058 314.282 84.69 310.422 84.69V88.69C314.841 88.69 318.909 87.7875 322.586 85.9489L320.797 82.3711ZM310.422 84.69C305.815 84.69 301.835 83.6854 298.419 81.7335L296.434 85.2065C300.532 87.548 305.214 88.69 310.422 88.69V84.69ZM298.445 81.7488C295.04 79.7334 292.384 76.8484 290.475 73.0306L286.898 74.8194C289.129 79.2815 292.3 82.76 296.408 85.1912L298.445 81.7488ZM290.475 73.0306C288.57 69.2204 287.582 64.6703 287.582 59.32H283.582C283.582 65.163 284.663 70.3496 286.898 74.8194L290.475 73.0306ZM287.582 59.32V21.83H283.582V59.32H287.582ZM285.582 23.83H305.132V19.83H285.582V23.83ZM303.132 21.83V56.675H307.132V21.83H303.132ZM303.132 56.675C303.132 61.3094 304.337 65.1933 307.006 68.0463L309.927 65.3137C308.149 63.4133 307.132 60.6272 307.132 56.675H303.132ZM307.006 68.0463C309.667 70.8908 313.22 72.245 317.437 72.245V68.245C314.14 68.245 311.713 67.2225 309.927 65.3137L307.006 68.0463ZM317.437 72.245C321.716 72.245 325.313 70.8993 327.982 68.0463L325.061 65.3137C323.283 67.214 320.823 68.245 317.437 68.245V72.245ZM327.982 68.0463C330.651 65.1933 331.857 61.3094 331.857 56.675H327.857C327.857 60.6272 326.839 63.4133 325.061 65.3137L327.982 68.0463ZM331.857 56.675V21.83H327.857V56.675H331.857ZM329.857 23.83H349.522V19.83H329.857V23.83ZM367.212 36.435L365.462 35.466L365.456 35.4764L365.451 35.4868L367.212 36.435ZM378.597 24.935L377.637 23.1802L377.626 23.1867L378.597 24.935ZM415.512 27.235L414.276 28.8077L414.287 28.8161L415.512 27.235ZM426.207 45.06V47.06H428.695L428.16 44.6303L426.207 45.06ZM405.277 45.06L403.395 45.7364L403.87 47.06H405.277V45.06ZM386.417 41.955L387.996 43.1829L388.004 43.1724L388.012 43.1619L386.417 41.955ZM386.417 65.99L384.822 67.1969L384.83 67.2074L384.838 67.2179L386.417 65.99ZM405.277 62.77V60.77H403.87L403.395 62.0936L405.277 62.77ZM426.207 62.77L428.158 63.2081L428.706 60.77H426.207V62.77ZM415.512 80.48L414.273 78.9097L415.512 80.48ZM378.597 82.895L377.625 84.6434L377.637 84.6497L378.597 82.895ZM367.212 71.395L365.451 72.3432L365.456 72.3536L365.462 72.364L367.212 71.395ZM365.187 53.915C365.187 47.5169 366.472 42.0272 368.973 37.3832L365.451 35.4868C362.585 40.8095 361.187 46.9731 361.187 53.915H365.187ZM368.961 37.404C371.546 32.7375 375.076 29.179 379.568 26.6833L377.626 23.1867C372.458 26.0577 368.398 30.1659 365.462 35.466L368.961 37.404ZM379.556 26.6897C384.134 24.1865 389.393 22.91 395.387 22.91V18.91C388.807 18.91 382.873 20.3169 377.637 23.1803L379.556 26.6897ZM395.387 22.91C403.072 22.91 409.322 24.9154 414.276 28.8076L416.747 25.6624C410.968 21.1212 403.801 18.91 395.387 18.91V22.91ZM414.287 28.8161C419.309 32.7062 422.653 38.2125 424.254 45.4897L428.16 44.6303C426.388 36.5742 422.601 30.1971 416.737 25.6539L414.287 28.8161ZM426.207 43.06H405.277V47.06H426.207V43.06ZM407.159 44.3836C406.174 41.6418 404.669 39.4306 402.563 37.9162C400.452 36.3984 397.903 35.7 395.042 35.7V39.7C397.24 39.7 398.927 40.2283 400.228 41.1638C401.534 42.1027 402.617 43.5715 403.395 45.7364L407.159 44.3836ZM395.042 35.7C390.822 35.7 387.352 37.4043 384.822 40.7481L388.012 43.1619C389.775 40.8323 392.055 39.7 395.042 39.7V35.7ZM384.838 40.7271C382.313 43.9736 381.197 48.4659 381.197 53.915H385.197C385.197 48.9375 386.227 45.4564 387.996 43.1829L384.838 40.7271ZM381.197 53.915C381.197 59.3693 382.315 63.8843 384.822 67.1969L388.012 64.7831C386.225 62.4224 385.197 58.8874 385.197 53.915H381.197ZM384.838 67.2179C387.377 70.4822 390.843 72.13 395.042 72.13V68.13C392.034 68.13 389.75 67.0178 387.996 64.7621L384.838 67.2179ZM395.042 72.13C397.903 72.13 400.452 71.4316 402.563 69.9138C404.669 68.3994 406.174 66.1882 407.159 63.4464L403.395 62.0936C402.617 64.2585 401.534 65.7273 400.228 66.6662C398.927 67.6017 397.24 68.13 395.042 68.13V72.13ZM405.277 64.77H426.207V60.77H405.277V64.77ZM424.255 62.3319C422.657 69.4499 419.316 74.9325 414.273 78.9097L416.75 82.0503C422.595 77.4408 426.383 71.1167 428.158 63.2081L424.255 62.3319ZM414.273 78.9097C409.235 82.8839 402.981 84.92 395.387 84.92V88.92C403.739 88.92 410.902 86.6628 416.75 82.0503L414.273 78.9097ZM395.387 84.92C389.393 84.92 384.134 83.6435 379.556 81.1403L377.637 84.6497C382.873 87.5131 388.807 88.92 395.387 88.92V84.92ZM379.568 81.1467C375.076 78.651 371.546 75.0925 368.961 70.426L365.462 72.364C368.398 77.6641 372.458 81.7723 377.626 84.6433L379.568 81.1467ZM368.973 70.4468C366.472 65.8028 365.187 60.3131 365.187 53.915H361.187C361.187 60.8569 362.585 67.0205 365.451 72.3432L368.973 70.4468ZM475.941 69.325H477.941V67.325H475.941V69.325ZM475.941 86V88H477.941V86H475.941ZM449.261 80.825L447.936 82.323L447.944 82.3302L447.952 82.3373L449.261 80.825ZM443.281 38.16H445.281V36.16H443.281V38.16ZM435.461 38.16H433.461V40.16H435.461V38.16ZM435.461 21.83V19.83H433.461V21.83H435.461ZM443.281 21.83V23.83H445.281V21.83H443.281ZM443.281 6.19V4.19H441.281V6.19H443.281ZM462.946 6.19H464.946V4.19H462.946V6.19ZM462.946 21.83H460.946V23.83H462.946V21.83ZM475.826 21.83H477.826V19.83H475.826V21.83ZM475.826 38.16V40.16H477.826V38.16H475.826ZM462.946 38.16V36.16H460.946V38.16H462.946ZM464.326 68.06L462.974 69.5343L464.326 68.06ZM473.941 69.325V86H477.941V69.325H473.941ZM475.941 84H465.936V88H475.941V84ZM465.936 84C459.116 84 454.082 82.3521 450.569 79.3127L447.952 82.3373C452.413 86.1979 458.496 88 465.936 88V84ZM450.586 79.327C447.201 76.3328 445.281 71.2941 445.281 63.69H441.281C441.281 71.8792 443.347 78.2638 447.936 82.323L450.586 79.327ZM445.281 63.69V38.16H441.281V63.69H445.281ZM443.281 36.16H435.461V40.16H443.281V36.16ZM437.461 38.16V21.83H433.461V38.16H437.461ZM435.461 23.83H443.281V19.83H435.461V23.83ZM445.281 21.83V6.19H441.281V21.83H445.281ZM443.281 8.19H462.946V4.19H443.281V8.19ZM460.946 6.19V21.83H464.946V6.19H460.946ZM462.946 23.83H475.826V19.83H462.946V23.83ZM473.826 21.83V38.16H477.826V21.83H473.826ZM475.826 36.16H462.946V40.16H475.826V36.16ZM460.946 38.16V63.92H464.946V38.16H460.946ZM460.946 63.92C460.946 66.0993 461.463 68.1492 462.974 69.5343L465.677 66.5857C465.348 66.2841 464.946 65.5741 464.946 63.92H460.946ZM462.974 69.5343C464.451 70.8877 466.61 71.325 468.926 71.325V67.325C466.948 67.325 466.041 66.919 465.677 66.5857L462.974 69.5343ZM468.926 71.325H475.941V67.325H468.926V71.325ZM501.499 84.045L502.303 82.2134L501.499 84.045ZM491.149 76.225L489.549 77.425L489.556 77.4339L489.563 77.4426L491.149 76.225ZM486.894 64.955V62.955H484.741L484.9 65.1027L486.894 64.955ZM506.329 64.955L508.319 64.7492L508.133 62.955H506.329V64.955ZM509.434 70.36L510.634 68.76L509.434 70.36ZM521.854 71.05L523.008 72.6839L523.017 72.6777L523.025 72.6714L521.854 71.05ZM521.049 63.23L520.184 65.033L520.214 65.0473L520.244 65.0606L521.049 63.23ZM511.734 60.24L512.22 58.2997L512.204 58.2959L512.189 58.2923L511.734 60.24ZM500.234 56.905L499.492 58.7619L499.512 58.77L499.532 58.7777L500.234 56.905ZM492.299 51.27L490.778 52.5679L490.787 52.5791L490.797 52.5902L492.299 51.27ZM491.954 30.8L490.297 29.681L490.29 29.6906L491.954 30.8ZM500.924 23.555L500.115 21.7259L500.109 21.7288L500.102 21.7318L500.924 23.555ZM534.044 26.89L532.735 28.4014L532.741 28.4067L532.747 28.412L534.044 26.89ZM542.094 42.76V44.76H544.315L544.084 42.5518L542.094 42.76ZM523.924 42.76L521.943 43.0333L522.181 44.76H523.924V42.76ZM520.934 37.47L519.676 39.0245L519.694 39.0387L519.712 39.0526L520.934 37.47ZM509.204 36.895L510.338 38.5431L510.371 38.5197L510.404 38.495L509.204 36.895ZM510.239 44.6L509.374 46.403L509.388 46.4096L509.401 46.4159L510.239 44.6ZM519.439 47.36L519.939 45.4234L519.906 45.415L519.873 45.4076L519.439 47.36ZM531.054 51.04L530.295 52.8903L530.316 52.8987L530.336 52.9067L531.054 51.04ZM538.874 56.79L537.334 58.066L537.354 58.09L537.375 58.1132L538.874 56.79ZM542.439 67.37H544.439V67.3528L544.439 67.3355L542.439 67.37ZM539.219 77.49L537.595 76.3236L537.589 76.3316L539.219 77.49ZM530.134 84.39L529.355 82.548L529.342 82.5536L530.134 84.39ZM516.449 84.92C511.082 84.92 506.38 84.0015 502.303 82.2134L500.696 85.8766C505.359 87.9218 510.623 88.92 516.449 88.92V84.92ZM502.303 82.2134C498.195 80.4118 495.032 77.9993 492.736 75.0074L489.563 77.4426C492.327 81.0441 496.064 83.8448 500.696 85.8766L502.303 82.2134ZM492.749 75.025C490.445 71.9524 489.167 68.5597 488.889 64.8073L484.9 65.1027C485.235 69.6303 486.794 73.7509 489.549 77.425L492.749 75.025ZM486.894 66.955H506.329V62.955H486.894V66.955ZM504.34 65.1608C504.629 67.9565 505.963 70.2566 508.234 71.96L510.634 68.76C509.226 67.7034 508.49 66.4002 508.319 64.7492L504.34 65.1608ZM508.234 71.96C510.476 73.6412 513.178 74.43 516.219 74.43V70.43C513.894 70.43 512.073 69.8388 510.634 68.76L508.234 71.96ZM516.219 74.43C518.878 74.43 521.23 73.9389 523.008 72.6839L520.701 69.4161C519.872 70.0011 518.467 70.43 516.219 70.43V74.43ZM523.025 72.6714C524.86 71.3467 525.924 69.5084 525.924 67.255H521.924C521.924 68.0683 521.609 68.76 520.683 69.4286L523.025 72.6714ZM525.924 67.255C525.924 65.9687 525.582 64.7552 524.833 63.7063C524.096 62.6738 523.055 61.9273 521.855 61.3994L520.244 65.0606C520.961 65.376 521.357 65.722 521.578 66.0312C521.787 66.3239 521.924 66.7013 521.924 67.255H525.924ZM521.915 61.4269C519.805 60.4144 516.535 59.3786 512.22 58.2997L511.249 62.1803C515.521 63.2481 518.46 64.2056 520.184 65.033L521.915 61.4269ZM512.189 58.2923C507.64 57.2308 503.896 56.142 500.937 55.0323L499.532 58.7777C502.706 59.968 506.629 61.1025 511.28 62.1877L512.189 58.2923ZM500.977 55.048C498.208 53.9405 495.822 52.2485 493.802 49.9498L490.797 52.5902C493.224 55.3515 496.127 57.4162 499.492 58.7619L500.977 55.048ZM493.821 49.9721C491.984 47.818 490.964 44.8336 490.964 40.805H486.964C486.964 45.5164 488.168 49.5087 490.778 52.5679L493.821 49.9721ZM490.964 40.805C490.964 37.5098 491.85 34.5626 493.619 31.9094L490.29 29.6906C488.072 33.0174 486.964 36.7402 486.964 40.805H490.964ZM493.612 31.9189C495.443 29.2064 498.12 27.0136 501.747 25.3782L500.102 21.7318C495.909 23.623 492.606 26.2603 490.297 29.6811L493.612 31.9189ZM501.733 25.3841C505.41 23.7578 509.838 22.91 515.069 22.91V18.91C509.415 18.91 504.412 19.8256 500.115 21.7259L501.733 25.3841ZM515.069 22.91C522.796 22.91 528.602 24.8196 532.735 28.4014L535.354 25.3786C530.287 20.9871 523.443 18.91 515.069 18.91V22.91ZM532.747 28.412C537.001 32.038 539.464 36.8412 540.105 42.9682L544.084 42.5518C543.345 35.4921 540.442 29.7153 535.342 25.368L532.747 28.412ZM542.094 40.76H523.924V44.76H542.094V40.76ZM525.906 42.4867C525.532 39.7749 524.282 37.5294 522.157 35.8874L519.712 39.0526C520.96 40.0173 521.704 41.2984 521.943 43.0333L525.906 42.4867ZM522.193 35.9155C520.133 34.2481 517.499 33.515 514.494 33.515V37.515C516.857 37.515 518.516 38.0852 519.676 39.0245L522.193 35.9155ZM514.494 33.515C511.967 33.515 509.712 34.0144 508.004 35.295L510.404 38.495C511.15 37.9356 512.422 37.515 514.494 37.515V33.515ZM508.071 35.2469C506.283 36.4766 505.364 38.2917 505.364 40.46H509.364C509.364 39.5616 509.673 39.0001 510.338 38.5431L508.071 35.2469ZM505.364 40.46C505.364 41.7471 505.707 42.9589 506.44 44.0158C507.163 45.056 508.185 45.8323 509.374 46.403L511.105 42.797C510.377 42.4477 509.962 42.074 509.726 41.7342C509.502 41.4111 509.364 41.0128 509.364 40.46H505.364ZM509.401 46.4159C511.594 47.4279 514.83 48.3844 519.006 49.3124L519.873 45.4076C515.769 44.4956 512.872 43.6121 511.078 42.7841L509.401 46.4159ZM518.94 49.2966C523.645 50.5108 527.421 51.7111 530.295 52.8903L531.814 49.1897C528.708 47.9155 524.741 46.6625 519.939 45.4234L518.94 49.2966ZM530.336 52.9067C532.979 53.9229 535.31 55.623 537.334 58.066L540.414 55.514C537.992 52.5903 535.11 50.4571 531.772 49.1733L530.336 52.9067ZM537.375 58.1132C539.281 60.2732 540.369 63.2972 540.44 67.4045L544.439 67.3355C544.357 62.5494 543.068 58.5201 540.374 55.4668L537.375 58.1132ZM540.439 67.37C540.439 70.7174 539.492 73.681 537.595 76.3236L540.844 78.6564C543.24 75.319 544.439 71.5359 544.439 67.37H540.439ZM537.589 76.3316C535.775 78.8843 533.073 80.9753 529.355 82.5481L530.914 86.2319C535.17 84.4314 538.524 81.9224 540.85 78.6484L537.589 76.3316ZM529.342 82.5536C525.732 84.111 521.45 84.92 516.449 84.92V88.92C521.876 88.92 526.717 88.0423 530.927 86.2264L529.342 82.5536Z" fill="white" mask="url(#path-1-outside-1_419_2729)"/>
</g>
</svg>
