<svg width="635" height="87" viewBox="0 0 635 87" fill="none" xmlns="http://www.w3.org/2000/svg">
<g opacity="0.11">
<mask id="path-1-outside-1_471_525" maskUnits="userSpaceOnUse" x="-3" y="-3" width="641" height="93" fill="black">
<rect fill="white" x="-3" y="-3" width="641" height="93"/>
<path d="M41.3 86L24.51 55.525H19.795L19.795 86H0.13L0.13 5.27L33.135 5.27C39.4983 5.27 44.9033 6.38166 49.35 8.605C53.8733 10.8283 57.2467 13.895 59.47 17.805C61.6933 21.6383 62.805 25.9317 62.805 30.685C62.805 36.0517 61.2717 40.8433 58.205 45.06C55.215 49.2767 50.7683 52.2667 44.865 54.03L63.495 86H41.3ZM19.795 41.61L31.985 41.61C35.5883 41.61 38.2717 40.7283 40.035 38.965C41.875 37.2017 42.795 34.71 42.795 31.49C42.795 28.4233 41.875 26.0083 40.035 24.245C38.2717 22.4817 35.5883 21.6 31.985 21.6H19.795V41.61ZM148.865 52.88C148.865 54.72 148.75 56.6367 148.52 58.63H104.015C104.321 62.6167 105.586 65.6833 107.81 67.83C110.11 69.9 112.908 70.935 116.205 70.935C121.111 70.935 124.523 68.865 126.44 64.725H147.37C146.296 68.9417 144.341 72.7367 141.505 76.11C138.745 79.4833 135.256 82.1283 131.04 84.045C126.823 85.9617 122.108 86.92 116.895 86.92C110.608 86.92 105.011 85.5783 100.105 82.895C95.1979 80.2117 91.3645 76.3783 88.6045 71.395C85.8445 66.4117 84.4645 60.585 84.4645 53.915C84.4645 47.245 85.8062 41.4183 88.4895 36.435C91.2495 31.4517 95.0829 27.6183 99.9895 24.935C104.896 22.2517 110.531 20.91 116.895 20.91C123.105 20.91 128.625 22.2133 133.455 24.82C138.285 27.4267 142.041 31.145 144.725 35.975C147.485 40.805 148.865 46.44 148.865 52.88ZM128.74 47.705C128.74 44.3317 127.59 41.6483 125.29 39.655C122.99 37.6617 120.115 36.665 116.665 36.665C113.368 36.665 110.57 37.6233 108.27 39.54C106.046 41.4567 104.666 44.1783 104.13 47.705H128.74ZM198.569 86.92C192.972 86.92 187.989 85.9617 183.619 84.045C179.249 82.1283 175.799 79.5217 173.269 76.225C170.739 72.8517 169.32 69.095 169.014 64.955L188.449 64.955C188.679 67.1783 189.714 68.98 191.554 70.36C193.394 71.74 195.655 72.43 198.339 72.43C200.792 72.43 202.67 71.97 203.974 71.05C205.354 70.0533 206.044 68.7883 206.044 67.255C206.044 65.415 205.085 64.0733 203.169 63.23C201.252 62.31 198.147 61.3133 193.854 60.24C189.254 59.1667 185.42 58.055 182.354 56.905C179.287 55.6783 176.642 53.8 174.419 51.27C172.195 48.6633 171.084 45.175 171.084 40.805C171.084 37.125 172.08 33.79 174.074 30.8C176.144 27.7333 179.134 25.3183 183.044 23.555C187.03 21.7917 191.745 20.91 197.189 20.91C205.239 20.91 211.564 22.9033 216.164 26.89C220.84 30.8767 223.524 36.1667 224.214 42.76H206.044C205.737 40.5367 204.74 38.7733 203.054 37.47C201.444 36.1667 199.297 35.515 196.614 35.515C194.314 35.515 192.55 35.975 191.324 36.895C190.097 37.7383 189.484 38.9267 189.484 40.46C189.484 42.3 190.442 43.68 192.359 44.6C194.352 45.52 197.419 46.44 201.559 47.36C206.312 48.5867 210.184 49.8133 213.174 51.04C216.164 52.19 218.77 54.1067 220.994 56.79C223.294 59.3967 224.482 62.9233 224.559 67.37C224.559 71.1267 223.485 74.5 221.339 77.49C219.269 80.4033 216.24 82.7033 212.254 84.39C208.344 86.0767 203.782 86.92 198.569 86.92ZM310.305 52.88C310.305 54.72 310.19 56.6367 309.96 58.63H265.455C265.761 62.6167 267.026 65.6833 269.25 67.83C271.55 69.9 274.348 70.935 277.645 70.935C282.551 70.935 285.963 68.865 287.88 64.725H308.81C307.736 68.9417 305.781 72.7367 302.945 76.11C300.185 79.4833 296.696 82.1283 292.48 84.045C288.263 85.9617 283.548 86.92 278.335 86.92C272.048 86.92 266.451 85.5783 261.545 82.895C256.638 80.2117 252.805 76.3783 250.045 71.395C247.285 66.4117 245.905 60.585 245.905 53.915C245.905 47.245 247.246 41.4183 249.93 36.435C252.69 31.4517 256.523 27.6183 261.43 24.935C266.336 22.2517 271.971 20.91 278.335 20.91C284.545 20.91 290.065 22.2133 294.895 24.82C299.725 27.4267 303.481 31.145 306.165 35.975C308.925 40.805 310.305 46.44 310.305 52.88ZM290.18 47.705C290.18 44.3317 289.03 41.6483 286.73 39.655C284.43 37.6617 281.555 36.665 278.105 36.665C274.808 36.665 272.01 37.6233 269.71 39.54C267.486 41.4567 266.106 44.1783 265.57 47.705H290.18ZM329.994 53.8C329.994 47.2067 331.221 41.4183 333.674 36.435C336.204 31.4517 339.616 27.6183 343.909 24.935C348.202 22.2517 352.994 20.91 358.284 20.91C362.807 20.91 366.756 21.83 370.129 23.67C373.579 25.51 376.224 27.925 378.064 30.915V21.83H397.729V86H378.064V76.915C376.147 79.905 373.464 82.32 370.014 84.16C366.641 86 362.692 86.92 358.169 86.92C352.956 86.92 348.202 85.5783 343.909 82.895C339.616 80.135 336.204 76.2633 333.674 71.28C331.221 66.22 329.994 60.3933 329.994 53.8ZM378.064 53.915C378.064 49.0083 376.684 45.1367 373.924 42.3C371.241 39.4633 367.944 38.045 364.034 38.045C360.124 38.045 356.789 39.4633 354.029 42.3C351.346 45.06 350.004 48.8933 350.004 53.8C350.004 58.7067 351.346 62.6167 354.029 65.53C356.789 68.3667 360.124 69.785 364.034 69.785C367.944 69.785 371.241 68.3667 373.924 65.53C376.684 62.6933 378.064 58.8217 378.064 53.915ZM444.846 32.525C447.146 28.9983 450.021 26.2383 453.471 24.245C456.921 22.175 460.754 21.14 464.971 21.14V41.955L459.566 41.955C454.659 41.955 450.979 43.0283 448.526 45.175C446.072 47.245 444.846 50.925 444.846 56.215V86H425.181V21.83L444.846 21.83V32.525ZM483.685 53.915C483.685 47.245 485.027 41.4183 487.71 36.435C490.47 31.4517 494.265 27.6183 499.095 24.935C504.002 22.2517 509.599 20.91 515.885 20.91C523.935 20.91 530.644 23.0183 536.01 27.235C541.454 31.4517 545.019 37.3933 546.705 45.06L525.775 45.06C524.012 40.1533 520.6 37.7 515.54 37.7C511.937 37.7 509.062 39.1183 506.915 41.955C504.769 44.715 503.695 48.7017 503.695 53.915C503.695 59.1283 504.769 63.1533 506.915 65.99C509.062 68.75 511.937 70.13 515.54 70.13C520.6 70.13 524.012 67.6767 525.775 62.77L546.705 62.77C545.019 70.2833 541.454 76.1867 536.01 80.48C530.567 84.7733 523.859 86.92 515.885 86.92C509.599 86.92 504.002 85.5783 499.095 82.895C494.265 80.2117 490.47 76.3783 487.71 71.395C485.027 66.4117 483.685 60.585 483.685 53.915ZM609.894 21.14C617.254 21.14 623.157 23.5933 627.604 28.5C632.051 33.33 634.274 40 634.274 48.51V86H614.724V51.155C614.724 46.8617 613.612 43.5267 611.389 41.15C609.166 38.7733 606.176 37.585 602.419 37.585C598.662 37.585 595.672 38.7733 593.449 41.15C591.226 43.5267 590.114 46.8617 590.114 51.155V86H570.449V0.899999L590.114 0.899999V30.455C592.107 27.6183 594.829 25.3567 598.279 23.67C601.729 21.9833 605.601 21.14 609.894 21.14Z"/>
</mask>
<path d="M41.3 86L38.6724 87.4477L39.5277 89H41.3V86ZM24.51 55.525L27.1376 54.0773L26.2823 52.525H24.51V55.525ZM19.795 55.525V52.525H16.795V55.525H19.795ZM19.795 86V89H22.795V86H19.795ZM0.13 86H-2.87L-2.87 89H0.13L0.13 86ZM0.13 5.27V2.27L-2.87 2.27V5.27L0.13 5.27ZM49.35 8.605L48.0084 11.2883L48.0175 11.2928L48.0266 11.2973L49.35 8.605ZM59.47 17.805L56.8621 19.2879L56.8685 19.2991L56.8749 19.3102L59.47 17.805ZM58.205 45.06L55.7788 43.2955L55.7682 43.31L55.7578 43.3247L58.205 45.06ZM44.865 54.03L44.0064 51.1555L40.3536 52.2466L42.273 55.5405L44.865 54.03ZM63.495 86V89L68.7154 89L66.087 84.4895L63.495 86ZM19.795 41.61H16.795V44.61H19.795V41.61ZM40.035 38.965L37.9593 36.799L37.9362 36.8211L37.9137 36.8437L40.035 38.965ZM40.035 24.245L37.9137 26.3663L37.9362 26.3889L37.9593 26.411L40.035 24.245ZM19.795 21.6L19.795 18.6H16.795L16.795 21.6H19.795ZM43.9276 84.5523L27.1376 54.0773L21.8824 56.9727L38.6724 87.4477L43.9276 84.5523ZM24.51 52.525H19.795L19.795 58.525H24.51L24.51 52.525ZM16.795 55.525L16.795 86H22.795L22.795 55.525H16.795ZM19.795 83H0.13L0.13 89H19.795V83ZM3.13 86L3.13 5.27L-2.87 5.27L-2.87 86H3.13ZM0.13 8.27L33.135 8.27V2.27L0.13 2.27L0.13 8.27ZM33.135 8.27C39.159 8.27 44.0782 9.32322 48.0084 11.2883L50.6916 5.92171C45.7284 3.44011 39.8377 2.27 33.135 2.27V8.27ZM48.0266 11.2973C52.0778 13.2886 54.9712 15.9625 56.8621 19.2879L62.0779 16.3221C59.5221 11.8275 55.6689 8.36806 50.6734 5.91265L48.0266 11.2973ZM56.8749 19.3102C58.8138 22.653 59.805 26.4206 59.805 30.685H65.805C65.805 25.4428 64.5729 20.6236 62.0651 16.2998L56.8749 19.3102ZM59.805 30.685C59.805 35.4375 58.461 39.6074 55.7788 43.2955L60.6312 46.8245C64.0823 42.0792 65.805 36.6658 65.805 30.685H59.805ZM55.7578 43.3247C53.2259 46.8954 49.3954 49.5458 44.0064 51.1555L45.7236 56.9045C52.1412 54.9876 57.2041 51.6579 60.6522 46.7953L55.7578 43.3247ZM42.273 55.5405L60.903 87.5105L66.087 84.4895L47.457 52.5195L42.273 55.5405ZM63.495 83H41.3V89H63.495V83ZM19.795 44.61L31.985 44.61V38.61L19.795 38.61V44.61ZM31.985 44.61C36.029 44.61 39.6212 43.6215 42.1563 41.0863L37.9137 36.8437C36.9222 37.8352 35.1477 38.61 31.985 38.61V44.61ZM42.1107 41.131C44.6879 38.6612 45.795 35.2995 45.795 31.49H39.795C39.795 34.1205 39.0621 35.7421 37.9593 36.799L42.1107 41.131ZM45.795 31.49C45.795 27.7846 44.659 24.5211 42.1107 22.079L37.9593 26.411C39.091 27.4955 39.795 29.0621 39.795 31.49H45.795ZM42.1563 22.1237C39.6212 19.5885 36.029 18.6 31.985 18.6V24.6C35.1477 24.6 36.9222 25.3748 37.9137 26.3663L42.1563 22.1237ZM31.985 18.6H19.795L19.795 24.6H31.985V18.6ZM16.795 21.6V41.61H22.795V21.6H16.795ZM148.52 58.63V61.63H151.193L151.5 58.9739L148.52 58.63ZM104.015 58.63V55.63L100.775 55.63L101.023 58.8601L104.015 58.63ZM107.81 67.83L105.726 69.9882L105.764 70.0247L105.803 70.0599L107.81 67.83ZM126.44 64.725V61.725H124.523L123.717 63.4646L126.44 64.725ZM147.37 64.725L150.277 65.465L151.229 61.725H147.37V64.725ZM141.505 76.11L139.208 74.1792L139.195 74.1947L139.183 74.2103L141.505 76.11ZM131.04 84.045L132.281 86.7761L131.04 84.045ZM100.105 82.895L98.6651 85.5271L100.105 82.895ZM88.6045 71.395L91.2289 69.9415L88.6045 71.395ZM88.4895 36.435L85.8652 34.9815L85.8565 34.997L85.8481 35.0127L88.4895 36.435ZM99.9895 24.935L101.429 27.5671V27.5671L99.9895 24.935ZM133.455 24.82L132.03 27.4601L133.455 24.82ZM144.725 35.975L142.102 37.4319L142.111 37.4477L142.12 37.4634L144.725 35.975ZM128.74 47.705V50.705H131.74V47.705H128.74ZM125.29 39.655L127.254 37.3879V37.3879L125.29 39.655ZM108.27 39.54L106.349 37.2353L106.33 37.2514L106.311 37.2678L108.27 39.54ZM104.13 47.705L101.164 47.2537L100.638 50.705L104.13 50.705V47.705ZM145.865 52.88C145.865 54.5953 145.757 56.3968 145.539 58.2861L151.5 58.9739C151.742 56.8765 151.865 54.8447 151.865 52.88H145.865ZM148.52 55.63H104.015V61.63H148.52V55.63ZM101.023 58.8601C101.369 63.3582 102.834 67.1963 105.726 69.9882L109.893 65.6718C108.338 64.1703 107.273 61.8751 107.006 58.3999L101.023 58.8601ZM105.803 70.0599C108.692 72.6599 112.22 73.935 116.205 73.935V67.935C113.596 67.935 111.527 67.1401 109.816 65.6001L105.803 70.0599ZM116.205 73.935C119.081 73.935 121.728 73.3258 123.999 71.9473C126.285 70.5603 127.99 68.5165 129.162 65.9854L123.717 63.4646C122.972 65.0735 122.013 66.1347 120.887 66.8177C119.747 67.5092 118.235 67.935 116.205 67.935V73.935ZM126.44 67.725H147.37V61.725H126.44V67.725ZM144.462 63.985C143.502 67.7579 141.758 71.147 139.208 74.1792L143.801 78.0408C146.924 74.3263 149.091 70.1254 150.277 65.465L144.462 63.985ZM139.183 74.2103C136.732 77.205 133.623 79.5755 129.798 81.3139L132.281 86.7761C136.89 84.6811 140.757 81.7616 143.826 78.0097L139.183 74.2103ZM129.798 81.3139C126.018 83.0323 121.734 83.92 116.895 83.92V89.92C122.482 89.92 127.628 88.891 132.281 86.7761L129.798 81.3139ZM116.895 83.92C111.047 83.92 105.957 82.6761 101.544 80.2629L98.6651 85.5271C104.066 88.4805 110.168 89.92 116.895 89.92V83.92ZM101.544 80.2629C97.1457 77.8576 93.719 74.4374 91.2289 69.9415L85.9802 72.8485C89.0101 78.3192 93.25 82.5658 98.6651 85.5271L101.544 80.2629ZM91.2289 69.9415C88.7544 65.4736 87.4645 60.1638 87.4645 53.915H81.4645C81.4645 61.0062 82.9347 67.3497 85.9802 72.8485L91.2289 69.9415ZM87.4645 53.915C87.4645 47.6528 88.7217 42.3316 91.1309 37.8573L85.8481 35.0127C82.8907 40.5051 81.4645 46.8372 81.4645 53.915H87.4645ZM91.1139 37.8885C93.604 33.3926 97.0307 29.9724 101.429 27.5671L98.5501 22.3029C93.135 25.2642 88.8951 29.5108 85.8652 34.9815L91.1139 37.8885ZM101.429 27.5671C105.837 25.1567 110.964 23.91 116.895 23.91V17.91C110.098 17.91 103.956 19.3466 98.5501 22.3029L101.429 27.5671ZM116.895 23.91C122.673 23.91 127.692 25.1192 132.03 27.4601L134.879 22.1799C129.557 19.3074 123.536 17.91 116.895 17.91V23.91ZM132.03 27.4601C136.352 29.7928 139.695 33.099 142.102 37.4319L147.347 34.5181C144.388 29.191 140.217 25.0605 134.879 22.1799L132.03 27.4601ZM142.12 37.4634C144.582 41.773 145.865 46.8789 145.865 52.88H151.865C151.865 46.0011 150.387 39.837 147.329 34.4866L142.12 37.4634ZM131.74 47.705C131.74 43.5674 130.288 40.0169 127.254 37.3879L123.325 41.9221C124.891 43.2798 125.74 45.0959 125.74 47.705H131.74ZM127.254 37.3879C124.336 34.8587 120.734 33.665 116.665 33.665V39.665C119.496 39.665 121.643 40.4647 123.325 41.9221L127.254 37.3879ZM116.665 33.665C112.742 33.665 109.244 34.8231 106.349 37.2353L110.19 41.8447C111.895 40.4236 113.994 39.665 116.665 39.665V33.665ZM106.311 37.2678C103.435 39.7469 101.784 43.1781 101.164 47.2537L107.095 48.1563C107.549 45.1786 108.658 43.1664 110.228 41.8122L106.311 37.2678ZM104.13 50.705H128.74V44.705H104.13V50.705ZM183.619 84.045L184.824 81.2976L183.619 84.045ZM173.269 76.225L170.869 78.025L170.879 78.0383L170.889 78.0515L173.269 76.225ZM169.014 64.955V61.955H165.783L166.022 65.1766L169.014 64.955ZM188.449 64.955L191.433 64.6463L191.154 61.955H188.449V64.955ZM191.554 70.36L193.354 67.96L191.554 70.36ZM203.974 71.05L205.704 73.5009L205.717 73.4915L205.73 73.482L203.974 71.05ZM203.169 63.23L201.871 65.9346L201.915 65.956L201.961 65.9759L203.169 63.23ZM193.854 60.24L194.581 57.3296L194.558 57.3238L194.535 57.3185L193.854 60.24ZM182.354 56.905L181.24 59.6904L181.27 59.7025L181.3 59.714L182.354 56.905ZM174.419 51.27L172.136 53.2168L172.151 53.2337L172.165 53.2503L174.419 51.27ZM174.074 30.8L171.587 29.1216L171.582 29.1287L171.578 29.1359L174.074 30.8ZM183.044 23.555L181.83 20.8114L181.82 20.8158L181.81 20.8202L183.044 23.555ZM216.164 26.89L214.199 29.1571L214.208 29.1651L214.218 29.173L216.164 26.89ZM224.214 42.76V45.76H227.544L227.197 42.4478L224.214 42.76ZM206.044 42.76L203.072 43.1699L203.429 45.76H206.044V42.76ZM203.054 37.47L201.166 39.8017L201.193 39.8231L201.219 39.8439L203.054 37.47ZM191.324 36.895L193.023 39.3671L193.074 39.3321L193.124 39.295L191.324 36.895ZM192.359 44.6L191.061 47.3046L191.081 47.3144L191.102 47.3239L192.359 44.6ZM201.559 47.36L202.308 44.4552L202.259 44.4425L202.21 44.4314L201.559 47.36ZM213.174 51.04L212.035 53.8155L212.066 53.8281L212.097 53.84L213.174 51.04ZM220.994 56.79L218.684 58.7041L218.713 58.7399L218.744 58.7749L220.994 56.79ZM224.559 67.37H227.559V67.3441L227.558 67.3183L224.559 67.37ZM221.339 77.49L218.902 75.7404L218.898 75.7464L218.893 75.7524L221.339 77.49ZM212.254 84.39L211.085 81.6271L211.075 81.6312L211.066 81.6354L212.254 84.39ZM198.569 83.92C193.316 83.92 188.754 83.0214 184.824 81.2976L182.414 86.7924C187.224 88.9019 192.628 89.92 198.569 89.92V83.92ZM184.824 81.2976C180.847 79.5536 177.828 77.2381 175.649 74.3985L170.889 78.0515C173.77 81.8053 177.65 84.7031 182.414 86.7924L184.824 81.2976ZM175.669 74.425C173.477 71.5028 172.269 68.292 172.006 64.7334L166.022 65.1766C166.372 69.8979 168 74.2006 170.869 78.025L175.669 74.425ZM169.014 67.955H188.449V61.955L169.014 61.955V67.955ZM185.465 65.2637C185.784 68.3456 187.267 70.8948 189.754 72.76L193.354 67.96C192.161 67.0652 191.574 66.0111 191.433 64.6463L185.465 65.2637ZM189.754 72.76C192.196 74.5918 195.119 75.43 198.339 75.43V69.43C196.192 69.43 194.591 68.8882 193.354 67.96L189.754 72.76ZM198.339 75.43C201.1 75.43 203.689 74.9234 205.704 73.5009L202.244 68.5991C201.652 69.0166 200.484 69.43 198.339 69.43V75.43ZM205.73 73.482C207.791 71.9934 209.044 69.8684 209.044 67.255H203.044C203.044 67.7083 202.916 68.1133 202.217 68.618L205.73 73.482ZM209.044 67.255C209.044 65.7855 208.651 64.3631 207.766 63.125C206.9 61.9117 205.698 61.0651 204.377 60.4841L201.961 65.9759C202.557 66.2382 202.792 66.4841 202.884 66.6125C202.958 66.7161 203.044 66.8845 203.044 67.255H209.044ZM204.467 60.5254C202.261 59.4666 198.908 58.4112 194.581 57.3296L193.126 63.1504C197.386 64.2155 200.243 65.1534 201.871 65.9346L204.467 60.5254ZM194.535 57.3185C190.012 56.2629 186.312 55.1855 183.407 54.096L181.3 59.714C184.529 60.9245 188.496 62.0704 193.172 63.1615L194.535 57.3185ZM183.468 54.1196C180.848 53.0716 178.591 51.4727 176.672 49.2897L172.165 53.2503C174.693 56.1273 177.726 58.2851 181.24 59.6904L183.468 54.1196ZM176.701 49.3232C175.057 47.3953 174.084 44.6629 174.084 40.805L168.084 40.805C168.084 45.6871 169.334 49.9314 172.136 53.2168L176.701 49.3232ZM174.084 40.805C174.084 37.7021 174.913 34.9489 176.57 32.4641L171.578 29.1359C169.247 32.6311 168.084 36.5479 168.084 40.805L174.084 40.805ZM176.56 32.4784C178.272 29.9429 180.792 27.8612 184.277 26.2898L181.81 20.8202C177.475 22.7754 174.016 25.5238 171.587 29.1216L176.56 32.4784ZM184.257 26.2986C187.779 24.7408 192.063 23.91 197.189 23.91V17.91C191.428 17.91 186.282 18.8425 181.83 20.8114L184.257 26.2986ZM197.189 23.91C204.753 23.91 210.3 25.7777 214.199 29.1571L218.129 24.6229C212.828 20.029 205.724 17.91 197.189 17.91V23.91ZM214.218 29.173C218.26 32.6187 220.613 37.1785 221.23 43.0722L227.197 42.4478C226.434 35.1548 223.421 29.1346 218.11 24.607L214.218 29.173ZM224.214 39.76H206.044V45.76H224.214V39.76ZM209.016 42.3501C208.608 39.3941 207.232 36.9074 204.888 35.0961L201.219 39.8439C202.249 40.6393 202.866 41.6792 203.072 43.1699L209.016 42.3501ZM204.941 35.1383C202.657 33.2889 199.779 32.515 196.614 32.515V38.515C198.816 38.515 200.231 39.0445 201.166 39.8017L204.941 35.1383ZM196.614 32.515C193.973 32.515 191.472 33.0341 189.524 34.495L193.124 39.295C193.629 38.9159 194.654 38.515 196.614 38.515V32.515ZM189.624 34.4229C187.555 35.8457 186.484 37.9742 186.484 40.46H192.484C192.484 39.8791 192.64 39.631 193.023 39.3671L189.624 34.4229ZM186.484 40.46C186.484 41.9307 186.877 43.3459 187.738 44.5862C188.582 45.8015 189.756 46.6785 191.061 47.3046L193.657 41.8954C193.045 41.6015 192.781 41.3285 192.667 41.1638C192.57 41.0241 192.484 40.8293 192.484 40.46H186.484ZM191.102 47.3239C193.394 48.3819 196.714 49.3566 200.908 50.2886L202.21 44.4314C198.123 43.5234 195.31 42.6581 193.616 41.8761L191.102 47.3239ZM200.809 50.2648C205.49 51.4729 209.219 52.66 212.035 53.8155L214.312 48.2645C211.149 46.9666 207.134 45.7004 202.308 44.4552L200.809 50.2648ZM212.097 53.84C214.565 54.7894 216.759 56.3812 218.684 58.7041L223.304 54.8759C220.782 51.8322 217.762 49.5906 214.251 48.24L212.097 53.84ZM218.744 58.7749C220.453 60.7115 221.491 63.4842 221.559 67.4217L227.558 67.3183C227.473 62.3625 226.135 58.0818 223.243 54.8051L218.744 58.7749ZM221.559 67.37C221.559 70.5128 220.674 73.2715 218.902 75.7404L223.776 79.2396C226.297 75.7285 227.559 71.7406 227.559 67.37H221.559ZM218.893 75.7524C217.208 78.1248 214.668 80.1112 211.085 81.6271L213.423 87.1529C217.813 85.2954 221.33 82.6819 223.784 79.2276L218.893 75.7524ZM211.066 81.6354C207.605 83.1282 203.463 83.92 198.569 83.92V89.92C204.101 89.92 209.083 89.0251 213.442 87.1446L211.066 81.6354ZM309.96 58.63V61.63H312.634L312.94 58.9739L309.96 58.63ZM265.455 58.63V55.63H262.215L262.464 58.8601L265.455 58.63ZM269.25 67.83L267.166 69.9882L267.204 70.0247L267.243 70.0599L269.25 67.83ZM287.88 64.725V61.725H285.963L285.157 63.4646L287.88 64.725ZM308.81 64.725L311.717 65.465L312.669 61.725H308.81V64.725ZM302.945 76.11L300.649 74.1792L300.636 74.1947L300.623 74.2103L302.945 76.11ZM292.48 84.045L293.721 86.7761L292.48 84.045ZM261.545 82.895L260.105 85.5271L261.545 82.895ZM250.045 71.395L252.669 69.9415L250.045 71.395ZM249.93 36.435L247.305 34.9815L247.297 34.997L247.288 35.0127L249.93 36.435ZM261.43 24.935L262.869 27.5671V27.5671L261.43 24.935ZM294.895 24.82L293.47 27.4601L294.895 24.82ZM306.165 35.975L303.542 37.4319L303.551 37.4477L303.56 37.4634L306.165 35.975ZM290.18 47.705V50.705H293.18V47.705H290.18ZM286.73 39.655L288.695 37.3879V37.3879L286.73 39.655ZM269.71 39.54L267.789 37.2353L267.77 37.2514L267.751 37.2678L269.71 39.54ZM265.57 47.705L262.604 47.2537L262.079 50.705H265.57V47.705ZM307.305 52.88C307.305 54.5953 307.198 56.3968 306.98 58.2861L312.94 58.9739C313.182 56.8765 313.305 54.8447 313.305 52.88H307.305ZM309.96 55.63H265.455V61.63H309.96V55.63ZM262.464 58.8601C262.81 63.3582 264.274 67.1963 267.166 69.9882L271.334 65.6718C269.778 64.1703 268.713 61.8751 268.446 58.3999L262.464 58.8601ZM267.243 70.0599C270.132 72.6599 273.66 73.935 277.645 73.935V67.935C275.036 67.935 272.968 67.1401 271.257 65.6001L267.243 70.0599ZM277.645 73.935C280.521 73.935 283.168 73.3258 285.44 71.9473C287.726 70.5603 289.43 68.5165 290.602 65.9854L285.157 63.4646C284.413 65.0735 283.453 66.1347 282.327 66.8177C281.188 67.5092 279.675 67.935 277.645 67.935V73.935ZM287.88 67.725H308.81V61.725H287.88V67.725ZM305.902 63.985C304.942 67.7579 303.198 71.147 300.649 74.1792L305.241 78.0408C308.364 74.3263 310.531 70.1254 311.717 65.465L305.902 63.985ZM300.623 74.2103C298.173 77.205 295.063 79.5755 291.238 81.3139L293.721 86.7761C298.33 84.6811 302.197 81.7616 305.267 78.0097L300.623 74.2103ZM291.238 81.3139C287.458 83.0323 283.174 83.92 278.335 83.92V89.92C283.922 89.92 289.068 88.891 293.721 86.7761L291.238 81.3139ZM278.335 83.92C272.488 83.92 267.397 82.6761 262.984 80.2629L260.105 85.5271C265.506 88.4805 271.608 89.92 278.335 89.92V83.92ZM262.984 80.2629C258.586 77.8576 255.159 74.4374 252.669 69.9415L247.42 72.8485C250.45 78.3192 254.69 82.5658 260.105 85.5271L262.984 80.2629ZM252.669 69.9415C250.195 65.4736 248.905 60.1638 248.905 53.915L242.905 53.915C242.905 61.0062 244.375 67.3497 247.42 72.8485L252.669 69.9415ZM248.905 53.915C248.905 47.6528 250.162 42.3316 252.571 37.8573L247.288 35.0127C244.331 40.5051 242.905 46.8372 242.905 53.915L248.905 53.915ZM252.554 37.8885C255.044 33.3926 258.471 29.9724 262.869 27.5671L259.99 22.3029C254.575 25.2642 250.335 29.5108 247.305 34.9815L252.554 37.8885ZM262.869 27.5671C267.277 25.1567 272.404 23.91 278.335 23.91V17.91C271.539 17.91 265.396 19.3466 259.99 22.3029L262.869 27.5671ZM278.335 23.91C284.114 23.91 289.133 25.1192 293.47 27.4601L296.32 22.1799C290.997 19.3074 284.976 17.91 278.335 17.91V23.91ZM293.47 27.4601C297.792 29.7928 301.135 33.099 303.542 37.4319L308.787 34.5181C305.828 29.191 301.657 25.0605 296.32 22.1799L293.47 27.4601ZM303.56 37.4634C306.023 41.773 307.305 46.8789 307.305 52.88H313.305C313.305 46.0011 311.827 39.837 308.77 34.4866L303.56 37.4634ZM293.18 47.705C293.18 43.5674 291.728 40.0169 288.695 37.3879L284.765 41.9221C286.332 43.2798 287.18 45.0959 287.18 47.705H293.18ZM288.695 37.3879C285.776 34.8587 282.174 33.665 278.105 33.665V39.665C280.936 39.665 283.083 40.4647 284.765 41.9221L288.695 37.3879ZM278.105 33.665C274.182 33.665 270.684 34.8231 267.789 37.2353L271.63 41.8447C273.336 40.4236 275.434 39.665 278.105 39.665V33.665ZM267.751 37.2678C264.875 39.7469 263.224 43.1781 262.604 47.2537L268.536 48.1563C268.989 45.1786 270.098 43.1664 271.669 41.8122L267.751 37.2678ZM265.57 50.705H290.18V44.705H265.57V50.705ZM333.674 36.435L330.999 35.0769L330.991 35.0934L330.983 35.1099L333.674 36.435ZM343.909 24.935L345.499 27.479L343.909 24.935ZM370.129 23.67L368.692 26.3037L368.705 26.3104L368.717 26.3171L370.129 23.67ZM378.064 30.915L375.509 32.4873L381.064 41.5141V30.915H378.064ZM378.064 21.83V18.83H375.064V21.83H378.064ZM397.729 21.83H400.729V18.83H397.729V21.83ZM397.729 86V89H400.729V86H397.729ZM378.064 86H375.064V89H378.064V86ZM378.064 76.915H381.064V66.676L375.538 75.296L378.064 76.915ZM370.014 84.16L368.602 81.5129L368.59 81.5196L368.577 81.5263L370.014 84.16ZM343.909 82.895L342.287 85.4185L342.303 85.4289L342.319 85.439L343.909 82.895ZM333.674 71.28L330.975 72.5888L330.987 72.6136L330.999 72.6381L333.674 71.28ZM373.924 42.3L371.745 44.3616L371.759 44.3769L371.774 44.3921L373.924 42.3ZM354.029 42.3L351.879 40.2079L351.878 40.2088L354.029 42.3ZM354.029 65.53L351.822 67.5624L351.85 67.5926L351.879 67.6221L354.029 65.53ZM373.924 65.53L371.774 63.4379L371.759 63.4531L371.745 63.4684L373.924 65.53ZM332.994 53.8C332.994 47.5809 334.15 42.2609 336.366 37.76L330.983 35.1099C328.292 40.5757 326.994 46.8324 326.994 53.8H332.994ZM336.349 37.7931C338.658 33.2443 341.716 29.8436 345.499 27.479L342.319 22.391C337.516 25.393 333.75 29.659 330.999 35.0769L336.349 37.7931ZM345.499 27.479C349.294 25.1074 353.53 23.91 358.284 23.91V17.91C352.458 17.91 347.111 19.3959 342.319 22.391L345.499 27.479ZM358.284 23.91C362.395 23.91 365.832 24.7434 368.692 26.3037L371.566 21.0363C367.679 18.9166 363.22 17.91 358.284 17.91V23.91ZM368.717 26.3171C371.752 27.9358 373.979 30.0007 375.509 32.4873L380.619 29.3427C378.469 25.8493 375.406 23.0842 371.541 21.0229L368.717 26.3171ZM381.064 30.915V21.83H375.064V30.915H381.064ZM378.064 24.83H397.729V18.83H378.064V24.83ZM394.729 21.83V86H400.729V21.83H394.729ZM397.729 83H378.064V89H397.729V83ZM381.064 86V76.915H375.064V86H381.064ZM375.538 75.296C373.926 77.811 371.646 79.8896 368.602 81.5129L371.426 86.8071C375.282 84.7504 378.368 81.999 380.59 78.534L375.538 75.296ZM368.577 81.5263C365.717 83.0866 362.28 83.92 358.169 83.92V89.92C363.105 89.92 367.564 88.9134 371.451 86.7937L368.577 81.5263ZM358.169 83.92C353.5 83.92 349.301 82.7271 345.499 80.351L342.319 85.439C347.104 88.4295 352.411 89.92 358.169 89.92V83.92ZM345.531 80.3715C341.728 77.9265 338.661 74.4767 336.349 69.9219L330.999 72.6381C333.747 78.05 337.503 82.3435 342.287 85.4185L345.531 80.3715ZM336.373 69.9712C334.149 65.3838 332.994 60.0177 332.994 53.8H326.994C326.994 60.7689 328.292 67.0562 330.975 72.5888L336.373 69.9712ZM381.064 53.915C381.064 48.4245 379.503 43.7319 376.074 40.2079L371.774 44.3921C373.865 46.5414 375.064 49.5922 375.064 53.915H381.064ZM376.103 40.2384C372.853 36.8018 368.767 35.045 364.034 35.045V41.045C367.121 41.045 369.629 42.1249 371.745 44.3616L376.103 40.2384ZM364.034 35.045C359.303 35.045 355.196 36.7988 351.879 40.2079L356.179 44.3921C358.382 42.1279 360.945 41.045 364.034 41.045V35.045ZM351.878 40.2088C348.512 43.6712 347.004 48.3364 347.004 53.8H353.004C353.004 49.4502 354.18 46.4488 356.18 44.3912L351.878 40.2088ZM347.004 53.8C347.004 59.2715 348.514 63.9708 351.822 67.5624L356.236 63.4976C354.177 61.2625 353.004 58.1418 353.004 53.8H347.004ZM351.879 67.6221C355.196 71.0312 359.303 72.785 364.034 72.785V66.785C360.945 66.785 358.382 65.7021 356.179 63.4379L351.879 67.6221ZM364.034 72.785C368.767 72.785 372.853 71.0282 376.103 67.5916L371.745 63.4684C369.629 65.7051 367.121 66.785 364.034 66.785V72.785ZM376.074 67.6221C379.503 64.0981 381.064 59.4055 381.064 53.915H375.064C375.064 58.2378 373.865 61.2886 371.774 63.4379L376.074 67.6221ZM444.846 32.525H441.846V42.6168L447.359 34.1638L444.846 32.525ZM453.471 24.245L454.972 26.8426L454.993 26.8302L455.014 26.8175L453.471 24.245ZM464.971 21.14H467.971V18.14H464.971V21.14ZM464.971 41.955V44.955H467.971V41.955H464.971ZM448.526 45.175L450.46 47.4679L450.481 47.4505L450.501 47.4327L448.526 45.175ZM444.846 86V89H447.846V86H444.846ZM425.181 86H422.181V89H425.181V86ZM425.181 21.83V18.83H422.181V21.83H425.181ZM444.846 21.83H447.846V18.83H444.846V21.83ZM447.359 34.1638C449.416 31.0088 451.953 28.5869 454.972 26.8426L451.97 21.6474C448.089 23.8898 444.875 26.9879 442.333 30.8862L447.359 34.1638ZM455.014 26.8175C457.975 25.0409 461.271 24.14 464.971 24.14V18.14C460.238 18.14 455.866 19.3091 451.927 21.6725L455.014 26.8175ZM461.971 21.14V41.955L467.971 41.955V21.14H461.971ZM464.971 38.955L459.566 38.955V44.955L464.971 44.955V38.955ZM459.566 38.955C454.288 38.955 449.769 40.1009 446.55 42.9173L450.501 47.4327C452.189 45.9558 455.03 44.955 459.566 44.955V38.955ZM446.591 42.8821C443.128 45.8043 441.846 50.6002 441.846 56.215H447.846C447.846 51.2498 449.017 48.6857 450.46 47.4679L446.591 42.8821ZM441.846 56.215V86H447.846V56.215H441.846ZM444.846 83H425.181V89H444.846V83ZM428.181 86V21.83H422.181V86H428.181ZM425.181 24.83L444.846 24.83V18.83L425.181 18.83V24.83ZM441.846 21.83V32.525H447.846V21.83L441.846 21.83ZM487.71 36.435L485.086 34.9815L485.077 34.997L485.069 35.0127L487.71 36.435ZM499.095 24.935L497.656 22.3029L497.647 22.3077L497.638 22.3125L499.095 24.935ZM536.01 27.235L534.157 29.594L534.165 29.6003L534.173 29.6066L536.01 27.235ZM546.705 45.06V48.06H550.437L549.635 44.4154L546.705 45.06ZM525.775 45.06L522.952 46.0746L523.666 48.06H525.775V45.06ZM506.915 41.955L509.283 43.7968L509.295 43.7812L509.307 43.7653L506.915 41.955ZM506.915 65.99L504.523 67.8003L504.535 67.8162L504.547 67.8318L506.915 65.99ZM525.775 62.77V59.77H523.666L522.952 61.7554L525.775 62.77ZM546.705 62.77L549.632 63.4271L550.453 59.77H546.705V62.77ZM536.01 80.48L534.152 78.1245L536.01 80.48ZM499.095 82.895L497.638 85.5175L497.647 85.5223L497.656 85.5271L499.095 82.895ZM487.71 71.395L485.069 72.8173L485.077 72.8329L485.086 72.8485L487.71 71.395ZM486.685 53.915C486.685 47.6528 487.942 42.3316 490.352 37.8573L485.069 35.0127C482.111 40.5051 480.685 46.8372 480.685 53.915H486.685ZM490.335 37.8885C492.831 33.3804 496.229 29.9593 500.552 27.5575L497.638 22.3125C492.302 25.2773 488.109 29.523 485.086 34.9815L490.335 37.8885ZM500.535 27.5671C504.947 25.1539 510.038 23.91 515.885 23.91V17.91C509.159 17.91 503.056 19.3495 497.656 22.3029L500.535 27.5671ZM515.885 23.91C523.388 23.91 529.41 25.864 534.157 29.594L537.864 24.876C531.878 20.1727 524.482 17.91 515.885 17.91V23.91ZM534.173 29.6066C538.984 33.3335 542.217 38.622 543.775 45.7046L549.635 44.4154C547.82 36.1646 543.923 29.5698 537.847 24.8633L534.173 29.6066ZM546.705 42.06L525.775 42.06V48.06L546.705 48.06V42.06ZM528.598 44.0454C527.561 41.1594 525.951 38.7626 523.645 37.1044C521.332 35.4409 518.568 34.7 515.54 34.7V40.7C517.573 40.7 519.044 41.1857 520.143 41.9756C521.248 42.7708 522.226 44.0539 522.952 46.0746L528.598 44.0454ZM515.54 34.7C511.011 34.7 507.245 36.5473 504.523 40.1447L509.307 43.7653C510.878 41.6893 512.862 40.7 515.54 40.7V34.7ZM504.547 40.1132C501.833 43.6028 500.695 48.348 500.695 53.915H506.695C506.695 49.0554 507.704 45.8272 509.283 43.7968L504.547 40.1132ZM500.695 53.915C500.695 59.4898 501.836 64.2498 504.523 67.8003L509.307 64.1797C507.701 62.0569 506.695 58.7669 506.695 53.915H500.695ZM504.547 67.8318C507.282 71.3482 511.044 73.13 515.54 73.13V67.13C512.83 67.13 510.842 66.1518 509.283 64.1482L504.547 67.8318ZM515.54 73.13C518.568 73.13 521.332 72.3891 523.645 70.7256C525.951 69.0674 527.561 66.6706 528.598 63.7846L522.952 61.7554C522.226 63.7761 521.248 65.0592 520.143 65.8544C519.044 66.6443 517.573 67.13 515.54 67.13V73.13ZM525.775 65.77H546.705V59.77L525.775 59.77V65.77ZM543.778 62.1129C542.225 69.0332 538.994 74.3054 534.152 78.1245L537.868 82.8355C543.913 78.0679 547.813 71.5334 549.632 63.4271L543.778 62.1129ZM534.152 78.1245C529.316 81.9391 523.291 83.92 515.885 83.92V89.92C524.427 89.92 531.818 87.6076 537.868 82.8355L534.152 78.1245ZM515.885 83.92C510.038 83.92 504.947 82.6761 500.535 80.2629L497.656 85.5271C503.056 88.4805 509.159 89.92 515.885 89.92V83.92ZM500.552 80.2725C496.229 77.8707 492.831 74.4496 490.335 69.9415L485.086 72.8485C488.109 78.307 492.302 82.5527 497.638 85.5175L500.552 80.2725ZM490.352 69.9727C487.942 65.4984 486.685 60.1772 486.685 53.915H480.685C480.685 60.9928 482.111 67.3249 485.069 72.8173L490.352 69.9727ZM627.604 28.5L625.381 30.5146L625.389 30.5233L625.397 30.5319L627.604 28.5ZM634.274 86V89H637.274V86H634.274ZM614.724 86H611.724V89H614.724V86ZM611.389 41.15L609.198 43.1995V43.1995L611.389 41.15ZM593.449 41.15L595.64 43.1995V43.1995L593.449 41.15ZM590.114 86V89H593.114V86H590.114ZM570.449 86H567.449V89H570.449V86ZM570.449 0.899999V-2.1H567.449V0.899999L570.449 0.899999ZM590.114 0.899999L593.114 0.899999V-2.1H590.114V0.899999ZM590.114 30.455L587.114 30.455V39.9421L592.569 32.1798L590.114 30.455ZM598.279 23.67L596.962 20.9748L598.279 23.67ZM609.894 24.14C616.512 24.14 621.57 26.3093 625.381 30.5146L629.827 26.4854C624.745 20.8774 617.996 18.14 609.894 18.14V24.14ZM625.397 30.5319C629.197 34.6595 631.274 40.523 631.274 48.51H637.274C637.274 39.477 634.905 32.0005 629.811 26.4681L625.397 30.5319ZM631.274 48.51V86H637.274V48.51H631.274ZM634.274 83H614.724V89H634.274V83ZM617.724 86V51.155H611.724V86H617.724ZM617.724 51.155C617.724 46.35 616.472 42.1917 613.58 39.1005L609.198 43.1995C610.753 44.8617 611.724 47.3733 611.724 51.155H617.724ZM613.58 39.1005C610.7 36.0221 606.866 34.585 602.419 34.585V40.585C605.486 40.585 607.631 41.5245 609.198 43.1995L613.58 39.1005ZM602.419 34.585C597.972 34.585 594.138 36.0221 591.258 39.1005L595.64 43.1995C597.207 41.5245 599.353 40.585 602.419 40.585V34.585ZM591.258 39.1005C588.367 42.1917 587.114 46.35 587.114 51.155H593.114C593.114 47.3733 594.085 44.8617 595.64 43.1995L591.258 39.1005ZM587.114 51.155V86H593.114V51.155H587.114ZM590.114 83H570.449V89H590.114V83ZM573.449 86V0.899999L567.449 0.899999V86H573.449ZM570.449 3.9L590.114 3.9V-2.1L570.449 -2.1V3.9ZM587.114 0.899999V30.455L593.114 30.455V0.899999L587.114 0.899999ZM592.569 32.1798C594.241 29.8006 596.552 27.8539 599.597 26.3651L596.962 20.9748C593.107 22.8594 589.974 25.4361 587.66 28.7302L592.569 32.1798ZM599.597 26.3651C602.59 24.9017 606.003 24.14 609.894 24.14V18.14C605.199 18.14 600.868 19.065 596.962 20.9748L599.597 26.3651Z" fill="white" mask="url(#path-1-outside-1_471_525)"/>
</g>
</svg>
