<svg width="37" height="25" viewBox="0 0 37 25" fill="none" xmlns="http://www.w3.org/2000/svg">
<path d="M1.48 24.6108V24.4908C3.32 22.9708 4.88 21.2508 6.16 19.3308C7.44 17.3308 8.36 15.4108 8.92 13.5708C8.6 13.8108 8.24 14.0108 7.84 14.1708C7.44 14.2508 7.04 14.2908 6.64 14.2908C4.8 14.1308 3.28 13.4108 2.08 12.1308C0.88 10.8508 0.28 9.29078 0.28 7.45078C0.28 6.17078 0.56 5.01078 1.12 3.97078C1.76 2.85078 2.64 1.97078 3.76 1.33078C4.88 0.610777 6.12 0.250777 7.48 0.250777C9.56 0.250777 11.28 0.930778 12.64 2.29078C14.08 3.65078 14.8 5.49078 14.8 7.81078C14.8 10.6108 13.96 13.7308 12.28 17.1708C10.68 20.5308 8.8 23.0108 6.64 24.6108H1.48ZM22.72 24.6108V24.4908C24.56 22.9708 26.12 21.2508 27.4 19.3308C28.68 17.3308 29.6 15.4108 30.16 13.5708C29.84 13.8108 29.48 14.0108 29.08 14.1708C28.68 14.2508 28.28 14.2908 27.88 14.2908C26.04 14.1308 24.52 13.4108 23.32 12.1308C22.12 10.8508 21.52 9.29078 21.52 7.45078C21.52 6.17078 21.8 5.01078 22.36 3.97078C23 2.85078 23.88 1.97078 25 1.33078C26.12 0.610777 27.36 0.250777 28.72 0.250777C30.8 0.250777 32.52 0.930778 33.88 2.29078C35.32 3.65078 36.04 5.49078 36.04 7.81078C36.04 10.6108 35.2 13.7308 33.52 17.1708C31.92 20.5308 30.04 23.0108 27.88 24.6108H22.72Z" fill="#4484FF"/>
</svg>
