<svg width="517" height="94" viewBox="0 0 517 94" fill="none" xmlns="http://www.w3.org/2000/svg">
<g opacity="0.09">
<mask id="path-1-outside-1_419_2884" maskUnits="userSpaceOnUse" x="-2" y="-2" width="521" height="98" fill="black">
<rect fill="white" x="-2" y="-2" width="521" height="98"/>
<path d="M32.34 93.805C26.4367 93.805 21.1467 92.8467 16.47 90.93C11.7933 89.0133 8.03667 86.1767 5.2 82.42C2.44 78.6633 0.983334 74.14 0.83 68.85H21.76C22.0667 71.84 23.1017 74.14 24.865 75.75C26.6283 77.2833 28.9283 78.05 31.765 78.05C34.6783 78.05 36.9783 77.3983 38.665 76.095C40.3517 74.715 41.195 72.8367 41.195 70.46C41.195 68.4667 40.505 66.8183 39.125 65.515C37.8217 64.2117 36.1733 63.1383 34.18 62.295C32.2633 61.4517 29.5033 60.4933 25.9 59.42C20.6867 57.81 16.4317 56.2 13.135 54.59C9.83833 52.98 7.00167 50.6033 4.625 47.46C2.24833 44.3167 1.06 40.215 1.06 35.155C1.06 27.6417 3.78167 21.7767 9.225 17.56C14.6683 13.2667 21.76 11.12 30.5 11.12C39.3933 11.12 46.5617 13.2667 52.005 17.56C57.4483 21.7767 60.3617 27.68 60.745 35.27H39.47C39.3167 32.6633 38.3583 30.6317 36.595 29.175C34.8317 27.6417 32.57 26.875 29.81 26.875C27.4333 26.875 25.5167 27.5267 24.06 28.83C22.6033 30.0567 21.875 31.8583 21.875 34.235C21.875 36.8417 23.1017 38.8733 25.555 40.33C28.0083 41.7867 31.8417 43.3583 37.055 45.045C42.2683 46.8083 46.485 48.495 49.705 50.105C53.0017 51.715 55.8383 54.0533 58.215 57.12C60.5917 60.1867 61.78 64.135 61.78 68.965C61.78 73.565 60.5917 77.7433 58.215 81.5C55.915 85.2567 52.5417 88.2467 48.095 90.47C43.6483 92.6933 38.3967 93.805 32.34 93.805ZM137.822 59.88C137.822 61.72 137.707 63.6367 137.477 65.63H92.972C93.2786 69.6167 94.5436 72.6833 96.767 74.83C99.067 76.9 101.865 77.935 105.162 77.935C110.069 77.935 113.48 75.865 115.397 71.725H136.327C135.254 75.9417 133.299 79.7367 130.462 83.11C127.702 86.4833 124.214 89.1283 119.997 91.045C115.78 92.9617 111.065 93.92 105.852 93.92C99.5653 93.92 93.9686 92.5783 89.062 89.895C84.1553 87.2117 80.322 83.3783 77.562 78.395C74.802 73.4117 73.422 67.585 73.422 60.915C73.422 54.245 74.7636 48.4183 77.447 43.435C80.207 38.4517 84.0403 34.6183 88.947 31.935C93.8536 29.2517 99.4886 27.91 105.852 27.91C112.062 27.91 117.582 29.2133 122.412 31.82C127.242 34.4267 130.999 38.145 133.682 42.975C136.442 47.805 137.822 53.44 137.822 59.88ZM117.697 54.705C117.697 51.3317 116.547 48.6483 114.247 46.655C111.947 44.6617 109.072 43.665 105.622 43.665C102.325 43.665 99.527 44.6233 97.227 46.54C95.0036 48.4567 93.6236 51.1783 93.087 54.705H117.697ZM171.311 39.525C173.611 35.9983 176.486 33.2383 179.936 31.245C183.386 29.175 187.22 28.14 191.436 28.14V48.955H186.031C181.125 48.955 177.445 50.0283 174.991 52.175C172.538 54.245 171.311 57.925 171.311 63.215V93H151.646V28.83H171.311V39.525ZM233.151 74.6L247.066 28.83L267.996 28.83L245.226 93H220.961L198.191 28.83H219.236L233.151 74.6ZM289.613 22.16C286.163 22.16 283.326 21.1633 281.103 19.17C278.956 17.1 277.883 14.57 277.883 11.58C277.883 8.51333 278.956 5.98333 281.103 3.98999C283.326 1.91999 286.163 0.884993 289.613 0.884993C292.986 0.884993 295.746 1.91999 297.893 3.98999C300.116 5.98333 301.228 8.51333 301.228 11.58C301.228 14.57 300.116 17.1 297.893 19.17C295.746 21.1633 292.986 22.16 289.613 22.16ZM299.388 28.83V93H279.723V28.83H299.388ZM313.179 60.915C313.179 54.245 314.521 48.4183 317.204 43.435C319.964 38.4517 323.759 34.6183 328.589 31.935C333.496 29.2517 339.092 27.91 345.379 27.91C353.429 27.91 360.137 30.0183 365.504 34.235C370.947 38.4517 374.512 44.3933 376.199 52.06L355.269 52.06C353.506 47.1533 350.094 44.7 345.034 44.7C341.431 44.7 338.556 46.1183 336.409 48.955C334.262 51.715 333.189 55.7017 333.189 60.915C333.189 66.1283 334.262 70.1533 336.409 72.99C338.556 75.75 341.431 77.13 345.034 77.13C350.094 77.13 353.506 74.6767 355.269 69.77L376.199 69.77C374.512 77.2833 370.947 83.1867 365.504 87.48C360.061 91.7733 353.352 93.92 345.379 93.92C339.092 93.92 333.496 92.5783 328.589 89.895C323.759 87.2117 319.964 83.3783 317.204 78.395C314.521 73.4117 313.179 67.585 313.179 60.915ZM450.658 59.88C450.658 61.72 450.543 63.6367 450.313 65.63H405.808C406.115 69.6167 407.38 72.6833 409.603 74.83C411.903 76.9 414.701 77.935 417.998 77.935C422.905 77.935 426.316 75.865 428.233 71.725H449.163C448.09 75.9417 446.135 79.7367 443.298 83.11C440.538 86.4833 437.05 89.1283 432.833 91.045C428.616 92.9617 423.901 93.92 418.688 93.92C412.401 93.92 406.805 92.5783 401.898 89.895C396.991 87.2117 393.158 83.3783 390.398 78.395C387.638 73.4117 386.258 67.585 386.258 60.915C386.258 54.245 387.6 48.4183 390.283 43.435C393.043 38.4517 396.876 34.6183 401.783 31.935C406.69 29.2517 412.325 27.91 418.688 27.91C424.898 27.91 430.418 29.2133 435.248 31.82C440.078 34.4267 443.835 38.145 446.518 42.975C449.278 47.805 450.658 53.44 450.658 59.88ZM430.533 54.705C430.533 51.3317 429.383 48.6483 427.083 46.655C424.783 44.6617 421.908 43.665 418.458 43.665C415.161 43.665 412.363 44.6233 410.063 46.54C407.84 48.4567 406.46 51.1783 405.923 54.705H430.533ZM490.587 93.92C484.99 93.92 480.007 92.9617 475.637 91.045C471.267 89.1283 467.817 86.5217 465.287 83.225C462.757 79.8517 461.339 76.095 461.032 71.955H480.467C480.697 74.1783 481.732 75.98 483.572 77.36C485.412 78.74 487.674 79.43 490.357 79.43C492.81 79.43 494.689 78.97 495.992 78.05C497.372 77.0533 498.062 75.7883 498.062 74.255C498.062 72.415 497.104 71.0733 495.187 70.23C493.27 69.31 490.165 68.3133 485.872 67.24C481.272 66.1667 477.439 65.055 474.372 63.905C471.305 62.6783 468.66 60.8 466.437 58.27C464.214 55.6633 463.102 52.175 463.102 47.805C463.102 44.125 464.099 40.79 466.092 37.8C468.162 34.7333 471.152 32.3183 475.062 30.555C479.049 28.7917 483.764 27.91 489.207 27.91C497.257 27.91 503.582 29.9033 508.182 33.89C512.859 37.8767 515.542 43.1667 516.232 49.76L498.062 49.76C497.755 47.5367 496.759 45.7733 495.072 44.47C493.462 43.1667 491.315 42.515 488.632 42.515C486.332 42.515 484.569 42.975 483.342 43.895C482.115 44.7383 481.502 45.9267 481.502 47.46C481.502 49.3 482.46 50.68 484.377 51.6C486.37 52.52 489.437 53.44 493.577 54.36C498.33 55.5867 502.202 56.8133 505.192 58.04C508.182 59.19 510.789 61.1067 513.012 63.79C515.312 66.3967 516.5 69.9233 516.577 74.37C516.577 78.1267 515.504 81.5 513.357 84.49C511.287 87.4033 508.259 89.7033 504.272 91.39C500.362 93.0767 495.8 93.92 490.587 93.92Z"/>
</mask>
<path d="M16.47 90.93L15.7116 92.7806L16.47 90.93ZM5.2 82.42L3.58824 83.6041L3.59601 83.6147L3.60392 83.6252L5.2 82.42ZM0.83 68.85V66.85H-1.22881L-1.16916 68.9079L0.83 68.85ZM21.76 68.85L23.7496 68.6459L23.5654 66.85H21.76V68.85ZM24.865 75.75L23.5165 77.227L23.5344 77.2433L23.5526 77.2592L24.865 75.75ZM38.665 76.095L39.8879 77.6776L39.9099 77.6605L39.9315 77.6429L38.665 76.095ZM39.125 65.515L37.7108 66.9292L37.731 66.9494L37.7518 66.969L39.125 65.515ZM34.18 62.295L33.3745 64.1256L33.3876 64.1314L33.4007 64.1369L34.18 62.295ZM25.9 59.42L25.3099 61.3309L25.3194 61.3339L25.329 61.3368L25.9 59.42ZM13.135 54.59L12.2573 56.3871L13.135 54.59ZM4.625 47.46L6.22032 46.2538L4.625 47.46ZM9.225 17.56L10.4498 19.1411L10.4567 19.1357L10.4636 19.1303L9.225 17.56ZM52.005 17.56L50.7664 19.1303L50.7733 19.1357L50.7802 19.1411L52.005 17.56ZM60.745 35.27V37.27H62.8486L62.7425 35.1691L60.745 35.27ZM39.47 35.27L37.4735 35.3874L37.5842 37.27H39.47V35.27ZM36.595 29.175L35.2826 30.6842L35.3017 30.7008L35.3212 30.7169L36.595 29.175ZM24.06 28.83L25.3483 30.3598L25.3712 30.3405L25.3936 30.3205L24.06 28.83ZM25.555 40.33L26.5761 38.6103L26.5761 38.6103L25.555 40.33ZM37.055 45.045L37.6958 43.1504L37.6833 43.1462L37.6706 43.1421L37.055 45.045ZM49.705 50.105L48.8106 51.8939L48.8189 51.898L48.8273 51.9021L49.705 50.105ZM58.215 57.12L56.6342 58.3451V58.3451L58.215 57.12ZM58.215 81.5L56.5248 80.4307L56.517 80.4431L56.5093 80.4557L58.215 81.5ZM48.095 90.47L47.2006 88.6811L48.095 90.47ZM32.34 91.805C26.6537 91.805 21.6275 90.8823 17.2284 89.0794L15.7116 92.7806C20.6658 94.8111 26.2196 95.805 32.34 95.805V91.805ZM17.2284 89.0794C12.8585 87.2884 9.40056 84.664 6.79608 81.2148L3.60392 83.6252C6.67278 87.6894 10.7282 90.7383 15.7116 92.7806L17.2284 89.0794ZM6.81176 81.2358C4.32391 77.8496 2.97237 73.7329 2.82916 68.7921L-1.16916 68.9079C-1.00571 74.5471 0.556093 79.4771 3.58824 83.6041L6.81176 81.2358ZM0.83 70.85H21.76V66.85H0.83L0.83 70.85ZM19.7704 69.0541C20.1138 72.4017 21.3037 75.2066 23.5165 77.227L26.2135 74.273C24.8997 73.0734 24.0196 71.2783 23.7496 68.6459L19.7704 69.0541ZM23.5526 77.2592C25.7538 79.1732 28.5538 80.05 31.765 80.05V76.05C29.3029 76.05 27.5029 75.3934 26.1774 74.2408L23.5526 77.2592ZM31.765 80.05C34.9606 80.05 37.7424 79.3355 39.8879 77.6776L37.4421 74.5124C36.2143 75.4612 34.3961 76.05 31.765 76.05V80.05ZM39.9315 77.6429C42.1283 75.8455 43.195 73.3746 43.195 70.46H39.195C39.195 72.2987 38.5751 73.5845 37.3985 74.5471L39.9315 77.6429ZM43.195 70.46C43.195 67.9474 42.3003 65.7629 40.4983 64.061L37.7518 66.969C38.7097 67.8738 39.195 68.9859 39.195 70.46H43.195ZM40.5392 64.1008C39.0249 62.5865 37.1492 61.3796 34.9593 60.4531L33.4007 64.1369C35.1975 64.8971 36.6184 65.8368 37.7108 66.9292L40.5392 64.1008ZM34.9855 60.4644C32.9552 59.571 30.1021 58.5848 26.471 57.5032L25.329 61.3368C28.9046 62.4018 31.5715 63.3323 33.3745 64.1256L34.9855 60.4644ZM26.4901 57.509C21.3328 55.9164 17.1837 54.3415 14.0127 52.7929L12.2573 56.3871C15.6797 58.0585 20.0405 59.7036 25.3099 61.3309L26.4901 57.509ZM14.0127 52.7929C11.019 51.3308 8.42187 49.1655 6.22032 46.2538L3.02968 48.6662C5.58146 52.0411 8.6577 54.6292 12.2573 56.3871L14.0127 52.7929ZM6.22032 46.2538C4.17257 43.5455 3.06 39.9041 3.06 35.155H-0.94C-0.94 40.5259 0.3241 45.0879 3.02968 48.6662L6.22032 46.2538ZM3.06 35.155C3.06 28.1954 5.54455 22.9409 10.4498 19.1411L8.00021 15.9789C2.01879 20.6124 -0.94 27.088 -0.94 35.155H3.06ZM10.4636 19.1303C15.4706 15.1811 22.0901 13.12 30.5 13.12V9.12C21.4299 9.12 13.8661 11.3522 7.98643 15.9897L10.4636 19.1303ZM30.5 13.12C39.0726 13.12 45.7652 15.1857 50.7664 19.1303L53.2436 15.9897C47.3581 11.3476 39.714 9.12 30.5 9.12V13.12ZM50.7802 19.1411C55.7113 22.9609 58.3902 28.2953 58.7475 35.3709L62.7425 35.1691C62.3331 27.0647 59.1854 20.5924 53.2298 15.9789L50.7802 19.1411ZM60.745 33.27H39.47V37.27H60.745V33.27ZM41.4666 35.1525C41.2857 32.0777 40.1229 29.4952 37.8688 27.6331L35.3212 30.7169C36.5938 31.7682 37.3477 33.249 37.4735 35.3874L41.4666 35.1525ZM37.9074 27.6658C35.7161 25.7604 32.9603 24.875 29.81 24.875V28.875C32.1797 28.875 33.9472 29.5229 35.2826 30.6842L37.9074 27.6658ZM29.81 24.875C27.0526 24.875 24.6251 25.6407 22.7264 27.3395L25.3936 30.3205C26.4083 29.4126 27.814 28.875 29.81 28.875V24.875ZM22.7717 27.3002C20.7548 28.9986 19.875 31.4274 19.875 34.235H23.875C23.875 32.2892 24.4518 31.1147 25.3483 30.3598L22.7717 27.3002ZM19.875 34.235C19.875 37.6245 21.543 40.2739 24.5339 42.0497L26.5761 38.6103C24.6603 37.4728 23.875 36.0588 23.875 34.235H19.875ZM24.5339 42.0497C27.1837 43.623 31.1887 45.2491 36.4394 46.9479L37.6706 43.1421C32.4947 41.4675 28.833 39.9503 26.5761 38.6103L24.5339 42.0497ZM36.4142 46.9396C41.5809 48.6871 45.7034 50.3403 48.8106 51.8939L50.5994 48.3161C47.2666 46.6497 42.9557 44.9295 37.6958 43.1504L36.4142 46.9396ZM48.8273 51.9021C51.8332 53.3701 54.434 55.5062 56.6342 58.3451L59.7958 55.8949C57.2427 52.6005 54.1702 50.0599 50.5827 48.3079L48.8273 51.9021ZM56.6342 58.3451C58.6782 60.9827 59.78 64.4677 59.78 68.965H63.78C63.78 63.8023 62.5051 59.3907 59.7958 55.8949L56.6342 58.3451ZM59.78 68.965C59.78 73.2003 58.6918 77.0055 56.5248 80.4307L59.9052 82.5693C62.4915 78.4812 63.78 73.9297 63.78 68.965H59.78ZM56.5093 80.4557C54.429 83.8535 51.3567 86.6031 47.2006 88.6811L48.9894 92.2589C53.7266 89.8903 57.401 86.6599 59.9207 82.5443L56.5093 80.4557ZM47.2006 88.6811C43.0857 90.7386 38.1529 91.805 32.34 91.805V95.805C38.6404 95.805 44.2109 94.6481 48.9894 92.2589L47.2006 88.6811ZM137.477 65.63V67.63H139.259L139.464 65.8592L137.477 65.63ZM92.972 65.63V63.63H90.8122L90.9778 65.7834L92.972 65.63ZM96.767 74.83L95.3778 76.2688L95.403 76.2931L95.429 76.3166L96.767 74.83ZM115.397 71.725V69.725H114.119L113.582 70.8848L115.397 71.725ZM136.327 71.725L138.265 72.2184L138.9 69.725H136.327V71.725ZM130.462 83.11L128.931 81.8228L128.923 81.8331L128.914 81.8435L130.462 83.11ZM119.997 91.045L120.825 92.8657L119.997 91.045ZM89.062 89.895L88.1023 91.6497L89.062 89.895ZM77.562 78.395L79.3115 77.426L77.562 78.395ZM77.447 43.435L75.6974 42.466L75.6916 42.4764L75.686 42.4868L77.447 43.435ZM88.947 31.935L89.9066 33.6897L88.947 31.935ZM122.412 31.82L121.462 33.58V33.58L122.412 31.82ZM133.682 42.975L131.934 43.9463L131.939 43.9568L131.945 43.9673L133.682 42.975ZM117.697 54.705V56.705H119.697V54.705H117.697ZM114.247 46.655L115.557 45.1436L114.247 46.655ZM97.227 46.54L95.9466 45.0036L95.9337 45.0143L95.9211 45.0252L97.227 46.54ZM93.087 54.705L91.1097 54.4041L90.7596 56.705H93.087V54.705ZM135.822 59.88C135.822 61.6369 135.712 63.4768 135.49 65.4008L139.464 65.8592C139.702 63.7966 139.822 61.8031 139.822 59.88H135.822ZM137.477 63.63H92.972V67.63H137.477V63.63ZM90.9778 65.7834C91.3107 70.111 92.7089 73.692 95.3778 76.2688L98.1561 73.3912C96.3783 71.6747 95.2465 69.1223 94.9661 65.4766L90.9778 65.7834ZM95.429 76.3166C98.1217 78.74 101.406 79.935 105.162 79.935V75.935C102.324 75.935 100.012 75.06 98.1049 73.3434L95.429 76.3166ZM105.162 79.935C107.897 79.935 110.355 79.3564 112.438 78.0924C114.531 76.8227 116.111 74.9427 117.212 72.5652L113.582 70.8848C112.766 72.6473 111.682 73.8723 110.363 74.6726C109.035 75.4786 107.333 75.935 105.162 75.935V79.935ZM115.397 73.725H136.327V69.725H115.397V73.725ZM134.389 71.2316C133.391 75.1525 131.577 78.6769 128.931 81.8228L131.993 84.3972C135.021 80.7964 137.117 76.7308 138.265 72.2184L134.389 71.2316ZM128.914 81.8435C126.361 84.9645 123.125 87.4265 119.169 89.2243L120.825 92.8657C125.303 90.8302 129.043 88.0022 132.01 84.3765L128.914 81.8435ZM119.169 89.2243C115.243 91.0088 110.816 91.92 105.852 91.92V95.92C111.315 95.92 116.317 94.9146 120.825 92.8657L119.169 89.2243ZM105.852 91.92C99.8584 91.92 94.599 90.6435 90.0216 88.1403L88.1023 91.6497C93.3383 94.5131 99.2722 95.92 105.852 95.92V91.92ZM90.0216 88.1403C85.4538 85.6423 81.8916 82.0844 79.3115 77.426L75.8124 79.364C78.7523 84.6723 82.8567 88.7811 88.1023 91.6497L90.0216 88.1403ZM79.3115 77.426C76.7419 72.7863 75.422 67.3042 75.422 60.915H71.422C71.422 67.8658 72.8621 74.037 75.8124 79.364L79.3115 77.426ZM75.422 60.915C75.422 54.5169 76.7073 49.0272 79.2079 44.3832L75.686 42.4868C72.8199 47.8095 71.422 53.9731 71.422 60.915H75.422ZM79.1965 44.404C81.7766 39.7456 85.3388 36.1877 89.9066 33.6897L87.9873 30.1803C82.7417 33.0489 78.6373 37.1577 75.6974 42.466L79.1965 44.404ZM89.9066 33.6897C94.4805 31.1884 99.7772 29.91 105.852 29.91V25.91C99.2001 25.91 93.2268 27.3149 87.9873 30.1803L89.9066 33.6897ZM105.852 29.91C111.775 29.91 116.96 31.1506 121.462 33.58L123.362 30.06C118.203 27.2761 112.349 25.91 105.852 25.91V29.91ZM121.462 33.58C125.954 36.0041 129.434 39.4476 131.934 43.9463L135.43 42.0037C132.563 36.8423 128.53 32.8492 123.362 30.06L121.462 33.58ZM131.945 43.9673C134.507 48.4503 135.822 53.7326 135.822 59.88H139.822C139.822 53.1474 138.377 47.1597 135.418 41.9827L131.945 43.9673ZM119.697 54.705C119.697 50.8222 118.346 47.5607 115.557 45.1436L112.937 48.1664C114.748 49.7359 115.697 51.8412 115.697 54.705H119.697ZM115.557 45.1436C112.845 42.793 109.485 41.665 105.622 41.665V45.665C108.659 45.665 111.049 46.5303 112.937 48.1664L115.557 45.1436ZM105.622 41.665C101.908 41.665 98.6431 42.7565 95.9466 45.0036L98.5073 48.0764C100.411 46.4902 102.743 45.665 105.622 45.665V41.665ZM95.9211 45.0252C93.2627 47.3168 91.7021 50.5115 91.1097 54.4041L95.0642 55.0059C95.5452 51.8452 96.7445 49.5965 98.5328 48.0548L95.9211 45.0252ZM93.087 56.705H117.697V52.705H93.087V56.705ZM171.311 39.525H169.311V46.2529L172.986 40.6175L171.311 39.525ZM179.936 31.245L180.937 32.9767L180.951 32.9685L180.965 32.96L179.936 31.245ZM191.436 28.14H193.436V26.14H191.436V28.14ZM191.436 48.955V50.955H193.436V48.955H191.436ZM174.991 52.175L176.281 53.7036L176.295 53.692L176.308 53.6802L174.991 52.175ZM171.311 93V95H173.311V93H171.311ZM151.646 93H149.646V95H151.646V93ZM151.646 28.83V26.83H149.646V28.83H151.646ZM171.311 28.83H173.311V26.83H171.311V28.83ZM172.986 40.6175C175.125 37.3386 177.774 34.804 180.937 32.9767L178.936 29.5133C175.198 31.6726 172.098 34.658 169.636 38.4325L172.986 40.6175ZM180.965 32.96C184.089 31.0856 187.564 30.14 191.436 30.14V26.14C186.875 26.14 182.683 27.2644 178.907 29.53L180.965 32.96ZM189.436 28.14V48.955H193.436V28.14H189.436ZM191.436 46.955H186.031V50.955H191.436V46.955ZM186.031 46.955C180.877 46.955 176.638 48.0767 173.674 50.6698L176.308 53.6802C178.251 51.9799 181.372 50.955 186.031 50.955V46.955ZM173.701 50.6464C170.575 53.2845 169.311 57.7084 169.311 63.215H173.311C173.311 58.1416 174.501 55.2055 176.281 53.7036L173.701 50.6464ZM169.311 63.215V93H173.311V63.215H169.311ZM171.311 91H151.646V95H171.311V91ZM153.646 93V28.83H149.646V93H153.646ZM151.646 30.83H171.311V26.83H151.646V30.83ZM169.311 28.83V39.525H173.311V28.83H169.311ZM233.151 74.6L231.237 75.1817L233.151 81.4758L235.064 75.1817L233.151 74.6ZM247.066 28.83V26.83H245.583L245.152 28.2482L247.066 28.83ZM267.996 28.83L269.881 29.4988L270.828 26.83H267.996V28.83ZM245.226 93V95H246.638L247.111 93.6688L245.226 93ZM220.961 93L219.076 93.6688L219.548 95H220.961V93ZM198.191 28.83V26.83H195.359L196.306 29.4988L198.191 28.83ZM219.236 28.83L221.149 28.2482L220.718 26.83H219.236V28.83ZM235.064 75.1817L248.979 29.4117L245.152 28.2482L231.237 74.0182L235.064 75.1817ZM247.066 30.83H267.996V26.83L247.066 26.83V30.83ZM266.111 28.1612L243.341 92.3312L247.111 93.6688L269.881 29.4988L266.111 28.1612ZM245.226 91H220.961V95H245.226V91ZM222.846 92.3312L200.076 28.1612L196.306 29.4988L219.076 93.6688L222.846 92.3312ZM198.191 30.83L219.236 30.83V26.83H198.191V30.83ZM217.322 29.4117L231.237 75.1817L235.064 74.0182L221.149 28.2482L217.322 29.4117ZM281.103 19.17L279.715 20.6097L279.741 20.6349L279.768 20.6591L281.103 19.17ZM281.103 3.98999L282.464 5.45558L282.466 5.45378L281.103 3.98999ZM297.893 3.98999L296.505 5.42968L296.531 5.45489L296.558 5.47913L297.893 3.98999ZM297.893 19.17L299.254 20.6356L299.256 20.6338L297.893 19.17ZM299.388 28.83H301.388V26.83H299.388V28.83ZM299.388 93V95H301.388V93H299.388ZM279.723 93H277.723V95H279.723V93ZM279.723 28.83V26.83H277.723V28.83H279.723ZM289.613 20.16C286.574 20.16 284.238 19.2946 282.438 17.6809L279.768 20.6591C282.415 23.0321 285.752 24.16 289.613 24.16V20.16ZM282.491 17.7303C280.737 16.0384 279.883 14.0286 279.883 11.58H275.883C275.883 15.1114 277.176 18.1616 279.715 20.6097L282.491 17.7303ZM279.883 11.58C279.883 9.0401 280.746 7.05096 282.464 5.45558L279.742 2.52441C277.167 4.9157 275.883 7.98656 275.883 11.58H279.883ZM282.466 5.45378C284.268 3.77565 286.595 2.88499 289.613 2.88499V-1.11501C285.731 -1.11501 282.384 0.0643387 279.74 2.52621L282.466 5.45378ZM289.613 2.88499C292.542 2.88499 294.781 3.76719 296.505 5.42968L299.281 2.5503C296.712 0.0727997 293.431 -1.11501 289.613 -1.11501V2.88499ZM296.558 5.47913C298.345 7.08158 299.228 9.06416 299.228 11.58H303.228C303.228 7.96251 301.887 4.88507 299.228 2.50085L296.558 5.47913ZM299.228 11.58C299.228 14.0048 298.354 16.0077 296.53 17.7062L299.256 20.6338C301.878 18.1923 303.228 15.1352 303.228 11.58H299.228ZM296.532 17.7044C294.811 19.3022 292.563 20.16 289.613 20.16V24.16C293.409 24.16 296.681 23.0244 299.254 20.6356L296.532 17.7044ZM297.388 28.83V93H301.388V28.83H297.388ZM299.388 91H279.723V95H299.388V91ZM281.723 93V28.83H277.723V93H281.723ZM279.723 30.83H299.388V26.83H279.723V30.83ZM317.204 43.435L315.454 42.466L315.449 42.4764L315.443 42.4868L317.204 43.435ZM328.589 31.935L327.629 30.1802L327.618 30.1867L328.589 31.935ZM365.504 34.235L364.268 35.8077L364.279 35.8161L365.504 34.235ZM376.199 52.06V54.06H378.687L378.152 51.6303L376.199 52.06ZM355.269 52.06L353.387 52.7364L353.863 54.06H355.269V52.06ZM336.409 48.955L337.988 50.1829L337.996 50.1724L338.004 50.1619L336.409 48.955ZM336.409 72.99L334.814 74.1969L334.822 74.2074L334.83 74.2179L336.409 72.99ZM355.269 69.77V67.77H353.863L353.387 69.0936L355.269 69.77ZM376.199 69.77L378.15 70.2081L378.698 67.77H376.199V69.77ZM365.504 87.48L364.265 85.9097L365.504 87.48ZM328.589 89.895L327.618 91.6434L327.629 91.6497L328.589 89.895ZM317.204 78.395L315.443 79.3432L315.449 79.3536L315.454 79.364L317.204 78.395ZM315.179 60.915C315.179 54.5169 316.464 49.0272 318.965 44.3832L315.443 42.4868C312.577 47.8095 311.179 53.9731 311.179 60.915H315.179ZM318.954 44.404C321.538 39.7375 325.068 36.179 329.56 33.6833L327.618 30.1867C322.45 33.0577 318.39 37.1659 315.454 42.466L318.954 44.404ZM329.549 33.6897C334.126 31.1865 339.385 29.91 345.379 29.91V25.91C338.799 25.91 332.865 27.3169 327.629 30.1803L329.549 33.6897ZM345.379 29.91C353.064 29.91 359.315 31.9154 364.268 35.8076L366.74 32.6624C360.96 28.1212 353.793 25.91 345.379 25.91V29.91ZM364.279 35.8161C369.301 39.7062 372.645 45.2125 374.246 52.4897L378.152 51.6303C376.38 43.5742 372.594 37.1971 366.729 32.6539L364.279 35.8161ZM376.199 50.06L355.269 50.06V54.06L376.199 54.06V50.06ZM357.151 51.3836C356.166 48.6418 354.661 46.4306 352.555 44.9162C350.445 43.3984 347.896 42.7 345.034 42.7V46.7C347.232 46.7 348.919 47.2283 350.22 48.1638C351.526 49.1027 352.609 50.5715 353.387 52.7364L357.151 51.3836ZM345.034 42.7C340.814 42.7 337.345 44.4043 334.814 47.7481L338.004 50.1619C339.767 47.8323 342.048 46.7 345.034 46.7V42.7ZM334.83 47.7271C332.305 50.9736 331.189 55.4659 331.189 60.915H335.189C335.189 55.9375 336.219 52.4564 337.988 50.1829L334.83 47.7271ZM331.189 60.915C331.189 66.3693 332.307 70.8843 334.814 74.1969L338.004 71.7831C336.217 69.4224 335.189 65.8874 335.189 60.915H331.189ZM334.83 74.2179C337.369 77.4822 340.835 79.13 345.034 79.13V75.13C342.026 75.13 339.742 74.0178 337.988 71.7621L334.83 74.2179ZM345.034 79.13C347.896 79.13 350.445 78.4316 352.555 76.9138C354.661 75.3994 356.166 73.1882 357.151 70.4464L353.387 69.0936C352.609 71.2585 351.526 72.7273 350.22 73.6662C348.919 74.6017 347.232 75.13 345.034 75.13V79.13ZM355.269 71.77L376.199 71.77V67.77L355.269 67.77V71.77ZM374.248 69.3319C372.65 76.4499 369.308 81.9325 364.265 85.9097L366.743 89.0503C372.587 84.4408 376.375 78.1167 378.15 70.2081L374.248 69.3319ZM364.265 85.9097C359.227 89.8839 352.974 91.92 345.379 91.92V95.92C353.731 95.92 360.895 93.6628 366.743 89.0503L364.265 85.9097ZM345.379 91.92C339.385 91.92 334.126 90.6435 329.549 88.1403L327.629 91.6497C332.865 94.5131 338.799 95.92 345.379 95.92V91.92ZM329.56 88.1467C325.068 85.651 321.538 82.0925 318.954 77.426L315.454 79.364C318.39 84.6641 322.45 88.7723 327.618 91.6433L329.56 88.1467ZM318.965 77.4468C316.464 72.8028 315.179 67.3131 315.179 60.915H311.179C311.179 67.8569 312.577 74.0205 315.443 79.3432L318.965 77.4468ZM450.313 65.63V67.63H452.095L452.3 65.8592L450.313 65.63ZM405.808 65.63V63.63H403.648L403.814 65.7834L405.808 65.63ZM409.603 74.83L408.214 76.2688L408.239 76.2931L408.265 76.3166L409.603 74.83ZM428.233 71.725V69.725H426.955L426.418 70.8848L428.233 71.725ZM449.163 71.725L451.101 72.2184L451.736 69.725H449.163V71.725ZM443.298 83.11L441.767 81.8228L441.759 81.8331L441.75 81.8435L443.298 83.11ZM432.833 91.045L433.661 92.8657L432.833 91.045ZM401.898 89.895L400.938 91.6497L401.898 89.895ZM390.398 78.395L392.147 77.426L390.398 78.395ZM390.283 43.435L388.533 42.466L388.528 42.4764L388.522 42.4868L390.283 43.435ZM401.783 31.935L402.743 33.6897L401.783 31.935ZM435.248 31.82L434.298 33.58V33.58L435.248 31.82ZM446.518 42.975L444.77 43.9463L444.775 43.9568L444.781 43.9673L446.518 42.975ZM430.533 54.705V56.705H432.533V54.705H430.533ZM427.083 46.655L428.393 45.1436L427.083 46.655ZM410.063 46.54L408.783 45.0036L408.77 45.0143L408.757 45.0252L410.063 46.54ZM405.923 54.705L403.946 54.4041L403.596 56.705H405.923V54.705ZM448.658 59.88C448.658 61.6369 448.548 63.4768 448.326 65.4008L452.3 65.8592C452.538 63.7966 452.658 61.8031 452.658 59.88H448.658ZM450.313 63.63H405.808V67.63H450.313V63.63ZM403.814 65.7834C404.147 70.111 405.545 73.692 408.214 76.2688L410.992 73.3912C409.214 71.6747 408.082 69.1223 407.802 65.4766L403.814 65.7834ZM408.265 76.3166C410.958 78.74 414.242 79.935 417.998 79.935V75.935C415.16 75.935 412.848 75.06 410.941 73.3434L408.265 76.3166ZM417.998 79.935C420.733 79.935 423.191 79.3564 425.274 78.0924C427.367 76.8227 428.947 74.9427 430.048 72.5652L426.418 70.8848C425.602 72.6473 424.518 73.8723 423.199 74.6726C421.871 75.4786 420.169 75.935 417.998 75.935V79.935ZM428.233 73.725H449.163V69.725H428.233V73.725ZM447.225 71.2316C446.227 75.1525 444.413 78.6769 441.767 81.8228L444.829 84.3972C447.857 80.7964 449.952 76.7308 451.101 72.2184L447.225 71.2316ZM441.75 81.8435C439.197 84.9645 435.96 87.4265 432.005 89.2243L433.661 92.8657C438.139 90.8302 441.879 88.0022 444.846 84.3765L441.75 81.8435ZM432.005 89.2243C428.079 91.0088 423.652 91.92 418.688 91.92V95.92C424.151 95.92 429.153 94.9146 433.661 92.8657L432.005 89.2243ZM418.688 91.92C412.694 91.92 407.435 90.6435 402.858 88.1403L400.938 91.6497C406.174 94.5131 412.108 95.92 418.688 95.92V91.92ZM402.858 88.1403C398.29 85.6423 394.728 82.0844 392.147 77.426L388.648 79.364C391.588 84.6723 395.693 88.7811 400.938 91.6497L402.858 88.1403ZM392.147 77.426C389.578 72.7863 388.258 67.3042 388.258 60.915H384.258C384.258 67.8658 385.698 74.037 388.648 79.364L392.147 77.426ZM388.258 60.915C388.258 54.5169 389.543 49.0272 392.044 44.3832L388.522 42.4868C385.656 47.8095 384.258 53.9731 384.258 60.915H388.258ZM392.032 44.404C394.613 39.7456 398.175 36.1877 402.743 33.6897L400.823 30.1803C395.578 33.0489 391.473 37.1577 388.533 42.466L392.032 44.404ZM402.743 33.6897C407.316 31.1884 412.613 29.91 418.688 29.91V25.91C412.036 25.91 406.063 27.3149 400.823 30.1803L402.743 33.6897ZM418.688 29.91C424.61 29.91 429.796 31.1506 434.298 33.58L436.198 30.06C431.039 27.2761 425.185 25.91 418.688 25.91V29.91ZM434.298 33.58C438.79 36.0041 442.27 39.4476 444.77 43.9463L448.266 42.0037C445.399 36.8423 441.366 32.8492 436.198 30.06L434.298 33.58ZM444.781 43.9673C447.343 48.4503 448.658 53.7326 448.658 59.88H452.658C452.658 53.1474 451.213 47.1597 448.254 41.9827L444.781 43.9673ZM432.533 54.705C432.533 50.8222 431.182 47.5607 428.393 45.1436L425.773 48.1664C427.584 49.7359 428.533 51.8412 428.533 54.705H432.533ZM428.393 45.1436C425.681 42.793 422.321 41.665 418.458 41.665V45.665C421.495 45.665 423.885 46.5303 425.773 48.1664L428.393 45.1436ZM418.458 41.665C414.744 41.665 411.479 42.7565 408.783 45.0036L411.343 48.0764C413.247 46.4902 415.579 45.665 418.458 45.665V41.665ZM408.757 45.0252C406.099 47.3168 404.538 50.5115 403.946 54.4041L407.9 55.0059C408.381 51.8452 409.58 49.5965 411.369 48.0548L408.757 45.0252ZM405.923 56.705H430.533V52.705H405.923V56.705ZM475.637 91.045L476.44 89.2134L475.637 91.045ZM465.287 83.225L463.687 84.425L463.694 84.4339L463.701 84.4426L465.287 83.225ZM461.032 71.955V69.955H458.879L459.038 72.1027L461.032 71.955ZM480.467 71.955L482.457 71.7492L482.271 69.955H480.467V71.955ZM483.572 77.36L484.772 75.76L483.572 77.36ZM495.992 78.05L497.146 79.6839L497.154 79.6777L497.163 79.6714L495.992 78.05ZM495.187 70.23L494.322 72.033L494.351 72.0473L494.382 72.0606L495.187 70.23ZM485.872 67.24L486.357 65.2997L486.342 65.2959L486.327 65.2923L485.872 67.24ZM474.372 63.905L473.629 65.7619L473.65 65.77L473.67 65.7777L474.372 63.905ZM466.437 58.27L464.915 59.5679L464.925 59.5791L464.935 59.5902L466.437 58.27ZM466.092 37.8L464.434 36.681L464.428 36.6906L466.092 37.8ZM475.062 30.555L474.253 28.7259L474.247 28.7288L474.24 28.7318L475.062 30.555ZM508.182 33.89L506.872 35.4014L506.878 35.4067L506.885 35.412L508.182 33.89ZM516.232 49.76V51.76H518.452L518.221 49.5518L516.232 49.76ZM498.062 49.76L496.081 50.0333L496.319 51.76H498.062V49.76ZM495.072 44.47L493.814 46.0245L493.831 46.0387L493.849 46.0526L495.072 44.47ZM483.342 43.895L484.475 45.5431L484.509 45.5197L484.542 45.495L483.342 43.895ZM484.377 51.6L483.512 53.403L483.525 53.4096L483.539 53.4159L484.377 51.6ZM493.577 54.36L494.077 52.4234L494.044 52.415L494.011 52.4076L493.577 54.36ZM505.192 58.04L504.433 59.8903L504.454 59.8987L504.474 59.9067L505.192 58.04ZM513.012 63.79L511.472 65.066L511.492 65.09L511.512 65.1132L513.012 63.79ZM516.577 74.37H518.577V74.3528L518.577 74.3355L516.577 74.37ZM513.357 84.49L511.732 83.3236L511.727 83.3316L513.357 84.49ZM504.272 91.39L503.493 89.548L503.48 89.5536L504.272 91.39ZM490.587 91.92C485.22 91.92 480.517 91.0015 476.44 89.2134L474.834 92.8766C479.497 94.9218 484.761 95.92 490.587 95.92V91.92ZM476.44 89.2134C472.333 87.4118 469.17 84.9993 466.874 82.0074L463.701 84.4426C466.464 88.0441 470.201 90.8448 474.834 92.8766L476.44 89.2134ZM466.887 82.025C464.583 78.9524 463.305 75.5597 463.027 71.8073L459.038 72.1027C459.373 76.6303 460.932 80.7509 463.687 84.425L466.887 82.025ZM461.032 73.955H480.467V69.955H461.032V73.955ZM478.478 72.1608C478.767 74.9565 480.101 77.2566 482.372 78.96L484.772 75.76C483.363 74.7034 482.627 73.4002 482.457 71.7492L478.478 72.1608ZM482.372 78.96C484.614 80.6412 487.316 81.43 490.357 81.43V77.43C488.032 77.43 486.211 76.8388 484.772 75.76L482.372 78.96ZM490.357 81.43C493.016 81.43 495.368 80.9389 497.146 79.6839L494.839 76.4161C494.01 77.0011 492.605 77.43 490.357 77.43V81.43ZM497.163 79.6714C498.997 78.3467 500.062 76.5084 500.062 74.255H496.062C496.062 75.0683 495.747 75.76 494.821 76.4286L497.163 79.6714ZM500.062 74.255C500.062 72.9687 499.72 71.7552 498.971 70.7063C498.233 69.6738 497.192 68.9273 495.993 68.3994L494.382 72.0606C495.098 72.376 495.495 72.722 495.716 73.0312C495.925 73.3239 496.062 73.7013 496.062 74.255H500.062ZM496.053 68.4269C493.943 67.4144 490.673 66.3786 486.357 65.2997L485.387 69.1803C489.658 70.2481 492.598 71.2056 494.322 72.033L496.053 68.4269ZM486.327 65.2923C481.777 64.2308 478.033 63.142 475.074 62.0323L473.67 65.7777C476.844 66.968 480.767 68.1025 485.418 69.1877L486.327 65.2923ZM475.115 62.048C472.346 60.9405 469.96 59.2485 467.939 56.9498L464.935 59.5902C467.361 62.3515 470.265 64.4162 473.629 65.7619L475.115 62.048ZM467.959 56.9721C466.121 54.818 465.102 51.8336 465.102 47.805H461.102C461.102 52.5164 462.306 56.5087 464.915 59.5679L467.959 56.9721ZM465.102 47.805C465.102 44.5098 465.987 41.5626 467.756 38.9094L464.428 36.6906C462.21 40.0174 461.102 43.7402 461.102 47.805H465.102ZM467.75 38.9189C469.581 36.2064 472.258 34.0136 475.884 32.3782L474.24 28.7318C470.046 30.623 466.743 33.2603 464.434 36.6811L467.75 38.9189ZM475.871 32.3841C479.548 30.7578 483.975 29.91 489.207 29.91V25.91C483.552 25.91 478.55 26.8256 474.253 28.7259L475.871 32.3841ZM489.207 29.91C496.933 29.91 502.739 31.8196 506.872 35.4014L509.492 32.3786C504.425 27.9871 497.581 25.91 489.207 25.91V29.91ZM506.885 35.412C511.138 39.038 513.602 43.8412 514.243 49.9682L518.221 49.5518C517.482 42.4921 514.579 36.7153 509.48 32.368L506.885 35.412ZM516.232 47.76L498.062 47.76V51.76L516.232 51.76V47.76ZM500.043 49.4867C499.669 46.7749 498.42 44.5294 496.295 42.8874L493.849 46.0526C495.098 47.0173 495.842 48.2984 496.081 50.0333L500.043 49.4867ZM496.331 42.9155C494.271 41.2481 491.637 40.515 488.632 40.515V44.515C490.994 44.515 492.653 45.0852 493.814 46.0245L496.331 42.9155ZM488.632 40.515C486.105 40.515 483.85 41.0144 482.142 42.295L484.542 45.495C485.288 44.9356 486.559 44.515 488.632 44.515V40.515ZM482.209 42.2469C480.421 43.4766 479.502 45.2917 479.502 47.46H483.502C483.502 46.5616 483.81 46.0001 484.475 45.5431L482.209 42.2469ZM479.502 47.46C479.502 48.7471 479.844 49.9589 480.578 51.0158C481.301 52.056 482.323 52.8323 483.512 53.403L485.243 49.797C484.515 49.4477 484.1 49.074 483.864 48.7342C483.639 48.4111 483.502 48.0128 483.502 47.46H479.502ZM483.539 53.4159C485.732 54.4279 488.967 55.3844 493.143 56.3124L494.011 52.4076C489.907 51.4956 487.009 50.6121 485.215 49.7841L483.539 53.4159ZM493.077 56.2966C497.783 57.5108 501.559 58.7111 504.433 59.8903L505.951 56.1897C502.846 54.9155 498.878 53.6625 494.077 52.4234L493.077 56.2966ZM504.474 59.9067C507.116 60.9229 509.448 62.623 511.472 65.066L514.552 62.514C512.13 59.5903 509.248 57.4571 505.91 56.1733L504.474 59.9067ZM511.512 65.1132C513.418 67.2732 514.507 70.2972 514.577 74.4045L518.577 74.3355C518.494 69.5494 517.206 65.5201 514.512 62.4668L511.512 65.1132ZM514.577 74.37C514.577 77.7174 513.63 80.681 511.732 83.3236L514.982 85.6564C517.378 82.319 518.577 78.5359 518.577 74.37H514.577ZM511.727 83.3316C509.913 85.8843 507.21 87.9753 503.493 89.5481L505.051 93.2319C509.307 91.4314 512.661 88.9224 514.987 85.6484L511.727 83.3316ZM503.48 89.5536C499.87 91.111 495.588 91.92 490.587 91.92V95.92C496.013 95.92 500.855 95.0423 505.064 93.2264L503.48 89.5536Z" fill="white" mask="url(#path-1-outside-1_419_2884)"/>
</g>
</svg>
