<svg width="102" height="36" viewBox="0 0 102 36" fill="none" xmlns="http://www.w3.org/2000/svg">
<path d="M81.2134 3.8382L89.6614 2.32498V34.7562H81.2134V3.8382ZM93.5474 3.8382V34.7562H102V2.32498L93.5474 3.8382ZM69.1792 34.7562H77.6318V11.0372H69.1792V34.7562ZM13.3289 14.3904C12.2589 14.3188 9.78762 14.1621 9.78762 11.9326C9.78762 9.24639 13.3468 9.24639 14.6854 9.24639C17.0359 9.24639 20.0757 9.94032 22.2471 10.5895C22.2471 10.5895 23.4603 11.0148 24.49 11.4535L24.584 11.4804V4.12472L24.4542 4.08443C21.8934 3.18903 18.9117 2.32498 13.3871 2.32498C3.85562 2.32498 0.47998 7.87643 0.47998 12.631C0.47998 15.3709 1.65295 21.8222 12.5633 22.5654C13.4901 22.6236 15.9435 22.7624 15.9435 25.0636C15.9435 26.9618 13.9333 28.0855 10.5532 28.0855C6.85072 28.0855 3.25571 27.1409 1.07094 26.2455V33.825C4.33914 34.6801 8.01921 35.1099 12.3395 35.1099C21.6561 35.1099 25.8286 29.8584 25.8286 24.6562C25.8286 18.7555 21.1591 14.9232 13.3289 14.3949V14.3904ZM64.4202 10.688C56.6079 10.9387 52.6457 14.4442 52.6457 21.4103V34.7562H61.1699V23.8727C61.1699 19.7001 61.7161 17.9138 66.6676 17.7437V10.8133C65.8349 10.6343 64.4247 10.6925 64.4247 10.6925L64.4202 10.688ZM41.4936 11.0103C41.3056 11.4849 39.9535 15.3037 36.6808 19.2659V2.32498L27.9597 4.04861V34.7562H36.6808V25.265C39.2059 29.0525 40.4549 34.7562 40.4549 34.7562H50.8997C49.8655 30.4628 45.3483 22.5385 45.3483 22.5385C49.4044 17.3945 51.1863 11.9147 51.4683 11.0058H41.4936V11.0103ZM73.41 8.76287C75.7111 8.76287 77.578 6.90045 77.578 4.59928C77.578 2.29811 75.7111 0.431213 73.41 0.431213C71.1088 0.431213 69.2464 2.29811 69.2464 4.59928C69.2464 6.90045 71.1133 8.76287 73.41 8.76287Z" fill="#862165"/>
</svg>
