<svg width="16" height="16" viewBox="0 0 16 16" fill="none" xmlns="http://www.w3.org/2000/svg">
<path fill-rule="evenodd" clip-rule="evenodd" d="M13.2977 2.8759C12.9188 2.9433 12.3816 3.11961 11.5214 3.40633L5.03042 5.56999C4.20303 5.84579 3.61927 6.0407 3.19936 6.20454C2.99169 6.28556 2.84706 6.35029 2.74649 6.40335C2.6613 6.44829 2.63068 6.47305 2.62886 6.47431C2.223 6.86721 2.223 7.51826 2.62886 7.91116C2.63068 7.91243 2.6613 7.93719 2.74649 7.98213C2.84706 8.03518 2.99169 8.09991 3.19936 8.18094C3.61927 8.34477 4.20303 8.53969 5.03042 8.81548C5.04942 8.82182 5.06825 8.82808 5.08693 8.83429C5.36031 8.92522 5.60033 9.00505 5.82129 9.12191C6.35376 9.40351 6.78913 9.83889 7.07074 10.3714C7.1876 10.5923 7.26743 10.8324 7.35836 11.1057C7.36457 11.1244 7.37083 11.1432 7.37716 11.1622C7.65296 11.9896 7.84787 12.5734 8.01171 12.9933C8.09273 13.201 8.15746 13.3456 8.21052 13.4462C8.25546 13.5313 8.28022 13.562 8.28148 13.5638C8.67438 13.9696 9.32543 13.9696 9.71833 13.5638C9.7196 13.562 9.74436 13.5313 9.7893 13.4462C9.84235 13.3456 9.90708 13.201 9.98811 12.9933C10.1519 12.5734 10.3469 11.9896 10.6227 11.1622L12.7863 4.67124C13.073 3.81107 13.2493 3.27384 13.3167 2.89494C13.3182 2.88705 13.3195 2.87938 13.3207 2.87191C13.3133 2.87317 13.3056 2.8745 13.2977 2.8759ZM13.5567 2.85279C13.5565 2.85297 13.5532 2.8527 13.5474 2.85143C13.554 2.85197 13.5569 2.8526 13.5567 2.85279ZM13.3412 2.6452C13.3399 2.63946 13.3397 2.63618 13.3399 2.63597C13.34 2.63576 13.3407 2.63863 13.3412 2.6452ZM12.9474 0.906812C13.4984 0.808795 14.2529 0.779608 14.833 1.35966C15.413 1.93972 15.3839 2.69423 15.2858 3.24522C15.1895 3.78665 14.9631 4.46577 14.7076 5.23206L14.6837 5.3037L12.52 11.7947L12.5106 11.8229C12.2463 12.6157 12.0357 13.2477 11.8513 13.7202C11.678 14.1644 11.4725 14.6248 11.163 14.9469C9.98256 16.1753 8.01725 16.1753 6.83678 14.9469C6.5273 14.6248 6.32181 14.1644 6.1485 13.7202C5.96413 13.2477 5.7535 12.6158 5.48924 11.823L5.4798 11.7947C5.3594 11.4335 5.33228 11.3622 5.30276 11.3064C5.20889 11.1289 5.06377 10.9838 4.88627 10.8899C4.83046 10.8604 4.75917 10.8333 4.39797 10.7129L4.36964 10.7034C3.57685 10.4391 2.94494 10.2285 2.4724 10.0441C2.02821 9.87083 1.56784 9.66535 1.24579 9.35587C0.0173527 8.17539 0.0173527 6.21008 1.24579 5.02961C1.56784 4.72013 2.02821 4.51464 2.4724 4.34134C2.94496 4.15696 3.5769 3.94631 4.36972 3.68204L4.39797 3.67263L10.889 1.50897C10.9129 1.50098 10.9368 1.49302 10.9606 1.48509C11.7269 1.22958 12.406 1.00313 12.9474 0.906812Z" fill="black"/>
</svg>
