<svg width="16" height="16" viewBox="0 0 16 16" fill="none" xmlns="http://www.w3.org/2000/svg">
<path fill-rule="evenodd" clip-rule="evenodd" d="M13.2977 2.68327C12.9188 2.75068 12.3816 2.92698 11.5214 3.2137L5.03042 5.37737C4.20303 5.65316 3.61927 5.84808 3.19936 6.01191C2.99169 6.09294 2.84706 6.15767 2.74649 6.21072C2.6613 6.25566 2.63068 6.28042 2.62886 6.28169C2.223 6.67459 2.223 7.32564 2.62886 7.71854C2.63068 7.7198 2.6613 7.74456 2.74649 7.7895C2.84706 7.84256 2.99169 7.90729 3.19936 7.98831C3.61927 8.15215 4.20303 8.34706 5.03042 8.62286C5.04942 8.62919 5.06825 8.63545 5.08693 8.64167C5.36031 8.73259 5.60033 8.81242 5.82129 8.92928C6.35376 9.21088 6.78913 9.64626 7.07074 10.1787C7.1876 10.3997 7.26743 10.6397 7.35836 10.9131C7.36457 10.9318 7.37083 10.9506 7.37716 10.9696C7.65296 11.797 7.84787 12.3808 8.01171 12.8007C8.09273 13.0083 8.15746 13.153 8.21052 13.2535C8.25546 13.3387 8.28022 13.3693 8.28148 13.3712C8.67438 13.777 9.32543 13.777 9.71833 13.3712C9.7196 13.3693 9.74436 13.3387 9.7893 13.2535C9.84235 13.153 9.90708 13.0083 9.98811 12.8007C10.1519 12.3808 10.3469 11.797 10.6227 10.9696L12.7863 4.47862C13.073 3.61844 13.2493 3.08122 13.3167 2.70231C13.3182 2.69443 13.3195 2.68675 13.3207 2.67928C13.3133 2.68054 13.3056 2.68187 13.2977 2.68327ZM13.5567 2.66016C13.5565 2.66034 13.5532 2.66007 13.5474 2.6588C13.554 2.65934 13.5569 2.65998 13.5567 2.66016ZM13.3412 2.45257C13.3399 2.44683 13.3397 2.44355 13.3399 2.44334C13.34 2.44314 13.3407 2.446 13.3412 2.45257ZM12.9474 0.714185C13.4984 0.616168 14.2529 0.586981 14.833 1.16704C15.413 1.74709 15.3839 2.5016 15.2858 3.0526C15.1895 3.59403 14.9631 4.27315 14.7076 5.03943L14.6837 5.11107L12.52 11.6021L12.5106 11.6303C12.2463 12.4231 12.0357 13.0551 11.8513 13.5276C11.678 13.9718 11.4725 14.4322 11.163 14.7542C9.98256 15.9827 8.01725 15.9827 6.83678 14.7542C6.5273 14.4322 6.32181 13.9718 6.1485 13.5276C5.96413 13.0551 5.7535 12.4232 5.48924 11.6304L5.4798 11.6021C5.3594 11.2409 5.33228 11.1696 5.30276 11.1137C5.20889 10.9363 5.06377 10.7911 4.88627 10.6973C4.83046 10.6677 4.75917 10.6406 4.39797 10.5202L4.36964 10.5108C3.57685 10.2465 2.94494 10.0359 2.4724 9.85151C2.02821 9.67821 1.56784 9.47272 1.24579 9.16324C0.0173527 7.98277 0.0173527 6.01746 1.24579 4.83698C1.56784 4.52751 2.02821 4.32202 2.4724 4.14871C2.94496 3.96433 3.5769 3.75369 4.36972 3.48941L4.39797 3.48L10.889 1.31634C10.9129 1.30835 10.9368 1.30039 10.9606 1.29246C11.7269 1.03695 12.406 0.810502 12.9474 0.714185Z" fill="white"/>
</svg>
