<svg width="798" height="94" viewBox="0 0 798 94" fill="none" xmlns="http://www.w3.org/2000/svg">
<g opacity="0.09">
<mask id="path-1-outside-1_419_2952" maskUnits="userSpaceOnUse" x="-2" y="-2" width="802" height="98" fill="black">
<rect fill="white" x="-2" y="-2" width="802" height="98"/>
<path d="M63.205 12.27V28.025H41.815L41.815 93H22.15L22.15 28.025H0.76L0.76 12.27L63.205 12.27ZM137.014 59.88C137.014 61.72 136.899 63.6367 136.669 65.63H92.1643C92.471 69.6167 93.736 72.6833 95.9593 74.83C98.2593 76.9 101.058 77.935 104.354 77.935C109.261 77.935 112.673 75.865 114.589 71.725H135.519C134.446 75.9417 132.491 79.7367 129.654 83.11C126.894 86.4833 123.406 89.1283 119.189 91.045C114.973 92.9617 110.258 93.92 105.044 93.92C98.7577 93.92 93.161 92.5783 88.2543 89.895C83.3477 87.2117 79.5143 83.3783 76.7543 78.395C73.9943 73.4117 72.6143 67.585 72.6143 60.915C72.6143 54.245 73.956 48.4183 76.6393 43.435C79.3993 38.4517 83.2327 34.6183 88.1393 31.935C93.046 29.2517 98.681 27.91 105.044 27.91C111.254 27.91 116.774 29.2133 121.604 31.82C126.434 34.4267 130.191 38.145 132.874 42.975C135.634 47.805 137.014 53.44 137.014 59.88ZM116.889 54.705C116.889 51.3317 115.739 48.6483 113.439 46.655C111.139 44.6617 108.264 43.665 104.814 43.665C101.518 43.665 98.7193 44.6233 96.4193 46.54C94.196 48.4567 92.816 51.1783 92.2793 54.705L116.889 54.705ZM176.944 93.92C171.347 93.92 166.364 92.9617 161.994 91.045C157.624 89.1283 154.174 86.5217 151.644 83.225C149.114 79.8517 147.695 76.095 147.389 71.955H166.824C167.054 74.1783 168.089 75.98 169.929 77.36C171.769 78.74 174.03 79.43 176.714 79.43C179.167 79.43 181.045 78.97 182.349 78.05C183.729 77.0533 184.419 75.7883 184.419 74.255C184.419 72.415 183.46 71.0733 181.544 70.23C179.627 69.31 176.522 68.3133 172.229 67.24C167.629 66.1667 163.795 65.055 160.729 63.905C157.662 62.6783 155.017 60.8 152.794 58.27C150.57 55.6633 149.459 52.175 149.459 47.805C149.459 44.125 150.455 40.79 152.449 37.8C154.519 34.7333 157.509 32.3183 161.419 30.555C165.405 28.7917 170.12 27.91 175.564 27.91C183.614 27.91 189.939 29.9033 194.539 33.89C199.215 37.8767 201.899 43.1667 202.589 49.76H184.419C184.112 47.5367 183.115 45.7733 181.429 44.47C179.819 43.1667 177.672 42.515 174.989 42.515C172.689 42.515 170.925 42.975 169.699 43.895C168.472 44.7383 167.859 45.9267 167.859 47.46C167.859 49.3 168.817 50.68 170.734 51.6C172.727 52.52 175.794 53.44 179.934 54.36C184.687 55.5867 188.559 56.8133 191.549 58.04C194.539 59.19 197.145 61.1067 199.369 63.79C201.669 66.3967 202.857 69.9233 202.934 74.37C202.934 78.1267 201.86 81.5 199.714 84.49C197.644 87.4033 194.615 89.7033 190.629 91.39C186.719 93.0767 182.157 93.92 176.944 93.92ZM254.18 76.325V93H244.175C237.045 93 231.486 91.275 227.5 87.825C223.513 84.2983 221.52 78.5867 221.52 70.69V45.16H213.7V28.83H221.52V13.19L241.185 13.19V28.83L254.065 28.83V45.16L241.185 45.16V70.92C241.185 72.8367 241.645 74.2167 242.565 75.06C243.485 75.9033 245.018 76.325 247.165 76.325H254.18ZM278.473 22.16C275.023 22.16 272.187 21.1633 269.963 19.17C267.817 17.1 266.743 14.57 266.743 11.58C266.743 8.51333 267.817 5.98333 269.963 3.98999C272.187 1.91999 275.023 0.884993 278.473 0.884993C281.847 0.884993 284.607 1.91999 286.753 3.98999C288.977 5.98333 290.088 8.51333 290.088 11.58C290.088 14.57 288.977 17.1 286.753 19.17C284.607 21.1633 281.847 22.16 278.473 22.16ZM288.248 28.83V93H268.583V28.83H288.248ZM387.829 28.14C395.803 28.14 402.128 30.555 406.804 35.385C411.558 40.215 413.934 46.9233 413.934 55.51V93H394.384V58.155C394.384 54.015 393.273 50.8333 391.049 48.61C388.903 46.31 385.913 45.16 382.079 45.16C378.246 45.16 375.218 46.31 372.994 48.61C370.848 50.8333 369.774 54.015 369.774 58.155V93L350.224 93V58.155C350.224 54.015 349.113 50.8333 346.889 48.61C344.743 46.31 341.753 45.16 337.919 45.16C334.086 45.16 331.058 46.31 328.834 48.61C326.688 50.8333 325.614 54.015 325.614 58.155V93H305.949V28.83L325.614 28.83V36.88C327.608 34.1967 330.214 32.0883 333.434 30.555C336.654 28.945 340.296 28.14 344.359 28.14C349.189 28.14 353.483 29.175 357.239 31.245C361.073 33.315 364.063 36.2667 366.209 40.1C368.433 36.5733 371.461 33.6983 375.294 31.475C379.128 29.2517 383.306 28.14 387.829 28.14ZM460.348 93.92C454.061 93.92 448.388 92.5783 443.328 89.895C438.344 87.2117 434.396 83.3783 431.483 78.395C428.646 73.4117 427.228 67.585 427.228 60.915C427.228 54.3217 428.684 48.5333 431.598 43.55C434.511 38.49 438.498 34.6183 443.558 31.935C448.618 29.2517 454.291 27.91 460.578 27.91C466.864 27.91 472.538 29.2517 477.598 31.935C482.658 34.6183 486.644 38.49 489.558 43.55C492.471 48.5333 493.928 54.3217 493.928 60.915C493.928 67.5083 492.433 73.335 489.443 78.395C486.529 83.3783 482.504 87.2117 477.368 89.895C472.308 92.5783 466.634 93.92 460.348 93.92ZM460.348 76.9C464.104 76.9 467.286 75.52 469.893 72.76C472.576 70 473.918 66.0517 473.918 60.915C473.918 55.7783 472.614 51.83 470.008 49.07C467.478 46.31 464.334 44.93 460.578 44.93C456.744 44.93 453.563 46.31 451.033 49.07C448.503 51.7533 447.238 55.7017 447.238 60.915C447.238 66.0517 448.464 70 450.918 72.76C453.448 75.52 456.591 76.9 460.348 76.9ZM546.91 28.14C554.424 28.14 560.404 30.5933 564.85 35.5C569.374 40.33 571.635 47 571.635 55.51V93H552.085V58.155C552.085 53.8617 550.974 50.5267 548.75 48.15C546.527 45.7733 543.537 44.585 539.78 44.585C536.024 44.585 533.034 45.7733 530.81 48.15C528.587 50.5267 527.475 53.8617 527.475 58.155V93H507.81V28.83H527.475V37.34C529.469 34.5033 532.152 32.28 535.525 30.67C538.899 28.9833 542.694 28.14 546.91 28.14ZM598.64 22.16C595.19 22.16 592.354 21.1633 590.13 19.17C587.984 17.1 586.91 14.57 586.91 11.58C586.91 8.51333 587.984 5.98333 590.13 3.98999C592.354 1.91999 595.19 0.884993 598.64 0.884993C602.014 0.884993 604.774 1.91999 606.92 3.98999C609.144 5.98333 610.255 8.51333 610.255 11.58C610.255 14.57 609.144 17.1 606.92 19.17C604.774 21.1633 602.014 22.16 598.64 22.16ZM608.415 28.83V93H588.75V28.83H608.415ZM622.207 60.8C622.207 54.2067 623.433 48.4183 625.887 43.435C628.417 38.4517 631.828 34.6183 636.122 31.935C640.415 29.2517 645.207 27.91 650.497 27.91C655.02 27.91 658.968 28.83 662.342 30.67C665.792 32.51 668.437 34.925 670.277 37.915V28.83L689.942 28.83V93H670.277V83.915C668.36 86.905 665.677 89.32 662.227 91.16C658.853 93 654.905 93.92 650.382 93.92C645.168 93.92 640.415 92.5783 636.122 89.895C631.828 87.135 628.417 83.2633 625.887 78.28C623.433 73.22 622.207 67.3933 622.207 60.8ZM670.277 60.915C670.277 56.0083 668.897 52.1367 666.137 49.3C663.453 46.4633 660.157 45.045 656.247 45.045C652.337 45.045 649.002 46.4633 646.242 49.3C643.558 52.06 642.217 55.8933 642.217 60.8C642.217 65.7067 643.558 69.6167 646.242 72.53C649.002 75.3667 652.337 76.785 656.247 76.785C660.157 76.785 663.453 75.3667 666.137 72.53C668.897 69.6933 670.277 65.8217 670.277 60.915ZM727.283 7.9V93H707.618V7.9L727.283 7.9ZM771.089 93.92C765.493 93.92 760.509 92.9617 756.139 91.045C751.769 89.1283 748.319 86.5217 745.789 83.225C743.259 79.8517 741.841 76.095 741.534 71.955H760.969C761.199 74.1783 762.234 75.98 764.074 77.36C765.914 78.74 768.176 79.43 770.859 79.43C773.313 79.43 775.191 78.97 776.494 78.05C777.874 77.0533 778.564 75.7883 778.564 74.255C778.564 72.415 777.606 71.0733 775.689 70.23C773.773 69.31 770.668 68.3133 766.374 67.24C761.774 66.1667 757.941 65.055 754.874 63.905C751.808 62.6783 749.163 60.8 746.939 58.27C744.716 55.6633 743.604 52.175 743.604 47.805C743.604 44.125 744.601 40.79 746.594 37.8C748.664 34.7333 751.654 32.3183 755.564 30.555C759.551 28.7917 764.266 27.91 769.709 27.91C777.759 27.91 784.084 29.9033 788.684 33.89C793.361 37.8767 796.044 43.1667 796.734 49.76H778.564C778.258 47.5367 777.261 45.7733 775.574 44.47C773.964 43.1667 771.818 42.515 769.134 42.515C766.834 42.515 765.071 42.975 763.844 43.895C762.618 44.7383 762.004 45.9267 762.004 47.46C762.004 49.3 762.963 50.68 764.879 51.6C766.873 52.52 769.939 53.44 774.079 54.36C778.833 55.5867 782.704 56.8133 785.694 58.04C788.684 59.19 791.291 61.1067 793.514 63.79C795.814 66.3967 797.003 69.9233 797.079 74.37C797.079 78.1267 796.006 81.5 793.859 84.49C791.789 87.4033 788.761 89.7033 784.774 91.39C780.864 93.0767 776.303 93.92 771.089 93.92Z"/>
</mask>
<path d="M63.205 12.27H65.205V10.27H63.205V12.27ZM63.205 28.025V30.025H65.205V28.025H63.205ZM41.815 28.025V26.025H39.815V28.025H41.815ZM41.815 93V95H43.815V93H41.815ZM22.15 93H20.15V95H22.15V93ZM22.15 28.025H24.15V26.025H22.15V28.025ZM0.76 28.025H-1.24L-1.24 30.025H0.76L0.76 28.025ZM0.76 12.27L0.76 10.27H-1.24L-1.24 12.27H0.76ZM61.205 12.27V28.025H65.205V12.27H61.205ZM63.205 26.025L41.815 26.025V30.025H63.205V26.025ZM39.815 28.025L39.815 93H43.815L43.815 28.025H39.815ZM41.815 91H22.15V95H41.815V91ZM24.15 93L24.15 28.025H20.15L20.15 93H24.15ZM22.15 26.025L0.76 26.025L0.76 30.025H22.15V26.025ZM2.76 28.025L2.76 12.27H-1.24L-1.24 28.025H2.76ZM0.76 14.27L63.205 14.27V10.27L0.76 10.27L0.76 14.27ZM136.669 65.63V67.63H138.452L138.656 65.8592L136.669 65.63ZM92.1643 65.63V63.63H90.0046L90.1702 65.7834L92.1643 65.63ZM95.9593 74.83L94.5701 76.2688L94.5954 76.2931L94.6214 76.3166L95.9593 74.83ZM114.589 71.725V69.725H113.311L112.774 70.8848L114.589 71.725ZM135.519 71.725L137.458 72.2184L138.092 69.725H135.519V71.725ZM129.654 83.11L128.124 81.8228L128.115 81.8331L128.106 81.8435L129.654 83.11ZM119.189 91.045L120.017 92.8657L119.189 91.045ZM88.2543 89.895L87.2947 91.6497L88.2543 89.895ZM76.7543 78.395L78.5039 77.426L76.7543 78.395ZM76.6393 43.435L74.8897 42.466L74.884 42.4764L74.8784 42.4868L76.6393 43.435ZM88.1393 31.935L89.099 33.6897L88.1393 31.935ZM121.604 31.82L120.654 33.58L121.604 31.82ZM132.874 42.975L131.126 43.9463L131.132 43.9568L131.138 43.9673L132.874 42.975ZM116.889 54.705V56.705H118.889V54.705H116.889ZM113.439 46.655L114.749 45.1436L113.439 46.655ZM96.4193 46.54L95.139 45.0036L95.1261 45.0143L95.1135 45.0252L96.4193 46.54ZM92.2793 54.705L90.3021 54.4041L89.952 56.705H92.2793V54.705ZM135.014 59.88C135.014 61.6369 134.905 63.4768 134.683 65.4008L138.656 65.8592C138.894 63.7966 139.014 61.8031 139.014 59.88H135.014ZM136.669 63.63H92.1643L92.1643 67.63H136.669V63.63ZM90.1702 65.7834C90.5031 70.111 91.9013 73.692 94.5701 76.2688L97.3485 73.3912C95.5707 71.6747 94.4389 69.1223 94.1584 65.4766L90.1702 65.7834ZM94.6214 76.3166C97.314 78.74 100.599 79.935 104.354 79.935V75.935C101.517 75.935 99.2046 75.06 97.2973 73.3434L94.6214 76.3166ZM104.354 79.935C107.09 79.935 109.547 79.3564 111.631 78.0924C113.723 76.8227 115.304 74.9427 116.404 72.5652L112.774 70.8848C111.958 72.6473 110.875 73.8723 109.556 74.6726C108.227 75.4786 106.526 75.935 104.354 75.935V79.935ZM114.589 73.725H135.519V69.725H114.589V73.725ZM133.581 71.2316C132.583 75.1525 130.769 78.6769 128.124 81.8228L131.185 84.3972C134.213 80.7964 136.309 76.7308 137.458 72.2184L133.581 71.2316ZM128.106 81.8435C125.553 84.9645 122.317 87.4265 118.362 89.2243L120.017 92.8657C124.495 90.8302 128.236 88.0022 131.202 84.3765L128.106 81.8435ZM118.362 89.2243C114.436 91.0088 110.008 91.92 105.044 91.92V95.92C110.507 95.92 115.51 94.9146 120.017 92.8657L118.362 89.2243ZM105.044 91.92C99.0507 91.92 93.7914 90.6435 89.214 88.1403L87.2947 91.6497C92.5306 94.5131 98.4646 95.92 105.044 95.92V91.92ZM89.214 88.1403C84.6462 85.6423 81.084 82.0844 78.5039 77.426L75.0048 79.364C77.9447 84.6723 82.0491 88.7811 87.2947 91.6497L89.214 88.1403ZM78.5039 77.426C75.9342 72.7863 74.6143 67.3042 74.6143 60.915H70.6143C70.6143 67.8658 72.0544 74.037 75.0048 79.364L78.5039 77.426ZM74.6143 60.915C74.6143 54.5169 75.8997 49.0272 78.4003 44.3832L74.8784 42.4868C72.0123 47.8095 70.6143 53.9731 70.6143 60.915H74.6143ZM78.3889 44.404C80.969 39.7456 84.5312 36.1877 89.099 33.6897L87.1797 30.1803C81.9341 33.0489 77.8297 37.1577 74.8897 42.466L78.3889 44.404ZM89.099 33.6897C93.6729 31.1884 98.9696 29.91 105.044 29.91V25.91C98.3924 25.91 92.4191 27.3149 87.1797 30.1803L89.099 33.6897ZM105.044 29.91C110.967 29.91 116.153 31.1506 120.654 33.58L122.554 30.06C117.396 27.2761 111.542 25.91 105.044 25.91V29.91ZM120.654 33.58C125.146 36.0041 128.627 39.4476 131.126 43.9463L134.623 42.0037C131.755 36.8424 127.723 32.8492 122.554 30.06L120.654 33.58ZM131.138 43.9673C133.7 48.4503 135.014 53.7326 135.014 59.88H139.014C139.014 53.1474 137.569 47.1597 134.611 41.9827L131.138 43.9673ZM118.889 54.705C118.889 50.8222 117.538 47.5607 114.749 45.1436L112.129 48.1664C113.941 49.7359 114.889 51.8412 114.889 54.705H118.889ZM114.749 45.1436C112.037 42.793 108.677 41.665 104.814 41.665V45.665C107.852 45.665 110.242 46.5303 112.129 48.1664L114.749 45.1436ZM104.814 41.665C101.1 41.665 97.8354 42.7565 95.139 45.0036L97.6997 48.0764C99.6032 46.4902 101.935 45.665 104.814 45.665V41.665ZM95.1135 45.0252C92.4551 47.3168 90.8945 50.5115 90.3021 54.4041L94.2566 55.0059C94.7375 51.8452 95.9369 49.5965 97.7252 48.0548L95.1135 45.0252ZM92.2793 56.705L116.889 56.705V52.705L92.2793 52.705V56.705ZM161.994 91.045L162.797 89.2134L161.994 91.045ZM151.644 83.225L150.044 84.425L150.05 84.4339L150.057 84.4426L151.644 83.225ZM147.389 71.955V69.955H145.235L145.394 72.1027L147.389 71.955ZM166.824 71.955L168.813 71.7492L168.627 69.955H166.824V71.955ZM169.929 77.36L171.129 75.76L169.929 77.36ZM182.349 78.05L183.502 79.6839L183.511 79.6777L183.52 79.6714L182.349 78.05ZM181.544 70.23L180.678 72.033L180.708 72.0473L180.738 72.0606L181.544 70.23ZM172.229 67.24L172.714 65.2997L172.698 65.2959L172.683 65.2923L172.229 67.24ZM160.729 63.905L159.986 65.7619L160.006 65.77L160.026 65.7777L160.729 63.905ZM152.794 58.27L151.272 59.5679L151.282 59.5791L151.291 59.5902L152.794 58.27ZM152.449 37.8L150.791 36.681L150.784 36.6906L152.449 37.8ZM161.419 30.555L160.61 28.7259L160.603 28.7288L160.596 28.7318L161.419 30.555ZM194.539 33.89L193.229 35.4014L193.235 35.4067L193.241 35.412L194.539 33.89ZM202.589 49.76V51.76H204.809L204.578 49.5518L202.589 49.76ZM184.419 49.76L182.437 50.0333L182.676 51.76H184.419V49.76ZM181.429 44.47L180.17 46.0245L180.188 46.0387L180.206 46.0526L181.429 44.47ZM169.699 43.895L170.832 45.5431L170.866 45.5197L170.899 45.495L169.699 43.895ZM170.734 51.6L169.868 53.403L169.882 53.4096L169.895 53.4159L170.734 51.6ZM179.934 54.36L180.433 52.4234L180.401 52.415L180.367 52.4076L179.934 54.36ZM191.549 58.04L190.789 59.8903L190.81 59.8987L190.831 59.9067L191.549 58.04ZM199.369 63.79L197.829 65.066L197.848 65.09L197.869 65.1132L199.369 63.79ZM202.934 74.37H204.934V74.3528L204.933 74.3355L202.934 74.37ZM199.714 84.49L198.089 83.3236L198.083 83.3316L199.714 84.49ZM190.629 91.39L189.849 89.548L189.836 89.5536L190.629 91.39ZM176.944 91.92C171.576 91.92 166.874 91.0015 162.797 89.2134L161.19 92.8766C165.853 94.9218 171.118 95.92 176.944 95.92V91.92ZM162.797 89.2134C158.689 87.4118 155.526 84.9993 153.23 82.0074L150.057 84.4426C152.821 88.0441 156.558 90.8448 161.19 92.8766L162.797 89.2134ZM153.244 82.025C150.939 78.9524 149.661 75.5597 149.383 71.8073L145.394 72.1027C145.729 76.6303 147.288 80.7509 150.044 84.425L153.244 82.025ZM147.389 73.955H166.824V69.955H147.389V73.955ZM164.834 72.1608C165.123 74.9565 166.457 77.2566 168.729 78.96L171.129 75.76C169.72 74.7034 168.984 73.4002 168.813 71.7492L164.834 72.1608ZM168.729 78.96C170.97 80.6412 173.672 81.43 176.714 81.43V77.43C174.388 77.43 172.567 76.8388 171.129 75.76L168.729 78.96ZM176.714 81.43C179.372 81.43 181.724 80.9389 183.502 79.6839L181.195 76.4161C180.366 77.0011 178.962 77.43 176.714 77.43V81.43ZM183.52 79.6714C185.354 78.3467 186.419 76.5084 186.419 74.255H182.419C182.419 75.0683 182.103 75.76 181.178 76.4286L183.52 79.6714ZM186.419 74.255C186.419 72.9687 186.077 71.7552 185.327 70.7063C184.59 69.6738 183.549 68.9273 182.349 68.3994L180.738 72.0606C181.455 72.376 181.852 72.722 182.072 73.0312C182.281 73.3239 182.419 73.7013 182.419 74.255H186.419ZM182.409 68.4269C180.3 67.4144 177.029 66.3786 172.714 65.2997L171.744 69.1803C176.015 70.2481 178.954 71.2056 180.678 72.033L182.409 68.4269ZM172.683 65.2923C168.134 64.2308 164.39 63.142 161.431 62.0323L160.026 65.7777C163.201 66.968 167.123 68.1025 171.774 69.1877L172.683 65.2923ZM161.471 62.048C158.702 60.9405 156.316 59.2485 154.296 56.9498L151.291 59.5902C153.718 62.3515 156.621 64.4162 159.986 65.7619L161.471 62.048ZM154.315 56.9721C152.478 54.818 151.459 51.8336 151.459 47.805H147.459C147.459 52.5164 148.663 56.5087 151.272 59.5679L154.315 56.9721ZM151.459 47.805C151.459 44.5098 152.344 41.5626 154.113 38.9094L150.784 36.6906C148.567 40.0174 147.459 43.7402 147.459 47.805H151.459ZM154.106 38.9189C155.937 36.2064 158.614 34.0136 162.241 32.3782L160.596 28.7318C156.403 30.623 153.1 33.2603 150.791 36.6811L154.106 38.9189ZM162.228 32.3841C165.904 30.7578 170.332 29.91 175.564 29.91V25.91C169.909 25.91 164.906 26.8256 160.61 28.7259L162.228 32.3841ZM175.564 29.91C183.29 29.91 189.096 31.8196 193.229 35.4014L195.848 32.3786C190.781 27.9871 183.937 25.91 175.564 25.91V29.91ZM193.241 35.412C197.495 39.038 199.958 43.8412 200.599 49.9682L204.578 49.5518C203.839 42.4921 200.936 36.7153 195.836 32.368L193.241 35.412ZM202.589 47.76H184.419V51.76H202.589V47.76ZM186.4 49.4867C186.026 46.7749 184.776 44.5294 182.651 42.8874L180.206 46.0526C181.454 47.0173 182.198 48.2984 182.437 50.0333L186.4 49.4867ZM182.687 42.9155C180.627 41.2481 177.993 40.515 174.989 40.515V44.515C177.351 44.515 179.01 45.0852 180.17 46.0245L182.687 42.9155ZM174.989 40.515C172.462 40.515 170.206 41.0144 168.499 42.295L170.899 45.495C171.644 44.9356 172.916 44.515 174.989 44.515V40.515ZM168.566 42.2469C166.777 43.4766 165.859 45.2917 165.859 47.46H169.859C169.859 46.5616 170.167 46.0001 170.832 45.5431L168.566 42.2469ZM165.859 47.46C165.859 48.7471 166.201 49.9589 166.935 51.0158C167.657 52.056 168.679 52.8323 169.868 53.403L171.599 49.797C170.871 49.4477 170.456 49.074 170.22 48.7342C169.996 48.4111 169.859 48.0128 169.859 47.46H165.859ZM169.895 53.4159C172.088 54.4279 175.324 55.3844 179.5 56.3124L180.367 52.4076C176.263 51.4956 173.366 50.6121 171.572 49.7841L169.895 53.4159ZM179.434 56.2966C184.139 57.5108 187.915 58.7111 190.789 59.8903L192.308 56.1897C189.202 54.9155 185.235 53.6625 180.433 52.4234L179.434 56.2966ZM190.831 59.9067C193.473 60.9229 195.804 62.623 197.829 65.066L200.909 62.514C198.486 59.5903 195.604 57.4571 192.267 56.1733L190.831 59.9067ZM197.869 65.1132C199.775 67.2732 200.863 70.2972 200.934 74.4045L204.933 74.3355C204.851 69.5494 203.562 65.5201 200.868 62.4668L197.869 65.1132ZM200.934 74.37C200.934 77.7174 199.986 80.681 198.089 83.3236L201.338 85.6564C203.734 82.319 204.934 78.5359 204.934 74.37H200.934ZM198.083 83.3316C196.269 85.8843 193.567 87.9753 189.849 89.5481L191.408 93.2319C195.664 91.4314 199.018 88.9224 201.344 85.6484L198.083 83.3316ZM189.836 89.5536C186.226 91.111 181.944 91.92 176.944 91.92V95.92C182.37 95.92 187.211 95.0423 191.421 93.2264L189.836 89.5536ZM254.18 76.325H256.18V74.325H254.18V76.325ZM254.18 93V95H256.18V93H254.18ZM227.5 87.825L226.174 89.323L226.183 89.3302L226.191 89.3373L227.5 87.825ZM221.52 45.16H223.52V43.16H221.52V45.16ZM213.7 45.16H211.7V47.16H213.7V45.16ZM213.7 28.83V26.83H211.7V28.83H213.7ZM221.52 28.83V30.83H223.52V28.83H221.52ZM221.52 13.19V11.19H219.52V13.19H221.52ZM241.185 13.19H243.185V11.19H241.185V13.19ZM241.185 28.83H239.185V30.83H241.185V28.83ZM254.065 28.83H256.065V26.83H254.065V28.83ZM254.065 45.16V47.16H256.065V45.16H254.065ZM241.185 45.16V43.16H239.185V45.16H241.185ZM242.565 75.06L241.213 76.5343L242.565 75.06ZM252.18 76.325V93H256.18V76.325H252.18ZM254.18 91H244.175V95H254.18V91ZM244.175 91C237.355 91 232.321 89.3521 228.808 86.3127L226.191 89.3373C230.652 93.1979 236.734 95 244.175 95V91ZM228.825 86.327C225.44 83.3328 223.52 78.2941 223.52 70.69H219.52C219.52 78.8792 221.586 85.2638 226.174 89.323L228.825 86.327ZM223.52 70.69V45.16H219.52V70.69H223.52ZM221.52 43.16H213.7V47.16H221.52V43.16ZM215.7 45.16V28.83H211.7V45.16H215.7ZM213.7 30.83H221.52V26.83H213.7V30.83ZM223.52 28.83V13.19H219.52V28.83H223.52ZM221.52 15.19L241.185 15.19V11.19L221.52 11.19V15.19ZM239.185 13.19V28.83H243.185V13.19H239.185ZM241.185 30.83L254.065 30.83V26.83H241.185V30.83ZM252.065 28.83V45.16H256.065V28.83H252.065ZM254.065 43.16L241.185 43.16V47.16L254.065 47.16V43.16ZM239.185 45.16V70.92H243.185V45.16H239.185ZM239.185 70.92C239.185 73.0993 239.702 75.1492 241.213 76.5343L243.916 73.5857C243.587 73.2841 243.185 72.5741 243.185 70.92H239.185ZM241.213 76.5343C242.69 77.8877 244.849 78.325 247.165 78.325V74.325C245.187 74.325 244.28 73.919 243.916 73.5857L241.213 76.5343ZM247.165 78.325H254.18V74.325H247.165V78.325ZM269.963 19.17L268.575 20.6097L268.601 20.6349L268.628 20.6591L269.963 19.17ZM269.963 3.98999L271.324 5.45558L271.326 5.45378L269.963 3.98999ZM286.753 3.98999L285.365 5.42968L285.391 5.45489L285.418 5.47913L286.753 3.98999ZM286.753 19.17L288.114 20.6356L288.116 20.6338L286.753 19.17ZM288.248 28.83H290.248V26.83H288.248V28.83ZM288.248 93V95H290.248V93H288.248ZM268.583 93H266.583V95H268.583V93ZM268.583 28.83V26.83H266.583V28.83H268.583ZM278.473 20.16C275.435 20.16 273.098 19.2946 271.298 17.6809L268.628 20.6591C271.275 23.0321 274.612 24.16 278.473 24.16V20.16ZM271.352 17.7303C269.597 16.0384 268.743 14.0286 268.743 11.58H264.743C264.743 15.1114 266.036 18.1616 268.575 20.6097L271.352 17.7303ZM268.743 11.58C268.743 9.0401 269.606 7.05096 271.324 5.45558L268.602 2.52441C266.027 4.9157 264.743 7.98656 264.743 11.58H268.743ZM271.326 5.45378C273.129 3.77565 275.455 2.88499 278.473 2.88499V-1.11501C274.591 -1.11501 271.245 0.0643382 268.6 2.52621L271.326 5.45378ZM278.473 2.88499C281.402 2.88499 283.641 3.76719 285.365 5.42968L288.142 2.55031C285.572 0.0728011 282.291 -1.11501 278.473 -1.11501V2.88499ZM285.418 5.47913C287.206 7.08159 288.088 9.06415 288.088 11.58H292.088C292.088 7.96251 290.748 4.88507 288.088 2.50086L285.418 5.47913ZM288.088 11.58C288.088 14.0048 287.215 16.0077 285.39 17.7062L288.116 20.6338C290.738 18.1923 292.088 15.1352 292.088 11.58H288.088ZM285.392 17.7044C283.672 19.3022 281.424 20.16 278.473 20.16V24.16C282.269 24.16 285.542 23.0244 288.114 20.6356L285.392 17.7044ZM286.248 28.83V93H290.248V28.83H286.248ZM288.248 91H268.583V95H288.248V91ZM270.583 93V28.83H266.583V93H270.583ZM268.583 30.83H288.248V26.83L268.583 26.83V30.83ZM406.804 35.385L405.368 36.7762L405.373 36.7821L405.379 36.7878L406.804 35.385ZM413.934 93V95H415.934V93H413.934ZM394.384 93H392.384V95H394.384V93ZM391.049 48.61L389.587 49.9746L389.611 49.9998L389.635 50.0242L391.049 48.61ZM372.994 48.61L371.556 47.22L371.556 47.2208L372.994 48.61ZM369.774 93V95H371.774V93H369.774ZM350.224 93H348.224V95H350.224V93ZM346.889 48.61L345.427 49.9746L345.451 49.9998L345.475 50.0242L346.889 48.61ZM328.834 48.61L327.396 47.22L327.396 47.2208L328.834 48.61ZM325.614 93V95H327.614V93H325.614ZM305.949 93H303.949V95H305.949V93ZM305.949 28.83V26.83L303.949 26.83V28.83H305.949ZM325.614 28.83H327.614V26.83H325.614V28.83ZM325.614 36.88H323.614V42.9262L327.22 38.0726L325.614 36.88ZM333.434 30.555L334.294 32.3607L334.312 32.3524L334.329 32.3438L333.434 30.555ZM357.239 31.245L356.274 32.9967L356.282 33.0008L356.289 33.0048L357.239 31.245ZM366.209 40.1L364.464 41.0772L366.108 44.0116L367.901 41.1666L366.209 40.1ZM387.829 30.14C395.37 30.14 401.137 32.4071 405.368 36.7762L408.241 33.9938C403.118 28.7029 396.236 26.14 387.829 26.14V30.14ZM405.379 36.7878C409.672 41.1506 411.934 47.3012 411.934 55.51H415.934C415.934 46.5455 413.443 39.2794 408.23 33.9821L405.379 36.7878ZM411.934 55.51V93H415.934V55.51H411.934ZM413.934 91H394.384V95H413.934V91ZM396.384 93V58.155L392.384 58.155V93H396.384ZM396.384 58.155C396.384 53.6589 395.169 49.9017 392.464 47.1958L389.635 50.0242C391.376 51.765 392.384 54.3711 392.384 58.155L396.384 58.155ZM392.511 47.2454C389.906 44.4537 386.337 43.16 382.079 43.16V47.16C385.489 47.16 387.899 48.1663 389.587 49.9746L392.511 47.2454ZM382.079 43.16C377.82 43.16 374.23 44.4541 371.556 47.22L374.432 50C376.205 48.1659 378.672 47.16 382.079 47.16V43.16ZM371.556 47.2208C368.94 49.9293 367.774 53.6773 367.774 58.155H371.774C371.774 54.3527 372.755 51.7373 374.433 49.9992L371.556 47.2208ZM367.774 58.155V93H371.774V58.155H367.774ZM369.774 91L350.224 91V95L369.774 95V91ZM352.224 93V58.155H348.224V93H352.224ZM352.224 58.155C352.224 53.6589 351.009 49.9017 348.304 47.1958L345.475 50.0242C347.216 51.765 348.224 54.3711 348.224 58.155H352.224ZM348.351 47.2454C345.746 44.4537 342.177 43.16 337.919 43.16V47.16C341.329 47.16 343.739 48.1663 345.427 49.9746L348.351 47.2454ZM337.919 43.16C333.66 43.16 330.07 44.4541 327.396 47.22L330.272 50C332.045 48.1659 334.512 47.16 337.919 47.16V43.16ZM327.396 47.2208C324.78 49.9293 323.614 53.6773 323.614 58.155H327.614C327.614 54.3527 328.595 51.7373 330.273 49.9992L327.396 47.2208ZM323.614 58.155V93H327.614V58.155H323.614ZM325.614 91H305.949V95H325.614V91ZM307.949 93V28.83H303.949V93H307.949ZM305.949 30.83L325.614 30.83V26.83H305.949V30.83ZM323.614 28.83V36.88H327.614V28.83H323.614ZM327.22 38.0726C329.005 35.669 331.349 33.7633 334.294 32.3607L332.574 28.7493C329.08 30.4134 326.21 32.7244 324.009 35.6873L327.22 38.0726ZM334.329 32.3438C337.237 30.8897 340.566 30.14 344.359 30.14V26.14C340.026 26.14 336.072 27.0003 332.54 28.7661L334.329 32.3438ZM344.359 30.14C348.895 30.14 352.849 31.1092 356.274 32.9967L358.205 29.4933C354.117 27.2408 349.484 26.14 344.359 26.14V30.14ZM356.289 33.0048C359.786 34.893 362.501 37.5718 364.464 41.0772L367.954 39.1228C365.624 34.9615 362.36 31.737 358.19 29.4852L356.289 33.0048ZM367.901 41.1666C369.941 37.9307 372.726 35.2767 376.298 33.2051L374.291 29.7449C370.196 32.12 366.924 35.216 364.517 39.0334L367.901 41.1666ZM376.298 33.2051C379.82 31.1623 383.651 30.14 387.829 30.14V26.14C382.961 26.14 378.436 27.341 374.291 29.7449L376.298 33.2051ZM443.328 89.895L442.379 91.656L442.391 91.6619L443.328 89.895ZM431.483 78.395L429.745 79.3844L429.75 79.3944L429.756 79.4044L431.483 78.395ZM431.598 43.55L433.324 44.5594L433.331 44.5479L431.598 43.55ZM443.558 31.935L444.495 33.7019L443.558 31.935ZM477.598 31.935L476.661 33.7019L477.598 31.935ZM489.558 43.55L487.824 44.548L487.831 44.5594L489.558 43.55ZM489.443 78.395L487.721 77.3775L487.716 77.3856L489.443 78.395ZM477.368 89.895L476.442 88.1223L476.431 88.1281L477.368 89.895ZM469.893 72.76L468.459 71.3658L468.449 71.3762L468.439 71.3867L469.893 72.76ZM470.008 49.07L468.533 50.4214L468.543 50.4324L468.554 50.4432L470.008 49.07ZM451.033 49.07L452.488 50.442L452.497 50.4318L452.507 50.4214L451.033 49.07ZM450.918 72.76L449.423 74.0887L449.433 74.1002L449.443 74.1115L450.918 72.76ZM460.348 91.92C454.355 91.92 449.009 90.6438 444.265 88.1281L442.391 91.6619C447.767 94.5129 453.767 95.92 460.348 95.92V91.92ZM444.276 88.1341C439.623 85.6286 435.941 82.0583 433.209 77.3856L429.756 79.4044C432.851 84.6983 437.066 88.7948 442.379 91.6559L444.276 88.1341ZM433.221 77.4056C430.582 72.7698 429.228 67.2952 429.228 60.915H425.228C425.228 67.8748 426.71 74.0535 429.745 79.3844L433.221 77.4056ZM429.228 60.915C429.228 54.6251 430.614 49.195 433.324 44.5594L429.871 42.5406C426.754 47.8717 425.228 54.0182 425.228 60.915H429.228ZM433.331 44.5479C436.06 39.8074 439.774 36.2054 444.495 33.7019L442.621 30.1681C437.221 33.0313 432.962 37.1726 429.864 42.5521L433.331 44.5479ZM444.495 33.7019C449.239 31.1862 454.585 29.91 460.578 29.91V25.91C453.997 25.91 447.997 27.3171 442.621 30.1681L444.495 33.7019ZM460.578 29.91C466.57 29.91 471.917 31.1862 476.661 33.7019L478.535 30.1681C473.159 27.3171 467.158 25.91 460.578 25.91V29.91ZM476.661 33.7019C481.381 36.2054 485.095 39.8074 487.824 44.5479L491.291 42.5521C488.194 37.1726 483.934 33.0313 478.535 30.1681L476.661 33.7019ZM487.831 44.5594C490.541 49.195 491.928 54.6251 491.928 60.915H495.928C495.928 54.0182 494.401 47.8717 491.284 42.5406L487.831 44.5594ZM491.928 60.915C491.928 67.195 490.507 72.662 487.721 77.3775L491.164 79.4125C494.358 74.008 495.928 67.8216 495.928 60.915H491.928ZM487.716 77.3856C484.993 82.0429 481.246 85.6124 476.442 88.1223L478.294 91.6677C483.762 88.811 488.065 84.7137 491.169 79.4044L487.716 77.3856ZM476.431 88.1281C471.687 90.6438 466.34 91.92 460.348 91.92V95.92C466.928 95.92 472.929 94.5129 478.305 91.6619L476.431 88.1281ZM460.348 78.9C464.661 78.9 468.367 77.2885 471.347 74.1332L468.439 71.3867C466.205 73.7515 463.547 74.9 460.348 74.9V78.9ZM471.327 74.1542C474.481 70.9096 475.918 66.3933 475.918 60.915H471.918C471.918 65.71 470.671 69.0904 468.459 71.3658L471.327 74.1542ZM475.918 60.915C475.918 55.4514 474.527 50.9429 471.462 47.6968L468.554 50.4432C470.701 52.7171 471.918 56.1053 471.918 60.915H475.918ZM471.482 47.7185C468.572 44.5437 464.893 42.93 460.578 42.93V46.93C463.776 46.93 466.384 48.0763 468.533 50.4214L471.482 47.7185ZM460.578 42.93C456.199 42.93 452.477 44.5342 449.558 47.7185L452.507 50.4214C454.648 48.0858 457.29 46.93 460.578 46.93V42.93ZM449.577 47.698C446.575 50.882 445.238 55.403 445.238 60.915H449.238C449.238 56.0003 450.43 52.6246 452.488 50.442L449.577 47.698ZM445.238 60.915C445.238 66.35 446.536 70.8411 449.423 74.0887L452.412 71.4313C450.393 69.1589 449.238 65.7533 449.238 60.915H445.238ZM449.443 74.1115C452.354 77.2863 456.033 78.9 460.348 78.9V74.9C457.149 74.9 454.542 73.7537 452.392 71.4085L449.443 74.1115ZM564.85 35.5L563.368 36.843L563.379 36.8552L563.391 36.8671L564.85 35.5ZM571.635 93V95H573.635V93H571.635ZM552.085 93H550.085V95H552.085V93ZM548.75 48.15L547.29 49.5163L548.75 48.15ZM530.81 48.15L532.271 49.5163L530.81 48.15ZM527.475 93V95H529.475V93H527.475ZM507.81 93H505.81V95H507.81V93ZM507.81 28.83V26.83H505.81V28.83H507.81ZM527.475 28.83H529.475V26.83H527.475V28.83ZM527.475 37.34H525.475V43.6647L529.112 38.4899L527.475 37.34ZM535.525 30.67L536.387 32.475L536.403 32.4671L536.42 32.4588L535.525 30.67ZM546.91 30.14C553.943 30.14 559.354 32.4132 563.368 36.843L566.332 34.157C561.453 28.7734 554.904 26.14 546.91 26.14V30.14ZM563.391 36.8671C567.476 41.2296 569.635 47.3573 569.635 55.51H573.635C573.635 46.6427 571.271 39.4304 566.31 34.1329L563.391 36.8671ZM569.635 55.51V93H573.635V55.51H569.635ZM571.635 91H552.085V95H571.635V91ZM554.085 93V58.155H550.085V93H554.085ZM554.085 58.155C554.085 53.5205 552.88 49.6367 550.211 46.7837L547.29 49.5163C549.067 51.4167 550.085 54.2028 550.085 58.155H554.085ZM550.211 46.7837C547.55 43.9392 543.997 42.585 539.78 42.585V46.585C543.077 46.585 545.504 47.6075 547.29 49.5163L550.211 46.7837ZM539.78 42.585C535.564 42.585 532.011 43.9392 529.35 46.7837L532.271 49.5163C534.057 47.6075 536.484 46.585 539.78 46.585V42.585ZM529.35 46.7837C526.681 49.6367 525.475 53.5205 525.475 58.155H529.475C529.475 54.2028 530.493 51.4167 532.271 49.5163L529.35 46.7837ZM525.475 58.155V93H529.475V58.155H525.475ZM527.475 91H507.81V95H527.475V91ZM509.81 93V28.83H505.81V93H509.81ZM507.81 30.83H527.475V26.83L507.81 26.83V30.83ZM525.475 28.83V37.34H529.475V28.83H525.475ZM529.112 38.4899C530.892 35.9564 533.299 33.9488 536.387 32.475L534.664 28.865C531.005 30.6112 528.045 33.0503 525.839 36.1901L529.112 38.4899ZM536.42 32.4588C539.484 30.9267 542.967 30.14 546.91 30.14V26.14C542.42 26.14 538.313 27.04 534.631 28.8811L536.42 32.4588ZM590.13 19.17L588.742 20.6097L588.768 20.6349L588.795 20.6591L590.13 19.17ZM590.13 3.98999L591.491 5.45558L591.493 5.45378L590.13 3.98999ZM606.92 3.98999L605.532 5.42968L605.558 5.45489L605.585 5.47913L606.92 3.98999ZM606.92 19.17L608.281 20.6356L608.283 20.6338L606.92 19.17ZM608.415 28.83H610.415V26.83H608.415V28.83ZM608.415 93V95H610.415V93H608.415ZM588.75 93H586.75V95H588.75V93ZM588.75 28.83V26.83H586.75V28.83H588.75ZM598.641 20.16C595.602 20.16 593.266 19.2946 591.466 17.6809L588.795 20.6591C591.442 23.0321 594.779 24.16 598.641 24.16V20.16ZM591.519 17.7303C589.764 16.0384 588.91 14.0286 588.91 11.58H584.91C584.91 15.1114 586.203 18.1616 588.742 20.6097L591.519 17.7303ZM588.91 11.58C588.91 9.0401 589.773 7.05096 591.491 5.45558L588.77 2.52441C586.194 4.9157 584.91 7.98656 584.91 11.58H588.91ZM591.493 5.45378C593.296 3.77565 595.622 2.88499 598.641 2.88499V-1.11501C594.759 -1.11501 591.412 0.0643382 588.768 2.52621L591.493 5.45378ZM598.641 2.88499C601.57 2.88499 603.808 3.76719 605.532 5.42968L608.309 2.55031C605.74 0.0728011 602.458 -1.11501 598.641 -1.11501V2.88499ZM605.585 5.47913C607.373 7.08159 608.255 9.06415 608.255 11.58H612.255C612.255 7.96251 610.915 4.88507 608.256 2.50086L605.585 5.47913ZM608.255 11.58C608.255 14.0048 607.382 16.0077 605.558 17.7062L608.283 20.6338C610.906 18.1923 612.255 15.1352 612.255 11.58H608.255ZM605.56 17.7044C603.839 19.3022 601.591 20.16 598.641 20.16V24.16C602.437 24.16 605.709 23.0244 608.281 20.6356L605.56 17.7044ZM606.415 28.83V93H610.415V28.83H606.415ZM608.415 91H588.75V95H608.415V91ZM590.75 93V28.83H586.75V93H590.75ZM588.75 30.83H608.415V26.83L588.75 26.83V30.83ZM625.887 43.435L624.103 42.5296L624.098 42.5406L624.092 42.5516L625.887 43.435ZM636.122 31.935L637.182 33.631L636.122 31.935ZM662.341 30.67L661.384 32.4258L661.392 32.4303L661.4 32.4347L662.341 30.67ZM670.276 37.915L668.573 38.9632L672.276 44.9811V37.915H670.276ZM670.276 28.83V26.83H668.276V28.83H670.276ZM689.942 28.83H691.942V26.83H689.942V28.83ZM689.942 93V95H691.942V93H689.942ZM670.276 93H668.276V95H670.276V93ZM670.276 83.915H672.276V77.089L668.593 82.8357L670.276 83.915ZM662.227 91.16L661.285 89.3953L661.277 89.3997L661.269 89.4042L662.227 91.16ZM636.122 89.895L635.04 91.5774L635.051 91.5842L635.062 91.591L636.122 89.895ZM625.887 78.28L624.087 79.1525L624.095 79.169L624.103 79.1854L625.887 78.28ZM666.137 49.3L664.684 50.6744L664.693 50.6846L664.703 50.6947L666.137 49.3ZM646.242 49.3L644.808 47.9053L644.807 47.9058L646.242 49.3ZM646.242 72.53L644.77 73.8849L644.789 73.9051L644.808 73.9247L646.242 72.53ZM666.137 72.53L664.703 71.1353L664.693 71.1454L664.684 71.1556L666.137 72.53ZM624.206 60.8C624.206 54.4562 625.386 48.9801 627.681 44.3184L624.092 42.5516C621.48 47.8566 620.206 53.9572 620.206 60.8H624.206ZM627.67 44.3404C630.053 39.6468 633.228 36.1019 637.182 33.631L635.062 30.239C630.428 33.1348 626.78 37.2566 624.103 42.5296L627.67 44.3404ZM637.182 33.631C641.142 31.1555 645.564 29.91 650.497 29.91V25.91C644.849 25.91 639.687 27.3479 635.062 30.239L637.182 33.631ZM650.497 29.91C654.745 29.91 658.352 30.7723 661.384 32.4258L663.299 28.9142C659.584 26.8877 655.295 25.91 650.497 25.91V29.91ZM661.4 32.4347C664.574 34.1272 666.94 36.3088 668.573 38.9632L671.98 36.8668C669.933 33.5412 667.009 30.8928 663.283 28.9053L661.4 32.4347ZM672.276 37.915V28.83H668.276V37.915H672.276ZM670.276 30.83L689.942 30.83V26.83H670.276V30.83ZM687.942 28.83V93H691.942V28.83H687.942ZM689.942 91H670.276V95H689.942V91ZM672.276 93V83.915H668.276V93H672.276ZM668.593 82.8357C666.879 85.509 664.464 87.6998 661.285 89.3953L663.168 92.9247C666.889 90.9402 669.841 88.301 671.96 84.9943L668.593 82.8357ZM661.269 89.4042C658.237 91.0577 654.63 91.92 650.382 91.92V95.92C655.18 95.92 659.469 94.9423 663.184 92.9158L661.269 89.4042ZM650.382 91.92C645.531 91.92 641.147 90.6775 637.182 88.199L635.062 91.591C639.682 94.4791 644.805 95.92 650.382 95.92V91.92ZM637.203 88.2126C633.236 85.6627 630.055 82.0722 627.67 77.3746L624.103 79.1854C626.778 84.4545 630.42 88.6073 635.04 91.5774L637.203 88.2126ZM627.686 77.4075C625.386 72.6625 624.206 67.1429 624.206 60.8H620.206C620.206 67.6437 621.481 73.7775 624.087 79.1525L627.686 77.4075ZM672.276 60.915C672.276 55.6191 670.776 51.2001 667.57 47.9053L664.703 50.6947C667.017 53.0732 668.276 56.3976 668.276 60.915H672.276ZM667.589 47.9256C664.528 44.689 660.705 43.045 656.247 43.045V47.045C659.608 47.045 662.379 48.2377 664.684 50.6744L667.589 47.9256ZM656.247 43.045C651.789 43.045 647.939 44.687 644.808 47.9053L647.675 50.6947C650.064 48.2397 652.884 47.045 656.247 47.045V43.045ZM644.807 47.9058C641.669 51.1341 640.216 55.5221 640.216 60.8H644.216C644.216 56.2646 645.447 52.9859 647.675 50.6942L644.807 47.9058ZM640.216 60.8C640.216 66.0833 641.671 70.5194 644.77 73.8849L647.713 71.175C645.446 68.7139 644.216 65.3301 644.216 60.8H640.216ZM644.808 73.9247C647.939 77.143 651.789 78.785 656.247 78.785V74.785C652.884 74.785 650.064 73.5903 647.675 71.1353L644.808 73.9247ZM656.247 78.785C660.705 78.785 664.528 77.141 667.589 73.9044L664.684 71.1556C662.379 73.5923 659.608 74.785 656.247 74.785V78.785ZM667.57 73.9247C670.776 70.6298 672.276 66.2109 672.276 60.915H668.276C668.276 65.4324 667.017 68.7568 664.703 71.1353L667.57 73.9247ZM727.283 7.9H729.283V5.9H727.283V7.9ZM727.283 93V95H729.283V93H727.283ZM707.618 93H705.618V95H707.618V93ZM707.618 7.9V5.9H705.618V7.9H707.618ZM725.283 7.9V93H729.283V7.9H725.283ZM727.283 91H707.618V95H727.283V91ZM709.618 93V7.9H705.618V93H709.618ZM707.618 9.9L727.283 9.9V5.9L707.618 5.9V9.9ZM756.139 91.045L756.943 89.2134L756.139 91.045ZM745.789 83.225L744.189 84.425L744.196 84.4339L744.203 84.4426L745.789 83.225ZM741.534 71.955V69.955H739.381L739.54 72.1027L741.534 71.955ZM760.969 71.955L762.959 71.7492L762.773 69.955H760.969V71.955ZM764.074 77.36L765.274 75.76L764.074 77.36ZM776.494 78.05L777.648 79.6839L777.656 79.6777L777.665 79.6714L776.494 78.05ZM775.689 70.23L774.824 72.033L774.854 72.0473L774.884 72.0606L775.689 70.23ZM766.374 67.24L766.859 65.2997L766.844 65.2959L766.829 65.2923L766.374 67.24ZM754.874 63.905L754.132 65.7619L754.152 65.77L754.172 65.7777L754.874 63.905ZM746.939 58.27L745.418 59.5679L745.427 59.5791L745.437 59.5902L746.939 58.27ZM746.594 37.8L744.937 36.681L744.93 36.6906L746.594 37.8ZM755.564 30.555L754.755 28.7259L754.749 28.7288L754.742 28.7318L755.564 30.555ZM788.684 33.89L787.374 35.4014L787.381 35.4067L787.387 35.412L788.684 33.89ZM796.734 49.76V51.76H798.955L798.723 49.5518L796.734 49.76ZM778.564 49.76L776.583 50.0333L776.821 51.76H778.564V49.76ZM775.574 44.47L774.316 46.0245L774.333 46.0387L774.351 46.0526L775.574 44.47ZM763.844 43.895L764.977 45.5431L765.011 45.5197L765.044 45.495L763.844 43.895ZM764.879 51.6L764.014 53.403L764.027 53.4096L764.041 53.4159L764.879 51.6ZM774.079 54.36L774.579 52.4234L774.546 52.415L774.513 52.4076L774.079 54.36ZM785.694 58.04L784.935 59.8903L784.956 59.8987L784.976 59.9067L785.694 58.04ZM793.514 63.79L791.974 65.066L791.994 65.09L792.015 65.1132L793.514 63.79ZM797.079 74.37H799.079V74.3528L799.079 74.3355L797.079 74.37ZM793.859 84.49L792.235 83.3236L792.229 83.3316L793.859 84.49ZM784.774 91.39L783.995 89.548L783.982 89.5536L784.774 91.39ZM771.089 91.92C765.722 91.92 761.019 91.0015 756.943 89.2134L755.336 92.8766C759.999 94.9218 765.263 95.92 771.089 95.92V91.92ZM756.943 89.2134C752.835 87.4118 749.672 84.9993 747.376 82.0074L744.203 84.4426C746.967 88.0441 750.704 90.8448 755.336 92.8766L756.943 89.2134ZM747.389 82.025C745.085 78.9524 743.807 75.5597 743.529 71.8073L739.54 72.1027C739.875 76.6303 741.434 80.7509 744.189 84.425L747.389 82.025ZM741.534 73.955H760.969V69.955H741.534V73.955ZM758.98 72.1608C759.269 74.9565 760.603 77.2566 762.874 78.96L765.274 75.76C763.866 74.7034 763.129 73.4002 762.959 71.7492L758.98 72.1608ZM762.874 78.96C765.116 80.6412 767.818 81.43 770.859 81.43V77.43C768.534 77.43 766.713 76.8388 765.274 75.76L762.874 78.96ZM770.859 81.43C773.518 81.43 775.87 80.9389 777.648 79.6839L775.341 76.4161C774.512 77.0011 773.107 77.43 770.859 77.43V81.43ZM777.665 79.6714C779.499 78.3467 780.564 76.5084 780.564 74.255H776.564C776.564 75.0683 776.249 75.76 775.323 76.4286L777.665 79.6714ZM780.564 74.255C780.564 72.9687 780.222 71.7552 779.473 70.7063C778.736 69.6738 777.695 68.9273 776.495 68.3994L774.884 72.0606C775.601 72.376 775.997 72.722 776.218 73.0312C776.427 73.3239 776.564 73.7013 776.564 74.255H780.564ZM776.555 68.4269C774.445 67.4144 771.175 66.3786 766.859 65.2997L765.889 69.1803C770.16 70.2481 773.1 71.2056 774.824 72.033L776.555 68.4269ZM766.829 65.2923C762.28 64.2308 758.536 63.142 755.577 62.0323L754.172 65.7777C757.346 66.968 761.269 68.1025 765.92 69.1877L766.829 65.2923ZM755.617 62.048C752.848 60.9405 750.462 59.2485 748.442 56.9498L745.437 59.5902C747.864 62.3515 750.767 64.4162 754.132 65.7619L755.617 62.048ZM748.461 56.9721C746.624 54.818 745.604 51.8336 745.604 47.805H741.604C741.604 52.5164 742.808 56.5087 745.418 59.5679L748.461 56.9721ZM745.604 47.805C745.604 44.5098 746.49 41.5626 748.258 38.9094L744.93 36.6906C742.712 40.0174 741.604 43.7402 741.604 47.805H745.604ZM748.252 38.9189C750.083 36.2064 752.76 34.0136 756.387 32.3782L754.742 28.7318C750.549 30.623 747.246 33.2603 744.937 36.6811L748.252 38.9189ZM756.373 32.3841C760.05 30.7578 764.477 29.91 769.709 29.91V25.91C764.055 25.91 759.052 26.8256 754.755 28.7259L756.373 32.3841ZM769.709 29.91C777.436 29.91 783.242 31.8196 787.374 35.4014L789.994 32.3786C784.927 27.9871 778.083 25.91 769.709 25.91V29.91ZM787.387 35.412C791.64 39.038 794.104 43.8412 794.745 49.9682L798.723 49.5518C797.985 42.4921 795.082 36.7153 789.982 32.368L787.387 35.412ZM796.734 47.76H778.564V51.76H796.734V47.76ZM780.546 49.4867C780.172 46.7749 778.922 44.5294 776.797 42.8874L774.351 46.0526C775.6 47.0173 776.344 48.2984 776.583 50.0333L780.546 49.4867ZM776.833 42.9155C774.773 41.2481 772.139 40.515 769.134 40.515V44.515C771.497 44.515 773.156 45.0852 774.316 46.0245L776.833 42.9155ZM769.134 40.515C766.607 40.515 764.352 41.0144 762.644 42.295L765.044 45.495C765.79 44.9356 767.061 44.515 769.134 44.515V40.515ZM762.711 42.2469C760.923 43.4766 760.004 45.2917 760.004 47.46H764.004C764.004 46.5616 764.313 46.0001 764.977 45.5431L762.711 42.2469ZM760.004 47.46C760.004 48.7471 760.346 49.9589 761.08 51.0158C761.803 52.056 762.825 52.8323 764.014 53.403L765.745 49.797C765.017 49.4477 764.602 49.074 764.366 48.7342C764.141 48.4111 764.004 48.0128 764.004 47.46H760.004ZM764.041 53.4159C766.234 54.4279 769.47 55.3844 773.645 56.3124L774.513 52.4076C770.409 51.4956 767.511 50.6121 765.717 49.7841L764.041 53.4159ZM773.58 56.2966C778.285 57.5108 782.061 58.7111 784.935 59.8903L786.453 56.1897C783.348 54.9155 779.38 53.6625 774.579 52.4234L773.58 56.2966ZM784.976 59.9067C787.619 60.9229 789.95 62.623 791.974 65.066L795.054 62.514C792.632 59.5903 789.75 57.4571 786.412 56.1733L784.976 59.9067ZM792.015 65.1132C793.92 67.2732 795.009 70.2972 795.08 74.4045L799.079 74.3355C798.997 69.5494 797.708 65.5201 795.014 62.4668L792.015 65.1132ZM795.079 74.37C795.079 77.7174 794.132 80.681 792.235 83.3236L795.484 85.6564C797.88 82.319 799.079 78.5359 799.079 74.37H795.079ZM792.229 83.3316C790.415 85.8843 787.713 87.9753 783.995 89.5481L785.554 93.2319C789.809 91.4314 793.163 88.9224 795.49 85.6484L792.229 83.3316ZM783.982 89.5536C780.372 91.111 776.09 91.92 771.089 91.92V95.92C776.516 95.92 781.357 95.0423 785.566 93.2264L783.982 89.5536Z" fill="white" mask="url(#path-1-outside-1_419_2952)"/>
</g>
</svg>
