<svg width="27" height="26" viewBox="0 0 27 26" fill="none" xmlns="http://www.w3.org/2000/svg">
<path d="M13.2568 0C6.08867 0 0.256836 5.83183 0.256836 13C0.256836 20.1676 6.08867 26 13.2568 26C20.4245 26 26.2568 20.1676 26.2568 13C26.2568 5.83183 20.4255 0 13.2568 0ZM19.0562 10.0247C19.062 10.1535 19.0651 10.2833 19.0651 10.4132C19.0651 14.3672 16.0562 18.925 10.5512 18.925C8.86136 18.925 7.28833 18.4312 5.96456 17.5819C6.19863 17.6096 6.43689 17.6238 6.67829 17.6238C8.08061 17.6238 9.37035 17.1452 10.3946 16.3429C9.08548 16.3189 7.98007 15.4538 7.59938 14.2646C7.78161 14.2992 7.9696 14.3185 8.16177 14.3185C8.43459 14.3185 8.69956 14.2829 8.95038 14.2143C7.58158 13.9399 6.55052 12.7308 6.55052 11.2804C6.55052 11.2678 6.55052 11.2547 6.55104 11.2426C6.95425 11.4662 7.41558 11.6013 7.90571 11.6165C7.10349 11.0808 6.57513 10.1645 6.57513 9.1266C6.57513 8.57782 6.72228 8.0636 6.97991 7.62165C8.45502 9.43241 10.6606 10.6232 13.1469 10.7489C13.0956 10.5294 13.0699 10.3017 13.0699 10.0665C13.0699 8.41444 14.4094 7.07444 16.0615 7.07444C16.9223 7.07444 17.6989 7.43785 18.2456 8.01909C18.9279 7.88504 19.5668 7.63683 20.1464 7.2928C19.9213 7.99186 19.4484 8.57782 18.8289 8.94856C19.4348 8.8763 20.0129 8.71606 20.5475 8.47781C20.1485 9.07686 19.6411 9.60416 19.0562 10.0247Z" fill="white"/>
</svg>
