<svg width="27" height="26" viewBox="0 0 27 26" fill="none" xmlns="http://www.w3.org/2000/svg">
<path d="M13.1274 0C10.5563 0 8.04287 0.762436 5.90503 2.19089C3.76719 3.61935 2.10095 5.64967 1.11701 8.02511C0.133074 10.4006 -0.124369 13.0144 0.377239 15.5362C0.878846 18.0579 2.11698 20.3743 3.93506 22.1924C5.75314 24.0105 8.06952 25.2486 10.5913 25.7502C13.113 26.2518 15.7269 25.9944 18.1023 25.0104C20.4778 24.0265 22.5081 22.3602 23.9365 20.2224C25.365 18.0846 26.1274 15.5712 26.1274 13C26.1274 9.55218 24.7578 6.24558 22.3198 3.80761C19.8819 1.36964 16.5753 0 13.1274 0ZM9.34718 19.8421H6.51113V10.7062H9.34718V19.8421ZM7.92744 9.45921C7.60105 9.46056 7.28159 9.36511 7.00943 9.18493C6.73727 9.00476 6.52464 8.74794 6.39841 8.44694C6.27218 8.14594 6.23802 7.81428 6.30024 7.49387C6.36247 7.17346 6.51829 6.8787 6.74801 6.64683C6.97773 6.41496 7.27103 6.2564 7.59084 6.19119C7.91066 6.12598 8.24263 6.15704 8.54479 6.28046C8.84695 6.40388 9.10574 6.61411 9.28844 6.88458C9.47115 7.15505 9.56957 7.47361 9.57126 7.8C9.57218 8.23767 9.39977 8.65789 9.09174 8.96881C8.78371 9.27973 8.3651 9.45604 7.92744 9.45921ZM19.9695 19.8421H17.1352V15.3947C17.1352 14.3342 17.1147 12.9743 15.6607 12.9743C14.2068 12.9743 13.9502 14.1272 13.9502 15.3178V19.8421H11.1261V10.7062H13.8476V11.9514H13.8869C14.2649 11.233 15.1903 10.4753 16.5707 10.4753C19.441 10.4753 19.9695 12.3671 19.9695 14.8234V19.8421Z" fill="white"/>
</svg>
