<svg width="27" height="26" viewBox="0 0 27 26" fill="none" xmlns="http://www.w3.org/2000/svg">
<path d="M13.8682 0C6.69999 0 0.868164 5.83183 0.868164 13C0.868164 20.1676 6.69999 26 13.8682 26C21.0358 26 26.8682 20.1676 26.8682 13C26.8682 5.83183 21.0369 0 13.8682 0ZM17.1011 13.4577H14.9861V20.9961H11.8521C11.8521 20.9961 11.8521 16.8771 11.8521 13.4577H10.3624V10.7934H11.8521V9.07005C11.8521 7.83582 12.4386 5.90723 15.0149 5.90723L17.3373 5.91614V8.50242C17.3373 8.50242 15.9261 8.50242 15.6517 8.50242C15.3773 8.50242 14.9872 8.63961 14.9872 9.22819V10.7939H17.375L17.1011 13.4577Z" fill="white"/>
</svg>
