<svg width="26" height="26" viewBox="0 0 26 26" fill="none" xmlns="http://www.w3.org/2000/svg">
<path d="M11.3784 15.436L15.6071 13.0005L11.3784 10.5649V15.436Z" fill="white"/>
<path d="M12.9976 0C5.81895 0 -0.00244141 5.8214 -0.00244141 13C-0.00244141 20.1786 5.81895 26 12.9976 26C20.1762 26 25.9976 20.1786 25.9976 13C25.9976 5.8214 20.1762 0 12.9976 0ZM21.1206 13.0133C21.1206 13.0133 21.1206 15.6497 20.7861 16.9211C20.5987 17.6169 20.05 18.1656 19.3541 18.3529C18.0828 18.6875 12.9976 18.6875 12.9976 18.6875C12.9976 18.6875 7.92558 18.6875 6.64098 18.3396C5.94511 18.1523 5.39644 17.6034 5.20898 16.9076C4.87434 15.6497 4.87434 13 4.87434 13C4.87434 13 4.87434 10.3637 5.20898 9.09242C5.39624 8.39656 5.9584 7.8344 6.64098 7.64714C7.91229 7.3125 12.9976 7.3125 12.9976 7.3125C12.9976 7.3125 18.0828 7.3125 19.3541 7.66043C20.05 7.84769 20.5987 8.39656 20.7861 9.09242C21.1341 10.3637 21.1206 13.0133 21.1206 13.0133Z" fill="white"/>
</svg>
