<svg width="27" height="26" viewBox="0 0 27 26" fill="none" xmlns="http://www.w3.org/2000/svg">
<path d="M15.8745 12.9998C15.8745 14.374 14.7605 15.488 13.3862 15.488C12.012 15.488 10.8979 14.374 10.8979 12.9998C10.8979 11.6255 12.012 10.5115 13.3862 10.5115C14.7605 10.5115 15.8745 11.6255 15.8745 12.9998Z" fill="white"/>
<path d="M19.2053 8.59688C19.0856 8.27275 18.8948 7.97937 18.6469 7.73856C18.4061 7.4906 18.1129 7.29977 17.7885 7.18016C17.5255 7.078 17.1304 6.95641 16.4026 6.92328C15.6153 6.88737 15.3792 6.87964 13.386 6.87964C11.3927 6.87964 11.1566 6.88718 10.3695 6.92308C9.64172 6.95641 9.24638 7.078 8.98355 7.18016C8.65923 7.29977 8.36584 7.4906 8.12523 7.73856C7.87727 7.97937 7.68645 8.27255 7.56664 8.59688C7.46448 8.85991 7.34288 9.25525 7.30975 9.98305C7.27385 10.7702 7.26611 11.0062 7.26611 12.9996C7.26611 14.9927 7.27385 15.2288 7.30975 16.0161C7.34288 16.7439 7.46448 17.139 7.56664 17.4021C7.68645 17.7264 7.87708 18.0196 8.12503 18.2604C8.36584 18.5083 8.65903 18.6992 8.98335 18.8188C9.24638 18.9211 9.64172 19.0427 10.3695 19.0759C11.1566 19.1118 11.3925 19.1193 13.3858 19.1193C15.3794 19.1193 15.6155 19.1118 16.4024 19.0759C17.1302 19.0427 17.5255 18.9211 17.7885 18.8188C18.4396 18.5677 18.9541 18.0531 19.2053 17.4021C19.3074 17.139 19.429 16.7439 19.4623 16.0161C19.4982 15.2288 19.5058 14.9927 19.5058 12.9996C19.5058 11.0062 19.4982 10.7702 19.4623 9.98305C19.4292 9.25525 19.3076 8.85991 19.2053 8.59688ZM13.386 16.8326C11.2689 16.8326 9.55266 15.1165 9.55266 12.9994C9.55266 10.8822 11.2689 9.16618 13.386 9.16618C15.503 9.16618 17.2192 10.8822 17.2192 12.9994C17.2192 15.1165 15.503 16.8326 13.386 16.8326ZM17.3708 9.91045C16.8761 9.91045 16.475 9.50935 16.475 9.01463C16.475 8.51991 16.8761 8.11882 17.3708 8.11882C17.8655 8.11882 18.2666 8.51991 18.2666 9.01463C18.2664 9.50935 17.8655 9.91045 17.3708 9.91045Z" fill="white"/>
<path d="M13.3862 0C6.20763 0 0.38623 5.8214 0.38623 13C0.38623 20.1786 6.20763 26 13.3862 26C20.5648 26 26.3862 20.1786 26.3862 13C26.3862 5.8214 20.5648 0 13.3862 0ZM20.806 16.0776C20.7699 16.8723 20.6436 17.4148 20.4591 17.8897C20.0713 18.8924 19.2786 19.6851 18.2759 20.0729C17.8012 20.2574 17.2585 20.3835 16.4641 20.4198C15.668 20.4561 15.4137 20.4648 13.3864 20.4648C11.3589 20.4648 11.1048 20.4561 10.3086 20.4198C9.51416 20.3835 8.97144 20.2574 8.49675 20.0729C7.99846 19.8854 7.54738 19.5916 7.17445 19.2118C6.79478 18.8391 6.50101 18.3878 6.31355 17.8897C6.12907 17.415 6.00272 16.8723 5.96661 16.0778C5.92992 15.2816 5.92139 15.0273 5.92139 13C5.92139 10.9727 5.92992 10.7184 5.96642 9.92238C6.00252 9.12773 6.12868 8.58521 6.31316 8.11032C6.50061 7.61223 6.79459 7.16095 7.17445 6.78822C7.54718 6.40836 7.99846 6.11458 8.49655 5.92712C8.97144 5.74265 9.51396 5.61649 10.3086 5.58018C11.1046 5.54388 11.3589 5.53516 13.3862 5.53516C15.4135 5.53516 15.6678 5.54388 16.4639 5.58038C17.2585 5.61649 17.801 5.74265 18.2759 5.92693C18.774 6.11438 19.2253 6.40836 19.5982 6.78822C19.9779 7.16115 20.2719 7.61223 20.4591 8.11032C20.6438 8.58521 20.7699 9.12773 20.8062 9.92238C20.8425 10.7184 20.8511 10.9727 20.8511 13C20.8511 15.0273 20.8425 15.2816 20.806 16.0776Z" fill="white"/>
</svg>
