<svg width="1440" height="553" viewBox="0 0 1440 553" fill="none" xmlns="http://www.w3.org/2000/svg">
<g opacity="0.4">
<path d="M1637.07 469.618C1653.05 443.106 1651.35 408.79 1639.68 380.121C1628.01 351.453 1607.55 327.335 1586.73 304.422C1559.21 274.129 1529.57 244.337 1492.48 227.025C1440.78 202.899 1380.74 205.768 1324.29 214.083C1224.06 228.849 1126.68 259.103 1031.98 295.088C930.463 333.661 826.949 379.763 718.523 373.596C621.222 368.064 554.845 320.502 484.59 259.207C419.066 202.039 364.866 128.289 283.555 90.8867C176.862 41.808 45.5362 67.0496 -49.3996 136.162C-144.335 205.275 -206.141 312.331 -241.476 424.278" stroke="#7B61FF" stroke-opacity="0.5" stroke-width="0.864782" stroke-miterlimit="10"/>
<path d="M1646.3 457.881C1660.82 434.99 1656.57 404.343 1643.01 377.45C1629.48 350.636 1608.26 327.144 1586.45 305.584C1557.75 277.201 1527.27 248.563 1489.2 232.358C1435.09 209.32 1372.39 211.468 1313.8 218.706C1213.96 231.035 1117.15 259.483 1023.23 293.238C923.329 329.145 821.847 373.513 715.284 366.677C618.078 360.441 550.418 314.461 479.449 256.376C413.051 202.285 357.87 133.483 277.272 99.3045C171.872 54.6078 43.3008 81.0982 -51.3193 148.997C-146.333 217.042 -209.709 319.327 -247.171 428.4" stroke="#7B61FF" stroke-opacity="0.5" stroke-width="0.864782" stroke-miterlimit="10"/>
<path d="M1655.52 446.144C1668.58 426.875 1661.85 399.974 1646.34 374.784C1631.01 349.889 1608.98 326.959 1586.17 306.756C1556.3 280.292 1524.93 252.82 1485.91 237.695C1429.35 215.772 1364.08 217.203 1303.31 223.331C1203.91 233.352 1107.64 259.864 1014.49 291.389C916.212 324.647 816.736 367.248 712.045 359.754C614.935 352.801 546.111 308.251 474.304 253.546C407.158 202.389 350.908 138.686 270.989 107.723C166.926 67.4084 41.0653 95.1478 -53.2392 161.836C-148.335 228.815 -213.28 326.324 -252.87 432.528" stroke="#7B61FF" stroke-opacity="0.5" stroke-width="0.864782" stroke-miterlimit="10"/>
<path d="M1664.75 434.407C1676.34 418.759 1667.2 395.678 1649.66 372.113C1632.6 349.184 1609.71 326.777 1585.89 307.923C1554.88 283.377 1522.57 257.098 1482.63 243.027C1423.59 222.237 1355.8 222.963 1292.82 227.95C1193.91 235.78 1098.16 260.244 1005.74 289.535C909.125 320.157 811.629 360.964 708.811 352.831C611.791 345.156 541.74 302.128 469.167 250.711C401.2 202.557 343.99 143.88 264.711 116.137C162.022 80.1953 38.8342 109.197 -55.1547 174.666C-150.328 240.573 -216.843 333.311 -258.56 436.641" stroke="#7B61FF" stroke-opacity="0.5" stroke-width="0.864782" stroke-miterlimit="10"/>
<path d="M1673.97 422.67C1684.11 410.643 1672.64 391.43 1652.99 369.443C1634.28 348.505 1610.47 326.595 1585.61 309.089C1553.48 286.462 1520.19 261.398 1479.34 248.364C1417.8 228.732 1347.54 228.762 1282.33 232.574C1183.94 238.325 1088.7 260.637 996.996 287.681C902.06 315.679 806.519 354.659 705.573 345.904C608.639 337.498 537.351 295.995 464.026 247.876C395.228 202.725 337.102 149.079 258.428 124.546C157.162 92.9692 36.5988 123.237 -57.0744 187.492C-152.326 252.34 -220.41 340.303 -264.255 440.764" stroke="#7B61FF" stroke-opacity="0.5" stroke-width="0.864782" stroke-miterlimit="10"/>
<path d="M1683.19 410.933C1691.87 402.532 1678.17 387.208 1656.32 366.777C1636.07 347.836 1611.24 326.414 1585.33 310.256C1552.11 289.539 1517.8 265.719 1476.06 253.697C1412 235.249 1339.3 234.592 1271.85 237.194C1173.99 240.971 1079.26 261.031 988.248 285.827C895.016 311.229 801.404 348.337 702.334 338.981C605.483 329.837 532.958 289.872 458.885 245.046C389.248 202.903 330.253 154.274 252.15 132.965C152.35 105.735 34.506 137.493 -58.9899 200.332C-154.185 264.311 -223.977 347.295 -269.949 444.882" stroke="#7B61FF" stroke-opacity="0.5" stroke-width="0.864782" stroke-miterlimit="10"/>
<path d="M1692.41 399.196C1699.63 394.417 1683.8 382.986 1659.65 364.106C1637.95 347.14 1612.03 326.224 1585.05 311.423C1550.75 292.612 1515.4 270.063 1472.77 259.034C1406.17 241.8 1331.08 240.461 1261.36 241.822C1164.06 243.719 1069.85 261.446 979.501 283.982C887.998 306.803 796.293 342.006 699.095 332.067C602.326 322.171 528.552 283.757 453.744 242.219C383.26 203.084 323.447 159.464 245.867 141.387C147.581 118.483 32.2922 151.581 -60.9097 213.171C-156.161 276.113 -227.545 354.288 -275.644 449.005" stroke="#7B61FF" stroke-opacity="0.5" stroke-width="0.864782" stroke-miterlimit="10"/>
<path d="M1701.64 387.459C1707.39 386.301 1689.52 378.739 1662.98 361.44C1639.92 346.406 1612.84 326.034 1584.77 312.595C1549.42 295.676 1512.98 274.432 1469.49 264.372C1400.33 248.378 1322.88 246.368 1250.86 246.446C1154.15 246.55 1060.47 261.869 970.749 282.133C880.998 302.4 791.173 335.654 695.852 325.144C599.165 314.483 524.137 277.638 448.598 239.389C377.262 203.266 316.676 164.637 239.58 149.806C142.859 131.197 30.0696 165.665 -62.834 226.01C-158.146 287.919 -231.121 361.289 -281.347 453.132" stroke="#7B61FF" stroke-opacity="0.5" stroke-width="0.864782" stroke-miterlimit="10"/>
<path d="M1710.86 375.722C1715.15 378.185 1695.32 374.439 1666.31 358.769C1641.95 345.615 1613.66 325.822 1584.49 313.757C1548.11 298.714 1510.56 278.809 1466.2 269.7C1394.47 254.972 1314.68 252.306 1240.38 251.061C1144.26 249.454 1051.11 262.301 962.011 280.27C874.037 298.014 786.067 329.271 692.627 318.212C596.018 306.778 519.727 271.515 443.47 236.545C371.27 203.439 309.965 169.775 233.315 158.206C138.202 143.855 27.8645 179.727 -64.7364 238.827C-160.122 299.708 -234.679 368.276 -287.033 457.246" stroke="#7B61FF" stroke-opacity="0.5" stroke-width="0.864782" stroke-miterlimit="10"/>
<path d="M1720.08 363.986C1722.92 370.074 1701.17 370.07 1669.64 356.103C1644.04 344.764 1614.49 325.607 1584.2 314.928C1546.81 301.744 1508.13 283.218 1462.92 275.041C1388.61 261.606 1306.49 258.296 1229.88 255.69C1134.37 252.44 1041.77 262.764 953.259 278.425C867.088 293.671 780.943 322.884 689.384 311.294C592.853 299.073 515.295 265.413 438.325 233.72C365.255 203.63 303.276 174.905 227.028 166.629C133.571 156.487 25.6377 193.807 -66.6649 251.671C-162.107 311.502 -238.251 375.269 -292.728 461.369" stroke="#7B61FF" stroke-opacity="0.5" stroke-width="0.864782" stroke-miterlimit="10"/>
<path d="M1729.31 352.248C1730.69 361.958 1707.06 365.623 1672.97 353.432C1646.17 343.843 1615.34 325.373 1583.93 316.095C1545.53 304.751 1505.71 287.634 1459.64 280.374C1382.74 268.256 1298.31 264.32 1219.4 260.309C1124.49 255.487 1032.47 263.239 944.516 276.571C860.17 289.358 775.832 316.475 686.15 304.371C589.692 291.355 510.863 259.311 433.184 230.885C359.236 203.824 296.626 179.991 220.745 175.043C128.988 169.058 23.4151 207.877 -68.5847 264.501C-164.096 323.286 -241.818 382.256 -298.427 465.483" stroke="#7B61FF" stroke-opacity="0.5" stroke-width="0.864782" stroke-miterlimit="10"/>
<path d="M1738.53 340.511C1738.45 353.842 1712.96 361.098 1676.3 350.766C1648.3 342.87 1616.19 325.126 1583.65 317.261C1544.25 307.741 1503.27 292.067 1456.35 285.71C1376.87 274.937 1290.13 270.391 1208.91 264.937C1114.61 258.602 1023.19 263.749 935.769 274.725C853.269 285.084 770.717 310.053 682.911 297.456C586.527 283.628 506.417 253.226 428.042 228.062C353.213 204.035 290.014 185.051 214.467 183.469C124.448 181.585 21.1925 221.956 -70.5004 277.344C-166.08 335.083 -245.381 389.257 -304.117 469.614" stroke="#7B61FF" stroke-opacity="0.5" stroke-width="0.864782" stroke-miterlimit="10"/>
<path d="M1747.76 328.773C1746.21 345.726 1718.87 356.499 1679.63 348.094C1650.43 341.841 1617.04 324.862 1583.37 318.427C1542.98 310.709 1500.83 296.518 1453.07 291.042C1370.99 281.639 1281.95 276.501 1198.42 269.556C1104.73 261.765 1013.93 264.28 927.026 272.871C846.389 280.839 765.606 303.605 679.677 290.528C583.366 275.87 501.972 247.136 422.905 225.222C347.185 204.237 283.433 190.046 208.189 191.874C119.938 194.022 18.9657 236.013 -72.4158 290.169C-168.069 346.863 -248.948 396.244 -309.812 473.732" stroke="#7B61FF" stroke-opacity="0.5" stroke-width="0.864782" stroke-miterlimit="10"/>
<path d="M1756.98 317.037C1753.97 337.611 1724.77 351.833 1682.96 345.429C1652.55 340.77 1617.89 324.587 1583.09 319.6C1541.71 313.666 1498.4 300.983 1449.79 296.385C1365.11 288.373 1273.77 282.664 1187.93 274.185C1094.84 264.994 1004.7 264.851 918.279 271.022C839.531 276.649 760.495 297.145 676.438 283.611C580.201 268.11 497.514 241.066 417.764 222.397C341.149 204.463 276.87 195.004 201.906 200.297C115.449 206.404 16.7345 250.08 -74.3357 303.01C-170.067 358.648 -252.515 403.237 -315.506 477.851" stroke="#7B61FF" stroke-opacity="0.5" stroke-width="0.864782" stroke-miterlimit="10"/>
<path d="M1766.2 305.299C1761.74 329.499 1730.65 347.105 1686.29 342.758C1654.66 339.659 1618.75 324.292 1582.81 320.761C1540.44 316.6 1495.96 305.45 1446.5 301.712C1359.24 295.114 1265.59 288.856 1177.44 278.8C1084.95 268.251 995.482 265.447 909.536 269.163C832.691 272.486 755.388 290.658 673.204 276.678C577.044 260.322 493.061 234.994 412.627 219.553C335.113 204.679 270.323 199.882 195.632 208.702C110.983 218.697 14.5076 264.129 -76.2469 315.835C-172.052 370.415 -256.078 410.224 -321.192 481.964" stroke="#7B61FF" stroke-opacity="0.5" stroke-width="0.864782" stroke-miterlimit="10"/>
<path d="M1775.42 293.563C1769.5 321.384 1736.51 342.326 1689.62 340.092C1656.75 338.523 1619.6 323.99 1582.53 321.933C1539.17 319.526 1493.53 309.941 1443.22 307.05C1353.35 301.89 1257.39 295.101 1166.95 283.424C1075.05 271.562 986.276 266.095 900.784 267.314C825.855 268.381 750.273 284.163 669.961 269.76C573.875 252.526 488.594 228.94 407.482 216.727C329.068 204.921 263.777 204.718 189.345 217.125C106.508 230.927 12.268 278.191 -78.171 328.674C-174.058 382.195 -259.65 417.221 -326.895 486.092" stroke="#7B61FF" stroke-opacity="0.5" stroke-width="0.864782" stroke-miterlimit="10"/>
<path d="M1784.65 281.826C1777.26 313.269 1742.35 337.508 1692.95 337.421C1658.81 337.361 1620.45 323.675 1582.25 323.1C1537.89 322.435 1491.09 314.436 1439.94 312.387C1347.48 308.684 1249.19 301.394 1156.46 288.053C1065.14 274.916 977.088 266.796 892.037 265.469C819.036 264.328 745.162 277.656 666.722 262.846C570.718 244.718 484.132 222.903 402.341 213.906C323.028 205.177 257.231 209.498 183.063 225.548C102.032 243.089 10.0326 292.254 -80.0907 341.518C-176.056 393.972 -263.217 424.218 -332.585 490.215" stroke="#7B61FF" stroke-opacity="0.5" stroke-width="0.864782" stroke-miterlimit="10"/>
<path d="M1793.87 270.089C1785.02 305.153 1748.16 332.655 1696.28 334.755C1660.85 336.19 1621.29 323.346 1581.96 324.267C1536.61 325.33 1488.66 318.938 1436.65 317.72C1341.61 315.49 1240.98 307.724 1145.97 292.673C1055.23 278.295 967.908 267.539 883.294 263.611C812.226 260.314 740.064 271.117 663.488 255.914C567.566 236.874 479.674 216.862 397.204 211.062C316.987 205.423 250.675 214.182 176.788 233.953C97.5527 255.154 7.80127 306.29 -82.002 354.34C-178.053 405.735 -266.78 431.201 -338.276 494.329" stroke="#7B61FF" stroke-opacity="0.5" stroke-width="0.864782" stroke-miterlimit="10"/>
<path d="M1803.09 258.351C1792.78 297.041 1753.94 327.775 1699.61 332.083C1662.88 334.996 1622.13 323.004 1581.68 325.433C1535.32 328.216 1486.22 323.453 1433.36 323.056C1335.74 322.321 1232.75 314.106 1135.47 297.296C1045.3 281.713 958.725 268.342 874.543 261.76C805.412 256.354 734.958 264.565 660.249 248.995C564.41 229.017 475.212 210.837 392.059 208.235C310.942 205.694 244.086 218.823 170.502 242.374C93.0301 267.171 5.55304 320.342 -83.926 367.178C-180.064 417.501 -270.351 438.201 -343.979 498.455" stroke="#7B61FF" stroke-opacity="0.5" stroke-width="0.864782" stroke-miterlimit="10"/>
<path d="M1812.32 246.614C1800.55 288.926 1759.7 322.879 1702.94 329.418C1664.88 333.804 1622.97 322.663 1581.41 326.605C1534.03 331.099 1483.8 327.979 1430.09 328.394C1329.88 329.171 1224.52 320.533 1124.99 301.92C1035.37 285.162 949.558 269.211 865.804 259.912C798.606 252.453 729.868 258.002 657.019 242.073C561.271 221.14 470.762 204.822 386.926 205.401C304.91 205.967 237.474 223.391 164.227 250.789C88.4898 279.12 3.31741 334.383 -85.8373 380.013C-182.062 429.261 -273.914 445.194 -349.665 502.578" stroke="#7B61FF" stroke-opacity="0.5" stroke-width="0.864782" stroke-miterlimit="10"/>
<path d="M1821.54 234.877C1808.31 280.81 1765.43 317.965 1706.27 326.747C1666.87 332.598 1623.8 322.304 1581.13 327.771C1532.72 333.968 1481.37 332.503 1426.8 333.73C1324.01 336.033 1216.26 327.002 1114.5 306.544C1025.42 288.636 940.365 270.14 857.052 258.062C791.783 248.598 724.766 251.415 653.776 235.154C558.123 213.239 466.3 198.819 381.781 202.574C298.87 206.256 230.811 227.906 157.945 259.207C83.8979 291.017 1.07343 348.423 -87.7613 392.847C-184.076 441.019 -277.486 452.185 -355.368 506.696" stroke="#7B61FF" stroke-opacity="0.5" stroke-width="0.864782" stroke-miterlimit="10"/>
<path d="M1830.77 223.14C1816.07 272.694 1771.14 313.043 1709.6 324.08C1668.84 331.392 1624.62 321.95 1580.84 328.937C1531.41 336.833 1478.95 337.036 1423.51 339.062C1318.15 342.909 1207.99 333.514 1104.01 311.168C1015.46 292.136 931.16 271.138 848.309 256.212C784.955 244.794 719.681 244.816 650.542 228.235C554.992 205.318 461.855 192.82 376.644 199.743C292.842 206.554 224.105 232.366 151.667 267.625C79.2628 302.87 -1.17063 362.459 -89.6768 405.686C-186.083 452.773 -281.049 459.181 -361.058 510.823" stroke="#7B61FF" stroke-opacity="0.5" stroke-width="0.864782" stroke-miterlimit="10"/>
<path d="M1839.99 211.403C1823.84 264.578 1776.83 308.113 1712.93 321.41C1670.79 330.182 1625.44 321.583 1580.56 330.105C1530.1 339.69 1476.53 341.578 1420.23 344.396C1312.31 349.802 1199.7 340.074 1093.52 315.788C1005.48 295.654 921.932 272.206 839.562 254.354C778.106 241.035 714.596 238.192 647.303 221.303C551.862 197.354 457.406 186.823 371.503 196.905C286.815 206.844 217.338 236.77 145.388 276.035C74.5755 314.677 -3.41486 376.482 -91.5924 418.513C-188.093 464.51 -284.616 466.17 -366.749 514.937" stroke="#7B61FF" stroke-opacity="0.5" stroke-width="0.864782" stroke-miterlimit="10"/>
<path d="M1849.21 199.666C1831.6 256.467 1782.5 303.178 1716.26 318.744C1672.72 328.973 1626.25 321.216 1580.28 331.276C1528.77 342.551 1474.11 346.129 1416.94 349.737C1306.45 356.712 1191.39 346.682 1083.02 320.416C995.486 299.198 912.666 273.36 830.81 252.509C771.227 237.332 709.516 231.563 644.061 214.389C548.74 189.377 452.961 180.842 366.357 194.079C280.787 207.16 210.506 241.148 139.101 284.457C69.8236 326.475 -5.66751 390.514 -93.5164 431.356C-190.113 476.265 -288.188 473.171 -372.452 519.069" stroke="#7B61FF" stroke-opacity="0.5" stroke-width="0.864782" stroke-miterlimit="10"/>
<path d="M1858.44 187.93C1839.36 248.352 1788.15 298.243 1719.59 316.074C1674.65 327.763 1627.05 320.84 1580 332.439C1527.44 345.399 1471.7 350.676 1413.66 355.066C1300.62 363.623 1183.07 353.325 1072.54 325.032C985.485 302.751 903.365 274.571 822.067 250.651C764.326 233.664 704.448 224.904 640.826 207.458C545.635 181.353 448.529 174.853 361.22 191.24C274.773 207.463 203.627 245.487 132.823 292.863C65.0197 338.234 -7.91607 404.525 -95.432 444.179C-192.123 487.99 -291.755 480.15 -378.142 523.175" stroke="#7B61FF" stroke-opacity="0.5" stroke-width="0.864782" stroke-miterlimit="10"/>
<path d="M1867.66 176.193C1847.12 240.237 1793.79 293.304 1722.92 313.407C1676.56 326.553 1627.85 320.469 1579.72 333.61C1526.1 348.251 1469.28 355.23 1410.38 360.407C1294.78 370.559 1174.72 360.023 1062.05 329.66C975.467 306.329 894.008 275.871 813.324 248.806C757.395 230.042 699.385 218.245 637.592 200.544C542.544 173.315 444.101 168.89 356.084 188.418C268.767 207.791 196.678 249.817 126.549 301.29C60.164 350.01 -10.1601 418.553 -97.3432 457.026C-194.134 499.735 -295.313 487.156 -383.833 527.31" stroke="#7B61FF" stroke-opacity="0.5" stroke-width="0.864782" stroke-miterlimit="10"/>
<path d="M1876.88 164.455C1854.89 232.12 1799.42 288.364 1726.24 310.736C1678.47 325.343 1628.64 320.088 1579.44 334.776C1524.76 351.099 1466.87 359.789 1407.09 365.74C1288.95 377.498 1166.35 366.755 1051.55 334.284C965.426 309.92 884.587 277.245 804.573 246.956C750.407 226.451 694.326 211.563 634.349 193.625C539.457 165.237 439.674 162.921 350.934 185.587C262.752 208.115 189.661 254.13 120.258 309.708C55.2348 361.777 -12.4214 432.571 -99.2715 469.861C-196.162 511.463 -298.889 494.152 -389.536 531.433" stroke="#7B61FF" stroke-opacity="0.5" stroke-width="0.864782" stroke-miterlimit="10"/>
<path d="M1886.1 152.719C1862.65 224.005 1805.04 283.43 1729.57 308.07C1680.36 324.142 1629.43 319.708 1579.16 335.944C1523.41 353.947 1464.47 364.353 1403.81 371.073C1283.13 384.448 1157.95 373.527 1041.07 338.904C955.382 313.52 875.105 278.68 795.83 245.098C743.385 222.882 689.28 204.861 631.115 186.694C536.4 157.109 435.259 156.941 345.797 182.748C256.759 208.431 182.596 258.426 113.98 318.118C50.2624 373.545 -14.6741 446.573 -101.187 482.687C-198.177 523.175 -302.456 501.135 -395.226 535.543" stroke="#7B61FF" stroke-opacity="0.5" stroke-width="0.864782" stroke-miterlimit="10"/>
<path d="M1895.33 140.981C1870.41 215.893 1810.65 278.489 1732.91 305.399C1682.25 322.931 1630.22 319.327 1578.88 337.11C1522.07 356.794 1462.07 368.915 1400.53 376.409C1277.31 391.409 1149.53 380.35 1030.58 343.527C945.312 317.136 865.54 280.187 787.083 243.248C736.311 219.341 684.238 198.149 627.881 179.774C533.356 148.954 430.853 150.98 340.66 179.917C250.771 208.758 175.478 262.733 107.705 326.531C45.2465 385.328 -16.9875 460.413 -103.098 495.521C-200.265 534.712 -306.015 508.127 -400.916 539.664" stroke="#7B61FF" stroke-opacity="0.5" stroke-width="0.864782" stroke-miterlimit="10"/>
<path d="M1904.55 129.244C1878.18 207.778 1816.25 273.555 1736.24 302.733C1684.13 321.734 1631 318.947 1578.6 338.281C1520.7 359.642 1459.67 373.488 1397.24 381.746C1271.5 398.38 1141.09 387.213 1020.09 348.151C935.228 320.758 855.885 281.752 778.335 241.399C729.177 215.82 679.21 191.425 624.642 172.852C530.333 140.752 426.503 145.182 335.519 177.087C244.838 209.256 168.301 267.051 101.423 334.949C40.1745 397.131 -19.2231 474.463 -105.018 508.356C-202.263 546.48 -309.587 515.119 -406.611 543.788" stroke="#7B61FF" stroke-opacity="0.5" stroke-width="0.864782" stroke-miterlimit="10"/>
<path d="M1913.78 117.507C1885.94 199.662 1821.84 268.624 1739.57 300.062C1686.01 320.529 1631.74 318.476 1578.32 339.444C1519.3 362.386 1457.29 378.168 1393.96 387.079C1265.73 405.583 1132.62 394.11 1009.6 352.771C925.132 324.388 846.143 283.36 769.592 239.545C721.995 212.298 674.198 184.684 621.408 165.929C527.337 132.507 422.08 139.136 330.383 174.252C238.837 209.502 161.084 271.377 95.1445 343.363C35.0637 408.954 -21.4541 488.512 -106.938 521.191C-204.26 558.243 -313.154 522.116 -412.305 547.91" stroke="#7B61FF" stroke-opacity="0.5" stroke-width="0.864782" stroke-miterlimit="10"/>
<path d="M1923 105.77C1893.7 191.546 1827.42 263.693 1742.9 297.396C1687.88 319.332 1632.55 318.186 1578.04 340.615C1517.97 365.333 1454.88 382.637 1390.67 392.416C1259.89 412.342 1124.13 401.05 999.11 357.399C915.014 328.035 836.302 285.019 760.845 237.695C714.744 208.785 669.195 177.934 618.169 159.01C524.366 124.214 417.656 133.095 325.241 171.426C232.826 209.757 153.824 275.724 88.8661 351.786C29.9139 420.808 -23.6853 502.565 -108.853 534.03C-206.258 570.015 -316.717 529.112 -418 552.033" stroke="#7B61FF" stroke-opacity="0.5" stroke-width="0.864782" stroke-miterlimit="10"/>
<path d="M1532.49 379.266C1522.33 270.162 1472.56 165.172 1394.51 88.2117C1372.31 66.3149 1346.83 46.0776 1316.55 38.5842C1229.06 16.938 1145.8 92.4726 1078.74 137.385C997.813 191.594 918.076 247.872 832.894 295.347C785.072 322.002 728.182 346.297 677.212 326.306C625.598 306.06 600.886 249.099 575.349 199.912C545.592 142.597 507.157 88.3845 455.002 50.2651C402.851 12.1499 335.537 -8.38132 272.369 5.19235C222.903 15.8188 179.923 45.8788 141.203 78.4322C39.4612 163.967 -43.346 271.873 -99.6304 392.251" stroke="#7B61FF" stroke-opacity="0.5" stroke-width="0.864782" stroke-miterlimit="10"/>
<path d="M1534.74 374.274C1524.91 268.688 1474.17 169.338 1394.68 92.3947C1372.49 70.9128 1347.3 50.9002 1317.44 43.2945C1231.01 21.2162 1148.84 93.0559 1081.96 136.413C1010.65 182.64 940.219 231.26 865.372 274.406C856.17 279.73 846.917 284.967 837.599 290.101C790.14 316.259 733.933 340.191 683.478 321.285C632.356 302.149 607.295 247.509 581.459 200.375C551.278 145.484 512.735 93.5788 460.961 57.1533C409.052 20.7797 342.511 1.31158 280.031 14.6389C237.57 23.688 199.844 46.7343 165.447 73.0822C160.12 77.1573 154.905 81.3448 149.712 85.5064C46.6736 168.076 -35.818 267.617 -90.2863 384.114" stroke="#7B61FF" stroke-opacity="0.5" stroke-width="0.864782" stroke-miterlimit="10"/>
<path d="M1536.99 369.283C1527.48 267.219 1475.8 173.5 1394.86 96.5821C1372.68 75.5064 1347.77 55.7314 1318.33 48.009C1232.95 25.4986 1151.88 93.6478 1085.17 135.449C1014.57 179.684 944.763 227.047 869.864 269.479C860.732 274.695 851.548 279.829 842.303 284.868C795.207 310.528 739.68 334.098 689.738 316.276C639.105 298.255 613.694 245.931 587.56 200.854C556.956 148.392 518.308 98.786 466.906 64.0589C415.239 29.4225 349.477 11.0217 287.68 24.1071C245.599 33.005 208.12 55.3123 173.887 80.6619C168.582 84.5814 163.406 88.6393 158.209 92.6021C53.8167 172.216 -28.2987 263.386 -80.9553 375.998" stroke="#7B61FF" stroke-opacity="0.5" stroke-width="0.864782" stroke-miterlimit="10"/>
<path d="M1539.24 364.296C1530.06 265.749 1477.45 177.657 1395.04 100.77C1372.88 80.0957 1348.25 60.5584 1319.23 52.7236C1234.89 29.7811 1154.94 94.2441 1088.39 134.481C1018.51 176.728 949.203 222.639 874.361 264.552C865.285 269.639 856.183 274.691 847.012 279.63C800.279 304.794 745.435 328 696.008 311.267C645.868 294.357 620.193 244.302 593.67 201.334C562.745 151.231 523.981 103.859 472.864 70.9645C421.526 37.9313 356.451 20.732 295.346 33.5753C253.646 42.3219 216.417 63.8946 182.34 88.2416C177.052 92.0056 171.92 95.9338 166.723 99.6978C60.9251 176.356 -20.7666 259.151 -71.6028 367.883" stroke="#7B61FF" stroke-opacity="0.5" stroke-width="0.864782" stroke-miterlimit="10"/>
<path d="M1541.48 359.304C1532.63 264.28 1479.11 181.805 1395.21 104.953C1373.08 84.6764 1348.72 65.3811 1320.12 57.434C1236.83 34.055 1158.01 94.8318 1091.6 133.509C1022.45 173.772 953.713 218.356 878.853 259.622C869.838 264.591 860.81 269.548 851.712 274.388C805.343 299.059 751.177 321.898 702.265 306.25C652.613 290.451 626.614 242.695 599.767 201.801C568.449 154.1 529.577 109.01 478.81 77.8528C427.74 46.5137 363.417 30.425 302.995 43.022C261.676 51.6173 224.693 72.4554 190.781 95.7998C185.514 99.4082 180.416 103.202 175.219 106.776C67.9601 180.479 -13.2516 254.903 -62.2717 359.75" stroke="#7B61FF" stroke-opacity="0.5" stroke-width="0.864782" stroke-miterlimit="10"/>
<path d="M1543.73 354.314C1535.21 262.807 1480.78 185.946 1395.39 109.136C1373.28 89.2575 1349.2 70.2085 1321.01 62.1447C1238.78 38.3335 1161.1 95.4285 1094.82 132.541C1026.42 170.833 958.236 214.083 883.35 254.691C874.4 259.544 865.445 264.406 856.421 269.146C810.415 293.321 756.932 315.796 708.535 301.237C659.372 286.549 633.048 241.092 605.876 202.276C574.165 156.975 535.176 114.171 484.764 84.7545C433.958 55.1094 370.387 40.1312 310.653 52.4862C269.714 60.926 232.978 81.0294 199.225 103.376C193.976 106.828 188.913 110.493 183.72 113.868C74.9433 184.606 -5.73226 250.664 -52.9364 351.626" stroke="#7B61FF" stroke-opacity="0.5" stroke-width="0.864782" stroke-miterlimit="10"/>
<path d="M1545.98 349.322C1537.79 261.333 1482.47 190.077 1395.56 113.323C1373.49 93.8338 1349.67 75.0354 1321.9 66.8593C1240.72 42.6159 1164.19 96.0334 1098.03 131.573C1030.39 167.899 962.75 209.808 887.843 249.765C878.957 254.505 870.076 259.263 861.126 263.913C815.482 287.59 762.683 309.703 714.796 296.229C666.126 282.655 639.473 239.493 611.977 202.756C579.868 159.853 540.767 119.339 490.713 91.6601C440.167 63.7089 377.358 49.8371 318.306 61.9544C277.752 70.243 241.263 89.6117 207.67 110.955C202.443 114.253 197.409 117.779 192.225 120.964C81.8789 188.728 1.79574 246.433 -43.5967 343.51" stroke="#7B61FF" stroke-opacity="0.5" stroke-width="0.864782" stroke-miterlimit="10"/>
<path d="M1548.23 344.331C1540.36 259.864 1484.17 194.195 1395.74 117.507C1373.71 98.4057 1350.12 79.9186 1322.8 71.5695C1242.62 47.0626 1167.31 96.6383 1101.25 130.601C1034.39 164.973 967.282 205.534 892.344 244.834C883.523 249.458 874.715 254.12 865.838 258.671C820.558 281.856 768.438 303.601 721.069 291.212C672.888 278.748 645.907 237.881 618.096 203.222C585.588 162.718 546.37 124.49 496.676 98.5527C446.384 72.2999 384.341 59.5343 325.976 71.4053C285.803 79.5426 249.603 98.2459 216.127 118.513C210.921 121.664 205.914 125.047 200.739 128.042C88.7667 192.816 9.32784 242.18 -34.2485 335.377" stroke="#7B61FF" stroke-opacity="0.5" stroke-width="0.864782" stroke-miterlimit="10"/>
<path d="M1550.48 339.339C1542.94 258.39 1485.88 198.304 1395.91 121.689C1373.93 102.969 1350.6 84.7495 1323.69 76.2751C1244.55 51.3533 1170.42 97.2471 1104.46 129.628C1038.39 162.06 971.805 201.269 896.837 239.898C888.081 244.41 879.347 248.973 870.539 253.424C825.622 276.112 774.185 297.494 727.326 286.194C679.638 274.841 652.32 236.268 624.192 203.693C591.283 165.582 551.953 129.654 502.621 105.445C452.585 80.8904 391.302 69.2311 333.626 80.8602C293.833 88.8462 257.884 106.819 224.568 126.08C219.384 129.079 214.398 132.32 209.24 135.125C95.5814 196.882 16.8472 237.936 -24.9131 327.248" stroke="#7B61FF" stroke-opacity="0.5" stroke-width="0.864782" stroke-miterlimit="10"/>
<path d="M1552.73 334.348C1545.51 256.921 1487.61 202.401 1396.09 125.873C1374.15 107.532 1351.07 89.5811 1324.58 80.9858C1246.49 55.6491 1173.56 97.8654 1107.68 128.656C1042.41 159.156 976.336 196.999 901.333 234.968C892.642 239.367 883.982 243.831 875.247 248.183C830.698 270.373 779.935 291.393 733.596 281.177C686.396 270.939 658.745 234.657 630.302 204.164C596.986 168.448 557.539 134.814 508.58 112.342C458.79 89.4904 398.281 78.9331 341.288 90.3158C301.875 98.1463 266.177 115.398 233.021 133.647C227.854 136.49 222.895 139.589 217.749 142.208C102.357 200.919 24.3751 233.688 -15.5648 319.119" stroke="#7B61FF" stroke-opacity="0.5" stroke-width="0.864782" stroke-miterlimit="10"/>
<path d="M1554.97 329.361C1548.09 255.452 1489.35 206.494 1396.26 130.065C1374.38 112.101 1351.54 94.4172 1325.47 85.7052C1248.42 59.9494 1176.71 98.5053 1110.89 127.692C1046.44 156.279 980.863 192.747 905.826 230.042C897.204 234.328 888.608 238.693 879.952 242.95C835.766 264.648 785.686 285.304 739.857 276.173C693.15 267.046 665.157 233.054 636.403 204.644C602.677 171.322 563.117 139.991 514.525 119.248C464.982 98.0991 405.242 88.6438 348.936 99.7845C309.904 107.464 274.457 123.985 241.457 141.227C236.312 143.915 231.369 146.871 226.241 149.308C109.059 204.943 31.89 229.462 -6.23828 311.008" stroke="#7B61FF" stroke-opacity="0.5" stroke-width="0.864782" stroke-miterlimit="10"/>
<path d="M1557.22 324.37C1550.67 253.978 1491.11 210.569 1396.44 134.248C1374.61 116.651 1352.01 99.2484 1326.37 90.4154C1250.36 64.2404 1179.87 99.1447 1114.11 126.72C1050.49 153.4 985.399 188.491 910.323 225.111C901.766 229.285 893.243 233.55 884.661 237.708C840.838 258.909 791.437 279.202 746.127 271.156C699.909 263.139 671.574 231.442 642.513 205.115C608.371 174.182 568.695 145.159 520.483 126.145C471.182 106.699 412.221 98.3409 356.603 109.244C317.951 116.772 282.755 132.562 249.915 148.798C244.787 151.331 239.866 154.144 234.759 156.395C115.735 208.905 39.4267 225.223 3.1145 302.884" stroke="#7B61FF" stroke-opacity="0.5" stroke-width="0.864782" stroke-miterlimit="10"/>
<path d="M1559.47 319.379C1553.25 252.509 1492.87 214.628 1396.61 138.432C1374.85 121.202 1352.48 104.076 1327.26 95.1265C1252.3 68.528 1183.04 99.798 1117.32 125.753C1054.55 150.549 989.93 184.243 914.815 220.185C906.323 224.247 897.874 228.413 889.361 232.471C845.901 253.175 797.196 273.01 752.383 266.148C706.671 259.147 677.973 229.839 648.614 205.596C614.049 177.057 574.264 150.342 526.429 133.047C477.365 115.312 419.183 108.048 364.252 118.704C325.981 126.081 291.031 141.141 258.351 156.37C253.244 158.751 248.336 161.409 243.252 163.483C122.342 212.821 46.9373 220.98 12.4412 294.76" stroke="#7B61FF" stroke-opacity="0.5" stroke-width="0.864782" stroke-miterlimit="10"/>
<path d="M1561.72 314.387C1555.82 251.035 1494.66 218.672 1396.79 142.614C1375.09 125.748 1352.95 108.903 1328.16 99.8362C1254.24 72.8142 1186.22 100.463 1120.54 124.78C1058.62 147.705 994.475 179.99 919.317 215.249C910.894 219.199 902.514 223.265 894.074 227.224C850.977 247.435 802.952 266.899 758.657 261.126C713.434 255.231 684.381 228.222 654.728 206.057C619.739 179.913 579.842 155.505 532.391 139.935C483.562 123.911 426.166 117.74 371.918 128.155C334.028 135.376 299.324 149.71 266.808 163.932C261.719 166.157 256.824 168.664 251.765 170.565C128.923 216.675 54.4695 216.736 21.7894 286.631" stroke="#7B61FF" stroke-opacity="0.5" stroke-width="0.864782" stroke-miterlimit="10"/>
<path d="M1563.97 309.396C1558.39 249.565 1496.45 222.699 1396.96 146.801C1375.32 130.297 1353.42 113.733 1329.05 104.55C1256.18 77.1004 1189.42 101.145 1123.76 123.811C1062.7 144.882 999.015 175.75 923.809 210.322C915.451 214.164 907.145 218.127 898.778 221.99C856.045 241.704 808.702 260.801 764.918 256.116C720.183 251.333 690.776 226.618 660.829 206.536C625.407 182.786 585.403 160.695 538.337 146.84C489.736 132.532 433.132 127.45 379.567 137.622C342.057 144.692 307.6 158.296 275.244 171.511C270.176 173.581 265.295 175.936 260.262 177.661C135.448 220.477 61.9888 212.5 31.1204 278.515" stroke="#7B61FF" stroke-opacity="0.5" stroke-width="0.864782" stroke-miterlimit="10"/>
<path d="M1566.22 304.405C1560.97 248.092 1498.26 226.714 1397.14 150.985C1375.58 134.835 1353.9 118.556 1329.94 109.261C1258.11 81.3833 1192.63 101.845 1126.97 122.843C1066.8 142.082 1003.56 171.516 928.306 205.396C920.017 209.125 911.776 212.989 903.487 216.753C861.117 235.97 814.453 254.699 771.188 251.108C726.941 247.431 697.176 225.02 666.938 207.017C631.08 185.664 590.972 165.889 544.295 153.746C495.924 141.162 440.106 137.16 387.233 147.087C350.104 154.005 315.893 166.879 283.702 179.083C278.651 180.997 273.778 183.192 268.776 184.748C141.955 224.207 69.5211 208.261 40.473 270.391" stroke="#7B61FF" stroke-opacity="0.5" stroke-width="0.864782" stroke-miterlimit="10"/>
<path d="M1568.47 299.414C1563.55 246.623 1500.08 230.707 1397.31 155.168C1375.82 139.369 1354.37 123.384 1330.83 113.972C1260.05 85.666 1195.85 102.567 1130.19 121.871C1070.9 139.3 1008.1 167.281 932.799 200.461C924.579 204.082 916.407 207.838 908.187 211.507C866.18 230.231 820.195 248.593 777.445 246.087C733.687 243.52 703.554 223.412 673.035 207.479C636.736 188.529 596.524 171.071 550.241 160.63C502.094 149.77 447.072 146.845 394.882 156.533C358.138 163.297 324.169 175.44 292.138 186.641C287.105 188.4 282.245 190.435 277.268 191.827C148.411 227.846 77.0318 204.009 49.7998 262.258" stroke="#7B61FF" stroke-opacity="0.5" stroke-width="0.864782" stroke-miterlimit="10"/>
<path d="M1570.71 294.422C1566.13 245.149 1501.92 234.687 1397.49 159.351C1376.07 143.902 1354.84 128.206 1331.73 118.678C1262 89.9356 1199.08 103.302 1133.4 120.894C1075.02 136.534 1012.66 163.046 937.295 195.526C929.145 199.039 921.042 202.691 912.896 206.26C871.252 224.488 825.942 242.487 783.714 241.07C740.445 239.618 709.944 221.813 679.149 207.95C642.4 191.408 602.089 176.265 556.199 167.527C508.273 158.4 454.046 156.546 402.544 165.993C366.18 172.605 332.458 184.014 300.591 194.212C295.575 195.815 290.724 197.687 285.782 198.914C154.862 231.416 84.5683 199.77 59.1481 254.133" stroke="#7B61FF" stroke-opacity="0.5" stroke-width="0.864782" stroke-miterlimit="10"/>
<path d="M1572.96 289.436C1568.7 243.68 1503.77 238.646 1397.66 163.544C1376.32 148.44 1355.31 133.038 1332.62 123.397C1263.93 94.2231 1202.32 104.076 1136.61 119.936C1079.14 133.808 1017.21 158.837 941.788 190.604C933.702 194.01 925.673 197.558 917.6 201.032C876.32 218.763 831.688 236.399 789.975 236.066C747.195 235.725 716.318 220.232 685.25 208.435C648.047 194.308 607.645 181.482 562.149 174.438C514.443 167.053 461.017 166.262 410.202 175.462C374.218 181.923 340.738 192.597 309.04 201.793C304.046 203.24 299.199 204.943 294.287 206.01C161.287 234.908 92.0919 195.535 68.4877 246.018" stroke="#7B61FF" stroke-opacity="0.5" stroke-width="0.864782" stroke-miterlimit="10"/>
<path d="M1575.21 284.445C1571.28 242.211 1505.63 242.587 1397.84 167.727C1376.58 152.96 1355.79 137.861 1333.51 128.108C1265.88 98.4927 1205.57 104.867 1139.83 118.963C1083.27 131.089 1021.76 154.62 946.285 185.674C938.268 188.971 930.308 192.415 922.309 195.79C881.392 213.028 837.439 230.297 796.245 231.049C753.949 231.822 722.7 218.642 691.36 208.901C653.703 197.199 613.201 186.685 568.103 181.33C520.617 175.691 467.987 175.959 417.86 184.917C382.257 191.227 349.023 201.162 317.484 209.359C312.508 210.652 307.673 212.186 302.787 213.097C167.7 238.3 99.6112 191.296 77.823 237.894" stroke="#7B61FF" stroke-opacity="0.5" stroke-width="0.864782" stroke-miterlimit="10"/>
<path d="M1577.46 279.453C1573.85 240.737 1507.5 246.502 1398.01 171.91C1376.83 157.48 1356.26 142.684 1334.4 132.818C1267.82 102.766 1208.81 105.688 1143.04 117.991C1087.4 128.397 1026.32 150.406 950.777 180.743C942.83 183.932 934.935 187.272 927.013 190.548C886.459 207.289 843.185 224.199 802.506 226.036C760.698 227.92 729.073 217.069 697.461 209.377C659.346 200.103 618.753 191.905 574.052 188.227C526.788 184.338 474.957 185.66 425.513 194.377C390.29 200.531 357.299 209.731 325.929 216.93C320.969 218.067 316.144 219.428 311.293 220.185C174.112 241.593 107.135 187.052 87.1626 229.77" stroke="#7B61FF" stroke-opacity="0.5" stroke-width="0.864782" stroke-miterlimit="10"/>
<path d="M1579.71 274.462C1576.43 239.268 1509.39 250.4 1398.19 176.092C1377.1 162 1356.74 147.506 1335.29 137.528C1269.76 107.031 1212.07 106.539 1146.26 117.018C1091.54 125.73 1030.87 146.201 955.274 175.807C947.396 178.893 939.57 182.125 931.717 185.301C891.527 201.546 848.932 218.097 808.771 221.014C767.452 224.017 735.451 215.491 703.566 209.843C664.997 203.011 624.309 197.121 580.006 195.12C532.958 192.994 481.927 195.357 433.171 203.828C398.328 209.83 365.583 218.291 334.374 224.493C329.436 225.474 324.614 226.658 319.793 227.263C180.524 244.782 114.658 182.804 96.5022 221.636" stroke="#7B61FF" stroke-opacity="0.5" stroke-width="0.864782" stroke-miterlimit="10"/>
<path d="M1581.96 269.47C1579.01 237.794 1511.29 254.271 1398.36 180.28C1377.36 166.516 1357.21 152.328 1336.18 142.242C1271.7 111.301 1215.32 107.429 1149.47 116.054C1095.68 123.098 1035.43 142.013 959.767 170.885C951.958 173.862 944.201 176.991 936.422 180.068C896.594 195.82 854.678 212.008 815.037 216.009C774.206 220.128 741.829 213.935 709.676 210.322C670.648 205.94 629.87 202.362 585.96 202.025C539.132 201.666 488.902 205.063 440.833 213.295C406.371 219.147 373.868 226.865 342.827 232.072C337.906 232.898 333.094 233.904 328.307 234.363C186.963 247.889 122.191 178.577 105.851 213.525" stroke="#7B61FF" stroke-opacity="0.5" stroke-width="0.864782" stroke-miterlimit="10"/>
<path d="M1584.2 264.479C1581.58 236.325 1513.2 258.118 1398.54 184.463C1377.62 171.028 1357.69 157.147 1337.08 146.953C1273.65 115.562 1218.58 108.349 1152.69 115.082C1099.81 120.484 1040 137.822 964.264 165.954C956.524 168.828 948.836 171.849 941.131 174.831C901.666 190.085 860.429 205.919 821.302 210.997C780.96 216.234 748.206 212.38 715.781 210.798C676.3 208.871 635.426 207.6 591.914 208.927C545.311 210.344 495.876 214.769 448.49 222.76C414.409 228.46 382.148 235.434 351.271 239.648C346.368 240.318 341.569 241.143 336.808 241.454C193.41 250.888 129.71 174.338 115.186 205.405" stroke="#7B61FF" stroke-opacity="0.5" stroke-width="0.864782" stroke-miterlimit="10"/>
<path d="M1586.45 259.488C1584.16 234.851 1515.12 261.943 1398.71 188.646C1377.88 175.531 1358.16 161.966 1337.97 151.663C1275.6 119.823 1221.83 109.309 1155.9 114.11C1103.94 117.896 1044.56 133.634 968.756 161.019C961.086 163.789 953.467 166.702 945.835 169.585C906.738 184.342 866.18 199.817 827.568 205.975C787.714 212.332 754.593 210.824 721.887 211.265C681.96 211.801 640.986 212.842 597.864 215.815C551.486 219.018 502.842 224.463 456.144 232.207C422.443 237.751 390.429 243.987 359.716 247.202C354.83 247.712 350.039 248.356 345.309 248.524C199.878 253.766 137.229 170.081 124.521 197.263" stroke="#7B61FF" stroke-opacity="0.5" stroke-width="0.864782" stroke-miterlimit="10"/>
<path d="M1588.7 254.501C1586.73 233.382 1517.06 265.745 1398.89 192.834C1378.15 180.038 1358.64 166.788 1338.87 156.374C1277.55 124.079 1225.07 110.307 1159.12 113.142C1108.07 115.337 1049.12 129.464 973.253 156.093C965.651 158.759 958.102 161.559 950.539 164.347C911.806 178.612 871.939 193.802 833.828 200.967C794.481 208.516 760.975 209.285 727.988 211.74C687.615 214.748 646.547 218.093 603.814 222.717C557.665 227.708 509.812 234.168 463.797 241.67C430.477 247.064 398.705 252.552 368.156 254.777C363.292 255.132 358.51 255.59 353.809 255.62C206.386 256.566 144.753 165.846 133.856 189.148" stroke="#7B61FF" stroke-opacity="0.5" stroke-width="0.864782" stroke-miterlimit="10"/>
<path d="M1590.95 249.509C1589.31 231.912 1519.01 269.518 1399.06 197.021C1378.42 184.541 1359.11 171.611 1339.76 161.088C1279.51 128.34 1228.3 111.348 1162.33 112.174C1112.18 112.8 1053.69 125.298 977.746 151.162C970.218 153.724 962.729 156.417 955.244 159.105C916.874 172.873 877.69 187.7 840.094 195.949C801.235 204.614 767.37 207.738 734.093 212.211C693.288 217.695 652.116 223.351 609.768 229.613C563.852 236.402 516.782 243.87 471.459 251.13C438.524 256.372 406.994 261.112 376.61 262.348C371.762 262.547 366.997 262.815 362.319 262.707C212.945 259.258 152.281 161.607 143.201 181.023" stroke="#7B61FF" stroke-opacity="0.5" stroke-width="0.864782" stroke-miterlimit="10"/>
<path d="M1593.2 244.518C1591.89 230.439 1520.97 273.26 1399.24 201.204C1378.69 189.04 1359.59 176.425 1340.65 165.799C1281.46 132.589 1231.52 112.425 1165.55 111.202C1116.29 110.29 1058.27 121.137 982.247 146.231C974.788 148.695 967.368 151.274 959.957 153.867C921.95 167.139 883.445 181.602 846.363 190.941C807.997 200.716 773.774 206.204 740.207 212.691C698.97 220.655 657.698 228.62 615.726 236.515C570.053 245.11 523.761 253.572 479.121 260.59C446.566 265.681 415.283 269.674 385.063 269.92C380.233 269.959 375.485 270.041 370.829 269.794C219.552 261.86 159.809 157.363 152.549 172.899" stroke="#7B61FF" stroke-opacity="0.5" stroke-width="0.864782" stroke-miterlimit="10"/>
<path d="M1595.45 239.527C1594.46 228.97 1522.94 276.977 1399.41 205.388C1378.96 193.53 1360.09 181.209 1341.54 170.509C1283.48 136.737 1234.72 113.544 1168.77 110.234C1120.37 107.801 1062.84 116.988 986.739 141.305C979.35 143.665 971.999 146.136 964.661 148.63C927.017 161.408 889.196 175.505 852.629 185.928C814.751 196.814 780.177 204.67 746.313 213.162C704.656 223.607 663.28 233.888 621.68 243.412C576.249 253.818 530.731 263.274 486.778 270.05C454.604 274.985 423.567 278.178 393.507 277.491C388.699 277.366 383.964 277.262 379.334 276.886C226.211 264.376 167.332 153.129 161.888 164.779" stroke="#7B61FF" stroke-opacity="0.5" stroke-width="0.864782" stroke-miterlimit="10"/>
<path d="M1597.69 234.535C1597.04 227.496 1524.92 280.663 1399.59 209.57C1379.22 198.019 1360.56 186.032 1342.44 175.219C1285.43 141.011 1237.9 114.706 1171.98 109.261C1124.44 105.333 1067.41 112.848 991.236 136.369C983.916 138.63 976.634 140.989 969.366 143.383C932.085 155.665 894.943 169.398 858.89 180.906C821.501 192.903 786.585 203.127 752.414 213.628C710.342 226.558 668.863 239.151 627.625 250.304C582.449 262.525 537.697 272.97 494.427 279.504C462.634 284.288 431.843 286.747 401.948 285.058C397.157 284.777 392.444 284.483 387.83 283.969C232.917 266.795 174.851 148.88 171.219 156.65" stroke="#7B61FF" stroke-opacity="0.5" stroke-width="0.864782" stroke-miterlimit="10"/>
<path d="M1599.95 229.545C1599.62 226.027 1526.92 284.319 1399.77 213.758C1379.5 202.51 1361.04 190.863 1343.34 179.934C1287.38 145.294 1241.06 115.916 1175.21 108.293C1128.49 102.887 1072.02 108.816 995.737 131.443C988.49 133.613 981.274 135.851 974.079 138.146C937.161 149.931 900.702 163.301 865.164 175.898C828.268 189.009 793.028 201.641 758.527 214.108C716.067 229.575 674.488 244.51 633.588 257.21C588.697 271.329 544.68 282.681 502.098 288.969C470.685 293.601 440.145 295.321 410.405 292.633C405.631 292.197 400.94 291.704 396.344 291.06C239.71 269.142 182.384 144.645 180.568 148.526" stroke="#7B61FF" stroke-opacity="0.5" stroke-width="0.864782" stroke-miterlimit="10"/>
<path d="M1602.2 224.553C1602.2 224.553 1528.92 287.94 1399.95 217.941C1270.97 147.942 1220.34 63.3113 1000.23 126.512C780.121 189.714 587.807 321.289 418.85 300.2C249.893 279.111 189.907 140.402 189.907 140.402" stroke="#7B61FF" stroke-opacity="0.5" stroke-width="0.864782" stroke-miterlimit="10"/>
<path d="M1700.19 180.418C1687.01 145.021 1648.41 123.998 1610.71 121.258C1573.02 118.518 1535.93 130.761 1500.78 144.628C1428.07 173.301 1358.38 209.627 1284.2 234.246C1210.02 258.866 1129.11 271.355 1053.7 250.793C1007.34 238.153 964.752 213.508 917.881 202.924C823.896 181.698 727.836 219.139 632.122 230.21C559.705 238.585 532.508 203.789 492.17 152.385C453.013 102.485 395.085 67.6631 332.627 56.4749C270.168 45.2867 203.748 57.8405 149.686 91.0465" stroke="#7B61FF" stroke-opacity="0.5" stroke-width="0.864782" stroke-miterlimit="10"/>
<path d="M1701.56 175.436C1686.9 142.243 1647.47 122.498 1609.17 120.973C1570.81 119.486 1532.97 132.438 1496.86 146.586C1423.8 175.276 1353.33 210.729 1278.86 233.559C1204.67 256.493 1124.39 266.714 1048.93 246.152C1002.73 233.559 960.104 209.727 913.367 199.602C819.706 179.295 724.087 216.161 628.758 227.138C556.765 235.431 528.482 201.754 487.57 151.56C448.157 102.905 390.705 68.3851 328.795 58.6013C267.015 48.7225 201.746 62.2443 148.181 95.4374" stroke="#7B61FF" stroke-opacity="0.5" stroke-width="0.864782" stroke-miterlimit="10"/>
<path d="M1702.93 170.449C1686.8 139.464 1646.54 120.99 1607.64 120.679C1568.6 120.445 1530.03 134.101 1492.94 148.539C1419.53 177.246 1348.24 211.654 1273.54 232.863C1199.29 253.943 1119.67 262.059 1044.18 241.498C998.132 228.957 955.468 205.928 908.861 196.265C815.529 176.879 720.351 213.17 625.403 224.056C553.833 232.267 524.318 199.839 482.977 150.721C443.171 103.427 386.334 69.0934 324.969 60.7098C263.863 52.1403 199.744 66.6301 146.681 99.8102" stroke="#7B61FF" stroke-opacity="0.5" stroke-width="0.864782" stroke-miterlimit="10"/>
<path d="M1704.3 165.462C1686.7 136.681 1645.61 119.486 1606.09 120.389C1566.39 121.409 1527.07 135.773 1489.02 150.492C1415.26 179.217 1343.18 212.669 1268.2 232.167C1193.93 251.484 1114.95 257.409 1039.41 236.843C993.523 224.35 950.825 202.133 904.347 192.933C811.34 174.467 716.603 210.18 622.039 220.979C550.893 229.108 520.228 197.864 478.373 149.891C438.247 103.903 381.928 69.9705 321.129 62.8315C260.685 55.7313 197.729 71.0336 145.168 104.201" stroke="#7B61FF" stroke-opacity="0.5" stroke-width="0.864782" stroke-miterlimit="10"/>
<path d="M1705.67 160.474C1686.6 133.902 1644.67 117.977 1604.55 120.099C1564.19 122.372 1524.11 137.441 1485.1 152.449C1410.99 181.191 1338.13 213.697 1262.88 231.476C1188.58 249.034 1110.24 252.759 1034.65 232.193C988.919 219.747 946.185 198.339 899.842 189.601C807.159 172.056 712.863 207.193 618.684 217.898C547.962 225.944 516.151 195.88 473.781 149.057C433.348 104.369 377.556 70.7351 317.303 64.9444C257.533 59.2012 195.732 75.4239 143.667 108.578" stroke="#7B61FF" stroke-opacity="0.5" stroke-width="0.864782" stroke-miterlimit="10"/>
<path d="M1707.03 155.492C1686.49 131.124 1643.74 116.478 1603.01 119.815C1561.97 123.341 1521.16 139.118 1481.18 154.412C1406.71 183.171 1333.07 214.731 1257.54 230.789C1183.22 246.593 1105.51 248.118 1029.87 227.548C984.305 215.154 941.533 194.554 895.323 186.274C802.968 169.649 709.109 204.208 615.315 214.826C545.017 222.79 512.064 193.91 469.176 148.232C428.436 104.845 373.172 71.505 313.467 67.0712C254.377 62.6849 193.721 79.8281 142.158 112.974" stroke="#7B61FF" stroke-opacity="0.5" stroke-width="0.864782" stroke-miterlimit="10"/>
<path d="M1708.4 150.505C1686.4 128.345 1642.8 114.879 1601.47 119.525C1559.76 124.213 1518.21 140.791 1477.27 156.365C1402.44 185.142 1328.03 215.759 1252.21 230.098C1177.88 244.155 1100.8 243.468 1025.12 222.902C979.709 210.556 936.902 190.764 890.822 182.946C798.792 167.242 705.374 201.226 611.964 211.749C542.09 219.631 508.004 191.931 464.588 147.402C423.55 105.316 368.809 72.2654 309.645 69.1928C251.233 66.1592 191.728 84.2315 140.662 117.36" stroke="#7B61FF" stroke-opacity="0.5" stroke-width="0.864782" stroke-miterlimit="10"/>
<path d="M1709.77 145.518C1686.29 125.561 1641.86 113.366 1599.93 119.235C1557.55 125.168 1515.25 142.458 1473.34 158.322C1398.17 187.116 1322.98 216.8 1246.88 229.406C1172.53 241.718 1096.07 238.822 1020.35 218.252C975.099 205.953 932.254 186.973 886.308 179.614C794.602 164.83 701.625 198.239 608.6 208.671C539.15 216.472 503.94 189.951 459.983 146.568C418.655 105.778 364.429 73.0212 305.805 71.3056C248.077 69.6202 189.713 88.6216 139.149 121.741" stroke="#7B61FF" stroke-opacity="0.5" stroke-width="0.864782" stroke-miterlimit="10"/>
<path d="M1711.14 140.532C1686.19 122.783 1640.92 111.854 1598.39 118.946C1555.33 126.128 1512.27 144.041 1469.43 160.276C1393.84 188.927 1317.94 217.842 1241.55 228.711C1167.2 239.29 1091.36 234.173 1015.59 213.599C970.494 201.347 927.614 183.176 881.802 176.283C790.421 162.415 697.885 195.25 605.24 205.591C536.214 213.313 499.88 187.968 455.387 145.735C413.773 106.237 360.062 73.7695 301.979 73.4237C244.933 73.0824 187.715 93.0172 137.644 126.124" stroke="#7B61FF" stroke-opacity="0.5" stroke-width="0.864782" stroke-miterlimit="10"/>
<path d="M1712.51 135.549C1686.09 120.004 1639.99 110.346 1596.85 118.66C1553.12 127.092 1509.31 145.708 1465.51 162.238C1389.57 190.898 1312.9 218.901 1236.22 228.023C1161.86 236.869 1086.64 229.527 1010.83 208.953C965.889 196.753 922.974 179.39 877.288 172.955C786.235 160.008 694.136 192.268 601.876 202.518C533.273 210.158 495.824 185.989 450.786 144.909C408.892 106.703 355.69 74.5255 298.143 75.5453C241.785 76.5436 185.704 97.4205 136.135 130.51" stroke="#7B61FF" stroke-opacity="0.5" stroke-width="0.864782" stroke-miterlimit="10"/>
<path d="M1713.88 130.562C1685.98 117.226 1639.05 108.833 1595.31 118.371C1550.91 128.051 1506.36 147.372 1461.59 164.195C1385.3 192.864 1307.87 219.959 1230.89 227.332C1156.53 234.458 1081.93 224.882 1006.07 204.307C961.284 192.155 918.335 175.6 872.783 169.627C782.054 157.601 690.396 189.281 598.521 199.445C530.342 207.004 491.785 184.005 446.19 144.083C404.023 107.161 351.323 75.2773 294.312 77.6714C238.642 80.0049 183.702 101.824 134.63 134.905" stroke="#7B61FF" stroke-opacity="0.5" stroke-width="0.864782" stroke-miterlimit="10"/>
<path d="M1715.25 125.575C1685.89 114.443 1638.11 107.326 1593.77 118.082C1548.7 129.011 1503.4 149.041 1457.67 166.149C1381.02 194.831 1302.84 221.019 1225.56 226.641C1151.2 232.047 1077.21 220.232 1001.3 199.658C956.679 187.553 913.691 171.806 868.273 166.296C777.868 155.19 686.651 186.296 595.161 196.365C527.406 203.841 487.747 182.009 441.593 143.25C399.158 107.611 346.96 76.0168 290.486 79.7851C235.503 83.454 181.7 106.215 133.13 139.283" stroke="#7B61FF" stroke-opacity="0.5" stroke-width="0.864782" stroke-miterlimit="10"/>
<path d="M1716.62 120.587C1685.78 111.663 1637.18 105.821 1592.23 117.791C1546.49 129.973 1500.44 150.708 1453.75 168.106C1376.75 196.8 1297.81 222.089 1220.23 225.948C1145.87 229.648 1072.48 215.586 996.533 195.007C952.066 182.954 909.043 168.015 863.759 162.968C773.679 152.782 682.902 183.309 591.798 193.291C524.466 200.685 483.713 180.016 436.993 142.419C394.294 108.059 342.593 76.7548 286.651 81.9059C232.36 86.9015 179.694 110.618 131.621 143.672" stroke="#7B61FF" stroke-opacity="0.5" stroke-width="0.864782" stroke-miterlimit="10"/>
<path d="M1717.99 115.605C1685.68 108.89 1636.24 104.318 1590.69 117.507C1544.28 130.942 1497.49 152.381 1449.83 170.064C1372.48 198.776 1292.78 223.17 1214.9 225.258C1140.55 227.25 1067.77 210.936 991.777 190.358C947.469 178.353 904.408 164.222 859.253 159.636C769.502 150.371 679.162 180.323 588.442 190.211C521.534 197.523 479.687 178.011 432.401 141.586C389.447 108.501 338.235 77.4858 282.824 84.0198C229.225 90.3421 177.692 115.009 130.121 148.051" stroke="#7B61FF" stroke-opacity="0.5" stroke-width="0.864782" stroke-miterlimit="10"/>
<path d="M1719.35 110.618C1685.58 106.106 1635.3 102.814 1589.15 117.217C1542.07 131.91 1494.53 154.049 1445.92 172.022C1368.21 200.751 1287.75 224.255 1209.57 224.566C1135.22 224.864 1063.05 206.291 987.011 185.708C942.86 173.75 899.764 160.431 854.743 156.304C765.316 147.96 675.417 177.337 585.082 187.134C518.598 194.363 475.67 176.006 427.8 140.756C384.595 108.941 333.872 78.2158 278.988 86.1414C226.081 93.7817 175.681 119.408 128.611 152.437" stroke="#7B61FF" stroke-opacity="0.5" stroke-width="0.864782" stroke-miterlimit="10"/>
<path d="M1720.72 105.631C1685.48 103.328 1634.37 101.31 1587.61 116.923C1539.86 132.869 1491.58 155.713 1442 173.975C1363.94 202.726 1282.72 225.344 1204.24 223.875C1129.89 222.483 1058.33 201.645 982.251 181.062C938.259 169.157 895.128 156.642 850.237 152.977C761.135 145.553 671.677 174.351 581.727 184.057C515.666 191.205 471.657 173.997 423.208 139.926C379.761 109.374 329.513 78.9421 275.166 88.2635C222.946 97.2175 173.688 123.812 127.115 156.828" stroke="#7B61FF" stroke-opacity="0.5" stroke-width="0.864782" stroke-miterlimit="10"/>
<path d="M1722.09 100.644C1685.38 100.545 1633.43 99.8056 1586.07 116.633C1537.64 133.837 1488.62 157.385 1438.08 175.928C1359.67 204.696 1277.7 226.437 1198.9 223.179C1124.56 220.102 1053.61 196.991 977.482 176.408C933.646 164.55 890.48 152.847 845.723 149.645C756.949 143.137 667.929 171.365 578.363 180.98C512.726 188.045 467.645 171.978 418.608 139.096C374.919 109.801 325.146 79.6634 271.331 90.3806C219.803 100.644 171.678 128.206 125.602 161.209" stroke="#7B61FF" stroke-opacity="0.5" stroke-width="0.864782" stroke-miterlimit="10"/>
<path d="M1723.46 95.6617C1685.27 97.7705 1632.5 98.3107 1584.53 116.348C1535.44 134.81 1485.67 159.062 1434.16 177.89C1355.4 206.68 1272.67 227.548 1193.58 222.492C1119.24 217.738 1048.9 192.35 972.721 171.762C929.045 159.952 885.841 149.057 841.214 146.318C752.764 140.73 664.184 168.379 574.999 177.903C509.79 184.887 463.637 169.952 414.003 138.263C370.08 110.216 320.775 80.3724 267.491 92.4984C216.655 104.067 169.667 132.601 124.089 165.596" stroke="#7B61FF" stroke-opacity="0.5" stroke-width="0.864782" stroke-miterlimit="10"/>
<path d="M1724.83 90.6743C1685.17 94.9871 1631.56 96.8064 1582.98 116.059C1533.23 135.777 1482.71 160.734 1430.24 179.847C1351.13 208.663 1267.63 228.662 1188.24 221.8C1113.91 215.374 1044.17 187.699 967.952 167.112C924.432 155.353 881.193 145.267 836.7 142.985C748.574 138.318 660.435 165.392 571.635 174.826C506.85 181.727 459.633 167.92 409.402 137.432C365.246 110.631 316.408 81.0807 263.66 94.6155C213.512 107.485 167.661 137 122.584 169.977" stroke="#7B61FF" stroke-opacity="0.5" stroke-width="0.864782" stroke-miterlimit="10"/>
<path d="M1726.2 85.6877C1685.07 92.2088 1630.63 95.3073 1581.45 115.769C1531.02 136.75 1479.81 162.514 1426.33 181.801C1346.92 210.798 1262.61 229.778 1182.92 221.105C1108.58 213.015 1039.46 183.05 963.196 162.463C919.835 150.751 876.557 141.473 832.198 139.654C744.397 135.907 656.699 162.406 568.284 171.749C503.923 178.569 455.646 165.881 404.814 136.603C360.434 111.042 312.053 81.7855 259.838 96.7377C210.377 110.899 165.667 141.4 121.088 174.364" stroke="#7B61FF" stroke-opacity="0.5" stroke-width="0.864782" stroke-miterlimit="10"/>
<path d="M1727.57 80.7002C1684.97 89.4252 1629.74 93.8979 1579.91 115.479C1528.86 137.812 1476.85 164.182 1422.41 183.758C1342.65 212.772 1257.58 230.905 1177.59 220.417C1103.25 210.668 1034.74 178.404 958.43 157.816C915.226 146.153 871.913 137.687 827.684 136.33C740.211 133.504 652.95 159.424 564.92 168.676C500.982 175.413 451.651 163.836 400.214 135.777C355.608 111.447 307.682 82.4893 256.003 98.8589C207.229 114.312 163.657 145.798 119.579 178.754" stroke="#7B61FF" stroke-opacity="0.5" stroke-width="0.864782" stroke-miterlimit="10"/>
<path d="M1728.93 75.718C1684.86 86.6513 1628.81 92.3988 1578.37 115.194C1526.64 138.781 1473.9 165.859 1418.49 185.716C1338.38 214.748 1252.54 232.038 1172.26 219.726C1097.92 208.326 1030.02 173.759 953.67 153.167C910.625 141.551 867.274 133.893 823.179 132.999C736.03 131.093 649.21 156.438 561.565 165.6C498.051 172.255 447.668 161.775 395.617 134.948C350.791 111.837 303.31 83.1855 252.176 100.981C204.085 117.718 161.659 150.198 118.078 183.141" stroke="#7B61FF" stroke-opacity="0.5" stroke-width="0.864782" stroke-miterlimit="10"/>
<path d="M1730.3 70.7307C1684.77 83.8679 1627.88 90.8903 1576.83 114.905C1524.44 139.749 1470.94 167.527 1414.57 187.673C1334.11 216.722 1247.5 233.174 1166.93 219.034C1092.58 205.988 1025.3 169.113 948.905 148.517C906.016 136.953 862.634 130.103 818.669 129.667C731.845 128.681 645.466 153.448 558.205 162.518C495.115 169.091 443.682 159.705 391.021 134.109C345.974 112.217 298.935 83.8636 248.345 103.094C200.929 121.114 159.648 154.593 116.569 187.522" stroke="#7B61FF" stroke-opacity="0.5" stroke-width="0.864782" stroke-miterlimit="10"/>
<path d="M1731.67 65.7441C1684.66 81.0896 1626.94 89.3868 1575.29 114.615C1522.23 140.713 1467.99 169.2 1410.65 189.631C1329.84 218.698 1242.46 234.32 1161.6 218.343C1087.24 203.655 1020.59 164.463 944.144 143.867C901.415 132.351 857.995 126.309 814.163 126.335C727.663 126.27 641.726 150.462 554.85 159.442C492.183 165.933 439.704 157.627 386.429 133.28C341.166 112.593 294.563 84.5511 244.518 105.212C197.785 124.507 157.651 158.988 115.073 191.905" stroke="#7B61FF" stroke-opacity="0.5" stroke-width="0.864782" stroke-miterlimit="10"/>
<path d="M1733.04 60.7571C1684.56 78.3065 1626.01 87.8785 1573.75 114.326C1520.02 141.676 1465.04 170.868 1406.73 191.585C1325.57 220.664 1237.42 235.469 1156.27 217.647C1081.9 201.321 1015.87 159.813 939.379 139.217C896.806 127.748 853.351 122.515 809.649 123.003C723.478 123.855 637.977 147.476 551.486 156.361C489.243 162.769 435.717 155.535 381.824 132.446C336.345 112.956 290.174 85.2251 240.679 107.329C194.616 127.895 155.64 163.383 113.556 196.291" stroke="#7B61FF" stroke-opacity="0.5" stroke-width="0.864782" stroke-miterlimit="10"/>
<path d="M1734.41 55.7744C1684.45 75.5321 1625.07 86.3789 1572.21 114.04C1517.81 142.644 1462.08 172.544 1402.81 193.547C1321.29 222.643 1232.37 236.627 1150.94 216.964C1076.56 199.004 1011.15 155.172 934.614 134.576C892.201 123.159 848.707 118.734 805.139 119.684C719.292 121.456 634.232 144.498 548.126 153.297C486.307 159.623 431.739 153.452 377.228 131.629C331.533 113.332 285.79 85.9165 236.852 109.46C191.459 131.296 153.638 167.795 112.055 200.686" stroke="#7B61FF" stroke-opacity="0.5" stroke-width="0.864782" stroke-miterlimit="10"/>
<path d="M1735.78 50.7876C1684.35 72.7492 1624.14 84.8709 1570.67 113.751C1515.61 143.608 1459.13 174.212 1398.89 195.5C1317.03 224.614 1227.32 237.785 1145.6 216.269C1071.21 196.68 1006.43 150.522 929.849 129.922C887.592 118.552 844.063 114.935 800.629 116.348C715.107 119.041 630.488 141.508 544.762 150.215C483.367 156.46 427.753 151.339 372.627 130.791C326.716 113.678 281.397 86.5822 233.017 111.573C188.29 134.676 151.632 172.186 110.546 205.063" stroke="#7B61FF" stroke-opacity="0.5" stroke-width="0.864782" stroke-miterlimit="10"/>
<path d="M1737.15 45.801C1684.25 69.9709 1623.21 83.3674 1569.13 113.458C1513.4 144.568 1456.17 175.881 1394.97 197.454C1312.75 226.584 1222.26 238.944 1140.27 215.573C1065.85 194.359 1001.71 145.868 925.08 125.268C882.983 113.946 839.415 111.141 796.115 113.013C710.921 116.625 626.739 138.513 541.398 147.13C480.426 153.297 423.77 149.213 368.026 129.953C321.895 114.015 276.999 87.2437 229.181 113.682C185.116 138.051 149.621 176.572 109.037 209.441" stroke="#7B61FF" stroke-opacity="0.5" stroke-width="0.864782" stroke-miterlimit="10"/>
<path d="M1738.52 40.8135C1684.15 67.1873 1622.28 81.8586 1567.59 113.167C1511.19 145.531 1453.22 177.553 1391.06 199.411C1308.48 228.559 1217.2 240.114 1134.94 214.881C1060.5 192.047 996.995 141.222 920.319 120.622C878.377 109.352 834.78 107.351 791.605 109.684C706.736 114.218 622.999 135.531 538.038 144.057C477.49 150.142 419.788 147.091 363.426 129.127C317.078 114.356 272.598 87.9129 225.35 115.808C181.942 141.438 147.619 180.98 107.532 213.831" stroke="#7B61FF" stroke-opacity="0.5" stroke-width="0.864782" stroke-miterlimit="10"/>
<path d="M1739.89 35.8313C1684.05 64.4134 1621.35 80.3595 1566.05 112.883C1508.99 146.504 1450.27 179.226 1387.14 201.369C1304.21 230.534 1212.08 241.45 1129.61 214.195C1055.09 189.887 992.274 136.582 915.559 115.977C873.777 104.754 830.14 103.566 787.1 106.362C702.555 111.815 619.259 132.554 534.683 140.985C474.559 146.988 415.81 144.952 358.834 128.302C312.265 114.689 268.196 88.5832 221.524 117.935C178.769 144.823 145.618 185.384 106.032 218.227" stroke="#7B61FF" stroke-opacity="0.5" stroke-width="0.864782" stroke-miterlimit="10"/>
<path d="M1741.25 30.8442C1683.95 61.6346 1620.41 78.8512 1564.5 112.593C1506.77 147.467 1447.31 180.898 1383.22 203.326C1299.94 232.509 1207.03 242.548 1124.28 213.503C1049.74 187.51 987.556 131.932 910.794 111.327C869.168 100.152 825.496 99.7713 782.59 103.03C698.369 109.404 615.514 129.563 531.323 137.908C471.623 143.829 411.823 142.804 354.238 127.472C307.444 115.013 263.747 89.1881 217.693 120.052C175.548 148.146 143.615 189.778 104.527 222.609" stroke="#7B61FF" stroke-opacity="0.5" stroke-width="0.864782" stroke-miterlimit="10"/>
<path d="M1742.62 25.8574C1683.85 58.8517 1619.48 77.3475 1562.97 112.304C1504.57 148.431 1444.36 182.566 1379.3 205.284C1295.67 234.484 1202 243.65 1118.95 212.812C1044.4 185.129 982.839 127.286 906.033 106.677C864.567 95.5537 820.857 95.9816 778.085 99.698C694.192 106.993 611.774 126.577 527.968 134.827C468.692 140.665 407.841 140.639 349.641 126.634C302.623 115.32 259.371 89.897 213.862 122.165C172.396 151.568 141.609 194.174 103.023 226.986" stroke="#7B61FF" stroke-opacity="0.5" stroke-width="0.864782" stroke-miterlimit="10"/>
</g>
</svg>
