<svg width="1440" height="824" viewBox="0 0 1440 824" fill="none" xmlns="http://www.w3.org/2000/svg">
<g opacity="0.7">
<path d="M-1145 -84C-1005.37 11.3113 -859.403 98.6134 -702.979 162.735C-652.264 183.526 -600.15 201.941 -545.962 210.179C-435.467 226.978 -323.417 200.743 -211.704 197.223C-69.8243 192.747 72.8499 226.393 198.428 292.393C292.918 342.057 399.227 414.094 506.114 432.173C603.216 448.595 707.674 359.24 793.663 324.376C881.739 288.671 980.247 281.065 1073.26 299.433C1121.99 309.057 1169.39 325.803 1213.09 349.454C1254.88 372.076 1291.28 414.175 1340.83 381.088C1357.2 370.151 1368.52 353.297 1382.6 339.52C1431.51 291.646 1517.04 287.903 1569.94 331.329" stroke="#7B61FF" stroke-opacity="0.5" stroke-width="0.552088" stroke-miterlimit="10"/>
<path d="M-1138.84 -81.0117C-1002.39 15.5784 -857.924 103.796 -702.361 167.682C-650.563 188.991 -597.344 206.847 -542.208 216.041C-475.676 227.046 -408.452 222.967 -341.012 217.165C-294.975 213.208 -248.837 208.442 -202.747 207.11C-111.696 204.485 -20.3222 215.846 66.791 239.773C117.728 253.766 167.197 272.066 214.344 294.493C247.465 310.168 281.905 328.327 317.227 346.008C366.905 370.803 418.347 394.63 470.616 409.888C489.381 415.387 508.247 419.782 527.132 422.669C605.207 434.555 687.911 384.217 762.304 347.186C782.246 337.211 801.59 328.192 820.106 321.583C896.208 294.169 979.202 287.291 1059.53 299.231C1073.36 301.284 1087.12 303.895 1100.76 307.058C1149.41 318.332 1196.77 336.545 1240.85 361.017C1266.96 375.515 1291.18 397.093 1317.82 403.911C1334.22 408.111 1351.46 406.637 1370.64 394.643C1387.4 384.164 1399.36 367.97 1413.96 354.664C1464.63 308.404 1550.85 304.326 1605.27 347.193" stroke="#7B61FF" stroke-opacity="0.5" stroke-width="0.552088" stroke-miterlimit="10"/>
<path d="M-1132.68 -78.0305C-999.413 19.8452 -856.443 108.971 -701.735 172.622C-648.847 194.456 -594.531 211.753 -538.446 221.89C-471.06 233.91 -402.832 230.976 -334.329 225.982C-287.552 222.576 -240.64 218.208 -193.775 216.983C-101.203 214.547 -8.30858 224.918 80.2518 246.692C132.03 259.419 182.307 276.077 230.275 296.579C264.049 310.868 299.061 327.478 334.901 343.578C385.36 366.125 437.508 387.636 490.713 401.494C509.781 406.502 528.956 410.52 548.178 413.158C627.787 423.988 712.101 376.08 787.846 342.03C808.105 332.836 827.772 324.679 846.57 318.796C923.709 294.66 1006.9 290.683 1087.12 305.436C1100.92 307.967 1114.65 311.063 1128.28 314.684C1176.85 327.606 1224.17 347.286 1268.63 372.587C1294.97 387.582 1319.6 409.268 1346.74 416.423C1363.46 420.831 1380.99 419.579 1400.47 408.205C1417.63 398.183 1430.21 382.656 1445.34 369.814C1497.76 325.17 1584.67 320.755 1640.6 363.056" stroke="#7B61FF" stroke-opacity="0.5" stroke-width="0.552088" stroke-miterlimit="10"/>
<path d="M-1126.53 -75.0481C-996.431 24.1064 -854.961 114.154 -701.122 177.563C-647.143 199.915 -591.73 216.654 -534.696 227.746C-466.455 240.79 -397.225 238.993 -327.658 234.806C-280.14 231.959 -232.461 227.988 -184.816 226.858C-90.7297 224.616 3.69285 233.992 93.6935 253.605C146.32 265.074 197.351 280.217 246.194 298.659C280.587 311.649 316.212 326.618 352.557 341.142C403.803 361.442 456.644 380.637 510.785 393.089C530.148 397.605 549.647 401.246 569.192 403.642C650.342 413.415 736.338 368.139 813.363 336.862C833.958 328.496 853.914 321.119 873.009 315.99C951.13 295.004 1034.58 294.055 1114.68 311.629C1128.46 314.644 1142.16 318.211 1155.76 322.297C1204.25 336.868 1251.53 358.016 1296.37 384.144C1322.94 399.638 1347.98 421.431 1375.62 428.922C1392.67 433.546 1410.49 432.523 1430.27 421.747C1447.82 412.19 1461.04 397.316 1476.68 384.938C1530.86 341.91 1618.46 337.151 1675.91 378.901" stroke="#7B61FF" stroke-opacity="0.5" stroke-width="0.552088" stroke-miterlimit="10"/>
<path d="M-1120.37 -72.0586C-993.449 28.3747 -853.48 119.338 -700.502 182.518C-645.433 205.395 -588.95 221.683 -530.94 233.609C-461.871 247.804 -391.618 247.017 -320.981 243.645C-272.73 241.349 -224.277 237.782 -175.857 236.753C-80.2499 234.706 15.6939 243.093 107.142 260.545C160.609 270.749 212.448 284.29 262.112 300.767C297.158 312.397 333.355 325.784 370.218 338.741C422.245 356.792 475.793 373.672 530.869 384.717C550.536 388.742 570.35 392.006 590.219 394.153C672.903 402.869 760.522 360.083 838.892 331.721C859.81 324.149 880.062 317.586 899.453 313.212C978.544 295.376 1062.25 297.455 1142.24 317.842C1156.01 321.335 1169.68 325.38 1183.25 329.93C1231.67 346.151 1278.91 368.766 1324.12 395.715C1350.94 411.706 1376.37 433.601 1404.52 441.435C1421.89 446.275 1440.01 445.48 1460.08 435.311C1478.04 426.218 1491.87 412.003 1508.04 400.09C1563.97 358.676 1652.27 353.581 1711.23 394.766" stroke="#7B61FF" stroke-opacity="0.5" stroke-width="0.552088" stroke-miterlimit="10"/>
<path d="M-1114.22 -69.0776C-990.474 32.6412 -852.007 124.52 -699.883 187.457C-643.723 210.853 -586.151 226.609 -527.184 239.458C-457.268 254.696 -386.005 255.025 -314.304 252.461C-265.313 250.724 -216.092 247.554 -166.892 246.619C-69.7707 244.768 27.6942 252.158 120.589 267.457C174.904 276.402 227.544 288.328 278.03 302.846C313.722 313.11 350.47 325.016 387.879 336.303C440.653 352.235 494.955 366.537 550.946 376.31C570.922 379.796 591.04 382.731 611.245 384.629C695.471 392.288 784.697 351.986 864.42 326.551C885.655 319.773 906.217 314.025 925.904 310.404C1005.96 295.698 1089.93 300.827 1169.82 324.034C1183.56 328.011 1197.2 332.528 1210.76 337.542C1259.09 355.418 1306.3 379.5 1351.89 407.27C1378.94 423.76 1404.79 445.762 1433.43 453.933C1451.13 458.988 1469.54 458.423 1489.9 448.858C1508.26 440.23 1522.71 426.675 1539.41 415.226C1597.09 375.428 1686.08 369.997 1746.56 410.622" stroke="#7B61FF" stroke-opacity="0.5" stroke-width="0.552088" stroke-miterlimit="10"/>
<path d="M-1108.06 -66.0896C-987.491 36.908 -850.525 129.702 -699.263 192.404C-642.02 216.324 -583.35 231.535 -523.428 245.32C-452.663 261.601 -380.39 263.041 -307.626 261.291C-257.894 260.107 -207.9 257.34 -157.933 256.506C-59.2901 254.85 39.6959 261.251 134.038 274.382C189.194 282.062 242.648 292.38 293.949 304.939C330.293 313.837 367.614 324.181 405.534 333.88C459.096 347.583 514.098 359.53 571.024 367.917C591.297 370.905 611.737 373.476 632.265 375.118C718.026 381.721 808.861 343.902 889.944 321.388C911.495 315.405 932.353 310.465 952.349 307.611C1033.36 296.034 1117.61 304.212 1197.39 330.232C1211.1 334.688 1224.73 339.682 1238.26 345.154C1286.51 364.679 1333.67 390.228 1379.65 418.826C1406.94 435.814 1433.19 457.924 1462.34 466.432C1480.35 471.702 1499.08 471.372 1519.72 462.407C1538.49 454.249 1553.55 441.34 1570.77 430.356C1630.21 392.173 1719.89 386.399 1781.88 426.472" stroke="#7B61FF" stroke-opacity="0.5" stroke-width="0.552088" stroke-miterlimit="10"/>
<path d="M-1101.9 -63.1084C-984.503 41.168 -849.044 134.877 -698.637 197.344C-640.304 221.782 -580.543 236.448 -519.665 251.168C-448.053 268.486 -374.771 271.05 -300.943 270.108C-250.471 269.482 -199.709 267.113 -148.961 266.372C-48.8042 264.912 51.7096 270.316 147.492 281.294C203.49 287.715 257.758 296.418 309.879 307.018C346.884 314.55 384.777 323.333 423.208 331.45C477.557 342.919 533.252 352.517 591.115 359.516C611.683 362.007 632.447 364.208 653.305 365.601C740.607 371.147 833.037 335.805 915.479 316.219C937.347 311.023 958.508 306.897 978.807 304.804C1060.76 296.343 1145.31 307.583 1224.97 336.424C1238.67 341.357 1252.26 346.836 1265.76 352.766C1313.93 373.94 1361.07 400.956 1407.42 430.376C1434.94 447.862 1461.6 470.079 1491.25 478.923C1509.58 484.402 1528.62 484.321 1549.54 475.942C1568.73 468.255 1584.4 455.999 1602.14 445.479C1663.33 408.905 1753.71 402.801 1817.22 442.309" stroke="#7B61FF" stroke-opacity="0.5" stroke-width="0.552088" stroke-miterlimit="10"/>
<path d="M-1095.75 -60.1274C-981.528 45.4345 -847.57 140.059 -698.024 202.29C-638.6 227.254 -577.75 241.368 -515.916 257.03C-443.455 275.377 -369.164 279.072 -294.273 278.944C-243.067 278.87 -191.531 276.905 -140.002 276.265C-38.3243 275 63.7105 279.409 160.94 288.232C217.786 293.388 272.869 300.469 325.798 309.124C363.462 315.283 401.92 322.511 440.863 329.04C495.999 338.281 552.387 345.53 611.192 351.136C632.064 353.128 653.137 354.959 674.325 356.103C763.161 360.593 857.186 327.721 941.002 311.069C963.186 306.661 984.643 303.349 1005.24 302.017C1088.15 296.659 1172.98 310.975 1252.52 342.635C1266.19 348.054 1279.76 354.003 1293.25 360.397C1341.34 383.221 1388.44 411.704 1435.17 441.951C1462.93 459.935 1489.99 482.254 1520.14 491.441C1538.8 497.135 1558.16 497.304 1579.35 489.51C1598.95 482.301 1615.23 470.684 1633.49 460.635C1696.44 425.677 1787.51 419.236 1852.52 458.186" stroke="#7B61FF" stroke-opacity="0.5" stroke-width="0.552088" stroke-miterlimit="10"/>
<path d="M-1089.59 -57.1392C-978.547 49.7016 -846.09 145.242 -697.399 207.237C-636.884 232.719 -574.943 246.288 -512.147 262.885C-438.838 282.262 -363.537 287.088 -287.583 287.768C-235.637 288.253 -183.327 286.678 -131.031 286.139C-27.8384 285.069 75.7242 288.488 174.394 295.145C232.081 299.042 287.978 304.5 341.722 311.21C380.045 315.996 419.076 321.67 458.53 326.61C514.454 333.617 571.536 338.523 631.283 342.736C652.45 344.231 673.846 345.691 695.364 346.586C785.742 350.019 881.362 319.61 966.544 305.907C989.037 302.286 1010.8 299.782 1031.71 299.217C1115.55 296.955 1200.67 314.354 1280.11 348.828C1293.76 354.724 1307.3 361.151 1320.77 368.01C1368.77 392.482 1415.83 422.44 1462.95 453.508C1490.93 471.99 1518.41 494.416 1549.06 503.94C1568.04 509.849 1587.72 510.267 1609.18 503.058C1629.21 496.328 1646.09 485.357 1664.88 475.766C1729.57 442.423 1821.34 435.638 1887.87 474.029" stroke="#7B61FF" stroke-opacity="0.5" stroke-width="0.552088" stroke-miterlimit="10"/>
<path d="M-1083.44 -54.157C-975.572 53.9626 -844.616 150.425 -696.787 212.178C-635.182 238.184 -572.151 251.201 -508.399 268.741C-434.235 289.148 -357.938 295.105 -280.907 296.592C-228.22 297.629 -175.143 296.458 -122.066 296.02C-17.3529 295.145 87.7309 297.568 187.848 302.071C246.383 304.703 303.095 308.532 357.645 313.304C396.629 316.71 436.231 320.836 476.197 324.194C532.915 328.959 590.684 331.531 651.366 334.357C672.83 335.353 694.549 336.444 716.39 337.09C808.302 339.466 905.511 311.514 992.072 300.758C1014.88 297.925 1036.94 296.229 1058.16 296.431C1142.94 297.252 1228.35 317.746 1307.69 355.04C1321.32 361.421 1334.83 368.32 1348.27 375.643C1396.19 401.764 1443.22 433.189 1490.7 465.078C1518.92 484.058 1546.81 506.592 1577.97 516.452C1597.27 522.577 1617.26 523.25 1638.99 516.621C1659.44 510.375 1676.94 500.077 1696.23 490.917C1762.75 459.33 1855.14 452.068 1923.19 489.9" stroke="#7B61FF" stroke-opacity="0.5" stroke-width="0.552088" stroke-miterlimit="10"/>
<path d="M-1077.29 -51.1758C-972.585 58.2293 -843.13 155.6 -696.169 217.117C-633.474 243.643 -569.345 256.108 -504.645 274.59C-429.633 296.02 -352.326 303.114 -274.232 305.409C-220.805 307.004 -166.961 306.23 -113.103 305.887C-6.87504 305.207 99.7367 306.634 201.294 308.983C260.67 310.356 318.21 312.55 373.562 315.384C413.205 317.409 453.379 319.981 493.85 321.757C551.356 324.281 609.817 324.524 671.442 325.951C693.208 326.455 715.237 327.169 737.414 327.566C830.868 328.885 929.665 303.383 1017.6 295.582C1040.72 293.529 1063.08 292.641 1084.61 293.624C1170.32 297.514 1256.04 321.118 1335.26 361.225C1348.86 368.084 1362.35 375.467 1375.76 383.248C1423.61 411.018 1470.6 443.91 1518.47 476.627C1546.92 496.106 1575.22 518.74 1606.87 528.944C1626.49 535.284 1646.81 536.22 1668.81 530.155C1689.69 524.401 1707.78 514.736 1727.6 506.033C1795.86 476.062 1888.95 468.463 1958.51 505.737" stroke="#7B61FF" stroke-opacity="0.5" stroke-width="0.552088" stroke-miterlimit="10"/>
<path d="M-1071.12 -48.1863C-969.601 62.4976 -841.647 160.791 -695.54 222.072C-631.762 249.122 -566.536 261.029 -500.88 280.46C-425.02 302.913 -346.704 311.138 -267.546 314.247C-213.385 316.394 -158.767 316.024 -104.135 315.782C3.61393 315.297 111.747 315.735 214.751 315.923C274.976 316.031 333.329 316.596 389.496 317.491C429.798 318.137 470.545 319.154 511.527 319.349C569.827 319.632 628.975 317.545 691.535 317.572C713.598 317.579 735.95 317.922 758.45 318.077C853.438 318.339 953.824 295.28 1043.13 290.448C1066.56 289.176 1089.23 289.095 1111.06 290.852C1197.7 297.804 1283.72 324.525 1362.83 367.452C1376.41 374.795 1389.87 382.65 1403.27 390.895C1451.04 420.321 1497.99 454.673 1546.23 488.218C1574.92 508.195 1603.62 530.937 1635.78 541.477C1655.72 548.026 1676.37 549.231 1698.63 543.739C1719.94 538.482 1738.62 529.443 1758.97 521.205C1828.99 492.856 1922.77 484.907 1993.85 521.622" stroke="#7B61FF" stroke-opacity="0.5" stroke-width="0.552088" stroke-miterlimit="10"/>
<path d="M-1064.97 -45.2053C-966.627 66.7574 -840.053 165.676 -694.929 227.012C-630.006 254.452 -563.737 265.928 -497.132 286.308C-420.417 309.777 -341.098 319.146 -260.877 323.07C-205.976 325.776 -150.583 325.803 -95.1776 325.655C14.0858 325.365 123.739 324.807 228.191 322.835C289.257 321.684 348.431 320.6 405.405 319.57C446.367 318.83 487.686 318.292 529.173 316.919C588.267 314.96 648.095 310.545 711.604 309.172C733.963 308.687 756.638 308.653 779.468 308.559C875.998 307.765 977.965 287.143 1068.65 285.278C1092.39 284.787 1115.36 285.514 1137.5 288.044C1225.08 298.053 1311.4 327.896 1390.39 373.637C1403.95 381.458 1417.39 389.79 1430.76 398.5C1478.44 429.574 1525.36 465.395 1573.98 499.761C1602.91 520.235 1632.02 543.085 1664.67 553.962C1684.94 560.726 1705.91 562.2 1728.43 557.273C1750.17 552.515 1769.45 544.102 1790.31 536.328C1862.08 509.601 1956.56 501.309 2029.15 537.465" stroke="#7B61FF" stroke-opacity="0.5" stroke-width="0.552088" stroke-miterlimit="10"/>
<path d="M-1058.81 -42.2229C-963.645 71.0253 -838.571 170.853 -694.302 231.953C-628.289 259.912 -560.93 270.828 -493.369 292.158C-415.799 316.643 -335.477 327.156 -254.193 331.888C-198.551 335.146 -142.392 335.576 -86.2052 335.529C24.5794 335.428 135.754 333.887 241.653 329.754C303.567 327.338 363.563 324.612 421.338 321.658C462.966 319.524 504.85 317.444 546.849 314.49C606.737 310.283 667.251 303.552 731.703 300.773C754.364 299.797 777.349 299.393 800.509 299.043C898.573 297.192 1002.13 279.006 1094.2 280.11C1118.25 280.399 1141.52 281.934 1163.96 285.239C1252.49 298.289 1339.09 331.269 1417.98 379.83C1431.52 388.129 1444.92 396.939 1458.27 406.113C1505.88 438.837 1552.76 476.13 1601.76 511.318C1630.92 532.283 1660.44 555.241 1693.6 566.461C1714.19 573.441 1735.49 575.191 1758.26 570.823C1780.44 566.569 1800.3 558.768 1821.69 551.459C1895.21 526.347 1990.39 517.719 2064.5 553.31" stroke="#7B61FF" stroke-opacity="0.5" stroke-width="0.552088" stroke-miterlimit="10"/>
<path d="M-1052.66 -39.2358C-960.665 75.2912 -837.099 176.041 -693.691 236.899C-626.588 265.375 -558.132 275.734 -489.622 298.019C-411.198 323.521 -329.872 335.178 -247.524 340.717C-191.143 344.534 -134.216 345.361 -77.2554 345.408C35.0436 345.503 147.746 342.965 255.092 336.679C317.847 333.004 378.664 328.629 437.247 323.75C479.535 320.23 521.991 316.595 564.501 312.065C625.177 305.604 686.384 296.565 751.771 292.378C774.729 290.911 798.037 290.131 821.52 289.531C921.125 286.624 1026.26 270.861 1119.71 274.946C1144.07 276.01 1167.64 278.352 1190.4 282.444C1279.86 298.53 1366.77 334.653 1445.54 386.034C1459.06 394.818 1472.44 404.106 1485.76 413.737C1533.28 448.11 1580.12 486.871 1629.51 522.886C1658.91 544.35 1688.82 567.416 1722.49 578.972C1743.4 586.167 1765.03 588.2 1788.07 584.383C1810.68 580.634 1831.13 573.453 1853.05 566.608C1928.32 543.112 2024.19 534.14 2099.81 569.179" stroke="#7B61FF" stroke-opacity="0.5" stroke-width="0.552088" stroke-miterlimit="10"/>
<path d="M-1046.51 -36.2537C-957.683 79.5522 -835.74 181.507 -693.066 241.839C-624.926 270.976 -555.318 280.634 -485.859 303.868C-406.58 330.386 -324.259 343.188 -240.841 349.535C-183.726 353.903 -126.025 355.128 -68.2836 355.283C45.5364 355.572 159.76 352.039 268.546 343.592C332.149 338.651 393.781 332.628 453.178 325.83C496.125 320.91 539.154 315.734 582.168 309.636C643.638 300.927 705.532 289.572 771.862 283.979C795.116 282.021 818.747 280.863 842.559 280.015C943.699 276.051 1050.42 262.711 1145.25 269.784C1169.93 271.629 1193.81 274.772 1216.86 279.645C1307.26 298.76 1394.46 338.032 1473.12 392.227C1486.61 401.488 1499.97 411.254 1513.27 421.35C1560.71 457.372 1607.52 497.6 1657.28 534.436C1686.92 556.398 1717.25 579.572 1751.4 591.464C1772.63 598.868 1794.6 601.19 1817.89 597.919C1840.93 594.682 1861.96 588.065 1884.42 581.732C1961.4 559.696 2058.01 550.543 2135.14 585.017" stroke="#7B61FF" stroke-opacity="0.5" stroke-width="0.552088" stroke-miterlimit="10"/>
<path d="M-1040.35 -33.2712C-954.7 83.8202 -834.257 186.69 -692.445 246.787C-623.221 276.442 -552.517 285.542 -482.103 309.731C-401.969 337.259 -318.645 351.205 -234.163 358.373C-176.307 363.3 -117.833 364.922 -59.3173 365.171C56.0171 365.655 171.769 361.132 282.002 350.525C346.446 344.326 408.899 336.647 469.103 327.931C512.711 321.617 556.304 314.887 599.838 307.221C662.095 296.257 724.682 282.594 791.947 275.594C815.497 273.144 839.444 271.609 863.587 270.512C966.268 265.491 1074.58 254.561 1170.78 264.63C1195.77 267.248 1219.94 271.192 1243.3 276.852C1334.66 298.989 1422.13 341.419 1500.69 398.433C1514.16 408.179 1527.49 418.416 1540.77 428.97C1588.13 466.641 1634.9 508.336 1685.04 546.001C1714.91 568.46 1745.64 591.735 1780.31 603.971C1801.86 611.59 1824.15 614.201 1847.71 611.475C1871.17 608.756 1892.79 602.739 1915.78 596.87C1994.5 576.449 2091.81 566.959 2170.47 600.875" stroke="#7B61FF" stroke-opacity="0.5" stroke-width="0.552088" stroke-miterlimit="10"/>
<path d="M-1034.19 -30.283C-951.725 88.0873 -832.783 191.872 -691.832 251.734C-621.518 281.914 -549.717 290.441 -478.353 315.587C-397.365 344.124 -313.038 359.221 -227.493 367.196C-168.897 372.675 -109.655 374.701 -50.3654 375.051C66.49 375.731 183.763 370.212 295.436 357.451C360.729 349.986 423.989 340.651 485.008 330.024C529.275 322.31 573.44 314.039 617.478 304.798C680.53 291.572 743.804 275.614 812.011 267.207C835.864 264.266 860.128 262.355 884.6 261.009C988.822 254.931 1098.72 246.41 1196.29 259.474C1221.59 262.859 1246.08 267.611 1269.74 274.059C1362.04 299.205 1449.8 344.804 1528.25 404.632C1541.69 414.856 1554.99 425.571 1568.25 436.589C1615.53 475.908 1662.27 519.078 1712.78 557.557C1742.88 580.515 1774.03 603.897 1809.19 616.469C1831.06 624.304 1853.68 627.211 1877.5 625.024C1901.4 622.83 1923.61 617.411 1947.12 612.007C2027.61 593.195 2125.6 583.368 2205.77 616.732" stroke="#7B61FF" stroke-opacity="0.5" stroke-width="0.552088" stroke-miterlimit="10"/>
<path d="M-1028.04 -27.302C-948.744 92.347 -831.303 197.047 -691.207 256.673C-619.802 287.371 -546.897 295.334 -474.584 321.441C-392.741 350.989 -307.411 367.236 -220.803 376.02C-161.467 382.057 -101.457 384.48 -41.3873 384.924C76.9826 385.799 195.783 379.291 308.903 364.362C375.037 355.639 439.119 344.642 500.946 332.103C545.865 322.99 590.61 313.17 635.159 302.367C698.998 286.887 762.965 268.627 832.108 258.807C856.257 255.374 880.844 253.086 905.639 251.491C1011.4 244.357 1122.89 238.245 1221.83 254.311C1247.45 258.47 1272.23 264.023 1296.21 271.259C1389.46 299.412 1477.51 348.182 1555.84 410.83C1569.26 421.538 1582.54 432.731 1595.76 444.207C1642.96 485.182 1689.67 529.813 1740.55 569.119C1770.9 592.575 1802.44 616.065 1838.11 628.981C1860.3 637.03 1883.26 640.234 1907.33 638.585C1931.67 636.916 1954.46 632.09 1978.5 627.157C2060.73 609.96 2159.43 599.797 2241.11 632.595" stroke="#7B61FF" stroke-opacity="0.5" stroke-width="0.552088" stroke-miterlimit="10"/>
<path d="M-1021.88 -24.321C-945.762 96.6135 -829.822 202.229 -690.594 261.613C-618.1 292.836 -544.097 300.226 -470.836 327.29C-388.131 357.846 -301.805 375.245 -214.133 384.836C-154.056 391.425 -93.2795 394.252 -32.4355 394.797C87.4555 395.867 207.777 388.363 322.338 371.281C389.32 361.292 454.209 348.639 516.85 334.189C562.429 323.675 607.739 312.308 652.807 299.937C717.433 282.195 782.094 261.64 852.179 250.407C876.631 246.489 901.527 243.817 926.659 241.973C1033.96 233.782 1147.05 230.074 1247.36 249.141C1273.28 254.068 1298.37 260.428 1322.64 268.458C1416.86 299.62 1505.17 351.56 1583.4 417.021C1596.8 428.208 1610.04 439.878 1623.26 451.818C1670.38 494.443 1717.04 540.541 1768.31 580.675C1798.88 604.629 1830.85 628.219 1867.01 641.479C1889.53 649.744 1912.81 653.25 1937.14 652.126C1961.91 650.989 1985.3 646.755 2009.86 642.279C2093.85 626.698 2193.23 616.199 2276.43 648.438" stroke="#7B61FF" stroke-opacity="0.5" stroke-width="0.552088" stroke-miterlimit="10"/>
<path d="M-1015.73 -21.3315C-942.782 100.882 -828.343 207.413 -689.97 266.568C-616.385 298.309 -541.286 305.127 -467.075 333.16C-383.516 364.719 -296.187 383.276 -207.452 393.681C-146.641 400.829 -85.0838 404.053 -23.4658 404.692C97.9395 405.958 219.789 397.457 335.797 378.221C403.62 366.974 469.324 352.652 532.786 336.296C579.018 324.383 624.9 311.467 670.479 297.528C735.886 277.525 801.253 254.675 872.274 242.028C897.022 237.62 922.241 234.571 947.696 232.478C1056.53 223.23 1171.22 221.917 1272.9 243.994C1299.14 249.694 1324.54 256.856 1349.11 265.673C1444.29 299.83 1532.87 354.953 1610.98 423.235C1624.36 434.906 1637.58 447.048 1650.77 459.452C1697.81 503.726 1744.44 551.29 1796.09 592.246C1826.89 616.698 1859.26 640.396 1895.93 653.992C1918.76 662.466 1942.37 666.282 1966.97 665.69C1992.17 665.084 2016.15 661.436 2041.23 657.431C2126.98 643.465 2227.06 632.629 2311.77 664.303" stroke="#7B61FF" stroke-opacity="0.5" stroke-width="0.552088" stroke-miterlimit="10"/>
<path d="M-1009.57 -18.3501C-939.8 105.142 -826.861 212.595 -689.35 271.508C-614.681 303.774 -538.478 310.02 -463.318 339.009C-378.897 371.571 -290.579 391.285 -200.774 402.498C-139.223 410.198 -76.8982 413.819 -14.4995 414.566C108.427 416.026 231.791 406.536 349.245 385.133C417.917 372.621 484.428 356.636 548.705 338.376C595.59 325.056 642.05 310.599 688.141 295.098C754.336 272.834 820.396 247.695 892.352 233.628C917.403 228.735 942.939 225.309 968.724 222.967C1079.1 212.663 1195.39 213.74 1298.42 238.831C1324.98 245.299 1350.68 253.261 1375.55 262.873C1471.7 300.025 1560.55 358.332 1638.55 429.434C1651.9 441.582 1665.1 454.202 1678.26 467.071C1725.22 512.993 1771.81 562.025 1823.84 603.809C1854.88 628.759 1887.66 652.565 1924.82 666.497C1947.98 675.186 1971.92 679.312 1996.78 679.245C2022.4 679.177 2046.98 676.115 2072.58 672.568C2160.08 660.217 2260.86 649.038 2347.08 680.16" stroke="#7B61FF" stroke-opacity="0.5" stroke-width="0.552088" stroke-miterlimit="10"/>
<path d="M-1003.42 -15.3682C-936.823 109.41 -825.386 217.771 -688.729 276.448C-612.97 309.233 -535.609 314.759 -459.561 344.858C-374.218 378.261 -284.964 399.288 -194.096 411.315C-131.804 419.573 -68.7124 423.592 -5.53957 424.433C118.901 426.089 243.793 415.602 362.695 392.046C432.207 378.275 499.526 360.621 564.624 340.456C612.162 325.729 659.195 309.731 705.797 292.662C772.772 268.136 839.566 240.85 912.431 225.222C937.792 219.885 963.63 216.035 989.745 213.444C1101.65 202.082 1219.55 205.555 1323.94 233.662C1350.82 240.898 1376.82 249.667 1402 260.066C1499.12 300.214 1588.23 361.704 1666.12 435.619C1679.45 448.246 1692.61 461.35 1705.76 474.677C1752.64 522.248 1799.19 572.754 1851.6 615.358C1882.88 640.807 1916.06 664.714 1953.73 678.989C1977.21 687.894 2001.47 692.329 2026.6 692.787C2052.65 693.258 2077.82 690.781 2103.95 687.698C2193.2 676.963 2294.67 665.447 2382.41 696.011" stroke="#7B61FF" stroke-opacity="0.5" stroke-width="0.552088" stroke-miterlimit="10"/>
<path d="M-997.258 -12.3799C-933.836 113.677 -823.906 222.954 -688.111 281.395C-611.262 314.705 -532.804 319.672 -455.807 350.72C-369.609 385.14 -279.353 407.31 -187.42 420.146C-124.389 428.956 -60.5296 433.378 3.42397 434.32C129.386 436.171 255.799 424.695 376.141 398.978C446.502 383.942 514.622 364.625 580.54 342.556C628.731 326.423 676.302 308.795 723.456 290.246C791.166 263.337 858.713 233.864 932.507 216.836C958.164 211.007 984.325 206.78 1010.77 203.94C1124.22 191.522 1243.72 197.384 1349.47 228.507C1376.66 236.509 1402.98 246.08 1428.44 257.28C1526.54 300.416 1615.9 365.096 1693.68 441.831C1707 454.942 1720.13 468.518 1733.25 482.309C1780.06 531.529 1826.57 583.503 1879.36 626.928C1910.87 652.875 1944.46 676.889 1982.63 691.501C2006.44 700.621 2031.02 705.366 2056.41 706.342C2082.89 707.358 2108.66 705.454 2135.31 702.842C2226.32 693.722 2328.48 681.863 2417.73 711.868" stroke="#7B61FF" stroke-opacity="0.5" stroke-width="0.552088" stroke-miterlimit="10"/>
<path d="M-991.107 -9.39868C-930.862 117.937 -822.433 228.136 -687.5 286.342C-609.56 320.169 -530.005 324.578 -452.059 356.575C-365.006 392.018 -273.747 415.326 -180.751 428.976C-116.986 438.344 -52.3457 443.164 12.3818 444.2C139.865 446.246 267.799 433.774 389.588 405.903C460.79 389.609 529.718 368.616 596.464 344.648C645.301 327.109 693.451 307.947 741.123 287.829C809.62 258.666 877.861 226.884 952.597 208.449C978.556 202.129 1005.03 197.525 1031.8 194.436C1146.79 180.961 1267.9 189.206 1375.01 223.35C1402.51 232.12 1429.14 242.492 1454.9 254.486C1553.98 300.61 1643.59 368.481 1721.26 448.03C1734.55 461.619 1747.67 475.672 1760.76 489.927C1807.48 540.797 1853.96 594.238 1907.12 638.491C1938.87 664.935 1972.86 689.058 2011.54 704.006C2035.67 713.341 2060.57 718.403 2086.23 719.897C2113.13 721.465 2139.5 720.133 2166.68 717.979C2259.44 710.474 2362.29 698.278 2453.05 727.725" stroke="#7B61FF" stroke-opacity="0.5" stroke-width="0.552088" stroke-miterlimit="10"/>
<path d="M-984.948 -6.41772C-927.88 122.203 -820.952 233.311 -686.873 291.281C-607.843 325.634 -527.191 329.477 -448.296 362.43C-360.388 398.889 -268.126 423.341 -174.067 437.799C-109.561 447.726 -44.1544 452.942 21.3472 454.08C150.345 456.321 279.807 442.853 403.036 412.822C475.086 395.262 544.814 372.607 612.382 346.734C661.872 327.788 710.594 307.098 758.778 285.399C828.055 253.987 897.003 219.89 972.668 200.055C998.923 193.244 1025.72 188.264 1052.82 184.925C1169.35 170.394 1292.07 181.028 1400.52 218.188C1428.35 227.725 1455.28 238.897 1481.33 251.685C1581.4 300.792 1671.26 371.86 1748.83 454.228C1762.09 468.302 1775.18 482.826 1788.25 497.546C1834.89 550.071 1881.33 604.972 1934.87 650.053C1966.85 676.996 2001.25 701.219 2040.43 716.511C2064.88 726.055 2090.1 731.446 2116.03 733.452C2143.36 735.565 2170.33 734.805 2198.03 733.122C2292.55 727.233 2396.09 714.7 2488.37 743.581" stroke="#7B61FF" stroke-opacity="0.5" stroke-width="0.552088" stroke-miterlimit="10"/>
<path d="M-978.79 -3.42944C-924.899 126.47 -819.471 238.5 -686.254 296.228C-606.134 331.099 -524.385 334.384 -444.54 368.285C-355.778 405.761 -262.513 431.357 -167.384 446.622C-102.138 457.102 -35.9632 462.722 30.3191 463.96C160.838 466.39 291.82 451.939 416.497 419.747C489.389 400.929 559.877 376.49 628.313 348.834C678.415 328.4 727.75 306.257 776.452 282.982C846.517 249.323 916.158 212.904 992.765 191.669C1019.32 184.366 1046.43 179.009 1073.86 175.421C1191.92 159.834 1316.34 172.655 1426.06 213.039C1454.23 223.289 1481.45 235.317 1507.8 248.899C1608.85 300.993 1698.97 375.252 1776.41 460.433C1789.65 474.985 1802.71 489.994 1815.76 505.171C1862.32 559.346 1908.73 615.714 1962.65 661.616C1994.87 689.05 2029.68 713.388 2069.35 729.016C2094.12 738.775 2119.66 744.483 2145.87 747.007C2173.61 749.679 2201.18 749.484 2229.41 748.266C2325.68 743.992 2429.92 731.116 2523.71 759.445" stroke="#7B61FF" stroke-opacity="0.5" stroke-width="0.552088" stroke-miterlimit="10"/>
<path d="M-972.637 -0.447021C-921.916 130.731 -817.99 243.677 -685.634 301.169C-604.43 336.565 -521.577 339.291 -440.784 374.142C-351.167 412.634 -256.899 439.368 -160.706 455.447C-94.7198 466.485 -27.7779 472.502 39.2852 473.835C171.318 476.46 303.829 461.013 429.952 426.667C503.685 406.583 574.982 380.502 644.239 350.921C694.994 329.094 744.901 305.403 794.114 280.56C864.96 244.653 935.308 205.918 1012.85 183.277C1039.7 175.476 1067.14 169.748 1094.89 165.912C1214.49 149.267 1340.51 164.512 1451.59 207.877C1480.08 218.908 1507.63 231.676 1534.24 246.1C1636.4 300.974 1726.64 378.631 1803.98 466.633C1817.2 481.669 1830.23 497.149 1843.26 512.784C1889.74 568.608 1936.1 626.45 1990.41 673.174C2022.86 701.105 2058.07 725.551 2098.26 741.516C2123.35 751.49 2149.21 757.521 2175.68 760.55C2203.84 763.774 2232.02 764.144 2260.76 763.39C2358.79 760.731 2463.72 747.519 2559.03 775.289" stroke="#7B61FF" stroke-opacity="0.5" stroke-width="0.552088" stroke-miterlimit="10"/>
<path d="M-966.48 2.5354C-918.936 134.999 -816.51 248.853 -685.016 306.11C-602.722 342.024 -518.772 344.192 -437.022 379.991C-346.551 419.506 -251.287 447.378 -154.024 464.265C-87.3042 475.855 -19.5815 482.269 48.2488 483.709C181.803 486.529 315.835 470.087 443.398 433.58C517.979 412.237 590.084 384.508 660.155 353.002C711.563 329.788 762.049 304.549 811.774 278.125C883.407 239.969 954.448 198.919 1032.93 174.871C1060.08 166.579 1087.83 160.475 1115.91 156.389C1237.05 138.688 1364.67 156.362 1477.12 202.702C1505.92 214.507 1533.78 228.083 1560.69 243.294C1663.81 301.217 1754.32 381.997 1831.55 472.819C1844.75 488.333 1857.75 504.291 1870.76 520.391C1917.16 577.863 1963.49 637.173 2018.17 684.724C2050.86 713.154 2086.48 737.7 2127.16 754.008C2152.58 764.198 2178.74 770.552 2205.49 774.092C2234.07 777.875 2262.86 778.81 2292.13 778.521C2391.9 777.471 2497.52 763.929 2594.35 791.134" stroke="#7B61FF" stroke-opacity="0.5" stroke-width="0.552088" stroke-miterlimit="10"/>
<path d="M-960.328 5.52344C-915.96 139.266 -815.036 254.042 -684.396 311.064C-601.011 347.503 -515.965 349.105 -433.267 385.854C-341.94 426.385 -245.673 455.4 -147.347 473.102C-79.8866 485.25 -11.3966 492.062 57.2145 493.596C192.283 496.611 327.836 479.179 456.853 440.512C532.276 417.904 605.194 388.532 676.087 355.102C728.148 330.495 779.205 303.707 829.449 275.708C901.863 235.305 973.61 191.933 1053.02 166.485C1080.48 157.701 1108.54 151.226 1136.95 146.885C1259.63 128.127 1388.86 148.231 1502.66 197.553C1531.78 210.139 1559.95 224.522 1587.16 240.507C1691.25 301.479 1782.02 385.389 1859.14 479.031C1872.32 495.023 1885.29 511.459 1898.27 528.023C1944.59 587.144 1990.89 647.921 2045.95 696.293C2078.87 725.221 2114.9 749.875 2156.08 766.52C2181.82 776.925 2208.29 783.656 2235.33 787.654C2264.32 792.049 2293.72 793.489 2323.51 793.671C2425.04 794.236 2531.36 780.358 2629.7 807.004" stroke="#7B61FF" stroke-opacity="0.5" stroke-width="0.552088" stroke-miterlimit="10"/>
<path d="M-954.169 8.50562C-912.978 143.527 -813.555 259.219 -683.777 316.004C-599.302 352.962 -513.164 354.005 -429.511 391.71C-337.329 433.257 -240.06 463.417 -140.67 481.926C61.7778 519.63 273.568 508.996 470.301 447.432C602.637 406.019 727.293 343.088 847.103 273.279C920.304 230.627 992.745 184.94 1073.09 158.085C1220.81 108.717 1386.37 127.993 1528.18 192.384C1669.99 256.775 1789.53 363.502 1886.69 485.224C1974.88 595.679 2054.08 725.686 2184.97 779.019C2334.67 840.011 2508.61 781.987 2665 822.848" stroke="#7B61FF" stroke-opacity="0.5" stroke-width="0.552088" stroke-miterlimit="10"/>
</g>
</svg>
