<svg width="1440" height="824" viewBox="0 0 1440 824" fill="none" xmlns="http://www.w3.org/2000/svg">
<path d="M-1186 -84C-1046.37 11.3113 -900.403 98.6134 -743.979 162.735C-693.264 183.526 -641.15 201.941 -586.962 210.179C-476.467 226.978 -364.417 200.743 -252.704 197.223C-110.824 192.747 31.8499 226.393 157.428 292.393C251.918 342.057 358.227 414.094 465.114 432.173C562.216 448.595 666.674 359.24 752.663 324.376C840.739 288.671 939.247 281.065 1032.26 299.433C1080.99 309.057 1128.39 325.803 1172.09 349.454C1213.88 372.076 1250.28 414.175 1299.83 381.088C1316.2 370.151 1327.52 353.297 1341.6 339.52C1390.51 291.646 1476.04 287.903 1528.94 331.329" stroke="#7B61FF" stroke-opacity="0.5" stroke-width="0.552088" stroke-miterlimit="10"/>
<path d="M-1179.84 -81.0117C-1043.39 15.5784 -898.923 103.796 -743.36 167.682C-691.562 188.991 -638.344 206.847 -583.207 216.041C-516.676 227.046 -449.451 222.967 -382.011 217.165C-335.975 213.208 -289.837 208.442 -243.746 207.11C-152.696 204.485 -61.3218 215.846 25.7915 239.773C76.7282 253.766 126.198 272.066 173.345 294.493C206.466 310.168 240.906 328.327 276.228 346.008C325.906 370.803 377.347 394.63 429.617 409.888C448.381 415.387 467.247 419.782 486.133 422.669C564.207 434.555 646.912 384.217 721.304 347.186C741.247 337.211 760.591 328.192 779.106 321.583C855.208 294.169 938.203 287.291 1018.53 299.231C1032.36 301.284 1046.12 303.895 1059.76 307.058C1108.41 318.332 1155.77 336.545 1199.85 361.017C1225.96 375.515 1250.18 397.093 1276.82 403.911C1293.22 408.111 1310.46 406.637 1329.64 394.643C1346.4 384.164 1358.36 367.97 1372.96 354.664C1423.63 308.404 1509.85 304.326 1564.27 347.193" stroke="#7B61FF" stroke-opacity="0.5" stroke-width="0.552088" stroke-miterlimit="10"/>
<path d="M-1173.68 -78.0305C-1040.41 19.8452 -897.443 108.971 -742.735 172.622C-689.846 194.456 -635.531 211.753 -579.445 221.89C-512.059 233.91 -443.832 230.976 -375.329 225.982C-328.551 222.576 -281.639 218.208 -234.775 216.983C-142.203 214.547 -49.3081 224.918 39.2523 246.692C91.0302 259.419 141.307 276.077 189.276 296.579C223.05 310.868 258.062 327.478 293.902 343.578C344.361 366.125 396.509 387.636 449.714 401.494C468.781 406.502 487.957 410.52 507.179 413.158C586.788 423.988 671.101 376.08 746.847 342.03C767.105 332.836 786.772 324.679 805.57 318.796C882.709 294.66 965.898 290.683 1046.12 305.436C1059.92 307.967 1073.65 311.063 1087.28 314.684C1135.85 327.606 1183.17 347.286 1227.63 372.587C1253.97 387.582 1278.6 409.268 1305.74 416.423C1322.46 420.831 1339.99 419.579 1359.47 408.205C1376.63 398.183 1389.22 382.656 1404.34 369.814C1456.76 325.17 1543.67 320.755 1599.6 363.056" stroke="#7B61FF" stroke-opacity="0.5" stroke-width="0.552088" stroke-miterlimit="10"/>
<path d="M-1167.53 -75.0481C-1037.43 24.1064 -895.962 114.154 -742.122 177.563C-688.143 199.915 -632.731 216.654 -575.696 227.746C-507.455 240.79 -438.225 238.993 -368.658 234.806C-321.141 231.959 -273.462 227.988 -225.816 226.858C-131.73 224.616 -37.3076 233.992 52.693 253.605C105.319 265.074 156.35 280.217 205.194 298.659C239.587 311.649 275.211 326.618 311.556 341.142C362.803 361.442 415.644 380.637 469.784 393.089C489.148 397.605 508.646 401.246 528.192 403.642C609.342 413.415 695.338 368.139 772.362 336.862C792.958 328.496 812.914 321.119 832.008 315.99C910.129 295.004 993.575 294.055 1073.67 311.629C1087.46 314.644 1101.16 318.211 1114.76 322.297C1163.25 336.868 1210.53 358.016 1255.37 384.144C1281.94 399.638 1306.98 421.431 1334.62 428.922C1351.67 433.546 1369.49 432.523 1389.27 421.747C1406.82 412.19 1420.03 397.316 1435.68 384.938C1489.86 341.91 1577.46 337.151 1634.91 378.901" stroke="#7B61FF" stroke-opacity="0.5" stroke-width="0.552088" stroke-miterlimit="10"/>
<path d="M-1161.37 -72.0586C-1034.45 28.3747 -894.48 119.338 -741.502 182.518C-686.433 205.395 -629.95 221.683 -571.94 233.609C-502.871 247.804 -432.618 247.017 -361.981 243.645C-313.73 241.349 -265.277 237.782 -216.857 236.753C-121.25 234.706 -25.3061 243.093 66.1416 260.545C119.609 270.749 171.448 284.29 221.112 300.767C256.158 312.397 292.355 325.784 329.218 338.741C381.245 356.792 434.793 373.672 489.869 384.717C509.536 388.742 529.35 392.006 549.219 394.153C631.903 402.869 719.522 360.083 797.892 331.721C818.81 324.149 839.062 317.586 858.453 313.212C937.544 295.376 1021.25 297.455 1101.24 317.842C1115.01 321.335 1128.68 325.38 1142.25 329.93C1190.67 346.151 1237.91 368.766 1283.12 395.715C1309.94 411.706 1335.37 433.601 1363.52 441.435C1380.89 446.275 1399.01 445.48 1419.08 435.311C1437.04 426.218 1450.87 412.003 1467.04 400.09C1522.97 358.676 1611.27 353.581 1670.23 394.766" stroke="#7B61FF" stroke-opacity="0.5" stroke-width="0.552088" stroke-miterlimit="10"/>
<path d="M-1155.22 -69.0776C-1031.47 32.6412 -893.007 124.52 -740.883 187.457C-684.723 210.853 -627.151 226.609 -568.184 239.458C-498.268 254.696 -427.005 255.025 -355.304 252.461C-306.313 250.724 -257.092 247.554 -207.892 246.619C-110.771 244.768 -13.3058 252.158 79.589 267.457C133.904 276.402 186.544 288.328 237.03 302.846C272.722 313.11 309.47 325.016 346.879 336.303C399.653 352.235 453.955 366.537 509.946 376.31C529.922 379.796 550.04 382.731 570.245 384.629C654.471 392.288 743.697 351.986 823.42 326.551C844.655 319.773 865.217 314.025 884.904 310.404C964.957 295.698 1048.93 300.827 1128.82 324.034C1142.56 328.011 1156.2 332.528 1169.76 337.542C1218.09 355.418 1265.3 379.5 1310.89 407.27C1337.94 423.76 1363.79 445.762 1392.43 453.933C1410.13 458.988 1428.54 458.423 1448.9 448.858C1467.26 440.23 1481.71 426.675 1498.41 415.226C1556.09 375.428 1645.08 369.997 1705.56 410.622" stroke="#7B61FF" stroke-opacity="0.5" stroke-width="0.552088" stroke-miterlimit="10"/>
<path d="M-1149.06 -66.0896C-1028.49 36.908 -891.525 129.702 -740.263 192.404C-683.02 216.324 -624.35 231.535 -564.428 245.32C-493.663 261.601 -421.391 263.041 -348.627 261.291C-298.895 260.107 -248.901 257.34 -198.933 256.506C-100.291 254.85 -1.30458 261.251 93.0373 274.382C148.194 282.062 201.648 292.38 252.948 304.939C289.293 313.837 326.614 324.181 364.534 333.88C418.095 347.583 473.097 359.53 530.024 367.917C550.296 370.905 570.737 373.476 591.265 375.118C677.025 381.721 767.861 343.902 848.943 321.388C870.495 315.405 891.353 310.465 911.349 307.611C992.358 296.034 1076.61 304.212 1156.39 330.232C1170.1 334.688 1183.73 339.682 1197.26 345.154C1245.51 364.679 1292.67 390.228 1338.65 418.826C1365.94 435.814 1392.18 457.924 1421.33 466.432C1439.35 471.702 1458.08 471.372 1478.72 462.407C1497.49 454.249 1512.55 441.34 1529.77 430.356C1589.21 392.173 1678.89 386.399 1740.88 426.472" stroke="#7B61FF" stroke-opacity="0.5" stroke-width="0.552088" stroke-miterlimit="10"/>
<path d="M-1142.9 -63.1084C-1025.5 41.168 -890.045 134.877 -739.638 197.344C-681.304 221.782 -621.544 236.448 -560.666 251.168C-489.053 268.486 -415.771 271.05 -341.944 270.108C-291.472 269.482 -240.71 267.113 -189.962 266.372C-89.8047 264.912 10.7091 270.316 106.491 281.294C162.489 287.715 216.758 296.418 268.879 307.018C305.883 314.55 343.776 323.333 382.208 331.45C436.557 342.919 492.252 352.517 550.114 359.516C570.683 362.007 591.446 364.208 612.304 365.601C699.606 371.147 792.036 335.805 874.479 316.219C896.346 311.023 917.507 306.897 937.806 304.804C1019.76 296.343 1104.31 307.583 1183.97 336.424C1197.67 341.357 1211.26 346.836 1224.76 352.766C1272.93 373.94 1320.07 400.956 1366.42 430.376C1393.94 447.862 1420.6 470.079 1450.25 478.923C1468.58 484.402 1487.62 484.321 1508.54 475.942C1527.73 468.255 1543.4 455.999 1561.14 445.479C1622.33 408.905 1712.71 402.801 1776.22 442.309" stroke="#7B61FF" stroke-opacity="0.5" stroke-width="0.552088" stroke-miterlimit="10"/>
<path d="M-1136.75 -60.1274C-1022.53 45.4345 -888.57 140.059 -739.024 202.29C-679.6 227.254 -618.75 241.368 -556.916 257.03C-484.455 275.377 -410.164 279.072 -335.273 278.944C-284.067 278.87 -232.531 276.905 -181.002 276.265C-79.3243 275 22.7105 279.409 119.94 288.232C176.786 293.388 231.869 300.469 284.798 309.124C322.462 315.283 360.92 322.511 399.863 329.04C454.999 338.281 511.387 345.53 570.192 351.136C591.064 353.128 612.137 354.959 633.325 356.103C722.161 360.593 816.186 327.721 900.002 311.069C922.186 306.661 943.643 303.349 964.245 302.017C1047.15 296.659 1131.98 310.975 1211.52 342.635C1225.19 348.054 1238.76 354.003 1252.25 360.397C1300.34 383.221 1347.44 411.704 1394.17 441.951C1421.93 459.935 1448.99 482.254 1479.14 491.441C1497.8 497.135 1517.16 497.304 1538.35 489.51C1557.95 482.301 1574.23 470.684 1592.49 460.635C1655.44 425.677 1746.51 419.236 1811.52 458.186" stroke="#7B61FF" stroke-opacity="0.5" stroke-width="0.552088" stroke-miterlimit="10"/>
<path d="M-1130.59 -57.1392C-1019.55 49.7016 -887.09 145.242 -738.399 207.237C-677.884 232.719 -615.943 246.288 -553.147 262.885C-479.838 282.262 -404.537 287.088 -328.583 287.768C-276.637 288.253 -224.327 286.678 -172.031 286.139C-68.8384 285.069 34.7242 288.488 133.394 295.145C191.081 299.042 246.978 304.5 300.722 311.21C339.045 315.996 378.076 321.67 417.53 326.61C473.454 333.617 530.536 338.523 590.283 342.736C611.45 344.231 632.846 345.691 654.364 346.586C744.742 350.019 840.362 319.61 925.544 305.907C948.037 302.286 969.804 299.782 990.709 299.217C1074.55 296.955 1159.67 314.354 1239.11 348.828C1252.76 354.724 1266.3 361.151 1279.77 368.01C1327.77 392.482 1374.83 422.44 1421.95 453.508C1449.93 471.99 1477.41 494.416 1508.06 503.94C1527.04 509.849 1546.72 510.267 1568.18 503.058C1588.21 496.328 1605.09 485.357 1623.88 475.766C1688.57 442.423 1780.34 435.638 1846.87 474.029" stroke="#7B61FF" stroke-opacity="0.5" stroke-width="0.552088" stroke-miterlimit="10"/>
<path d="M-1124.44 -54.157C-1016.57 53.9626 -885.616 150.425 -737.787 212.178C-676.182 238.184 -613.151 251.201 -549.399 268.741C-475.235 289.148 -398.938 295.105 -321.907 296.592C-269.22 297.629 -216.143 296.458 -163.066 296.02C-58.3529 295.145 46.7309 297.568 146.848 302.071C205.383 304.703 262.095 308.532 316.645 313.304C355.629 316.71 395.231 320.836 435.197 324.194C491.915 328.959 549.684 331.531 610.366 334.357C631.83 335.353 653.549 336.444 675.39 337.09C767.302 339.466 864.511 311.514 951.072 300.758C973.882 297.925 995.945 296.229 1017.16 296.431C1101.94 297.252 1187.35 317.746 1266.69 355.04C1280.32 361.421 1293.83 368.32 1307.27 375.643C1355.19 401.764 1402.22 433.189 1449.7 465.078C1477.92 484.058 1505.81 506.592 1536.97 516.452C1556.27 522.577 1576.26 523.25 1597.99 516.621C1618.44 510.375 1635.94 500.077 1655.23 490.917C1721.75 459.33 1814.14 452.068 1882.19 489.9" stroke="#7B61FF" stroke-opacity="0.5" stroke-width="0.552088" stroke-miterlimit="10"/>
<path d="M-1118.29 -51.1758C-1013.59 58.2293 -884.13 155.6 -737.169 217.117C-674.474 243.643 -610.345 256.108 -545.645 274.59C-470.633 296.02 -393.326 303.114 -315.232 305.409C-261.805 307.004 -207.961 306.23 -154.103 305.887C-47.875 305.207 58.7367 306.634 160.294 308.983C219.67 310.356 277.21 312.55 332.562 315.384C372.205 317.409 412.379 319.981 452.85 321.757C510.356 324.281 568.817 324.524 630.442 325.951C652.208 326.455 674.237 327.169 696.414 327.566C789.868 328.885 888.665 303.383 976.6 295.582C999.719 293.529 1022.08 292.641 1043.61 293.624C1129.32 297.514 1215.04 321.118 1294.26 361.225C1307.86 368.084 1321.35 375.467 1334.76 383.248C1382.61 411.018 1429.6 443.91 1477.47 476.627C1505.92 496.106 1534.22 518.74 1565.87 528.944C1585.49 535.284 1605.81 536.22 1627.81 530.155C1648.69 524.401 1666.78 514.736 1686.6 506.033C1754.86 476.062 1847.95 468.463 1917.51 505.737" stroke="#7B61FF" stroke-opacity="0.5" stroke-width="0.552088" stroke-miterlimit="10"/>
<path d="M-1112.13 -48.1863C-1010.6 62.4976 -882.647 160.791 -736.541 222.072C-672.762 249.122 -607.537 261.029 -541.881 280.46C-466.021 302.913 -387.704 311.138 -308.546 314.247C-254.386 316.394 -199.767 316.024 -145.136 315.782C-37.3866 315.297 70.7462 315.735 173.75 315.923C233.975 316.031 292.329 316.596 348.495 317.491C388.797 318.137 429.544 319.154 470.526 319.349C528.826 319.632 587.974 317.545 650.534 317.572C672.597 317.579 694.949 317.922 717.449 318.077C812.437 318.339 912.823 295.28 1002.13 290.448C1025.56 289.176 1048.23 289.095 1070.06 290.852C1156.7 297.804 1242.72 324.525 1321.83 367.452C1335.41 374.795 1348.87 382.65 1362.27 390.895C1410.03 420.321 1456.99 454.673 1505.23 488.218C1533.92 508.195 1562.62 530.937 1594.78 541.477C1614.72 548.026 1635.37 549.231 1657.63 543.739C1678.94 538.482 1697.62 529.443 1717.97 521.205C1787.99 492.856 1881.77 484.907 1952.85 521.622" stroke="#7B61FF" stroke-opacity="0.5" stroke-width="0.552088" stroke-miterlimit="10"/>
<path d="M-1105.97 -45.2053C-1007.63 66.7574 -881.052 165.676 -735.928 227.012C-671.006 254.452 -604.737 265.928 -538.131 286.308C-461.417 309.777 -382.097 319.146 -301.876 323.07C-246.975 325.776 -191.583 325.803 -136.177 325.655C-26.9137 325.365 82.74 324.807 187.191 322.835C248.257 321.684 307.432 320.6 364.406 319.57C405.368 318.83 446.687 318.292 488.174 316.919C547.268 314.96 607.096 310.545 670.605 309.172C692.964 308.687 715.639 308.653 738.469 308.559C834.998 307.765 936.966 287.143 1027.65 285.278C1051.39 284.787 1074.36 285.514 1096.5 288.044C1184.08 298.053 1270.4 327.896 1349.39 373.637C1362.95 381.458 1376.39 389.79 1389.76 398.5C1437.44 429.574 1484.36 465.395 1532.98 499.761C1561.91 520.235 1591.02 543.085 1623.68 553.962C1643.94 560.726 1664.91 562.2 1687.43 557.273C1709.17 552.515 1728.45 544.102 1749.31 536.328C1821.08 509.601 1915.57 501.309 1988.15 537.465" stroke="#7B61FF" stroke-opacity="0.5" stroke-width="0.552088" stroke-miterlimit="10"/>
<path d="M-1099.81 -42.2229C-1004.64 71.0253 -879.571 170.853 -735.302 231.953C-669.289 259.912 -601.93 270.828 -534.369 292.158C-456.799 316.643 -376.477 327.156 -295.193 331.888C-239.551 335.146 -183.392 335.576 -127.205 335.529C-16.4206 335.428 94.7544 333.887 200.653 329.754C262.567 327.338 322.563 324.612 380.338 321.658C421.966 319.524 463.85 317.444 505.849 314.49C565.737 310.283 626.251 303.552 690.703 300.773C713.364 299.797 736.349 299.393 759.509 299.043C857.573 297.192 961.129 279.006 1053.2 280.11C1077.25 280.399 1100.52 281.934 1122.96 285.239C1211.49 298.289 1298.09 331.269 1376.98 379.83C1390.52 388.129 1403.92 396.939 1417.27 406.113C1464.88 438.837 1511.76 476.13 1560.76 511.318C1589.92 532.283 1619.44 555.241 1652.6 566.461C1673.19 573.441 1694.49 575.191 1717.26 570.823C1739.44 566.569 1759.3 558.768 1780.69 551.459C1854.21 526.347 1949.39 517.719 2023.5 553.31" stroke="#7B61FF" stroke-opacity="0.5" stroke-width="0.552088" stroke-miterlimit="10"/>
<path d="M-1093.66 -39.2358C-1001.66 75.2912 -878.099 176.041 -734.691 236.899C-667.588 265.375 -599.132 275.734 -530.622 298.019C-452.198 323.521 -370.872 335.178 -288.524 340.717C-232.143 344.534 -175.216 345.361 -118.255 345.408C-5.9564 345.503 106.746 342.965 214.092 336.679C276.847 333.004 337.664 328.629 396.247 323.75C438.535 320.23 480.991 316.595 523.501 312.065C584.177 305.604 645.384 296.565 710.771 292.378C733.729 290.911 757.037 290.131 780.52 289.531C880.125 286.624 985.263 270.861 1078.71 274.946C1103.07 276.01 1126.64 278.352 1149.4 282.444C1238.86 298.53 1325.77 334.653 1404.54 386.034C1418.06 394.818 1431.44 404.106 1444.76 413.737C1492.28 448.11 1539.12 486.871 1588.51 522.886C1617.91 544.35 1647.82 567.416 1681.49 578.972C1702.4 586.167 1724.03 588.2 1747.07 584.383C1769.68 580.634 1790.13 573.453 1812.05 566.608C1887.32 543.112 1983.19 534.14 2058.81 569.179" stroke="#7B61FF" stroke-opacity="0.5" stroke-width="0.552088" stroke-miterlimit="10"/>
<path d="M-1087.51 -36.2537C-998.683 79.5522 -876.74 181.507 -734.066 241.839C-665.926 270.976 -596.318 280.634 -526.859 303.868C-447.58 330.386 -365.259 343.188 -281.841 349.535C-224.726 353.903 -167.025 355.128 -109.284 355.283C4.5364 355.572 118.76 352.039 227.546 343.592C291.149 338.651 352.781 332.628 412.178 325.83C455.125 320.91 498.154 315.734 541.168 309.636C602.638 300.927 664.532 289.572 730.862 283.979C754.116 282.021 777.747 280.863 801.559 280.015C902.699 276.051 1009.42 262.711 1104.25 269.784C1128.93 271.629 1152.81 274.772 1175.86 279.645C1266.26 298.76 1353.46 338.032 1432.12 392.227C1445.61 401.488 1458.97 411.254 1472.27 421.35C1519.71 457.372 1566.52 497.6 1616.28 534.436C1645.92 556.398 1676.25 579.572 1710.4 591.464C1731.63 598.868 1753.6 601.19 1776.89 597.919C1799.93 594.682 1820.96 588.065 1843.42 581.732C1920.4 559.696 2017.01 550.543 2094.14 585.017" stroke="#7B61FF" stroke-opacity="0.5" stroke-width="0.552088" stroke-miterlimit="10"/>
<path d="M-1081.35 -33.2712C-995.701 83.8202 -875.258 186.69 -733.445 246.787C-664.222 276.442 -593.518 285.542 -523.103 309.731C-442.969 337.259 -359.645 351.205 -275.163 358.373C-217.308 363.3 -158.833 364.922 -100.318 365.171C15.0166 365.655 130.768 361.132 241.001 350.525C305.446 344.326 367.898 336.647 428.103 327.931C471.71 321.617 515.304 314.887 558.837 307.221C621.094 296.257 683.681 282.594 750.946 275.594C774.497 273.144 798.444 271.609 822.586 270.512C925.267 265.491 1033.58 254.561 1129.77 264.63C1154.77 267.248 1178.94 271.192 1202.3 276.852C1293.66 298.989 1381.13 341.419 1459.69 398.433C1473.16 408.179 1486.49 418.416 1499.77 428.97C1547.13 466.641 1593.9 508.336 1644.04 546.001C1673.91 568.46 1704.64 591.735 1739.31 603.971C1760.86 611.59 1783.15 614.201 1806.7 611.475C1830.17 608.756 1851.79 602.739 1874.78 596.87C1953.5 576.449 2050.81 566.959 2129.47 600.875" stroke="#7B61FF" stroke-opacity="0.5" stroke-width="0.552088" stroke-miterlimit="10"/>
<path d="M-1075.19 -30.283C-992.726 88.0873 -873.784 191.872 -732.833 251.734C-662.519 281.914 -590.717 290.441 -519.354 315.587C-438.365 344.124 -354.039 359.221 -268.493 367.196C-209.897 372.675 -150.655 374.701 -91.3659 375.051C25.4896 375.731 142.762 370.212 254.435 357.451C319.728 349.986 382.988 340.651 444.007 330.024C488.274 322.31 532.44 314.039 576.478 304.798C639.529 291.572 702.803 275.614 771.01 267.207C794.863 264.266 819.127 262.355 843.599 261.009C947.822 254.931 1057.72 246.41 1155.29 259.474C1180.59 262.859 1205.08 267.611 1228.74 274.059C1321.04 299.205 1408.8 344.804 1487.25 404.632C1500.69 414.856 1513.99 425.571 1527.25 436.589C1574.53 475.908 1621.27 519.078 1671.78 557.557C1701.88 580.515 1733.03 603.897 1768.19 616.469C1790.06 624.304 1812.68 627.211 1836.5 625.024C1860.4 622.83 1882.61 617.411 1906.12 612.007C1986.61 593.195 2084.6 583.368 2164.77 616.732" stroke="#7B61FF" stroke-opacity="0.5" stroke-width="0.552088" stroke-miterlimit="10"/>
<path d="M-1069.04 -27.302C-989.744 92.347 -872.303 197.047 -732.207 256.673C-660.802 287.371 -587.897 295.334 -515.584 321.441C-433.741 350.989 -348.411 367.236 -261.803 376.02C-202.467 382.057 -142.457 384.48 -82.3873 384.924C35.9826 385.799 154.783 379.291 267.903 364.362C334.037 355.639 398.119 344.642 459.946 332.103C504.865 322.99 549.61 313.17 594.159 302.367C657.998 286.887 721.965 268.627 791.108 258.807C815.257 255.374 839.844 253.086 864.639 251.491C970.396 244.357 1081.89 238.245 1180.83 254.311C1206.45 258.47 1231.23 264.023 1255.21 271.259C1348.46 299.412 1436.51 348.182 1514.84 410.83C1528.26 421.538 1541.54 432.731 1554.76 444.207C1601.96 485.182 1648.67 529.813 1699.55 569.119C1729.9 592.575 1761.44 616.065 1797.11 628.981C1819.3 637.03 1842.26 640.234 1866.33 638.585C1890.67 636.916 1913.46 632.09 1937.5 627.157C2019.73 609.96 2118.43 599.797 2200.11 632.595" stroke="#7B61FF" stroke-opacity="0.5" stroke-width="0.552088" stroke-miterlimit="10"/>
<path d="M-1062.88 -24.321C-986.762 96.6135 -870.821 202.229 -731.594 261.613C-659.099 292.836 -585.097 300.226 -511.835 327.29C-429.13 357.846 -342.805 375.245 -255.133 384.836C-195.056 391.425 -134.279 394.252 -73.435 394.797C46.456 395.867 166.778 388.363 281.338 371.281C348.32 361.292 413.209 348.639 475.85 334.189C521.43 323.675 566.74 312.308 611.807 299.937C676.434 282.195 741.094 261.64 811.179 250.407C835.631 246.489 860.527 243.817 885.659 241.973C992.957 233.782 1106.05 230.074 1206.36 249.141C1232.28 254.068 1257.37 260.428 1281.64 268.458C1375.86 299.62 1464.18 351.56 1542.4 417.021C1555.8 428.208 1569.04 439.878 1582.26 451.818C1629.38 494.443 1676.04 540.541 1727.31 580.675C1757.88 604.629 1789.85 628.219 1826.01 641.479C1848.53 649.744 1871.81 653.25 1896.14 652.126C1920.91 650.989 1944.3 646.755 1968.86 642.279C2052.85 626.698 2152.23 616.199 2235.43 648.438" stroke="#7B61FF" stroke-opacity="0.5" stroke-width="0.552088" stroke-miterlimit="10"/>
<path d="M-1056.73 -21.3315C-983.782 100.882 -869.343 207.413 -730.97 266.568C-657.385 298.309 -582.286 305.127 -508.075 333.16C-424.516 364.719 -337.187 383.276 -248.452 393.681C-187.641 400.829 -126.084 404.053 -64.4658 404.692C56.9395 405.958 178.789 397.457 294.797 378.221C362.62 366.974 428.324 352.652 491.786 336.296C538.018 324.383 583.9 311.467 629.479 297.528C694.886 277.525 760.253 254.675 831.274 242.028C856.022 237.62 881.241 234.571 906.696 232.478C1015.53 223.23 1130.22 221.917 1231.9 243.994C1258.14 249.694 1283.54 256.856 1308.11 265.673C1403.29 299.83 1491.87 354.953 1569.98 423.235C1583.36 434.906 1596.58 447.048 1609.77 459.452C1656.81 503.726 1703.44 551.29 1755.09 592.246C1785.89 616.698 1818.26 640.396 1854.93 653.992C1877.76 662.466 1901.37 666.282 1925.97 665.69C1951.17 665.084 1975.15 661.436 2000.23 657.431C2085.98 643.465 2186.06 632.629 2270.77 664.303" stroke="#7B61FF" stroke-opacity="0.5" stroke-width="0.552088" stroke-miterlimit="10"/>
<path d="M-1050.57 -18.3501C-980.8 105.142 -867.862 212.595 -730.35 271.508C-655.682 303.774 -579.479 310.02 -504.319 339.009C-419.898 371.571 -331.58 391.285 -241.774 402.498C-180.223 410.198 -117.899 413.819 -55.5 414.566C67.4265 416.026 190.79 406.536 308.245 385.133C376.917 372.621 443.428 356.636 507.704 338.376C554.589 325.056 601.05 310.599 647.141 295.098C713.335 272.834 779.396 247.695 851.352 233.628C876.403 228.735 901.939 225.309 927.723 222.967C1038.1 212.663 1154.39 213.74 1257.42 238.831C1283.98 245.299 1309.68 253.261 1334.55 262.873C1430.7 300.025 1519.55 358.332 1597.55 429.434C1610.9 441.582 1624.1 454.202 1637.26 467.071C1684.22 512.993 1730.81 562.025 1782.84 603.809C1813.88 628.759 1846.66 652.565 1883.82 666.497C1906.98 675.186 1930.92 679.312 1955.78 679.245C1981.4 679.177 2005.98 676.115 2031.58 672.568C2119.08 660.217 2219.86 649.038 2306.08 680.16" stroke="#7B61FF" stroke-opacity="0.5" stroke-width="0.552088" stroke-miterlimit="10"/>
<path d="M-1044.42 -15.3682C-977.824 109.41 -866.386 217.771 -729.73 276.448C-653.971 309.233 -576.61 314.759 -500.562 344.858C-415.218 378.261 -325.965 399.288 -235.096 411.315C-172.805 419.573 -109.713 423.592 -46.5401 424.433C77.9008 426.089 202.792 415.602 321.694 392.046C391.207 378.275 458.526 360.621 523.623 340.456C571.161 325.729 618.194 309.731 664.796 292.662C731.772 268.136 798.566 240.85 871.43 225.222C896.791 219.885 922.63 216.035 948.744 213.444C1060.65 202.082 1178.55 205.555 1282.94 233.662C1309.82 240.898 1335.82 249.667 1361 260.066C1458.12 300.214 1547.23 361.704 1625.12 435.619C1638.45 448.246 1651.61 461.35 1664.76 474.677C1711.64 522.248 1758.19 572.754 1810.6 615.358C1841.88 640.807 1875.06 664.714 1912.73 678.989C1936.21 687.894 1960.47 692.329 1985.6 692.787C2011.65 693.258 2036.82 690.781 2062.95 687.698C2152.2 676.963 2253.67 665.447 2341.41 696.011" stroke="#7B61FF" stroke-opacity="0.5" stroke-width="0.552088" stroke-miterlimit="10"/>
<path d="M-1038.26 -12.3799C-974.836 113.677 -864.906 222.954 -729.111 281.395C-652.262 314.705 -573.804 319.672 -496.807 350.72C-410.609 385.14 -320.353 407.31 -228.42 420.146C-165.389 428.956 -101.53 433.378 -37.576 434.32C88.3859 436.171 214.799 424.695 335.141 398.978C405.502 383.942 473.622 364.625 539.54 342.556C587.731 326.423 635.302 308.795 682.456 290.246C750.166 263.337 817.713 233.864 891.507 216.836C917.164 211.007 943.325 206.78 969.769 203.94C1083.22 191.522 1202.72 197.384 1308.47 228.507C1335.66 236.509 1361.98 246.08 1387.44 257.28C1485.54 300.416 1574.9 365.096 1652.68 441.831C1666 454.942 1679.13 468.518 1692.25 482.309C1739.06 531.529 1785.57 583.503 1838.36 626.928C1869.87 652.875 1903.46 676.889 1941.63 691.501C1965.44 700.621 1990.02 705.366 2015.41 706.342C2041.89 707.358 2067.66 705.454 2094.31 702.842C2185.32 693.722 2287.48 681.863 2376.73 711.868" stroke="#7B61FF" stroke-opacity="0.5" stroke-width="0.552088" stroke-miterlimit="10"/>
<path d="M-1032.11 -9.39868C-971.863 117.937 -863.434 228.136 -728.5 286.342C-650.561 320.169 -571.006 324.578 -493.059 356.575C-406.007 392.018 -314.747 415.326 -221.751 428.976C-157.986 438.344 -93.3462 443.164 -28.6187 444.2C98.8643 446.246 226.798 433.774 348.587 405.903C419.79 389.609 488.717 368.616 555.464 344.648C604.3 327.109 652.451 307.947 700.123 287.829C768.62 258.666 836.86 226.884 911.596 208.449C937.556 202.129 964.034 197.525 990.801 194.436C1105.79 180.961 1226.9 189.206 1334 223.35C1361.51 232.12 1388.14 242.492 1413.9 254.486C1512.98 300.61 1602.59 368.481 1680.26 448.03C1693.55 461.619 1706.67 475.672 1719.76 489.927C1766.48 540.797 1812.96 594.238 1866.12 638.491C1897.87 664.935 1931.86 689.058 1970.54 704.006C1994.67 713.341 2019.57 718.403 2045.23 719.897C2072.13 721.465 2098.5 720.133 2125.68 717.979C2218.44 710.474 2321.29 698.278 2412.05 727.725" stroke="#7B61FF" stroke-opacity="0.5" stroke-width="0.552088" stroke-miterlimit="10"/>
<path d="M-1025.95 -6.41772C-968.88 122.203 -861.952 233.311 -727.873 291.281C-648.843 325.634 -568.191 329.477 -489.296 362.43C-401.388 398.889 -309.126 423.341 -215.067 437.799C-150.561 447.726 -85.1544 452.942 -19.6528 454.08C109.345 456.321 238.807 442.853 362.036 412.822C434.086 395.262 503.814 372.607 571.382 346.734C620.872 327.788 669.594 307.098 717.778 285.399C787.055 253.987 856.003 219.89 931.668 200.055C957.923 193.244 984.725 188.264 1011.82 184.925C1128.35 170.394 1251.07 181.028 1359.52 218.188C1387.35 227.725 1414.28 238.897 1440.33 251.685C1540.4 300.792 1630.26 371.86 1707.83 454.228C1721.09 468.302 1734.18 482.826 1747.25 497.546C1793.89 550.071 1840.33 604.972 1893.87 650.053C1925.85 676.996 1960.25 701.219 1999.43 716.511C2023.88 726.055 2049.1 731.446 2075.03 733.452C2102.36 735.565 2129.33 734.805 2157.03 733.122C2251.55 727.233 2355.09 714.7 2447.37 743.581" stroke="#7B61FF" stroke-opacity="0.5" stroke-width="0.552088" stroke-miterlimit="10"/>
<path d="M-1019.79 -3.42944C-965.898 126.47 -860.471 238.5 -727.253 296.228C-647.133 331.099 -565.384 334.384 -485.54 368.285C-396.778 405.761 -303.513 431.357 -208.383 446.622C-143.137 457.102 -76.9627 462.722 -10.6804 463.96C119.838 466.39 250.821 451.939 375.497 419.747C448.389 400.929 518.878 376.49 587.314 348.834C637.416 328.4 686.751 306.257 735.453 282.982C805.518 249.323 875.159 212.904 951.765 191.669C978.324 184.366 1005.43 179.009 1032.86 175.421C1150.92 159.834 1275.34 172.655 1385.06 213.039C1413.23 223.289 1440.45 235.317 1466.8 248.899C1567.85 300.993 1657.97 375.252 1735.41 460.433C1748.65 474.985 1761.71 489.994 1774.76 505.171C1821.32 559.346 1867.73 615.714 1921.65 661.616C1953.87 689.05 1988.68 713.388 2028.35 729.016C2053.12 738.775 2078.67 744.483 2104.87 747.007C2132.61 749.679 2160.19 749.484 2188.41 748.266C2284.68 743.992 2388.92 731.116 2482.71 759.445" stroke="#7B61FF" stroke-opacity="0.5" stroke-width="0.552088" stroke-miterlimit="10"/>
<path d="M-1013.64 -0.447021C-962.916 130.731 -858.99 243.677 -726.634 301.169C-645.43 336.565 -562.577 339.291 -481.784 374.142C-392.167 412.634 -297.899 439.368 -201.706 455.447C-135.72 466.485 -68.7779 472.502 -1.71484 473.835C130.318 476.46 262.829 461.013 388.952 426.667C462.685 406.583 533.982 380.502 603.239 350.921C653.994 329.094 703.901 305.403 753.114 280.56C823.96 244.653 894.308 205.918 971.85 183.277C998.705 175.476 1026.14 169.748 1053.89 165.912C1173.49 149.267 1299.51 164.512 1410.59 207.877C1439.08 218.908 1466.63 231.676 1493.24 246.1C1595.4 300.974 1685.64 378.631 1762.98 466.633C1776.2 481.669 1789.23 497.149 1802.26 512.784C1848.74 568.608 1895.1 626.45 1949.41 673.174C1981.86 701.105 2017.07 725.551 2057.26 741.516C2082.35 751.49 2108.21 757.521 2134.68 760.55C2162.84 763.774 2191.02 764.144 2219.76 763.39C2317.79 760.731 2422.72 747.519 2518.03 775.289" stroke="#7B61FF" stroke-opacity="0.5" stroke-width="0.552088" stroke-miterlimit="10"/>
<path d="M-1007.48 2.5354C-959.935 134.999 -857.51 248.853 -726.015 306.11C-643.721 342.024 -559.771 344.192 -478.022 379.991C-387.55 419.506 -292.286 447.378 -195.023 464.265C-128.304 475.855 -60.5811 482.269 7.24925 483.709C140.803 486.529 274.835 470.087 402.399 433.58C476.98 412.237 549.084 384.508 619.156 353.002C670.563 329.788 721.049 304.549 770.774 278.125C842.407 239.969 913.448 198.919 991.926 174.871C1019.08 166.579 1046.83 160.475 1074.91 156.389C1196.05 138.688 1323.67 156.362 1436.12 202.702C1464.92 214.507 1492.79 228.083 1519.69 243.294C1622.81 301.217 1713.32 381.997 1790.55 472.819C1803.75 488.333 1816.75 504.291 1829.76 520.391C1876.16 577.863 1922.49 637.173 1977.17 684.724C2009.86 713.154 2045.48 737.7 2086.16 754.008C2111.58 764.198 2137.75 770.552 2164.49 774.092C2193.07 777.875 2221.86 778.81 2251.13 778.521C2350.9 777.471 2456.52 763.929 2553.35 791.134" stroke="#7B61FF" stroke-opacity="0.5" stroke-width="0.552088" stroke-miterlimit="10"/>
<path d="M-1001.33 5.52344C-956.96 139.266 -856.036 254.042 -725.396 311.064C-642.011 347.503 -556.965 349.105 -474.267 385.854C-382.94 426.385 -286.673 455.4 -188.347 473.102C-120.887 485.25 -52.3966 492.062 16.2145 493.596C151.283 496.611 286.836 479.179 415.853 440.512C491.276 417.904 564.194 388.532 635.087 355.102C687.148 330.495 738.205 303.707 788.449 275.708C860.863 235.305 932.61 191.933 1012.02 166.485C1039.48 157.701 1067.54 151.226 1095.95 146.885C1218.63 128.127 1347.86 148.231 1461.66 197.553C1490.78 210.139 1518.95 224.522 1546.16 240.507C1650.25 301.479 1741.02 385.389 1818.14 479.031C1831.32 495.023 1844.29 511.459 1857.27 528.023C1903.59 587.144 1949.89 647.921 2004.95 696.293C2037.87 725.221 2073.9 749.875 2115.08 766.52C2140.82 776.925 2167.29 783.656 2194.33 787.654C2223.32 792.049 2252.72 793.489 2282.51 793.671C2384.04 794.236 2490.36 780.358 2588.7 807.004" stroke="#7B61FF" stroke-opacity="0.5" stroke-width="0.552088" stroke-miterlimit="10"/>
<path d="M-995.169 8.50562C-953.978 143.527 -854.555 259.219 -724.777 316.004C-640.302 352.962 -554.164 354.005 -470.511 391.71C-378.329 433.257 -281.06 463.417 -181.67 481.926C20.7778 519.63 232.568 508.996 429.301 447.432C561.637 406.019 686.293 343.088 806.103 273.279C879.304 230.627 951.745 184.94 1032.09 158.085C1179.81 108.717 1345.37 127.993 1487.18 192.384C1628.99 256.775 1748.53 363.502 1845.69 485.224C1933.88 595.679 2013.08 725.686 2143.97 779.019C2293.67 840.011 2467.61 781.987 2624 822.848" stroke="#7B61FF" stroke-opacity="0.5" stroke-width="0.552088" stroke-miterlimit="10"/>
</svg>
